<svg id="Capa_1" enable-background="new 0 0 512 512" height="512" viewBox="0 0 512 512" width="512" xmlns="http://www.w3.org/2000/svg"><g><g><path d="m383.426 484.426h-255c-16.569 0-21.426-14.304-21.426-30.872l-6.17-412.596c0-11.91 4.611-25.657 14.668-30.501 3.934-1.895 8.344-2.957 13.002-2.957h67.5l6.617 2.96 8.383-2.96h90l5.447 3.67 9.553-3.67h67.5c16.569 0 30 13.431 30 30l-.016 86.75-2.953 8.622 2.95 6.378-.02 109.25-5.101 9.351 5.098 5.649-.006 35.42-4.709 11.314 4.681 144.191c.002 16.569-13.43 30.001-29.998 30.001z" fill="#a36b5b"/><g fill="#8e5644"><path d="m268.5 226h-25c-5.523 0-10-4.477-10-10v-44.25c0-5.523 4.477-10 10-10h25c5.523 0 10 4.477 10 10v44.25c0 5.523-4.477 10-10 10z"/><path d="m373.5 226h-25c-5.523 0-10-4.477-10-10v-44.25c0-5.523 4.477-10 10-10h25c5.523 0 10 4.477 10 10v44.25c0 5.523-4.477 10-10 10z"/><path d="m163.5 226h-25c-5.523 0-10-4.477-10-10v-44.25c0-5.523 4.477-10 10-10h25c5.523 0 10 4.477 10 10v44.25c0 5.523-4.477 10-10 10z"/><path d="m268.5 101.75h-25c-5.523 0-10-4.477-10-10v-44.25c0-5.523 4.477-10 10-10h25c5.523 0 10 4.477 10 10v44.25c0 5.523-4.477 10-10 10z"/><path d="m373.5 101.75h-25c-5.523 0-10-4.477-10-10v-44.25c0-5.523 4.477-10 10-10h25c5.523 0 10 4.477 10 10v44.25c0 5.523-4.477 10-10 10z"/><path d="m163.5 101.75h-25c-5.523 0-10-4.477-10-10v-44.25c0-5.523 4.477-10 10-10h25c5.523 0 10 4.477 10 10v44.25c0 5.523-4.477 10-10 10z"/><path d="m268.5 350.25h-25c-5.523 0-10-4.477-10-10v-44.25c0-5.523 4.477-10 10-10h25c5.523 0 10 4.477 10 10v44.25c0 5.523-4.477 10-10 10z"/><path d="m373.5 350.25h-25c-5.523 0-10-4.477-10-10v-44.25c0-5.523 4.477-10 10-10h25c5.523 0 10 4.477 10 10v44.25c0 5.523-4.477 10-10 10z"/><path d="m173.5 350.25h-45v-54.25c0-5.523 4.477-10 10-10h25c5.523 0 10 4.477 10 10z"/><path d="m115.5 406.742c14.577-6.875 36.859-10.052 68.86-10.052 16.51 0 33.95.76 52.41 1.56 19.19.84 39.03 1.7 58.58 1.7 37.22 0 82.13-2.84 118.15-21.92v-79.11l-3.85.05c-96.883 1.358-193.668 13.308-287.999 35.538-3.142.74-6.151-1.631-6.151-4.858v-319.19c-10.06 4.84-17 15.13-17 27.04v86.75l3.688 7.5-3.688 7.5v109.25l3.181 8.798-3.181 6.202v76.67 80.56z"/></g><g fill="#824d3f"><path d="m278.5 307.29v32.96c0 5.52-4.48 10-10 10h-25c-5.52 0-10-4.48-10-10v-27.11c14.97-2.21 29.97-4.16 45-5.85z"/><path d="m383.5 299.6v40.65c0 5.52-4.48 10-10 10h-25c-5.52 0-10-4.48-10-10v-38.37z"/><path d="m173.5 323.38v26.87h-45v-17.33c14.94-3.44 29.95-6.62 45-9.54z"/><path d="m383.5 299.6-45 2.28c14.99-1.02 29.99-1.78 45-2.28z"/></g><path d="m424.574 353.809 1.086 16.911v43.78l-4.98 19.138 4.98 10.862v25c0 6.583-1.817 12.742-4.978 18.001-6.12 10.185-21.318 14.903-34.065 14.903l-262.468-1.191c-19.33 0-35-15.67-35-35l-1.755-57.777c50.68-67.64 252.551 19.913 337.18-54.627z" fill="#c5b9ef"/><path d="m420.68 487.5c-6.12 10.19-17.27 17-30.02 17h-269.32c-19.33 0-35-15.67-35-35v-24.372l3.639-18.258-3.639-12.37v-5.88c4.51-6.02 10.25-10.86 17-14.7v75.58c0 9.92 8.07 18 18 18z" fill="#afa0ea"/><path d="m425.66 349.24v21.48c-37.65 25.69-88.77 29.23-130.31 29.23-19.55 0-39.39-.86-58.58-1.7-18.46-.8-35.9-1.56-52.41-1.56-46.91 0-72.95 6.82-84.42 22.12l-10.344 17.381-3.256-21.691v-5.88c12.764-17.035 34.317-30.851 61.979-34.046 63.294-7.31 155.203 15.202 222.979-1.824 20.214-5.078 39.816-10.698 54.362-23.51z" fill="#afa0ea"/><path d="m425.66 414.5v30h-339.32l3.383-15-3.383-15z" fill="#f8f7f7"/><path d="m86.34 414.5h17v30h-17z" fill="#e8e8e8"/><path d="m425.66 327.92v21.32c-77.093 67.902-253.251 5.239-322.325 44.671-3.047 1.739-5.883.549-8.495 2.706-3.177 2.623-6.023 8.697-8.5 12.003l1-37.51c0-5.5 3.74-10.3 9.08-11.64l6.92-2.989 3.39-.851c99.18-24.92 200.91-38.23 303.16-39.66l3.6-.05c6.69-.09 12.17 5.31 12.17 12z" fill="#e3d2ff"/><path d="m103.34 356.48v37.44c-6.75 3.84-12.49 8.68-17 14.7v-38.51c0-5.5 3.74-10.3 9.08-11.64z" fill="#c5b9ef"/></g><g><path d="m268.5 154.25h-25c-9.649 0-17.5 7.851-17.5 17.5v44.25c0 9.649 7.851 17.5 17.5 17.5h25c9.649 0 17.5-7.851 17.5-17.5v-44.25c0-9.649-7.851-17.5-17.5-17.5zm2.5 61.75c0 1.379-1.122 2.5-2.5 2.5h-25c-1.378 0-2.5-1.121-2.5-2.5v-44.25c0-1.379 1.122-2.5 2.5-2.5h25c1.378 0 2.5 1.121 2.5 2.5z"/><path d="m348.5 233.5h25c9.649 0 17.5-7.851 17.5-17.5v-44.25c0-9.649-7.851-17.5-17.5-17.5h-25c-9.649 0-17.5 7.851-17.5 17.5v44.25c0 9.649 7.851 17.5 17.5 17.5zm-2.5-61.75c0-1.379 1.122-2.5 2.5-2.5h25c1.378 0 2.5 1.121 2.5 2.5v44.25c0 1.379-1.122 2.5-2.5 2.5h-25c-1.378 0-2.5-1.121-2.5-2.5z"/><path d="m138.5 233.5h25c9.649 0 17.5-7.851 17.5-17.5v-44.25c0-9.649-7.851-17.5-17.5-17.5h-25c-9.649 0-17.5 7.851-17.5 17.5v44.25c0 9.649 7.851 17.5 17.5 17.5zm-2.5-61.75c0-1.379 1.122-2.5 2.5-2.5h25c1.378 0 2.5 1.121 2.5 2.5v44.25c0 1.379-1.122 2.5-2.5 2.5h-25c-1.378 0-2.5-1.121-2.5-2.5z"/><path d="m268.5 30h-25c-9.649 0-17.5 7.851-17.5 17.5v44.25c0 9.649 7.851 17.5 17.5 17.5h25c9.649 0 17.5-7.851 17.5-17.5v-44.25c0-9.649-7.851-17.5-17.5-17.5zm2.5 61.75c0 1.379-1.122 2.5-2.5 2.5h-25c-1.378 0-2.5-1.121-2.5-2.5v-44.25c0-1.379 1.122-2.5 2.5-2.5h25c1.378 0 2.5 1.121 2.5 2.5z"/><path d="m348.5 109.25h25c9.649 0 17.5-7.851 17.5-17.5v-44.25c0-9.649-7.851-17.5-17.5-17.5h-25c-9.649 0-17.5 7.851-17.5 17.5v44.25c0 9.649 7.851 17.5 17.5 17.5zm-2.5-61.75c0-1.379 1.122-2.5 2.5-2.5h25c1.378 0 2.5 1.121 2.5 2.5v44.25c0 1.379-1.122 2.5-2.5 2.5h-25c-1.378 0-2.5-1.121-2.5-2.5z"/><path d="m163.5 109.25c9.649 0 17.5-7.851 17.5-17.5v-44.25c0-9.649-7.851-17.5-17.5-17.5h-25c-9.649 0-17.5 7.851-17.5 17.5v44.25c0 9.649 7.851 17.5 17.5 17.5zm-27.5-17.5v-44.25c0-1.379 1.122-2.5 2.5-2.5h25c1.378 0 2.5 1.121 2.5 2.5v44.25c0 1.379-1.122 2.5-2.5 2.5h-25c-1.378 0-2.5-1.121-2.5-2.5z"/><path d="m427.351 314.034c-1.856-1.83-4.01-3.24-6.351-4.19v-272.344c0-20.678-16.822-37.5-37.5-37.5h-255c-20.678 0-37.5 16.822-37.5 37.5v13.585c0 4.143 3.358 7.5 7.5 7.5s7.5-3.357 7.5-7.5v-13.585c0-12.406 10.093-22.5 22.5-22.5h67.5v109.25h-90v-37.931c0-4.143-3.358-7.5-7.5-7.5s-7.5 3.357-7.5 7.5v265.738c-7.272 2.949-12.16 10.02-12.16 18.051v99.392c0 23.435 19.065 42.5 42.5 42.5h269.32c23.435 0 42.5-19.065 42.5-42.5v-141.581c0-5.261-2.063-10.191-5.809-13.885zm-80.595 65.895c-.461-4.116-4.171-7.091-8.288-6.619-31.526 3.527-66.42 1.971-100.167.464-58.63-2.617-114.491-5.104-144.461 20.273v-23.938c0-2.066 1.4-3.861 3.404-4.365l11.314-2.842c98.484-24.743 199.903-38.01 301.441-39.432.092 0 2.563-.038 3.663-.051 1.189 0 2.309.459 3.158 1.296.864.853 1.34 1.99 1.34 3.204v14.265c-11.935 11.335-27.234 19.515-46.68 24.956-3.989 1.116-6.318 5.254-5.202 9.243.927 3.313 3.939 5.481 7.219 5.481.668 0 1.349-.09 2.024-.279 16.718-4.677 30.792-11.251 42.639-19.916v45.331h-316.228c25.005-23.175 78.96-20.771 135.7-18.241 34.322 1.532 69.813 3.116 102.503-.543 4.118-.46 7.081-4.171 6.621-8.287zm-38.256-196.492c4.142 0 7.5-3.357 7.5-7.5v-36.687h90v109.25h-90v-37.585c0-4.143-3.358-7.5-7.5-7.5s-7.5 3.357-7.5 7.5v37.585h-90v-109.25h90v36.687c0 4.142 3.358 7.5 7.5 7.5zm67.5 125.948c-10.005.396-20.006.905-30 1.527v-14.912c0-1.379 1.122-2.5 2.5-2.5h25c1.378 0 2.5 1.121 2.5 2.5zm-2.5-30.885h-25c-9.649 0-17.5 7.851-17.5 17.5v15.929c-5.002.369-10.002.766-15 1.191v-49.62h90v45.039c-5 .084-10.001.19-15 .331v-12.87c0-9.649-7.851-17.5-17.5-17.5zm-72.5-15v50.983c-5.003.483-10.003.99-15 1.529v-20.012c0-9.649-7.851-17.5-17.5-17.5h-25c-9.649 0-17.5 7.851-17.5 17.5v27.873c-5.005.771-10.005 1.574-15 2.402v-62.775zm-30 54.222c-10.015 1.196-20.015 2.505-30 3.929v-25.651c0-1.379 1.122-2.5 2.5-2.5h25c1.378 0 2.5 1.121 2.5 2.5zm-75 11.131c-5.005.889-10.006 1.803-15 2.749v-35.602c0-9.649-7.851-17.5-17.5-17.5h-25c-9.649 0-17.5 7.851-17.5 17.5v48.423c-5.007 1.191-10.008 2.409-15 3.658v-84.581h90zm-30 5.688c-10.025 2.02-20.026 4.155-30 6.406v-44.947c0-1.379 1.122-2.5 2.5-2.5h25c1.378 0 2.5 1.121 2.5 2.5zm240-297.041v86.75h-90v-109.25h67.5c12.407 0 22.5 10.094 22.5 22.5zm-195-22.5h90v109.25h-90zm-15 124.25v109.25h-90v-109.25zm194.66 357.75h-269.32c-15.164 0-27.5-12.337-27.5-27.5v-17.5h94.138c4.142 0 7.5-3.357 7.5-7.5s-3.358-7.5-7.5-7.5h-94.138v-15h324.32v15h-195.287c-4.142 0-7.5 3.357-7.5 7.5s3.358 7.5 7.5 7.5h195.287v17.5c0 15.163-12.337 27.5-27.5 27.5z"/></g></g></svg>