<svg id="Capa_1" enable-background="new 0 0 511.962 511.962" height="512" viewBox="0 0 511.962 511.962" width="512" xmlns="http://www.w3.org/2000/svg"><g><g><g><path d="m450.668 304.508-167.073-76.285-75.395-167.048c-8.659-18.599-3.301-40.996 14.747-49.854 1.008-.495 2.047-.949 3.116-1.359 16.568-6.363 35.326-.198 44.891 14.752l11.148 17.425 63.715 118.666 129.567 73.411 11.26 7.283c14.842 9.6 20.93 28.285 14.593 44.786-.411 1.07-.865 2.11-1.36 3.118-8.881 18.096-30.593 23.863-49.209 15.105z" fill="#ffc269"/><path d="m483.311 293.279c-5.32 0-10.73-1.15-15.88-3.57l-5.031-2.367c-1.808-.851-2.711-2.905-2.115-4.812l15.096-48.311-120.09-77.69-73.19-114.39-50.841 12.515c-1.856.457-3.776-.463-4.582-2.196l-4.106-8.819c-4.99-10.73-4.45-22.54.38-32.31-18.05 8.85-26.04 30.71-17.38 49.31l.223.479c-.001 0-.002.001-.003.001l77.8 167.1 166.84 78.49c.66.31 1.32.6 1.98.87.001-.002.002-.005.002-.007 4.546 1.831 9.256 2.707 13.898 2.707 13.89 0 27.14-7.79 33.56-20.88-5.111 2.53-10.781 3.88-16.561 3.88z" fill="#ffa95f"/><path d="m395.988 315.472-136.315-63.326-63.6-134.802c-5.169-10.776-2.972-22.235 4.149-30.511 2.453-2.851 4.577-5.585 8.1-7.315 1.824-.896 3.777-1.613 5.847-2.122l79.928-19.668c11.595-2.853 23.744 1.775 30.502 11.619l14.186 20.665 28.139 54.522 54.443 29.309 27.223 19.308c10.137 7.19 14.491 20.091 10.784 31.953l-23.496 75.173c-.453 1.451-1.009 2.837-1.657 4.154-6.804 13.84-23.84 17.946-38.233 11.041z" fill="#ffc269"/><path d="m409.091 304.589-41.466-19.891c-2.572-1.234-3.592-4.367-2.24-6.879l55.986-103.981-48.79-34.6-33.79-49.23-104.788 56.424c-2.512 1.353-5.645.332-6.879-2.24l-18.963-39.534c-4.02-8.38-3.59-17.57.16-25.14-13.75 6.75-20.11 23.65-13.16 38.14l18.942 39.489-.001.001 45.57 95 136.42 65.44c14.4 6.9 31.33.68 38.12-13.16-7.581 3.751-16.771 4.161-25.121.161z" fill="#ffa95f"/><path d="m298.839 300.792c-38.676-20.111-68.314-49.92-88.426-88.596-7.234-13.912-2.912-30.098 10.894-37.532l1.901-1.971 127.946-68.894c12.268-6.606 27.417-4.383 37.27 5.47l14.126 14.126c9.853 9.853 12.076 25.001 5.47 37.269l-70.117 130.218c-7.434 13.806-25.153 17.144-39.064 9.91z" fill="#ffc269"/><path d="m313.411 289.729c-1.424-.74-2.837-1.498-4.24-2.27-1.926-1.06-2.64-3.473-1.598-5.409l27.358-50.801c7.31-13.57 4.89-30.01-6-40.91l-7.45-7.45c-6.54-6.54-15.24-10.14-24.5-10.14-5.71 0-11.38 1.43-16.41 4.14l-50.454 27.167c-1.952 1.051-4.373.308-5.43-1.641-.54-.997-1.073-1.998-1.597-3.006-2.2-4.23-3.24-8.76-3.24-13.22 0-4.71 1.16-9.35 3.36-13.49l-2.27 1.22c-9.61 5.17-15.09 15.05-15.09 25.27.097 4.207 1.198 10.105 4.491 15.57 0 0 0 0-.001 0 10.116 19.693 29.064 44.025 48.088 60.128 1.843 2.517 29.078 22.567 40.982 27.842 13.91 7.24 31.06 1.96 38.49-11.85l.15-.28c-7.649 3.32-16.679 3.27-24.639-.87z" fill="#ffa95f"/><path d="m261.824 295.617c-20.391-10.603-35.019-25.232-45.622-45.622-3.814-7.335-1.031-16.373 6.247-20.292l10.054-6.491 56.6-30.477c6.468-3.483 14.455-2.311 19.649 2.884l7.448 7.448c5.194 5.194 6.367 13.181 2.884 19.649l-30.479 56.604-6.488 10.049c-3.92 7.28-12.958 10.062-20.293 6.248z" fill="#ffc269"/><path d="m288.601 279.319-6.49 12.05c-3.91 7.28-12.95 10.06-20.29 6.25-20.39-10.61-37.02-27.23-47.62-47.62-1.16-2.23-1.71-4.62-1.71-6.97 0-5.39 2.89-10.6 7.96-13.33l12.05-6.49c.02 2.29.57 4.62 1.7 6.79 10.6 20.39 27.23 37.01 47.62 47.62 2.17 1.13 4.49 1.68 6.78 1.7z" fill="#ffa95f"/></g><g><path d="m266.615 488.562-167.073-76.286-75.395-167.048c-8.659-18.599-3.301-40.996 14.747-49.854 1.008-.495 2.047-.949 3.116-1.359 16.568-6.363 35.326-.198 44.891 14.752l11.148 17.425 63.715 118.666 129.567 73.411 11.26 7.283c14.842 9.6 20.93 28.285 14.593 44.786-.411 1.07-.865 2.11-1.36 3.118-8.882 18.096-30.593 23.863-49.209 15.106z" fill="#ffc269"/><path d="m299.258 477.332c-5.32 0-10.73-1.15-15.88-3.57l-5.031-2.367c-1.808-.851-2.711-2.905-2.115-4.812l15.096-48.311-120.09-77.69-73.19-114.39-50.842 12.515c-1.856.457-3.776-.463-4.582-2.196l-4.106-8.819c-4.99-10.73-4.45-22.54.38-32.31-18.05 8.85-26.04 30.71-17.38 49.31l.223.479c-.001 0-.002.001-.003.001l77.8 167.1 166.84 78.49c.66.31 1.32.6 1.98.87.001-.002.002-.005.002-.007 4.546 1.831 9.256 2.707 13.898 2.707 13.89 0 27.14-7.79 33.56-20.88-5.11 2.53-10.78 3.88-16.56 3.88z" fill="#ffa95f"/><path d="m211.934 499.526-136.315-63.326-63.6-134.802c-5.169-10.776-2.972-22.235 4.149-30.511 2.453-2.851 4.577-5.585 8.1-7.315 1.824-.896 3.777-1.613 5.847-2.122l79.928-19.668c11.595-2.853 23.744 1.775 30.502 11.619l14.186 20.665 28.139 54.522 54.443 29.309 27.223 19.308c10.137 7.19 14.491 20.091 10.784 31.953l-23.496 75.173c-.453 1.451-1.009 2.837-1.657 4.154-6.803 13.839-23.839 17.945-38.233 11.041z" fill="#ffc269"/><path d="m225.038 488.642-41.466-19.891c-2.572-1.234-3.592-4.367-2.24-6.879l55.986-103.981-48.79-34.6-33.79-49.23-104.788 56.425c-2.512 1.353-5.645.332-6.879-2.24l-18.963-39.534c-4.02-8.38-3.59-17.57.16-25.14-13.75 6.75-20.11 23.65-13.16 38.14l18.942 39.489-.001.001 45.57 95 136.42 65.44c14.4 6.9 31.33.68 38.12-13.16-7.581 3.75-16.771 4.16-25.121.16z" fill="#ffa95f"/><path d="m114.785 484.845c-38.676-20.111-68.314-49.92-88.426-88.596-7.234-13.912-2.912-30.098 10.894-37.532l1.901-1.971 127.946-68.894c12.268-6.606 27.417-4.383 37.269 5.47l14.126 14.126c9.853 9.853 12.076 25.001 5.47 37.269l-70.117 130.218c-7.433 13.806-25.151 17.144-39.063 9.91z" fill="#ffc269"/><path d="m129.358 473.782c-1.424-.74-2.837-1.498-4.24-2.27-1.926-1.06-2.64-3.473-1.598-5.409l27.358-50.801c7.31-13.57 4.89-30.01-6-40.91l-7.45-7.45c-6.54-6.54-15.24-10.14-24.5-10.14-5.71 0-11.38 1.43-16.41 4.14l-50.454 27.167c-1.952 1.051-4.373.308-5.43-1.641-.54-.997-1.073-1.998-1.597-3.006-2.2-4.23-3.24-8.76-3.24-13.22 0-4.71 1.16-9.35 3.36-13.49l-2.27 1.22c-9.61 5.17-15.09 15.05-15.09 25.27.097 4.207 1.198 10.105 4.491 15.57 0 0 0 0-.001 0 10.116 19.693 29.064 44.025 48.088 60.128 1.843 2.517 29.078 22.567 40.982 27.842 13.91 7.24 31.06 1.96 38.49-11.85l.15-.28c-7.649 3.32-16.679 3.27-24.639-.87z" fill="#ffa95f"/><path d="m77.771 479.67c-20.391-10.603-35.019-25.232-45.622-45.622-3.814-7.335-1.031-16.373 6.247-20.292l10.054-6.491 56.599-30.477c6.468-3.483 14.455-2.311 19.649 2.884l7.448 7.448c5.194 5.194 6.367 13.181 2.884 19.649l-30.479 56.604-6.488 10.049c-3.92 7.28-12.958 10.062-20.292 6.248z" fill="#ffc269"/><path d="m104.548 463.372-6.49 12.05c-3.91 7.28-12.95 10.06-20.29 6.25-20.39-10.61-37.02-27.23-47.62-47.62-1.16-2.23-1.71-4.62-1.71-6.97 0-5.39 2.89-10.6 7.96-13.33l12.05-6.49c.02 2.29.57 4.62 1.7 6.79 10.6 20.39 27.23 37.01 47.62 47.62 2.17 1.13 4.49 1.68 6.78 1.7z" fill="#ffa95f"/></g></g><g><path d="m306.664 419.254-22.749-14.715c1.431-12.887-4.15-25.727-15.04-33.45l-36.747-26.063c6.249-14.612 3.103-31.45-8.329-42.881l-14.126-14.126c-11.25-11.25-27.736-14.475-42.184-8.618l-20.761-30.244c-7.779-11.333-21.45-17.204-34.888-15.325l-18.623-29.108c-11.43-17.867-34.099-25.313-53.896-17.711-23.12 8.305-35.85 37.706-24.599 60.841l4.591 9.862c-6.514 3.63-11.795 9.214-15.064 16.138-4.673 9.896-4.638 21.231.095 31.099l23.873 49.767c-13.435 10.524-17.953 29.59-9.837 45.199 2.316 4.453 4.813 8.856 7.44 13.158-5.311 6.787-6.527 16.351-2.325 24.431 2.846 5.472 6.144 10.766 9.804 15.733 2.459 3.335 7.153 4.047 10.486 1.589 3.335-2.457 4.047-7.152 1.59-10.487-3.2-4.343-6.084-8.971-8.571-13.756-1.912-3.675-.499-8.264 3.148-10.228l68.653-36.967c3.581-1.928 7.916-1.29 10.79 1.583l7.448 7.448c2.875 2.874 3.511 7.21 1.584 10.79l-36.968 68.653c-1.964 3.648-6.553 5.06-10.228 3.149-4.403-2.29-8.679-4.918-12.707-7.81-3.363-2.415-8.051-1.646-10.467 1.719-2.415 3.365-1.646 8.051 1.719 10.466 4.608 3.308 9.498 6.313 14.534 8.933 3.3 1.716 6.848 2.529 10.353 2.529 5.078 0 10.064-1.709 14.08-4.85 4.305 2.629 8.71 5.123 13.159 7.435 5.278 2.745 10.951 4.046 16.558 4.046 10.97 0 21.665-4.997 28.63-13.887l51.708 24.803c4.945 2.372 10.294 3.562 15.649 3.562 4.909 0 9.823-1 14.434-3.005 7.117-3.096 12.968-8.359 16.807-14.937l7.498 3.527c6.021 2.833 12.563 4.257 19.113 4.256 5.683 0 11.372-1.072 16.729-3.226 11.532-4.636 20.702-13.949 25.158-25.552 7.564-19.696.196-42.31-17.522-53.77zm-278.956-201.543c3.139-7.764 9.173-13.693 16.99-16.695 13.186-5.062 28.275-.103 35.885 11.792l15.754 24.623-62.734 15.437-5.282-11.345c-3.534-7.591-3.752-16.048-.613-23.812zm-9.894 62.548c2.735-5.794 7.872-9.995 14.094-11.525l79.929-19.668c8.51-2.095 17.564 1.354 22.525 8.581l19.706 28.706-112.859 60.769-23.34-48.657c-2.771-5.777-2.792-12.413-.055-18.206zm215.084 214.943c-5.644 2.454-12.063 2.336-17.611-.326l-50.589-24.266 22.636-42.038c1.964-3.647.6-8.195-3.048-10.159-3.647-1.965-8.196-.599-10.159 3.048l-26.88 49.919c-5.459 10.138-18.212 14.063-28.426 8.751-3.831-1.992-7.621-4.134-11.34-6.378l34.154-63.427c5.092-9.458 3.41-20.914-4.185-28.508l-7.447-7.448c-7.595-7.596-19.053-9.276-28.509-4.184l-63.426 34.152c-2.243-3.717-4.386-7.506-6.38-11.34-5.312-10.215-1.386-22.966 8.751-28.425l130.219-70.117c9.428-5.075 20.841-3.398 28.409 4.169l14.127 14.126c7.568 7.568 9.244 18.985 4.17 28.41l-26.716 49.615c-1.964 3.647-.6 8.195 3.048 10.159 3.647 1.963 8.196.599 10.159-3.048l21.246-39.457 35.098 24.894c7.511 5.326 10.711 14.81 7.964 23.598l-23.495 75.173c-1.837 5.875-6.127 10.652-11.77 13.107zm77.286-27.553c-3.011 7.838-8.959 13.88-16.749 17.012-7.791 3.131-16.266 2.888-23.863-.687l-8.523-4.01 18.811-60.185 18.659 12.069c11.795 7.631 16.7 22.687 11.665 35.801z"/><path d="m490.718 235.2-22.749-14.715c1.431-12.886-4.15-25.726-15.04-33.45l-36.747-26.063c6.249-14.612 3.102-31.449-8.329-42.881l-14.126-14.126c-11.25-11.25-27.736-14.475-42.184-8.618l-20.761-30.243c-7.781-11.334-21.452-17.205-34.889-15.325l-18.622-29.108c-11.429-17.865-34.093-25.314-53.896-17.711-11.572 4.444-20.873 13.584-25.52 25.076-4.646 11.492-4.311 24.528.921 35.765l4.591 9.861c-6.514 3.63-11.796 9.215-15.065 16.139-4.673 9.896-4.638 21.23.095 31.098l23.872 49.767c-13.436 10.524-17.953 29.591-9.837 45.198 2.293 4.41 4.767 8.77 7.369 13.036-6.134 6.824-7.758 17.049-3.307 25.607 11.372 21.871 28.944 39.443 50.816 50.817 3.3 1.716 6.848 2.529 10.353 2.529 5.585 0 11.061-2.067 15.253-5.835 4.262 2.599 8.624 5.072 13.038 7.368 5.277 2.744 10.952 4.045 16.558 4.045 10.971 0 21.666-4.997 28.631-13.887l51.709 24.803c15.222 7.846 37.706 2.13 46.89-14.381l7.498 3.527c6.022 2.833 12.563 4.257 19.114 4.256 5.683 0 11.372-1.072 16.729-3.226 11.531-4.636 20.701-13.949 25.157-25.551 7.564-19.697.195-42.311-17.522-53.772zm-278.956-201.542c3.139-7.764 9.173-13.693 16.99-16.695 13.186-5.061 28.273-.104 35.885 11.792l15.753 24.624-62.734 15.437-5.282-11.345c-3.534-7.592-3.751-16.049-.612-23.813zm91.113 262.42c-3.961-2.06-7.875-4.277-11.708-6.601l10.658-19.794c1.964-3.647.6-8.195-3.048-10.159-3.648-1.965-8.196-.598-10.159 3.048l-14.159 26.296c-1.965 3.647-6.552 5.062-10.229 3.149-19.122-9.944-34.485-25.307-44.428-44.429-1.912-3.675-.499-8.264 3.148-10.228l68.653-36.967c3.582-1.929 7.916-1.291 10.79 1.583l7.448 7.448c2.875 2.874 3.511 7.21 1.584 10.79l-6.18 11.475c-1.964 3.647-.6 8.195 3.048 10.16 3.647 1.963 8.196.599 10.159-3.047l6.18-11.476c5.092-9.458 3.41-20.914-4.185-28.508l-7.447-7.448c-7.596-7.596-19.053-9.276-28.509-4.184l-62.151 33.466c-2.326-3.836-4.544-7.749-6.601-11.708-5.312-10.214-1.386-22.966 8.751-28.424l44.375-23.894c3.647-1.964 5.012-6.512 3.048-10.159-1.963-3.647-6.512-5.012-10.159-3.048l-36.493 19.65-23.34-48.657c-2.771-5.777-2.792-12.413-.057-18.206 2.736-5.794 7.873-9.995 14.095-11.526l79.929-19.668c8.51-2.094 17.564 1.354 22.525 8.582l19.706 28.706-45.538 24.521c-3.647 1.964-5.012 6.512-3.048 10.159 1.963 3.646 6.513 5.012 10.159 3.048l55.016-29.624c9.425-5.074 20.842-3.399 28.41 4.169l14.126 14.126c7.569 7.569 9.245 18.986 4.171 28.41l-70.115 130.216c-5.459 10.139-18.214 14.061-28.425 8.753zm114.076 15.07c-5.646 2.455-12.063 2.336-17.611-.325l-50.59-24.267 60.404-112.179 35.098 24.894c7.511 5.327 10.711 14.81 7.964 23.598l-23.495 75.173c-1.836 5.874-6.126 10.652-11.77 13.106zm77.286-27.553c-3.011 7.838-8.959 13.88-16.749 17.011-7.792 3.132-16.266 2.888-23.864-.686l-8.522-4.009 18.811-60.185 18.659 12.069c11.794 7.63 16.701 22.686 11.665 35.8z"/></g></g></svg>