<svg id="Capa_1" enable-background="new 0 0 512 512" height="512" viewBox="0 0 512 512" width="512" xmlns="http://www.w3.org/2000/svg"><g><g><g><path d="m301.869 130.072c3.987-3.363 8.884-5.669 14.019-6.489 2.679-.428 5.487-.794 8.253-.434.489.064.979.14 1.469.23l22.744 4.168c2.486.456 3.206 3.674 1.15 5.145l-18.707 13.39c-.076.055-.153.109-.229.163-1.684 1.181-4.051 1.943-5.897 2.722-4.22 1.779-8.754 2.537-13.257 2.198l-24.436-8.093z" fill="#b3e59f"/><path d="m330.566 146.243c-5.531 3.882-12.118 5.588-18.592 5.107l-25-8.283 15.011-13.409c6.059-5.117 14.078-7.557 22.154-6.502-.82.556-1.611 1.15-2.365 1.79l-12.582 11.239c-1.081.965-.713 2.739.663 3.195z" fill="#95d6a4"/><path d="m297.513 139.214.731-1.878c3.423-5.574 4.682-11.171 3.97-17.403-.504-4.41-1.484-9.638-4.027-13.475-.19-.287-.386-.571-.587-.852l-13.458-18.803c-1.471-2.055-4.689-1.336-5.145 1.15l-4.147 22.628c-.321 1.754-.475 3.511-.47 5.252.014 4.752 2.14 9.636 4.352 13.744z" fill="#ccf49f"/><path d="m298.716 137.253-1.206 1.96-19.704-9.885c-2.215-4.109-3.411-8.745-3.43-13.494l16.878 8.469c.874.438 1.938.136 2.45-.697l.3-.488c3.138-5.107 4.523-10.931 4.184-16.66 6.135 9.254 6.38 21.278.528 30.795z" fill="#b3e59f"/><path d="m257.865 138.218c2.117-3.336 4.114-6.27 6.63-7.71 8.813-5.044 19.85.34 31.533 7.753 15.019 9.53 25.417 18.805 15.887 33.824-.964 1.52-2.118 3.062-3.428 4.598-2.367 2.774-5.742 5.22-8.939 7.77-12.525 9.985-28.824 15.786-39.578 8.962-15.019-9.53-11.635-40.178-2.105-55.197z" fill="#ff8086"/><path d="m210.423 131.038c-5.57-4.699-13.195-8.523-20.585-8.078-1.147.069-2.298.208-3.448.419l-22.744 4.168c-2.486.456-3.206 3.674-1.15 5.145l18.707 13.39c.841.602 1.708 1.154 2.595 1.655 4.996 2.821 11.402 3.084 16.974 2.665l23.047-6.798z" fill="#b3e59f"/><path d="m223.819 143.605-23.794 7.746c-5.654.424-11.402-.829-16.453-3.751.141 0 .292-.009.433-.019l20.888-6.8c1.334-.434 1.743-2.121.756-3.118l-11.655-11.775c-1.3-1.103-2.695-2.073-4.156-2.921 7.388-.452 14.616 1.988 20.175 6.691z" fill="#95d6a4"/><path d="m214.487 139.214-.611-2.045c-6.026-9.814-5.339-22.066 1.363-31.431l6.433-10.293 6.185-8.641c1.471-2.055 4.689-1.336 5.145 1.15l4.147 22.628c.534 2.912.605 5.832.254 8.672-.438 3.54-2.85 7.616-4.527 10.731z" fill="#ccf49f"/><path d="m237.408 119.255c-.443 3.543-1.536 6.954-3.213 10.073l-19.704 9.885-1.206-1.96c-6.031-9.81-5.588-22.286 1.112-31.643l9.018-12.599c-6.314 9.282-6.615 21.447-.707 31.05l.002.003c.681 1.107 2.096 1.51 3.258.927z" fill="#b3e59f"/><path d="m274.904 185.632c-.996-.239-1.618-1.249-1.382-2.245 1.099-4.649 1.612-9.802 1.494-15.385-.278-13.569-4.323-28.007-10.516-37.484-.004-.001-.006-.001-.01-.002-1.627.926-3.177 2.217-4.641 3.911-.014.016-.027.034-.041.05-.247.287-.492.582-.733.892-.105.135-.208.28-.312.419-.155.208-.311.41-.464.628-.261.371-.519.757-.772 1.158-9.527 15.021-13.202 47.719 1.819 57.246 1.876 1.097 4.503 2.368 8.01 2.614 13.739 1.315 31.96-9.783 41.462-21.15-10.991 7.19-23.875 11.757-33.914 9.348z" fill="#e5646e"/><path d="m254.473 137.575c-9.53-15.019-23.482-8.843-38.501.687-4.012 2.546-7.695 5.073-10.755 7.697-.737.632-1.142 1.524-1.786 2.164-6.693 6.651-8.516 13.595-2.145 23.635 9.53 15.019 35.827 32.289 50.846 22.76 3.27-2.075 5.652-5.071 7.418-8.842.454-.97 1.178-1.975 1.5-3.047 4.175-13.911.345-34.146-6.577-45.054z" fill="#ff8086"/><path d="m261.041 182.626c-1.121 3.754 2.391 8.74 0 11.266-.946 1-7.222.187-8.387.928-15.021 9.527-43.036-7.718-52.572-22.738-6.983-11.006-3.26-18.931 5.136-26.121-.876 4.09.019 8.632 3.345 13.871 9.518 14.992 37.439 32.189 52.478 22.794z" fill="#e5646e"/></g><path d="m256.527 193.892c-16.354 0-30.556 3.085-44.718 5.021-151.272 20.676-177.233 140.333-177.233 140.333l78.086 13.002 143.866.027 157.494-3.915 68.978-10.042s-35.446-144.426-226.473-144.426z" fill="#f6d190"/><path d="m59 338.188-30 .13s36.5-144.43 227.53-144.43c2.55 0 5.07.03 7.57.08-171.49 10.79-205.1 144.22-205.1 144.22z" fill="#ecbd83"/><path d="m440.83 425.381-374.79-.277c-10.559 0-20.087-6.334-24.174-16.07l-24.888-59.481h474.085l-10.489 19.232-1.08 8.835-13.361 32.414c-4.086 9.736-14.744 15.347-25.303 15.347z" fill="#e3d2ff"/><path d="m416.539 426.105-165.578-7.107-155.5 7.107-24.754-76.551h370.586z" fill="#c5b9ef"/><path d="m369.454 426.105-115.991-4.383-110.917 4.383-17.494-76.551h261.896z" fill="#e3d2ff"/><path d="m324.724 426.105-71.261-4.383-66.187 4.383-10.597-76.551h158.642z" fill="#c5b9ef"/><path d="m277.639 426.105-22.554-4.851-20.724 4.851-3.337-76.551h49.952z" fill="#e3d2ff"/><g fill="#afa0ea"><path d="m441.29 349.558-5.311 22.546-4.289 7.144h-4.93c-3.573 0-6.863-1.183-9.527-3.169-.565-.421-1.31-.484-1.959-.211-5.204 2.194-10.868 3.38-16.734 3.38h-18.38l-1.373-7.527 8.163-22.163z"/><path d="m335.32 349.558.001 21.951-4.111 7.699c-.6.03-1.21.04-1.82.04h-40.93c-3.19 0-6.16-.95-8.66-2.57l-1.42-7.637 2.6-19.483z"/><path d="m232.32 379.248h-13.01c-3.565 0-6.862-1.183-9.527-3.17-.564-.421-1.31-.484-1.959-.21-5.204 2.194-10.869 3.38-16.734 3.38h-10.3l-4.111-7.059.001-22.632h54.34l3.937 20.929z"/><path d="m131.59 378.158c-3.12.72-6.35 1.09-9.65 1.09h-40.93c-.24 0-.47-.01-.71-.02l-6.364-9.251-3.226-20.419h54.34l7.269 20.419z"/></g><g fill="#afa0ea"><path d="m142.55 426.108h-47.09l-6.375-8.5.875-8.5h48.7l5.914 7.678z"/><path d="m234.36 426.108h-47.08l-4.237-7.62 1.887-9.38h48.69l2.869 9.38z"/><path d="m327.07 409.108 1.675 8.5-4.025 8.5h-47.08l-2.342-6.939 3.082-10.061z"/><path d="m422.04 409.108v10.061l-5.5 6.939h-47.09v-8.5l3.89-8.5z"/></g><g fill="#c5b9ef"><path d="m441.29 349.558-9.6 29.69h36c4.06 0 8.02-.56 11.8-1.63l11.57-28.06z"/><path d="m331.21 379.208c5.22-.223 10.25-1.373 14.916-3.341.648-.273 1.392-.21 1.956.21 2.665 1.987 5.963 3.171 9.528 3.171h22.55l6.79-29.69h-51.63z"/><path d="m140.631 376.077c2.666 1.988 5.964 3.171 9.529 3.171h30.63l-4.11-29.69h-51.63l6.54 28.6c2.438-.568 4.808-1.33 7.087-2.291.647-.272 1.391-.21 1.954.21z"/><path d="m232.32 379.248h27.92c5.865 0 11.53-1.186 16.734-3.38.661-.279 1.413-.195 1.989.232.272.201.55.394.837.578l1.18-27.12h-49.96z"/><path d="m65.04 409.108c-3.71 0-7.03-2.2-8.48-5.61l-8.074-21.548c-.49-1.307.477-2.702 1.873-2.702h2.431c5.864 0 11.528-1.186 16.731-3.379.642-.271 1.386-.221 1.943.196 2.49 1.864 5.539 3.019 8.836 3.163l-9.59-29.67h-34.36-20.37l24.89 60.48c4.08 9.73 13.61 16.07 24.17 16.07h30.42l-5.5-17z"/><path d="m138.66 409.108 3.89 17h44.73l-2.35-17z"/><path d="m234.36 426.108h43.28l.74-17h-44.76z"/><path d="m324.72 426.108h44.73l3.89-17h-46.27z"/><path d="m416.54 426.108h25.42c10.56 0 20.09-6.34 24.17-16.07l.38-.93h-44.47z"/></g><g><g><path d="m270.499 263.62c0-4.249-4.082-16.516-7.914-27.097-.692-1.912-2.007-3.231-3.558-3.957-3.451-1.617-7.805 2.944-9.346 7.199-3.832 10.581-5.617 19.836-5.617 24.085 0 8.008 3.927 12.063 11.935 12.063 4.391 0 8.326.256 10.985-2.827 2.19-2.54 3.515-5.848 3.515-9.466z" fill="#ff8086"/></g><g><path d="m266.979 273.082c-2.65 3.09-6.59 5.04-10.98 5.04-8.01 0-14.5-6.49-14.5-14.5 0-4.25 4.08-16.52 7.91-27.1 1.55-4.26 6.17-5.58 9.62-3.96-3.71 10.33-7.53 21.95-7.53 26.06 0 8.01 6.49 14.5 14.5 14.5.33 0 .66-.01.98-.04z" fill="#e5646e"/></g><g><path d="m340.544 252.861c-2.125-3.68-11.793-12.263-20.403-19.51-1.882-1.584-4.118-1.962-6.117-1.475-3.332.811-4.04 7.427-3.322 11.462 1.972 11.08 4.683 19.448 6.808 23.127 4.004 6.935 10.768 8.536 17.703 4.532 4.078-2.354 6.604-4.72 7.159-9.056.389-3.037-.178-6.223-1.828-9.08z" fill="#ff8086"/></g><g><path d="m342.369 261.942c-.55 4.33-3.05 8.37-7.13 10.73-6.94 4-15.81 1.62-19.81-5.31-2.12-3.68-4.72-16.35-6.69-27.42-.79-4.45 2.53-7.9 6.32-8.23 1.92 10.62 4.36 22.16 6.37 25.65 4 6.93 12.87 9.31 19.81 5.31.39-.23.77-.47 1.13-.73z" fill="#e5646e"/></g><g><path d="m172.915 253.146c2.125-3.68 9.688-10.22 18.298-17.467 3.136-2.64 7.901-4.258 10.27-1.777 1.421 1.488 2.212 3.614 1.781 6.035-1.972 11.08-4.571 23.744-6.695 27.424-1.001 1.734-2.306 3.183-3.809 4.318-4.508 3.406-9.623 3.003-14.824 0-6.935-4.004-9.025-11.597-5.021-18.533z" fill="#ff8086"/></g><g><path d="m189.759 270.672c.88.51 1.79.91 2.72 1.21-4.49 3.22-10.62 3.73-15.72.79-6.93-4.01-9.31-12.88-5.3-19.81 2.12-3.68 11.79-12.26 20.4-19.51 3.21-2.7 7.45-1.89 9.78.73-7.66 6.56-15.32 13.55-17.18 16.78-4.01 6.93-1.63 15.8 5.3 19.81z" fill="#e5646e"/></g></g><path d="m51.809 365.658-39.574.064c-1.657 0-3-1.343-3-3l.511-6.638c0-11.358 5.821-20.438 15.128-25.532 2.667-1.46 5.187-3.065 8.268-3.66 1.852-.358 3.765-.545 5.721-.545h40.932c1.657 0 3 1.343 3 3v6.9c0 5.885-1.695 11.375-4.623 16.007-.302.477-.858.949-1.192 1.404-5.541 7.561-15.095 12-25.171 12z" fill="#ffc269"/><path d="m78.162 352.248c-5.3 8.41-14.68 14-25.37 14h-40.93c-1.66 0-3-1.35-3-3v-6.9c0-14.61 10.44-26.78 24.28-29.45-2.72 4.51-4.28 9.8-4.28 15.45v7.9c0 1.1.9 2 2 2z" fill="#ffa95f"/><path d="m120.958 365.658-39.574.064c-1.657 0-3-1.343-3-3l.511-6.638c0-11.358 5.821-20.438 15.128-25.532 2.667-1.46 5.187-3.065 8.268-3.66 1.852-.358 3.765-.545 5.721-.545h40.932c1.657 0 3 1.343 3 3v6.9c0 5.885-1.695 11.375-4.623 16.007-.302.477-.858.949-1.192 1.404-5.54 7.561-15.094 12-25.171 12z" fill="#ffc269"/><path d="m147.311 352.248c-5.3 8.41-14.68 14-25.37 14h-40.93c-1.66 0-3-1.35-3-3v-6.9c0-14.61 10.44-26.78 24.28-29.45-2.72 4.51-4.28 9.8-4.28 15.45v7.9c0 1.1.9 2 2 2z" fill="#ffa95f"/><path d="m190.108 365.658-39.574.064c-1.657 0-3-1.343-3-3l.511-6.638c0-11.358 5.821-20.438 15.128-25.532 2.667-1.46 5.187-3.065 8.268-3.66 1.852-.358 3.765-.545 5.721-.545h40.932c1.657 0 3 1.343 3 3v6.9c0 5.885-1.695 11.375-4.623 16.007-.302.477-.858.949-1.192 1.404-5.54 7.561-15.094 12-25.171 12z" fill="#ffc269"/><path d="m216.461 352.248c-5.3 8.41-14.68 14-25.37 14h-40.93c-1.66 0-3-1.35-3-3v-6.9c0-14.61 10.44-26.78 24.28-29.45-2.72 4.51-4.28 9.8-4.28 15.45v7.9c0 1.1.9 2 2 2z" fill="#ffa95f"/><path d="m259.258 365.658-39.574.064c-1.657 0-3-1.343-3-3l.511-6.638c0-11.358 5.821-20.438 15.128-25.532 2.667-1.46 5.187-3.065 8.268-3.66 1.852-.358 3.765-.545 5.721-.545h40.932c1.657 0 3 1.343 3 3v6.9c0 5.885-1.695 11.375-4.623 16.007-.302.477-.858.949-1.192 1.404-5.541 7.561-15.094 12-25.171 12z" fill="#ffc269"/><path d="m285.611 352.248c-5.3 8.41-14.68 14-25.37 14h-40.93c-1.66 0-3-1.35-3-3v-6.9c0-14.61 10.44-26.78 24.28-29.45-2.72 4.51-4.28 9.8-4.28 15.45v7.9c0 1.1.9 2 2 2z" fill="#ffa95f"/><path d="m328.407 365.658-39.574.064c-1.657 0-3-1.343-3-3l.511-6.638c0-11.358 5.821-20.438 15.128-25.532 2.667-1.46 5.187-3.065 8.268-3.66 1.852-.358 3.765-.545 5.721-.545h40.932c1.657 0 3 1.343 3 3v6.9c0 5.885-1.695 11.375-4.623 16.007-.302.477-.858.949-1.192 1.404-5.54 7.561-15.094 12-25.171 12z" fill="#ffc269"/><path d="m354.761 352.248c-5.3 8.41-14.68 14-25.37 14h-40.93c-1.66 0-3-1.35-3-3v-6.9c0-14.61 10.44-26.78 24.28-29.45-2.72 4.51-4.28 9.8-4.28 15.45v7.9c0 1.1.9 2 2 2z" fill="#ffa95f"/><path d="m397.557 365.658-39.574.064c-1.657 0-3-1.343-3-3l.511-6.638c0-11.358 5.821-20.438 15.128-25.532 2.667-1.46 5.187-3.065 8.268-3.66 1.852-.358 3.765-.545 5.721-.545h40.932c1.657 0 3 1.343 3 3v6.9c0 5.885-1.695 11.375-4.623 16.007-.302.477-.858.949-1.192 1.404-5.54 7.561-15.094 12-25.171 12z" fill="#ffc269"/><path d="m423.91 352.248c-5.3 8.41-14.68 14-25.37 14h-40.93c-1.66 0-3-1.35-3-3v-6.9c0-14.61 10.44-26.78 24.28-29.45-2.72 4.51-4.28 9.8-4.28 15.45v7.9c0 1.1.9 2 2 2z" fill="#ffa95f"/><path d="m466.707 365.658-39.574.064c-1.657 0-3-1.343-3-3l.511-6.638c0-11.358 5.821-20.438 15.128-25.532 2.667-1.46 5.187-3.065 8.268-3.66 1.852-.358 3.765-.545 5.721-.545h40.932c1.657 0 3 1.343 3 3v6.9c0 5.885-1.695 11.375-4.623 16.007-.302.477-.858.949-1.192 1.404-5.541 7.561-15.094 12-25.171 12z" fill="#ffc269"/><path d="m493.06 352.248c-5.3 8.41-14.68 14-25.37 14h-40.93c-1.66 0-3-1.35-3-3v-6.9c0-14.61 10.44-26.78 24.28-29.45-2.72 4.51-4.28 9.8-4.28 15.45v7.9c0 1.1.9 2 2 2z" fill="#ffa95f"/></g><g><path d="m161.468 216.171c28.22-9.807 60.203-14.779 95.06-14.779 71.646 0 129.071 20.463 170.679 60.819 1.457 1.413 3.34 2.116 5.221 2.116 1.958 0 3.914-.762 5.385-2.278 2.884-2.974 2.812-7.722-.162-10.605-19.868-19.271-43.517-34.521-70.29-45.325-20.578-8.305-43.117-14.002-67.339-17.065 6.661-4.785 12.342-10.526 15.941-16.198 4.164-6.562 5.283-12.367 4.541-17.467 4.138-1.071 8.082-2.876 11.599-5.394l17.94-12.841c3.352-2.397 4.938-6.546 4.038-10.568s-4.1-7.102-8.152-7.843l-21.814-3.998c-5.419-.994-10.89-.682-16.027.806-.838-5.241-2.86-10.329-6.089-14.84l-12.907-18.033c-2.398-3.351-6.548-4.934-10.568-4.036-4.022.9-7.101 4.101-7.842 8.153l-3.978 21.703c-.705 3.846-.746 7.775-.158 11.606-3.483.761-7.13 2.444-10.546 5.649-3.416-3.204-7.063-4.888-10.545-5.649.588-3.832.547-7.76-.158-11.606l-3.978-21.702c-.741-4.054-3.819-7.254-7.842-8.154-4.019-.896-8.17.686-10.568 4.036l-12.907 18.033c-3.229 4.511-5.251 9.599-6.089 14.84-5.137-1.488-10.606-1.8-16.028-.806l-21.812 3.998c-4.055.741-7.255 3.82-8.154 7.843s.687 8.171 4.036 10.566l17.942 12.843c3.518 2.518 7.462 4.323 11.599 5.394-.742 5.101.377 10.905 4.541 17.467 3.628 5.717 9.371 11.504 16.102 16.312-19.698 2.543-38.296 6.823-55.596 12.835-3.913 1.359-5.982 5.634-4.622 9.546 1.359 3.912 5.634 5.981 9.547 4.622zm145.075-83.511c4.328-2.968 9.641-4.117 14.867-3.162l10.792 1.979-8.83 6.32c-3.004 2.15-6.547 3.397-10.203 3.66-2.329-2.479-4.951-4.649-7.512-6.53.324-.747.617-1.504.886-2.267zm-25.086-21.459 1.958-10.682 6.386 8.922c2.878 3.94 4.769 11.231 2.93 17.182-3.324-1.898-6.815-3.65-10.354-4.932-1.225-3.338-1.564-6.972-.92-10.49zm-8.477 23.473c5.245.687 12.051 4.665 17.393 8.055 17.914 11.367 16.833 15.929 12.923 22.09-7.218 11.375-26.459 22.752-36.919 20.693 2.521-5.594 3.778-12.524 3.614-20.502-.187-9.072-2.213-18.539-5.496-26.282 2.794-3.881 5.438-4.457 8.485-4.054zm-50.781-25.233 6.386-8.922 1.958 10.682c.644 3.518.305 7.152-.92 10.49-3.539 1.282-7.03 3.033-10.354 4.931-1.41-4.643-.898-11.666 2.93-17.181zm-23.369 32.017c-3.658-.262-7.198-1.511-10.202-3.661l-8.83-6.32 10.791-1.979c5.226-.955 10.539.195 14.868 3.163.269.762.562 1.519.886 2.266-2.561 1.881-5.184 4.052-7.513 6.531zm9.874 23.361c-3.91-6.161-4.991-10.723 12.922-22.09 5.343-3.39 12.148-7.368 17.394-8.055 3.06-.337 5.663.112 9.183 5.082 3.874 6.104 6.603 16.376 6.792 25.562.191 9.299-2.135 16.398-6.222 18.991-9.152 5.817-32.045-6.846-40.069-19.49z"/><path d="m504.5 318.847h-20.448c-4.316-10.219-11.481-24.553-22.624-39.94-2.429-3.355-7.116-4.104-10.474-1.676-3.354 2.429-4.104 7.118-1.675 10.473 8.357 11.54 14.285 22.412 18.359 31.144h-7.07c-7.088 0-13.722 1.978-19.382 5.408-.906-3.124-3.783-5.408-7.198-5.408h-43.932c-7.087 0-13.721 1.978-19.381 5.408-.906-3.123-3.783-5.408-7.198-5.408h-43.932c-7.088 0-13.722 1.978-19.382 5.408-.906-3.124-3.783-5.408-7.198-5.408h-43.932c-7.088 0-13.722 1.978-19.382 5.408-.906-3.124-3.783-5.408-7.198-5.408h-43.932c-7.087 0-13.721 1.978-19.381 5.408-.906-3.123-3.783-5.408-7.198-5.408h-43.932c-7.088 0-13.722 1.978-19.382 5.408-.906-3.124-3.783-5.408-7.198-5.408h-36.886c10.968-23.006 35.895-62.57 85.687-89.082 3.656-1.946 5.042-6.489 3.096-10.145-1.945-3.657-6.49-5.043-10.145-3.096-57.918 30.838-84.532 76.998-95.698 103.691-15.828 4.393-27.484 18.922-27.484 36.131v9.899c0 4.143 3.357 7.5 7.5 7.5h10.001l16.451 39.191c5.271 12.555 17.474 20.667 31.089 20.667h30.394c.008 0 .016.002.025.002s.017-.002.025-.002h47.032c.008 0 .015.002.023.002.011 0 .023-.002.035-.002h44.672c.007 0 .014.001.021.001.005 0 .009-.001.014-.001h137.439c.005 0 .009.001.014.001.007 0 .014-.001.021-.001h44.672c.012 0 .023.002.035.002.008 0 .015-.002.023-.002h47.032c.008 0 .017.002.025.002s.016-.002.025-.002h30.394c13.615 0 25.818-8.112 31.089-20.668l19.93-47.48c8.542-6.879 14.021-17.414 14.021-29.21v-9.899c-.002-4.142-3.359-7.5-7.502-7.5zm-489.5 39.9v-2.399c0-12.406 10.094-22.5 22.5-22.5h36.432v2.399c0 12.406-10.094 22.5-22.5 22.5zm50.04 59.858c-7.559 0-14.333-4.504-17.258-11.473l-14.013-33.386h17.663c6.424 0 12.475-1.626 17.766-4.484l15.956 49.343zm20.472-62.258c0-12.406 10.094-22.5 22.5-22.5h36.432v2.399c0 12.406-10.094 22.5-22.5 22.5h-36.432zm15.406 62.258-14.506-44.858c1.259-.024 35.018.046 36.47-.024l10.256 44.882zm47.607 0-11.026-48.25c1.316-.603 2.595-1.271 3.825-2.016.906 3.123 3.783 5.408 7.198 5.408h23.935l6.209 44.858zm7.497-59.858v-2.399c0-12.406 10.094-22.5 22.5-22.5h36.432v2.399c0 12.406-10.094 22.5-22.5 22.5zm37.787 59.858-6.21-44.858h4.854c7.088 0 13.722-1.978 19.382-5.408.906 3.124 3.783 5.408 7.198 5.408h5.537l1.955 44.858zm76.65 0h-28.918l-1.955-44.858h23.38c3.282 0 6.466-.427 9.502-1.223zm15.007-82.358c0 12.406-10.094 22.5-22.5 22.5h-36.432v-2.399c0-12.406 10.094-22.5 22.5-22.5h36.432zm32.725 82.358h-32.717l1.968-45.163c.668.195 1.373.305 2.104.305h34.855zm-21.145-59.858v-2.399c0-12.406 10.094-22.5 22.5-22.5h36.432v2.399c0 12.406-10.094 22.5-22.5 22.5zm66.429 59.858h-30.142l6.281-45.369c4.777-.79 9.254-2.479 13.245-4.898.906 3.123 3.783 5.408 7.198 5.408h13.669zm47.607 0h-32.221l10.251-44.858h14.876c7.088 0 13.722-1.978 19.382-5.408.458 1.58 1.422 2.94 2.704 3.903zm15.406-82.358c0 12.406-10.094 22.5-22.5 22.5h-36.432v-2.399c0-12.406 10.094-22.5 22.5-22.5h36.432zm37.731 70.884c-2.926 6.97-9.7 11.474-17.259 11.474h-20.114l14.505-44.858h36.881zm32.781-70.884c0 12.406-10.094 22.5-22.5 22.5h-36.432v-2.399c0-12.406 10.094-22.5 22.5-22.5h36.432z"/><path d="m256 224.399c-6.179 0-11.532 3.757-13.638 9.571-7.412 20.466-8.362 26.597-8.362 29.652 0 12.131 9.869 22 22 22s22-9.869 22-22c0-3.055-.95-9.186-8.362-29.651-2.106-5.815-7.459-9.572-13.638-9.572zm0 46.223c-3.859 0-7-3.141-7-6.992.008-.415.272-4.533 7-23.26 6.713 18.686 6.991 22.827 7 23.258-.003 3.856-3.142 6.994-7 6.994z"/><path d="m324.973 227.614c-4.731-3.982-11.247-4.56-16.597-1.469-5.351 3.09-8.108 9.02-7.024 15.107 3.813 21.43 6.057 27.214 7.584 29.859 5.702 9.633 18.317 14.391 30.052 8.053 10.505-6.066 14.117-19.548 8.053-30.053 0 0 0 0 0-.001-1.53-2.646-5.419-7.481-22.068-21.496zm6.514 38.56c-1.684 1.181-7.157 1.502-9.558-2.556-.201-.364-2.031-4.063-5.567-23.644 15.154 12.823 17.468 16.273 17.69 16.643 1.927 3.342.776 7.629-2.565 9.557z"/><path d="m187.027 227.614c-16.649 14.016-20.538 18.851-22.067 21.497v.001c-6.064 10.505-2.452 23.986 8.053 30.053 8.717 5.529 24.007 2.968 30.052-8.052 1.527-2.646 3.771-8.431 7.584-29.86 1.084-6.088-1.674-12.018-7.024-15.107-5.353-3.092-11.866-2.513-16.598 1.468zm3.047 35.998c-2.165 2.45-3.799 4.694-9.562 2.562-3.341-1.929-4.491-6.215-2.565-9.557.223-.369 2.534-3.816 17.691-16.643-3.535 19.581-5.367 23.28-5.564 23.638z"/></g></g></svg>