<svg id="Capa_1" enable-background="new 0 0 512.01 512.01" height="512" viewBox="0 0 512.01 512.01" width="512" xmlns="http://www.w3.org/2000/svg"><g><g><path d="m170.026 390.328h178.479v39.422h-178.479z" fill="#e8e8e8"/><path d="m163.505 390.325h20v39.432h-20z" fill="#d8d8d8"/><path d="m301.079 8.924c-.761-.76-1.689-1.205-2.652-1.358-1.961-.311-4.05 1.535-5.166 3.461-4.293 7.406-10.01 20.692-8.043 35.936 2.847 22.052 22.927 38.796 22.927 38.796s13.111-21.34 10.265-43.391c-.121-.94.577-1.756.396-2.672-2.759-14.028-12.079-25.13-17.727-30.772z" fill="#ccf49f"/><path d="m319.255 42.475c-.12-.94-.27-1.86-.45-2.78-1.25-.13-2.52-.19-3.8-.19-5.357 0-10.466 1.102-15.101 3.085-1.438.615-3.083.373-4.272-.643-.012-.01-.024-.021-.036-.031-1.202-1.023-1.969-2.461-2.206-4.022-.041-.272-.079-.545-.115-.818-1.43-11.08 1.69-21.69 5.15-29.5-1.96-.32-4.06.58-5.18 2.51-3.203 5.526-7.72 14.929-8.983 25.682-.002-.001-.004-.002-.007-.002-2.792 17.664 8.856 37.651 23.58 49.74 0 0 .001-.002.001-.002.195.161.309.252.309.252s3.21-4.89 6.24-12.41c-.07-.065-.147-.137-.219-.205.255-.404.517-.813.789-1.225 3.05-8.011 5.7-18.631 4.3-29.441z" fill="#b3e59f"/><path d="m369.346 156.622c0-3.694 1.538-12.028 1.538-12.028-5.417-47.327-45.606-84.084-94.379-84.084-15.096 0-28.783 5.208-41.457 11.474-31.377 15.512-52.213 46.16-52.213 83.534 0 52.472 41.203 95.008 93.67 95.008s92.841-41.432 92.841-93.904z" fill="#ff8086"/><path d="m282.043 250.361c5.705-.603 11.694-.377 26.276-5.301 36.82-13.086 63.185-48.234 63.185-89.544 0-3.69-.21-7.34-.63-10.92-12.26-4.58-25.53-7.08-39.37-7.08-18.865 0-36.65 4.642-52.293 12.85-1.934 1.015-4.314.286-5.357-1.633-10.755-19.793-27.252-36.031-47.243-46.463-2.031-1.06-2.785-3.609-1.606-5.573 8.866-14.771 21.625-26.937 36.869-35.06-22.83 3.526-42.974 15.185-57.385 31.921-5.676 7.595-14.173 15.774-20.528 40.4-3.887 17.069-3.503 38.333 4.44 57.147 11.175 27.026 35.051 50.015 66.817 57.025.705-.207 7.703 2.935 26.825 2.231z" fill="#e5646e"/><path d="m273.255 250.465c-5.83 8-13.44 14.68-22.73 19.92-7.65 4.31-16.32 7.66-26.26 10.1-3.86-8.08-5.76-18.01-5.76-29.96 0-6.33.52-12.55 1.54-18.6 14.97 11.09 33.31 17.88 53.21 18.54z" fill="#99dbff"/><path d="m269.505 202.522c0-16.881-6.483-31.348-14.202-45.087-2.988-5.318-8.31-16.326-8.31-16.326-17.426-20.551-43.434-33.595-72.488-33.595-17.624 0-34.128 4.8-48.275 13.163-5.433 3.212-8.685 8.135-13.353 12.328-19.362 17.393-30.522 40.859-30.522 68.936 0 52.472 39.683 65.586 92.15 65.586s95-12.533 95-65.005z" fill="#bde4ff"/><path d="m267.855 184.835c-10.09-1.01-11.4-5.82-23.84-5.82-13.9 0-13.9 6.01-27.8 6.01s-13.9-6.01-27.8-6.01-13.9 6.01-27.8 6.01-13.9-6.01-27.81-6.01c-13.9 0-13.9 6.01-27.8 6.01-11.94 0-13.63-4.43-22.65-5.68l7.671-14.07 7.859-18.93c1.94.41 4.22.67 7.11.67 13.9 0 13.9-6 27.8-6s13.9 6 27.8 6 13.9-6 27.8-6 13.9 6 27.81 6c13.9 0 13.9-6 27.8-6 1.07 0 2.06.04 2.98.1 10.43 12.28 17.78 27.25 20.87 43.72z" fill="#f8f7f7"/><path d="m266.965 222.735c-9.88 35.6-45.446 43.419-90.386 43.419-47.19 0-84.898-6.896-92.298-47.106 10.45.92 8.113 3.977 20.723 3.977 13.9 0 13.9-6 27.8-6 13.91 0 13.91 6 27.81 6s13.9-6 27.8-6 13.9 6 27.8 6 13.9-6 27.8-6c12.061 0 13.661 4.52 22.951 5.71z" fill="#f8f7f7"/><g><path d="m126.235 120.685c-4.83 7.61-8.61 15.96-11.12 24.84l-10.415 3.438-6.805-2.617c7.59-10.351 17.24-19.111 28.34-25.661z" fill="#99dbff"/><path d="m129.895 217.115-26.337 9.294-22.793-9.234c-.83-4.5-1.26-9.37-1.26-14.65 0-8 .99-15.76 2.85-23.18l15.54-.085 14.55 5.025c2.23 14.37 8.39 25.03 17.45 32.83z" fill="#99dbff"/><g fill="#e8e8e8"><path d="m111.505 171.525c0 4.55.32 8.8.94 12.76-2.01.45-4.39.74-7.44.74-11.94 0-13.63-4.43-22.65-5.68.24-.94.48-1.88.75-2.8 2.087-5.956 3.354-13.895 14.79-30.2 1.94.41 4.21.67 7.1.67 4.53 0 7.58-.64 10.12-1.49-2.35 8.27-3.61 16.98-3.61 26z"/><path d="m265.345 227.695c-1.837 4.699-4.535 10.16-9.14 15.37-4.587 5.12-10.613 10.142-19.58 14.21-6.749 2.998-13.696 5.315-22.47 6.97-12.587 2.436-28.294 3.518-44.05 3.25-16.214-.421-34.681-1.384-52.44-8.01-9.82-3.828-20.607-9.868-27.72-20.01-4.096-5.894-7.287-12.301-9.18-22.3 10.45.92 11.63 5.85 24.24 5.85 12.86 0 13.82-5.13 24.89-5.91 17.29 14.91 45.16 19.41 76.61 19.41 22.23 0 42.66-2.25 58.84-8.83z"/></g></g><path d="m426.505 250.526c0-52.472-42.533-95.008-95-95.008-6.535 0-12.916.66-19.08 1.917-4.914 1.002-10.048 3.857-14.654 5.585-36.002 13.513-60 46.781-60 87.506 0 52.472 41.267 35.003 93.734 35.003s95 17.469 95-35.003z" fill="#ffc269"/><path d="m418.475 278.785c-14.73 16.31-48.13 6.74-86.97 6.74-52.47 0-95 17.47-95-35 0-45.94 32.6-84.26 75.92-93.09-19.58 19.48-31.92 47.9-31.92 79.55 0 58.77 42.53 39.21 95 39.21 15.47 0 30.07 1.7 42.97 2.59z" fill="#ffa95f"/><circle cx="266.505" cy="181.52" fill="#ffe07d" r="15.001"/><g fill="#fff0af"><circle cx="370.505" cy="162.519" r="15.001"/><circle cx="326.505" cy="198.522" r="15.001"/><circle cx="417.505" cy="211.523" r="15.001"/><circle cx="369.505" cy="235.525" r="15.001"/><path d="m298.505 235.525c0-8.285-6.716-15.001-15-15.001-.637 0-1.265.04-1.881.117-1.127.141-2.165.902-3.173 1.279-5.606 2.093-9.255 7.109-9.255 13.591 0 6.536 3.607 11.606 9.298 13.665.905.327 1.919 1.066 2.92 1.206.683.095 1.381.145 2.091.145 8.284-.001 15-6.717 15-15.002z"/></g><path d="m280.505 236.985c0 5.01.31 9.46.91 13.39-7.29-1.02-12.91-7.28-12.91-14.85 0-7.65 5.72-13.96 13.12-14.88-.74 5.33-1.12 10.78-1.12 16.34z" fill="#ffe07d"/><path d="m374.635 47.963c1.7.307 3.03 1.382 3.743 2.761.675 1.305.255 3.049-.383 4.505-3.381 7.718-10.642 20.325-24.287 27.319-19.739 10.118-45.892 3.036-45.892 3.036s8.791-22.726 28.53-32.844c1.673-.857 3.067-2.365 4.796-2.985 12.464-4.468 25.921-3.158 33.493-1.792z" fill="#ccf49f"/><path d="m308.005 85.635c-.13-.03-.19-.05-.19-.05s.01-.02.02-.07c.07.04.12.09.17.12z" fill="#b3e59f"/><path d="m308.185 85.695c-.03.04-.04.06-.04.06s-.05-.04-.13-.11c.04.01.1.03.17.05z" fill="#b3e59f"/><path d="m294.505 65.51c0-10.494-8.507-19.002-19-19.002-.515 0-1.026.021-1.531.061-9.778.779-16.714 9.265-16.714 19.244 0 10.494 8.102 17.915 18.596 17.915 10.494.001 18.649-7.723 18.649-18.218z" fill="#e3d2ff"/><path d="m291.025 76.445c-3.42 4.88-9.1 8.07-15.52 8.07-10.49 0-19-8.51-19-19.01 0-9.97 7.69-18.16 17.47-18.93-2.19 3.09-3.47 6.86-3.47 10.93 0 10.5 8.51 19.01 19 19.01.51 0 1.02-.02 1.52-.07z" fill="#c5b9ef"/><path d="m378.375 50.725c-4.15 5.82-9.86 11.74-17.45 15.63-2.05 1.051-4.173 1.905-6.329 2.596-1.076.345-2.225-.272-2.532-1.36-1.948-6.921-5.782-13.06-10.919-17.826-1.73.61-3.44 1.34-5.12 2.2-8.309 4.268-14.629 10.907-19.148 17.16-.199.283-.566.754-1.925 2.798-4.88 7.433-7.137 13.662-7.137 13.662s.135.04.373.106c-.001.001-.002.003-.003.004.732.201 2.533.672 5.079 1.171 12.019 2.294 27.443 3.021 40.661-3.511 13.65-7 21.23-20.58 24.61-28.29.64-1.46.52-3.03-.16-4.34z" fill="#b3e59f"/><path d="m307.835 85.515c.07.04.12.09.17.12-.13-.03-.19-.05-.19-.05s.01-.02.02-.07z" fill="#b3e59f"/><path d="m308.185 85.695c-.03.04-.04.06-.04.06s-.05-.04-.13-.11c.04.01.1.03.17.05z" fill="#b3e59f"/><path d="m341.505 78.011c0-14.637-11.864-26.502-26.5-26.502-3.874 0-7.554.831-10.87 2.325-.899.405-1.737 1.116-2.555 1.618-7.562 4.638-11.638 12.99-11.638 22.702 0 14.637 10.428 25.362 25.064 25.362 9.899 0 18.035-4.827 22.585-12.67.695-1.198 1.79-2.32 2.284-3.661 1.054-2.858 1.63-5.949 1.63-9.174z" fill="#e3d2ff"/><path d="m339.875 87.185c-3.73 10.11-13.46 17.33-24.87 17.33-14.64 0-26.5-11.87-26.5-26.5 0-10.76 6.41-20.03 15.63-24.18-1.06 2.86-1.63 5.95-1.63 9.18 0 14.63 11.86 26.5 26.5 26.5 3.88 0 7.55-.83 10.87-2.33z" fill="#c5b9ef"/><path d="m347.505 392.539h-183c-54.124 0-98-43.876-98-98v-27.012c0-8.284 6.716-15 15-15l3-2h348c8.284 0 15 6.716 15 15v31.012c0 31.821-15.167 60.1-38.665 78.003-16.47 12.547-39.032 17.997-61.335 17.997z" fill="#bde4ff"/><path d="m408.835 374.535c-16.47 12.55-37.03 20-59.33 20h-187c-54.12 0-98-43.87-98-98v-31.01c0-8.28 6.72-15 15-15h5v46.01c0 43.01 34.99 78 78 78z" fill="#99dbff"/><g><path d="m422.505 504.502h-333c-.924 0-1.841-.029-2.75-.087-22.467-1.418-38.09-20.089-38.09-42.913v-.551h416.33v.551c0 6.604-.978 12.86-3.638 18.451-6.906 14.515-21.707 24.549-38.852 24.549z" fill="#e8e8e8"/><path d="m465.505 460.952v.55c0 6.61-1.49 12.86-4.15 18.45h-375.393c-3.731 0-6.525 3.362-5.912 7.042 1.009 6.063 3.359 12.532 6.706 17.418-22.47-1.42-40.25-20.08-40.25-42.91v-.55l217.138-8.844z" fill="#d8d8d8"/><path d="m472.58 459.002-431.83.638c-16.569 0-32.245-11.57-32.245-28.138 0-2.761 2.239-5 5-5l14.31-1h471.69c2.761 0 5 2.239 5 5v.449c0 4.659-1.062 9.069-2.957 13.003-4.844 10.056-17.058 15.048-28.968 15.048z" fill="#bde4ff"/><path d="m501.545 443.952c-4.84 10.06-15.13 17-27.04 17h-437c-16.57 0-30-13.43-30-30v-.45c0-2.76 2.24-5 5-5h15.31c4.52 10.84 15.21 18.45 27.69 18.45z" fill="#99dbff"/></g></g><g><path d="m326.505 176.021c-12.407 0-22.5 10.094-22.5 22.501s10.093 22.501 22.5 22.501 22.5-10.094 22.5-22.501-10.093-22.501-22.5-22.501zm0 30.002c-4.136 0-7.5-3.365-7.5-7.501s3.364-7.501 7.5-7.501 7.5 3.365 7.5 7.501-3.364 7.501-7.5 7.501z"/><path d="m499.505 417.999h-56.883c-4.142 0-7.5 3.358-7.5 7.5s3.358 7.5 7.5 7.5h54.291c-1.039 11.45-10.692 20.452-22.408 20.452h-340.053c-4.142 0-7.5 3.358-7.5 7.5s3.358 7.5 7.5 7.5h322.867c-3.239 16.261-17.615 28.555-34.813 28.555h-333c-17.198 0-31.575-12.295-34.813-28.555h44.867c4.142 0 7.5-3.358 7.5-7.5s-3.358-7.5-7.5-7.5h-62.055c-11.716 0-21.369-9.001-22.408-20.452h392.418c4.142 0 7.5-3.358 7.5-7.5s-3.358-7.5-7.5-7.5h-51.511v-16.166c55.157-3.37 99-49.304 99-105.294v-31.012c0-11.996-9.437-21.828-21.277-22.466-.343-4.755-1.019-9.468-2.013-14.108 5.055-4.13 8.29-10.408 8.29-17.43 0-12.407-10.093-22.501-22.5-22.501-1.279 0-2.531.113-3.753.319-6.067-8.159-13.254-15.291-21.431-21.317.445-1.762.684-3.606.684-5.505 0-9.777-6.269-18.112-14.996-21.21-2.588-18.584-10.257-36.068-22.103-50.58 15.312-6.78 26.195-24.341 29.502-32.657 1.544-3.524 1.383-7.509-.442-10.933-1.848-3.468-5.128-5.858-8.999-6.557-9.553-1.977-31.617-3.085-46.686 6.581-.719-.334-1.451-.644-2.197-.929.256-16.524-13.634-36.487-20.704-42.617-2.735-2.731-6.504-4.006-10.343-3.506-3.906.512-7.288 2.775-9.278 6.208-3.862 6.662-9.65 18.837-10.277 32.733-10.843-.677-22.14 7.024-25.826 17.257-25.279 6.569-47.126 22.613-61.038 44.812-4.948-.727-9.994-1.107-15.112-1.107-4.198 0-8.422.256-12.556.762-4.111.503-7.037 4.243-6.534 8.355.502 4.112 4.236 7.042 8.355 6.534 3.532-.432 7.144-.651 10.735-.651 20.802 0 40.255 7.246 55.553 19.814-2.446.701-4.378 1.579-6.101 2.366-2.955 1.349-5.089 2.323-10.031 2.323-4.94 0-7.074-.974-10.028-2.323-3.589-1.639-8.055-3.678-16.258-3.678-8.202 0-12.668 2.039-16.257 3.678-2.954 1.349-5.087 2.323-10.028 2.323-4.94 0-7.074-.974-10.027-2.323-3.589-1.639-8.055-3.678-16.258-3.678-8.202 0-12.668 2.039-16.257 3.678-1.518.693-2.822 1.286-4.4 1.7 5.612-5.297 11.973-9.906 18.991-13.647 3.655-1.949 5.038-6.492 3.089-10.146-1.948-3.655-6.491-5.038-10.147-3.09-33.52 17.872-54.343 52.554-54.343 90.511 0 16.134 3.793 29.684 11.288 40.504h-3.788c-12.407 0-22.5 10.093-22.5 22.5v31.012c0 55.99 43.843 101.924 99 105.294v16.166h-143.5c-6.893 0-12.5 5.607-12.5 12.5-.359 21.208 17.936 38.97 39.489 37.952 3.396 24.57 24.522 43.555 50.011 43.555h333c25.489 0 46.615-18.986 50.011-43.555 21.028 1.146 39.841-16.414 39.489-37.952.002-6.892-5.605-12.499-12.498-12.499zm-74.5-206.476c0 4.136-3.364 7.501-7.5 7.501s-7.5-3.365-7.5-7.501 3.364-7.501 7.5-7.501 7.5 3.365 7.5 7.501zm-24.474-14.745c-3.437 3.952-5.525 9.108-5.525 14.745 0 12.387 10.06 22.466 22.439 22.499.566 2.972.975 5.977 1.232 9.004h-27.962c.833-2.348 1.29-4.872 1.29-7.501 0-12.407-10.093-22.501-22.5-22.501s-22.5 10.094-22.5 22.501c0 2.63.458 5.154 1.29 7.501h-43.581c.833-2.348 1.29-4.872 1.29-7.501 0-12.407-10.093-22.501-22.5-22.501s-22.5 10.094-22.5 22.501c0 2.63.458 5.154 1.29 7.501h-17.974c1.222-14.554 6.008-28.358 14.041-40.536 2.527.985 5.271 1.531 8.142 1.531 12.407 0 22.5-10.094 22.5-22.501 0-2.404-.383-4.719-1.084-6.893 13.219-7.613 28.158-11.61 43.584-11.61 5.594 0 11.154.533 16.6 1.577 1.052 11.437 10.694 20.425 22.4 20.425 5.052 0 9.72-1.674 13.479-4.496 6.233 4.672 11.768 10.111 16.549 16.255zm-38.526 38.747c0-4.136 3.364-7.501 7.5-7.501s7.5 3.365 7.5 7.501-3.364 7.501-7.5 7.501-7.5-3.365-7.5-7.501zm-86 0c0-4.136 3.364-7.501 7.5-7.501s7.5 3.365 7.5 7.501-3.364 7.501-7.5 7.501-7.5-3.365-7.5-7.501zm-189-33.003c0-5.195.463-10.317 1.348-15.321 1.481.411 2.734.981 4.182 1.641 3.589 1.639 8.056 3.678 16.26 3.678 8.203 0 12.67-2.039 16.259-3.677 2.954-1.349 5.088-2.323 10.03-2.323 4.94 0 7.074.974 10.028 2.323 3.589 1.639 8.055 3.678 16.258 3.678 8.202 0 12.668-2.039 16.257-3.678 2.954-1.349 5.088-2.323 10.028-2.323s7.074.974 10.027 2.323c3.589 1.639 8.055 3.678 16.258 3.678 8.202 0 12.668-2.039 16.257-3.678 2.954-1.349 5.088-2.323 10.028-2.323 1.817 0 3.239.143 4.432.362.499 2.032 1.274 3.954 2.284 5.728-3.713 5.402-6.887 11.082-9.468 16.996-6.49.395-10.341 2.149-13.505 3.594-2.953 1.349-5.087 2.323-10.027 2.323s-7.074-.974-10.028-2.323c-3.588-1.639-8.055-3.678-16.257-3.678-8.203 0-12.669 2.039-16.258 3.678-2.953 1.349-5.087 2.323-10.027 2.323s-7.075-.974-10.028-2.323c-3.589-1.639-8.055-3.678-16.257-3.678-8.204 0-12.67 2.039-16.26 3.678-2.954 1.348-5.088 2.323-10.03 2.323s-7.076-.975-10.03-2.323c-2.812-1.283-6.172-2.809-11.436-3.411-.212-2.332-.325-4.75-.325-7.267zm187-21.001c0 4.136-3.364 7.501-7.5 7.501s-7.5-3.365-7.5-7.501 3.364-7.501 7.5-7.501 7.5 3.364 7.5 7.501zm96.5-11.501c-4.136 0-7.5-3.365-7.5-7.501s3.364-7.501 7.5-7.501 7.5 3.365 7.5 7.501-3.364 7.501-7.5 7.501zm-55.5-111.011c10.477 0 19 8.524 19 19.002s-8.523 19.002-19 19.002-19-8.524-19-19.002c0-10.477 8.524-19.002 19-19.002zm55.346-4.137c-3.142 6.469-10.679 17.889-21.362 22.5-.139-7.475-2.697-14.367-6.929-19.923 9.828-4.056 20.949-3.604 28.291-2.577zm-72.197-38.149c4.805 5.162 12.542 16.061 13.741 27.435-5.616.512-10.838 2.396-15.334 5.312-1.443-1.882-3.134-3.553-5.011-4.986-.884-10.794 3.177-21.16 6.604-27.761zm-22.649 37.286c4.468 0 8.472 2.622 10.356 6.512-2.68 4.45-4.363 9.561-4.757 15.025-1.698.949-3.614 1.467-5.599 1.467-6.341 0-11.5-5.16-11.5-11.502 0-6.343 5.159-11.502 11.5-11.502zm-25.657 18.141c2.954 11.41 13.337 19.862 25.657 19.862 2.745 0 5.435-.427 7.995-1.236 5.058 12.44 17.27 21.238 31.505 21.238 11.267 0 21.267-5.514 27.457-13.981 10.709 12.283 17.767 27.29 20.385 43.328-4.541 1.649-8.404 4.721-11.051 8.674-6.653-1.336-13.452-2.017-20.291-2.017-18.738 0-36.86 5.053-52.769 14.631-3.306-2.15-7.207-3.455-11.399-3.609-12.373-26.47-35.007-45.903-62.068-54.351 10.981-15.381 26.626-26.806 44.579-32.539zm-124.804 78.689c2.953-1.349 5.087-2.323 10.027-2.323s7.074.974 10.027 2.323c3.589 1.639 8.055 3.678 16.257 3.678 8.203 0 12.669-2.039 16.258-3.678 2.953-1.349 5.087-2.323 10.027-2.323s7.075.974 10.028 2.323c3.588 1.639 8.055 3.678 16.257 3.678 8.204 0 12.67-2.039 16.26-3.678 2.954-1.348 5.088-2.323 10.03-2.323 1.227 0 2.328.071 3.349.199 3.56 4.587 6.704 9.561 9.344 14.893-2.866 2.181-5.194 5.032-6.75 8.319-1.734-.253-3.69-.407-5.934-.407-8.203 0-12.669 2.039-16.258 3.678-2.953 1.349-5.087 2.323-10.027 2.323s-7.074-.974-10.028-2.323c-3.588-1.639-8.055-3.678-16.257-3.678-8.203 0-12.669 2.039-16.258 3.678-2.953 1.349-5.087 2.323-10.027 2.323s-7.075-.974-10.028-2.323c-3.589-1.639-8.055-3.678-16.257-3.678-8.204 0-12.67 2.039-16.26 3.678-2.954 1.348-5.088 2.323-10.03 2.323s-7.076-.975-10.031-2.323c-1.825-.833-3.881-1.769-6.537-2.488 2.401-6.638 5.596-12.943 9.5-18.79 2.198.399 4.516.598 7.059.598 8.204-.001 12.67-2.04 16.259-3.679zm-53.039 145.7v-31.012c0-4.136 3.364-7.5 7.5-7.5h89.117c4.142 0 7.5-3.358 7.5-7.5s-3.358-7.5-7.5-7.5h-65.117c-5.506-4.56-9.605-10.134-12.341-16.795 3.984 1.795 8.477 4.125 17.63 4.293 8.203 0 12.67-2.039 16.259-3.677 2.955-1.349 5.089-2.323 10.031-2.323 4.94 0 7.074.974 10.028 2.323 3.589 1.639 8.055 3.678 16.258 3.678 8.202 0 12.668-2.039 16.257-3.678 2.954-1.349 5.088-2.323 10.028-2.323s7.074.974 10.027 2.323c3.589 1.639 8.055 3.678 16.258 3.678 8.418-.154 12.802-2.018 17.994-4.451-1.348 5.529-2.229 11.193-2.641 16.953h-25.606c-4.142 0-7.5 3.358-7.5 7.5s3.358 7.5 7.5 7.5h228.819c4.136 0 7.5 3.364 7.5 7.5v31.012c0 49.902-40.598 90.5-90.5 90.5h-187c-49.903-.001-90.501-40.6-90.501-90.501zm99 105.5h170v15.96h-170z"/></g></g></svg>