<svg id="Capa_1" enable-background="new 0 0 511.848 511.848" height="512" viewBox="0 0 511.848 511.848" width="512" xmlns="http://www.w3.org/2000/svg"><g><g><g><path d="m13.188 397.864c-5.883-5.883-5.713-13.521.17-19.404l162.004-159.961 19.165 19.165-161.2 161.2c-2.187 2.187-4.88 3.561-7.702 4.122-4.769.948-8.741-1.426-12.437-5.122z" fill="#f6d190"/><path d="m27.023 382.561c-5.56 5.56-5.86 14.4-.89 20.32-4.91 1.15-10.28-.19-14.11-4.02-5.88-5.88-5.88-15.42 0-21.3l161.2-161.2 10 10z" fill="#ecbd83"/></g><g><path d="m114.381 499.057c-5.883-5.883-5.713-13.521.17-19.404l162.004-159.961 19.165 19.165-161.2 161.2c-2.187 2.187-4.88 3.561-7.702 4.122-4.769.948-8.741-1.426-12.437-5.122z" fill="#f6d190"/><path d="m128.216 483.753c-5.56 5.56-5.86 14.4-.89 20.32-4.91 1.15-10.28-.19-14.11-4.02-5.88-5.88-5.88-15.42 0-21.3l161.2-161.2 10 10z" fill="#ecbd83"/></g><path d="m488.519 124.047c-9.035-9.035-20.488-14.18-32.276-15.434-15.587-1.658-32.171 6.155-44.118 18.103l-11.362 11.362c-6.863 6.863-20.009 5.927-26.872-.936-6.199-6.199-5.792-16.188-.794-23.061.536-.737 1.136-1.441 1.801-2.106l12.782-12.782c20.982-20.982 20.982-55.002 0-75.984-9.033-9.033-20.481-14.177-32.266-15.433-15.59-1.661-31.769 6.483-43.718 18.433l-202.164 201.162c-5.883 5.883-5.883 15.421 0 21.304l52.68 52.68c5.883 5.883 15.421 5.883 21.304 0l1.775-1.775c.582-.582 1.196.885 1.834.401.55-.416 1.118-.796 1.702-1.139 6.735-3.955 15.399-4.777 21.179 1.003 6.863 6.863 9.003 19.726 2.14 26.59l-1.775 1.775c-5.883 5.883-5.883 15.421 0 21.304l52.68 52.68c5.883 5.883 14.637 5.883 20.52 0l4.275-1.491 200.673-200.673c20.982-20.981 20.982-55.001 0-75.983z" fill="#fff0af"/><g fill="#ffe07d"><path d="m132.941 245.799 54.192 54.192c-.64.47-1.26 1.01-1.84 1.59l-1.78 1.77c-5.88 5.89-15.42 5.89-21.3 0l-54.68-54.68c-5.88-5.88-5.88-15.42 0-21.3l204.16-204.16c10.49-10.5 24.24-15.74 37.99-15.74 1.91 0 3.83.1 5.73.31l-222.472 222.462c-4.295 4.295-4.296 11.26 0 15.556z"/><path d="m413.523 123.081c-.33.32-.66.64-.99.97l-12.78 12.78c-.11.11-.22.22-.33.31l13.1-13.1c.33-.33.66-.65 1-.96z"/><path d="m445.363 108.561c-.17.01-.33.03-.5.05.01-.01.02-.01.04-.01.15-.02.31-.03.46-.04z"/><path d="m453.103 108.371c-1.71-.08-3.43-.08-5.15 0 .85-.05 1.71-.07 2.56-.07.86 0 1.73.02 2.59.07z"/></g><path d="m210.143 326.431c3.43-3.43 5.15-7.93 5.15-12.42 0-4.5-1.72-9-5.15-12.43-6.86-6.86-17.99-6.86-24.85 0l189.45-189.44c-3.33 3.41-4.99 7.83-4.99 12.26 0 4.5 1.71 8.99 5.14 12.43 6.87 6.86 18 6.86 24.86 0l-93.714 106.31-97.666 85.07z" fill="#ffd064"/><path d="m233.773 331.071c-4.3 4.3-4.3 11.26 0 15.56l54.07 54.07-3.49 3.49c-5.88 5.89-15.42 5.89-21.3 0l-54.69-54.69c-1.016-1.242-2.518-2.482-3.73-6.18-.89-2.85-.9-5.9-.06-8.76.603-2.383 2.573-5.366 5.73-8.29l189.12-189.13c.11-.09.22-.2.33-.31l12.78-12.78c.943-.391 1.577-3.22 13.89-10.05.82-.41 1.65-.8 2.48-1.16.698.153 9.507-5.775 27.34-4.23l-.01.01z" fill="#ffe07d"/></g><path d="m493.822 118.743c-23.873-23.873-62.718-23.873-86.591 0l-12.782 12.783c-3.929 3.928-10.319 3.928-14.248 0-3.928-3.928-3.928-10.32 0-14.249l12.782-12.782c23.874-23.873 23.874-62.718 0-86.591-23.873-23.873-62.717-23.872-86.591 0l-141.422 141.423c-2.929 2.929-2.929 7.678 0 10.606 2.929 2.929 7.678 2.929 10.606 0l141.422-141.422c18.025-18.024 47.354-18.024 65.378 0 18.024 18.025 18.024 47.353 0 65.378-1.726 1.726-197.684 197.685-204.164 204.164-1.429 1.429-3.328 2.215-5.349 2.215s-3.92-.787-5.349-2.215l-54.68-54.68c-2.95-2.949-2.95-7.749 0-10.698l37.88-37.879c2.929-2.929 2.929-7.678 0-10.606-2.929-2.93-7.678-2.929-10.606 0l-37.88 37.879c-8.797 8.797-8.798 23.112 0 31.911l11.385 11.385-106.893 106.892c-8.798 8.798-8.798 23.112 0 31.91 7.713 7.982 22.938 9.204 31.911 0l106.894-106.894 11.385 11.385c8.798 8.798 23.112 8.798 31.91 0l1.775-1.775c3.929-3.928 10.32-3.928 14.248 0 1.903 1.902 2.951 4.433 2.951 7.124s-1.048 5.221-2.952 7.125l-1.774 1.775c-4.262 4.262-6.609 9.928-6.609 15.956s2.347 11.693 6.609 15.955l11.74 11.74-61.889 61.889c-2.929 2.929-2.929 7.678 0 10.606 1.464 1.464 3.384 2.197 5.303 2.197s3.839-.732 5.303-2.197l61.889-61.889 10.698 10.698-106.894 106.893c-2.949 2.949-7.749 2.949-10.698 0s-2.949-7.749 0-10.698l20.271-20.271c2.929-2.929 2.929-7.677 0-10.606-2.929-2.93-7.678-2.929-10.606 0l-20.271 20.271c-8.798 8.798-8.798 23.113 0 31.911 8.114 8.035 22.538 9.238 31.911 0l106.894-106.894 11.03 11.03c4.399 4.399 10.177 6.598 15.955 6.598s11.556-2.199 15.955-6.598l204.164-204.164c23.872-23.873 23.872-62.717-.001-86.591zm-465.799 274.818c-2.252 2.151-6.887 3.429-10.697 0-2.949-2.949-2.949-7.748 0-10.697l106.894-106.894 10.698 10.698zm455.192-198.833-204.163 204.163c-1.429 1.429-3.328 2.215-5.349 2.215s-3.92-.787-5.349-2.215l-54.68-54.681c-1.429-1.428-2.216-3.328-2.216-5.348s.787-3.92 2.217-5.35c0 0 120.114-120.115 120.17-120.171 2.929-2.929 2.929-7.678 0-10.606-2.929-2.929-7.678-2.929-10.606 0l-102.155 102.155c-1.244-3.19-3.141-6.12-5.635-8.613-2.533-2.533-5.48-4.404-8.623-5.625l157.144-157.144c1.221 3.143 3.091 6.09 5.625 8.624 2.533 2.533 5.48 4.404 8.623 5.625l-30.292 30.292c-2.929 2.929-2.929 7.678 0 10.606 1.464 1.464 3.384 2.197 5.303 2.197s3.839-.732 5.303-2.197c9.613-9.613 50.938-50.938 59.305-59.306 8.732-8.731 20.341-13.54 32.689-13.54s23.958 4.809 32.689 13.541 13.54 20.341 13.54 32.688c0 12.349-4.808 23.958-13.54 32.69z"/></g></svg>