<svg id="Capa_1" enable-background="new 0 0 512.01 512.01" height="512" viewBox="0 0 512.01 512.01" width="512" xmlns="http://www.w3.org/2000/svg"><g><g><path d="m255.826 33.755c13.037.033 24.834 7.774 29.969 19.784l4.357 10.178 2.513 8.48c4.762 11.126 8.301 20.81 10.026 32.789l5.079 35.269h-103.353l4.894-35.211c1.67-12.017 6.499-20.525 11.226-31.699l7.009-16.568c3.925-9.268 10.258-19.292 19.678-21.876 2.76-.757 5.648-1.153 8.602-1.146z" fill="#8e5644"/><path d="m302.695 104.985c-1.73-11.98-5.02-23.68-9.78-34.81l-2.76-6.46c-3.98 3.63-7.22 8.14-9.42 13.33l-4.57 10.81c-3.66 8.66-6.18 17.77-7.46 27l-.02.14c-.286 2.067-.393 4.138-.33 6.193.051 1.688-1.348 3.067-3.038 3.067h-19.684c-1.703 0-3.024-1.424-2.976-3.126.059-2.096-.058-4.207-.362-6.313-1.33-9.28-3.88-18.36-7.57-26.98l-3.299-7.697c-.247-.575-.31-1.215-.176-1.826 1.822-8.279 4.39-16.381 7.694-24.207l7.01-16.57c.38-.9.8-1.78 1.27-2.63-9.42 2.58-17.34 9.36-21.27 18.63l-7.01 16.57c-4.72 11.18-7.96 22.92-9.63 34.94l-4.9 35.21 32.82 3.516h37.54l32.99-3.516z" fill="#824d3f"/><g><path d="m194.888 70.755c8.508.021 16.206 5.073 19.557 12.91l4.648 10.86c3.108 7.261 5.252 14.897 6.378 22.714.348 2.414.254 4.778-.216 7.016-.16.763-.836 1.373-1.101 2.09-2.867 7.762-11.151 12.872-20.149 12.872l-17.681.064c-12.228 0-21.981-9.973-20.298-22.085 1.09-7.842 2.66-13.708 5.745-21l4.574-10.812c3.072-7.254 8.947-13.896 16.71-14.554.606-.051 1.217-.077 1.833-.075z" fill="#a36b5b"/><path d="m225.255 124.255c-1.9 9.03-9.89 16-19.72 16l-10.742 3.516-10.318-3.516c-12.23 0-21.63-10.81-19.95-22.92l.01-.06c1.09-7.84 3.2-15.51 6.29-22.8l4.57-10.81c3.07-7.25 9.9-12.18 17.66-12.83l-3.23 7.64c-3.09 7.29-5.2 14.96-6.29 22.8l-.98 7.05c-1.17 8.42 5.37 15.93 13.86 15.93z" fill="#8e5644"/></g><g><path d="m315.888 70.755c8.508.021 16.206 5.073 19.557 12.91l4.648 10.86c3.108 7.261 5.252 14.897 6.378 22.714.348 2.414.254 4.778-.216 7.016-.16.763-.836 1.373-1.101 2.09-2.867 7.762-11.151 12.872-20.149 12.872l-17.681.064c-12.228 0-21.981-9.973-20.298-22.085 1.09-7.842 2.66-13.708 5.745-21l4.574-10.812c3.072-7.254 8.947-13.896 16.71-14.554.605-.051 1.217-.077 1.833-.075z" fill="#a36b5b"/><path d="m346.255 124.255c-1.9 9.03-9.89 16-19.72 16l-9.776 3.516-11.284-3.516c-12.23 0-21.63-10.81-19.95-22.92l.01-.06c1.09-7.84 3.2-15.51 6.29-22.8l4.57-10.81c3.07-7.25 9.9-12.18 17.66-12.83l-3.23 7.64c-3.09 7.29-5.2 14.96-6.29 22.8l-.98 7.05c-1.17 8.42 5.37 15.93 13.86 15.93z" fill="#8e5644"/></g><path d="m423.505 170.255-168.575-8.612-163.35 8.453.319 229.159h327.83l3.776-20z" fill="#a36b5b"/><path d="m393.505 140.255h-260.585l-13.415 1c-14.406 0-25.449 8.662-28.543 22.005-.465 2.003-2.457 4.832-2.457 6.995h335c0-16.569-13.431-30-30-30z" fill="#f8f7f7"/><path d="m423.505 379.255v20l-171.947 10.218-163.053-10.218v-229l11.223-5.548 8.777 5.548v197c0 6.627 5.373 12 12 12z" fill="#8e5644"/><path d="m279.839 275.255h-47.667c-17.673 0-32-14.327-32-32 0-17.673 14.327-32 32-32h47.667c17.673 0 32 14.327 32 32-.001 17.673-14.327 32-32 32z" fill="#a36b5b"/><path d="m391.505 275.255h-47.667c-17.673 0-32-14.327-32-32 0-17.673 14.327-32 32-32h47.667c17.673 0 32 14.327 32 32 0 17.673-14.327 32-32 32z" fill="#a36b5b"/><g><path d="m166.112 274.154-43.319-.426c-17.673 0-32.936-12.8-32.936-30.473 0-13.43 6.923-24.928 18.651-29.675 3.705-1.499 7.755-2.325 11.998-2.325h47.667c17.673 0 32 14.327 32 32 0 4.244-.826 8.294-2.326 12-4.748 11.727-18.306 18.899-31.735 18.899z" fill="#8e5644"/><path d="m108.505 237.255v-23.68c-4.01 1.63-7.62 4.04-10.63 7.05-5.79 5.8-9.37 13.8-9.37 22.63 0 4.244.831 8.293 2.332 12h-.002c3.212 7.153 8.287 13.869 17.67 17.68v-.011c3.706 1.501 7.755 2.331 12 2.331h47.67c8.83 0 16.83-3.58 22.63-9.37 3.01-3.01 5.42-6.62 7.04-10.63h-71.34c-9.941 0-18-8.059-18-18z" fill="#824d3f"/></g><g><path d="m277.866 274.154-43.319-.426c-17.673 0-32.936-12.8-32.936-30.473 0-13.43 6.923-24.928 18.651-29.675 3.705-1.499 7.755-2.325 11.998-2.325h47.667c17.673 0 32 14.327 32 32 0 4.244-.826 8.294-2.326 12-4.748 11.727-18.305 18.899-31.735 18.899z" fill="#8e5644"/><path d="m220.26 237.255v-23.68c-4.01 1.63-7.62 4.04-10.63 7.05-5.79 5.8-9.37 13.8-9.37 22.63 0 4.244.831 8.293 2.332 12h-.002c3.212 7.153 8.287 13.869 17.67 17.68v-.011c3.706 1.501 7.755 2.331 12 2.331h47.67c8.83 0 16.83-3.58 22.63-9.37 3.01-3.01 5.42-6.62 7.04-10.63h-71.34c-9.941 0-18-8.059-18-18z" fill="#824d3f"/></g><g><path d="m389.621 274.154-43.319-.426c-17.673 0-32.936-12.8-32.936-30.473 0-13.43 6.923-24.928 18.651-29.675 3.705-1.499 7.755-2.325 11.998-2.325h47.667c17.673 0 32 14.327 32 32 0 4.244-.826 8.294-2.326 12-4.748 11.727-18.306 18.899-31.735 18.899z" fill="#8e5644"/><path d="m332.014 237.255v-23.68c-4.01 1.63-7.62 4.04-10.63 7.05-5.79 5.8-9.37 13.8-9.37 22.63 0 4.244.831 8.293 2.332 12h-.002c3.212 7.153 8.287 13.869 17.67 17.68v-.011c3.706 1.501 7.755 2.331 12 2.331h47.67c8.83 0 16.83-3.58 22.63-9.37 3.01-3.01 5.42-6.62 7.04-10.63h-71.34c-9.941 0-18-8.059-18-18z" fill="#824d3f"/></g><g><path d="m166.112 367.154-43.319-.426c-17.673 0-32.936-12.8-32.936-30.473 0-13.43 6.923-24.928 18.651-29.675 3.705-1.5 7.755-2.325 11.998-2.325h47.667c17.673 0 32 14.327 32 32 0 4.244-.826 8.294-2.326 12-4.748 11.727-18.306 18.899-31.735 18.899z" fill="#8e5644"/><path d="m108.505 330.255v-23.68c-4.01 1.63-7.62 4.04-10.63 7.05-5.79 5.8-9.37 13.8-9.37 22.63 0 4.244.831 8.293 2.332 12h-.002c3.212 7.153 8.287 13.869 17.67 17.68v-.011c3.706 1.501 7.755 2.331 12 2.331h47.67c8.83 0 16.83-3.58 22.63-9.37 3.01-3.01 5.42-6.62 7.04-10.63h-71.34c-9.941 0-18-8.059-18-18z" fill="#824d3f"/></g><g><path d="m277.866 367.154-43.319-.426c-17.673 0-32.936-12.8-32.936-30.473 0-13.43 6.923-24.928 18.651-29.675 3.705-1.5 7.755-2.325 11.998-2.325h47.667c17.673 0 32 14.327 32 32 0 4.244-.826 8.294-2.326 12-4.748 11.727-18.305 18.899-31.735 18.899z" fill="#8e5644"/><path d="m220.26 330.255v-23.68c-4.01 1.63-7.62 4.04-10.63 7.05-5.79 5.8-9.37 13.8-9.37 22.63 0 4.244.831 8.293 2.332 12h-.002c3.212 7.153 8.287 13.869 17.67 17.68v-.011c3.706 1.501 7.755 2.331 12 2.331h47.67c8.83 0 16.83-3.58 22.63-9.37 3.01-3.01 5.42-6.62 7.04-10.63h-71.34c-9.941 0-18-8.059-18-18z" fill="#824d3f"/></g><g><path d="m389.621 367.154-43.319-.426c-17.673 0-32.936-12.8-32.936-30.473 0-13.43 6.923-24.928 18.651-29.675 3.705-1.5 7.755-2.325 11.998-2.325h47.667c17.673 0 32 14.327 32 32 0 4.244-.826 8.294-2.326 12-4.748 11.727-18.306 18.899-31.735 18.899z" fill="#8e5644"/><path d="m332.014 330.255v-23.68c-4.01 1.63-7.62 4.04-10.63 7.05-5.79 5.8-9.37 13.8-9.37 22.63 0 4.244.831 8.293 2.332 12h-.002c3.212 7.153 8.287 13.869 17.67 17.68v-.011c3.706 1.501 7.755 2.331 12 2.331h47.67c8.83 0 16.83-3.58 22.63-9.37 3.01-3.01 5.42-6.62 7.04-10.63h-71.34c-9.941 0-18-8.059-18-18z" fill="#824d3f"/></g><path d="m138.505 140.255c-16.57 0-30 13.43-30 30h-20c0-16.57 13.43-30 30-30z" fill="#e8e8e8"/><g><path d="m422.505 478.255h-333c-.924 0-1.841-.029-2.75-.087-22.467-1.418-38.09-20.089-38.09-42.913v-.551h416.33v.551c0 6.604-.978 12.86-3.638 18.451-6.906 14.515-21.707 24.549-38.852 24.549z" fill="#e8e8e8"/><path d="m465.505 434.705v.55c0 6.61-1.49 12.86-4.15 18.45h-375.393c-3.731 0-6.525 3.362-5.912 7.042 1.009 6.063 3.359 12.532 6.706 17.418-22.47-1.42-40.25-20.08-40.25-42.91v-.55l217.138-8.844z" fill="#d8d8d8"/><path d="m472.58 432.755-431.83.638c-16.569 0-32.245-11.57-32.245-28.138 0-2.761 2.239-5 5-5l14.31-1h471.69c2.761 0 5 2.239 5 5v.449c0 4.659-1.062 9.069-2.957 13.003-4.844 10.056-17.058 15.048-28.968 15.048z" fill="#f8f7f7"/><path d="m501.545 417.705c-4.84 10.06-15.13 17-27.04 17h-437c-16.57 0-30-13.43-30-30v-.45c0-2.76 2.24-5 5-5h15.31c4.52 10.84 15.21 18.45 27.69 18.45z" fill="#e8e8e8"/></g></g><path d="m499.505 391.755h-68.5v-221.5c0-20.678-16.822-37.5-37.5-37.5h-42.399c2.604-5.059 3.616-10.844 2.789-16.584-1.218-8.459-3.541-16.734-6.906-24.597l-4.647-10.857c-4.074-9.95-15.141-17.497-26.508-17.461-5.719 0-11.148 1.697-15.716 4.707-.219-.57-6.942-16.222-7.426-17.373-6.304-14.742-20.767-24.294-36.845-24.334-.035 0-.067 0-.102 0-16.027 0-30.423 9.553-36.694 24.362-1.344 3.214-6.598 15.524-7.566 17.934-3.714-2.703-10.467-5.299-16.649-5.295-11.508 0-21.844 6.857-26.345 17.489l-4.574 10.812c-3.339 7.893-5.631 16.2-6.819 24.749-.792 5.697.226 11.433 2.809 16.451h-41.4c-20.678 0-37.5 16.822-37.5 37.5v221.5h-68.5c-6.893 0-12.5 5.607-12.5 12.5-.357 21.207 17.938 38.967 39.49 37.949 3.398 24.568 24.523 43.551 50.01 43.551h333c25.487 0 46.613-18.983 50.01-43.551 21.027 1.146 39.84-16.412 39.49-37.949-.002-6.896-5.609-12.503-12.502-12.503zm-219.667-95h-47.667c-13.153 0-24.817 6.468-32 16.384-7.183-9.916-18.847-16.384-32-16.384h-47.666c-9.25 0-17.761 3.205-24.5 8.551v-31.101c6.739 5.346 15.25 8.551 24.5 8.551h47.666c13.153 0 24.817-6.468 32-16.384 7.183 9.916 18.847 16.384 32 16.384h7.387c4.142 0 7.5-3.358 7.5-7.5s-3.358-7.5-7.5-7.5h-7.387c-13.509 0-24.5-10.991-24.5-24.5s10.991-24.5 24.5-24.5h47.667c13.51 0 24.5 10.991 24.5 24.5s-10.99 24.5-24.5 24.5h-5.429c-4.143 0-7.5 3.358-7.5 7.5s3.357 7.5 7.5 7.5h5.429c13.153 0 24.817-6.468 32-16.384 7.183 9.916 18.847 16.384 32 16.384h47.667c9.25 0 17.761-3.205 24.5-8.551v31.101c-6.739-5.346-15.25-8.551-24.5-8.551h-47.667c-13.153 0-24.817 6.468-32 16.384-7.183-9.916-18.847-16.384-32-16.384zm24.5 39.5c0 13.509-10.99 24.5-24.5 24.5h-47.667c-13.509 0-24.5-10.991-24.5-24.5s10.991-24.5 24.5-24.5h47.667c13.51 0 24.5 10.991 24.5 24.5zm-111.666 0c0 13.509-10.991 24.5-24.5 24.5h-47.666c-13.509 0-24.5-10.991-24.5-24.5s10.991-24.5 24.5-24.5h47.666c13.509 0 24.5 10.991 24.5 24.5zm-96.667-93c0-13.509 10.991-24.5 24.5-24.5h47.666c13.509 0 24.5 10.991 24.5 24.5s-10.991 24.5-24.5 24.5h-47.666c-13.509 0-24.5-10.991-24.5-24.5zm223.333 0c0-13.509 10.99-24.5 24.5-24.5h47.667c13.51 0 24.5 10.991 24.5 24.5s-10.99 24.5-24.5 24.5h-47.667c-13.51 0-24.5-10.991-24.5-24.5zm24.5 68.5h47.667c13.51 0 24.5 10.991 24.5 24.5s-10.99 24.5-24.5 24.5h-47.667c-13.51 0-24.5-10.991-24.5-24.5s10.99-24.5 24.5-24.5zm-28.004-233.5c4.379-.058 10.384 3.026 12.717 8.362l4.647 10.859c2.851 6.659 4.818 13.667 5.849 20.832.523 3.633-.555 7.307-2.958 10.081s-5.887 4.366-9.558 4.366h-21.054c-3.713 0-7.1-1.542-9.537-4.342s-3.499-6.367-2.996-9.982c.003-.021.015-.101.018-.122.999-7.19 2.939-14.225 5.768-20.91l4.572-10.809c2.146-5.066 7.063-8.335 12.532-8.335zm-82.971-21.792c3.915-9.245 12.891-15.208 22.882-15.208h.062c10.082.025 19.145 6.004 23.093 15.235l7.122 16.641c1.155 2.698 2.227 5.459 3.201 8.239l-4.309 10.186c-3.339 7.893-5.631 16.2-6.802 24.627-.619 4.309-.033 10.992 2.791 16.573h-50.799c2.604-5.059 3.616-10.844 2.789-16.585-1.218-8.461-3.542-16.737-6.906-24.596l-3.785-8.844c1.091-3.278 2.311-6.532 3.652-9.702zm-57.922 71.95c-2.438-2.8-3.499-6.367-2.979-10.104.999-7.19 2.939-14.225 5.768-20.91l4.573-10.81c2.146-5.066 7.062-8.335 12.532-8.335 4.379-.058 10.384 3.026 12.716 8.362l4.648 10.859c2.85 6.657 4.817 13.666 5.849 20.832.523 3.633-.555 7.307-2.958 10.082-2.403 2.774-5.887 4.365-9.558 4.365h-21.054c-3.712.001-7.099-1.541-9.537-4.341zm-56.436 19.342h275c9.777 0 18.114 6.271 21.21 15h-51.412c-4.143 0-7.5 3.358-7.5 7.5s3.357 7.5 7.5 7.5h52.702v34.551c-6.739-5.346-15.25-8.551-24.5-8.551h-47.667c-13.153 0-24.817 6.468-32 16.384-7.183-9.916-18.847-16.384-32-16.384h-47.667c-13.153 0-24.817 6.468-32 16.384-7.183-9.916-18.847-16.384-32-16.384h-47.666c-9.25 0-17.761 3.205-24.5 8.551v-34.551h232.404c4.143 0 7.5-3.358 7.5-7.5s-3.357-7.5-7.5-7.5h-231.114c3.096-8.729 11.433-15 21.21-15zm356 279.449h-100.521c-4.143 0-7.5 3.358-7.5 7.5s3.357 7.5 7.5 7.5h83.334c-3.24 16.259-17.615 28.551-34.813 28.551h-333c-17.197 0-31.573-12.293-34.813-28.551h284.313c4.143 0 7.5-3.358 7.5-7.5s-3.357-7.5-7.5-7.5h-301.5c-11.715 0-21.368-9-22.407-20.449h138.843c4.142 0 7.5-3.358 7.5-7.5s-3.358-7.5-7.5-7.5h-57.936v-24.551c6.739 5.346 15.25 8.551 24.5 8.551h47.666c13.153 0 24.817-6.468 32-16.384 7.183 9.916 18.847 16.384 32 16.384h47.667c13.153 0 24.817-6.468 32-16.384 7.183 9.916 18.847 16.384 32 16.384h47.667c9.25 0 17.761-3.205 24.5-8.551v24.551h-227.085c-4.142 0-7.5 3.358-7.5 7.5s3.358 7.5 7.5 7.5h307.992c-1.039 11.449-10.692 20.449-22.407 20.449z"/></g></svg>