<svg id="Capa_1" enable-background="new 0 0 512.01 512.01" height="512" viewBox="0 0 512.01 512.01" width="512" xmlns="http://www.w3.org/2000/svg"><g><g><path d="m447.046 142.388h-381.928l5.214 110.324-5.214 87.457h381.928l-1.709-82.01 1.709-8.629z" fill="#f6d190"/><path d="m405.212 267.11c-1.559 1.508-4.028 1.577-5.581.062-11.579-11.292-27.075-17.662-43.469-17.662h-5.32c-16.485 0-31.464 6.33-42.608 16.748-1.554 1.453-3.969 1.511-5.502.036-13.097-12.592-32.355-18.027-50.65-16.785-15.263-.134-31.134 6.075-42.604 16.829-1.514 1.42-3.898 1.424-5.404-.004-11.778-11.173-29.555-17.761-47.061-16.825-16.331 0-31.798 6.336-43.372 17.57-1.521 1.476-3.966 1.488-5.489.014-5.711-5.527-12.457-9.946-19.883-12.973-1.893-.772-3.146-2.592-3.146-4.637v-107.094h-20v107.12 90.66h20 361.92v-90.64c-16.067.387-30.85 6.957-41.831 17.581z" fill="#ecbd83"/><g><path d="m112.417 320.111 9.346 76.26 24.786 108.143 31.895-6.015 35.97 6.015 2.668-113.93-10.453-80.54c-.973-24.32-20.972-43.534-45.311-43.534h-4.31c-28.352 0-49.751 25.724-44.591 53.601z" fill="#ccf49f"/><path d="m305.535 310.044-6.983 80.2-.802 114.271 32.693-4.654 34.407 4.654 27.21-109.81 8.617-74.18c5.452-27.997-15.989-54.015-44.512-54.015h-5.32c-24.338 0-44.337 19.214-45.31 43.534z" fill="#ccf49f"/><g fill="#b3e59f"><path d="m25.082 329.989 57.106 156.164c3.62 9.831 12.985 16.362 23.461 16.362l40.9 2-37.187-200.91c-3.979-21.497-22.729-37.094-44.59-37.094h-1.173c-15.304 0-28.34 7.393-36.462 18.386-8.621 11.666-7.668 29.849-2.055 45.092z"/><path d="m404.054 303.19-39.203 201.324 41.665-2c10.476 0 19.841-6.531 23.461-16.362l3.341-1.641 57.803-156.985c10.901-29.604-11.007-61.017-42.555-61.017-21.704.001-40.364 15.379-44.512 36.681z"/><path d="m297.75 504.515-39.137-6.356-44.2 6.356-7.639-190.843c-1.03-25.736 19.555-47.161 45.311-47.161h7.992c25.756 0 46.342 21.426 45.311 47.161z"/><path d="m214.412 504.51h-67.86l-9.13-8.053 5.43-11.947h70.76l5.853 10z"/><path d="m368.742 484.51 3.574 10-7.464 10h-67.1l-5.436-7.713 6.236-12.287z"/></g><path d="m146.552 504.51h-42.9c-10.48 0-19.84-6.53-23.46-16.36l-59.15-160.62c-5.61-15.24-2.53-30.97 6.1-42.63l71.81 196.34c.72 1.96 2.61 3.27 4.7 3.27h39.2z" fill="#95d6a4"/><path d="m433.312 484.51-1.34 3.64c-3.62 9.83-12.98 16.36-23.46 16.36h-43.66l3.89-20z" fill="#95d6a4"/><path d="m298.552 484.51-.8 20h-83.34l-.8-20z" fill="#95d6a4"/></g><path d="m420.008 75.97h-327.852c-9.599 0-18.456 3.176-25.577 8.535-1.707 1.284-2.726 4.983-4.22 6.504-7.542 7.682-10.723 16.81-10.723 28.426l-.34 80.511c0 15.391 10.15 28.645 25.532 29.191 3.349.119 6.676 1.172 9.686.223 11.499-3.627 19.837-14.378 19.837-27.075v-25.547c0-15.677 12.709-28.385 28.385-28.385 2.386 0 4.703.294 6.917.849 3.689.924 7.212 1.912 10.261 4.119 7.146 5.171 11.936 14.088 11.936 23.404v2.158c0 15.391 11.554 27.474 26.936 28.021 3.349.119 6.26.698 9.269-.251 11.5-3.627 19.838-14.378 19.838-27.076v-2.839c0-15.677 12.709-28.385 28.385-28.385h56.771c3.404 0 6.669.599 9.693 1.698 2.041.742 4.273.729 6.065 1.895 7.781 5.062 13.787 14.855 13.787 24.83l.064 24c0 15.391 10.916 28.176 26.298 28.723 3.348.119 6.4.811 9.408-.137 11.501-3.626 19.84-14.378 19.84-27.077v-25.547c0-15.677 12.709-28.385 28.385-28.385h29.805c7.838 0 14.193-6.354 14.193-14.193v-15.612c-.001-23.515-19.064-42.578-42.579-42.578z" fill="#a36b5b"/><g fill="#8e5644"><path d="m86.512 229.36c-3.01.95-6.23 1.41-9.58 1.29-15.39-.54-27.35-13.65-27.35-29.05v-83.05c0-13.92 6.68-26.28 17-34.04v117.09c0 12.81 8.28 24.04 19.93 27.76z"/><path d="m370.362 229.36c-3.01.95-6.23 1.41-9.58 1.29-15.38-.54-27.35-13.65-27.35-29.05v-24.86c0-15.68-12.71-28.39-28.39-28.39h17c15.68 0 28.39 12.71 28.39 28.39v24.86c0 12.81 8.29 24.04 19.93 27.76z"/><path d="m109.716 50.541-11.62 11.448c-.675.665-1.294 1.362-1.859 2.088-.801 1.029-1.281 2.155-1.847 3.252-4.316 8.369-2.078 18.33 5.871 24.787 6.13 4.979 14.532 6.103 21.755 2.91l16.172-7.932c9.144-4.042 15.59-12.886 13.68-22.386-.227-1.13-.55-2.255-.974-3.366l-.276-.723c-2.096-5.496-6.398-9.863-11.863-12.041l-6.504-2.592c-7.749-3.087-16.592-1.3-22.535 4.555z"/></g><path d="m139.752 88.06-18.4 8.13c-2.72 1.21-5.62 1.8-8.5 1.8-4.74 0-9.44-1.61-13.26-4.71-5.95-4.837-8.52-12.19-7.566-19.181.486-3.56 1.885-7.026 4.216-10.019.91 4.62 3.37 8.97 7.35 12.2 3.82 3.1 8.52 4.71 13.26 4.71 2.88 0 5.78-.59 8.5-1.8l18.4-8.13c3.3-1.46 6.04-3.67 8.11-6.35 1.92 9.5-2.97 19.31-12.11 23.35z" fill="#824d3f"/><path d="m278.97 9.459-23.492 8.55c-6.542 2.381-11.807 6.632-15.456 11.904-.802 1.159-.852 2.571-1.494 3.82-4.495 8.74-5.659 19.251-.906 28.851 5.37 10.847 16.378 16.762 28.481 16.915l29.809.574c10.661.135 20.258-4.287 26.234-12.255 2.309-3.079 5.059-6.416 6.152-10.227.628-2.187 1.032-4.473 1.184-6.833l.077-1.183c.582-8.997-2.631-17.826-8.86-24.343l-7.414-7.758c-8.835-9.243-22.3-12.388-34.315-8.015z" fill="#f6d190"/><path d="m67.287 164.271 3.184-6.12c4.068-9.158-.727-19.819-10.278-22.851-6.019-1.911-12.602-.288-17.043 4.203l-8.132 8.223-2.192 3.709c-6.29 6.361-6.877 15.771-.851 22.383l.417.457c3.169 3.477 6.879 5.054 11.583 5.075 10.075.045 19.221-5.873 23.312-15.079z" fill="#f6d190"/><path d="m70.332 158.47-2.88 6.49c-4.07 9.16-13.16 15.07-23.19 15.07h-.13c-4.7-.02-9.18-2.01-12.35-5.48l-.41-.46c-6.03-6.61-5.82-16.79.47-23.15l3.18-3.21c-.28 4.39 1.17 8.87 4.35 12.36l.41.46c3.17 3.47 7.65 5.46 12.35 5.48h.13c6.91 0 13.38-2.81 18.07-7.56z" fill="#ecbd83"/><path d="m316.656 150.159 2.734-4.565 1.085-2.443c4.068-9.158-.727-19.819-10.278-22.851-5.234-1.662-10.894-.651-15.201 2.593-.646.487-1.059 2.169-1.638 2.755l-11.515 10.294c-6.29 6.361-6.192 15.774-.166 22.387l.178.457c3.169 3.477 7.649 5.467 12.353 5.488l-.021-.264c10.075.044 18.379-4.644 22.469-13.851z" fill="#f6d190"/><path d="m463.946 134.049-5.773-5.053c-4.605-4.03-10.68-5.159-16.093-3.646-1.161.325-2.301 1.584-3.38 2.149-2.38 1.246-3.644 2.731-5.298 5.106-3.719 5.341-4.021 11.683-.957 17.426l6.627 13.046c4.508 8.449 14.573 11.889 23.245 7.826h.27c3.738-1.751 6.317-3.995 7.996-7.452.293-.604.869-1.166 1.086-1.853 3.119-9.901.089-20.711-7.723-27.549z" fill="#8e5644"/><path d="m471.822 161.07c-.04.18-.09.35-.15.53-.73 2.31-1.93 4.41-3.49 6.2s-3.5 3.25-5.69 4.28c-8.67 4.06-19.01.62-23.51-7.83l-7.51-14.06c-1.36-2.56-2.04-5.36-2.04-8.16 0-3.47 1.05-6.94 3.11-9.9 2.4-3.45 5.81-5.74 9.54-6.77-.43 1.52-.65 3.1-.65 4.67 0 2.8.68 5.6 2.04 8.16l7.51 14.06c4.05 7.6 12.81 11.14 20.84 8.82z" fill="#824d3f"/><path d="m312.642 150.2c-5.27 2.677-11.394-1.234-11.488-7.144-.001-.038-.001-.077-.002-.115-.14-7.25-2.33-14.17-6.15-20.04-.65.48-1.27 1.01-1.85 1.6l-11.31 11.44c-6.29 6.36-6.5 16.54-.47 23.15l.468.513c3.156 3.457 7.621 5.427 12.302 5.427h.13c.11 0 .23 0 .34-.01 0-.001.001-.002.002-.003 9.884-.133 18.815-6.002 22.838-15.067l2.18-4.92c-1.716 2.037-4.252 3.778-6.99 5.169z" fill="#ecbd83"/><path d="m233.491 161.088-6.056-11.484c-3.536-6.706-3.568-14.717-.085-21.45l1.161-2.245c2.175-4.205 5.585-7.643 9.773-9.851l.119-.063c6.737-3.552 14.789-3.567 21.538-.04l13.782 7.203c7.5 3.92 12.267 11.616 12.433 20.077.141 7.167-3.042 13.995-8.623 18.494l-8.264 6.662c-4.733 3.816-10.777 5.619-16.828 5.019l-.743-.074c-7.74-.767-14.579-5.367-18.207-12.248z" fill="#8e5644"/><path d="m284.782 151.56c-1.42 3.94-3.91 7.47-7.25 10.17l-8.26 6.66c-4.74 3.82-10.78 5.62-16.83 5.02l-.74-.07c-7.74-.77-14.58-5.37-18.21-12.25l-6.06-11.49c-3.53-6.7-3.56-14.71-.08-21.45l1.16-2.24c2.17-4.21 5.58-7.64 9.77-9.85l.12-.06c.04-.02.08-.04.12-.06-2.62 6.34-2.31 13.54.91 19.66l6.06 11.49c3.63 6.88 10.47 11.48 18.21 12.25l.74.07c6.05.6 12.09-1.2 16.83-5.02z" fill="#824d3f"/><path d="m383.424 84.398-4.129-6.707c-3.726-7.066-3.84-15.033-.17-22.128 1.8-3.48 4.003-6.822 7.368-8.803.278-.164.561-.321.847-.472 5.926-3.125 13.01-3.138 18.947-.035l12.124 6.336c6.598 3.448 10.791 10.219 10.938 17.662.031 1.55-.116 3.082-.427 4.571-.159.759-.676 1.447-.946 2.145-1.354 3.5-3.722 6.32-6.809 8.809l-7.27 5.861c-4.164 3.357-8.174 4.71-13.496 4.182-7.217-.716-13.594-5.006-16.977-11.421z" fill="#8e5644"/><path d="m428.912 74.82c-.95 4.57-3.45 8.71-7.15 11.7l-7.27 5.86c-4.16 3.36-9.48 4.94-14.8 4.42-3.61-.36-7.01-1.61-9.93-3.58-2.92-1.96-5.36-4.63-7.05-7.84l-4.04-7.66c-3.72-7.07-3.76-15.51-.09-22.61.98-1.88 2.23-3.59 3.7-5.08 1.25-1.25 2.67-2.36 4.21-3.27-1.32 5.67-.59 11.69 2.18 16.96l4.04 7.66c1.69 3.21 4.13 5.88 7.05 7.84 2.92 1.97 6.32 3.22 9.93 3.58 5.32.52 10.64-1.06 14.8-4.42z" fill="#824d3f"/><path d="m308.872 62.9-34.82-.44c-.546-.007-1.09-.028-1.631-.06-2.188-.133-4.011-1.731-4.497-3.869-2.275-9.992-8.797-18.641-18.092-23.491l-9.8-5.12c-.506.73-.97 1.486-1.413 2.253-.002-.011-.005-.022-.007-.033-4.361 7.566-6.561 19.934-.99 30.44 2.68 5.43 6.78 9.87 11.71 12.97 1.608.567 5.421 4.478 16.76 4.96l30.83.39c14.78.18 27.45-9.64 31.37-23.31-5.66 3.45-12.33 5.4-19.42 5.31z" fill="#ecbd83"/><path d="m208.163 80.9-4.039-7.659c-3.726-7.066-4.286-14.88-.617-21.975 1.948-3.767 4.61-6.979 8.362-8.957.214-.113.372-.5.589-.605 5.79-2.796 12.578-2.7 18.301.291l12.124 6.336c6.598 3.448 10.791 10.219 10.938 17.662.05 2.533-.372 5.017-1.213 7.34-1.253 3.46-4.695 6.48-7.632 8.847l-6.064 5.106c-4.164 3.357-9.481 4.943-14.803 4.415-7.218-.715-12.563-4.386-15.946-10.801z" fill="#8e5644"/><path d="m252.762 72.86c-1.22 3.65-3.46 6.92-6.53 9.4l-7.27 5.86c-4.16 3.36-9.48 4.95-14.8 4.42-3.61-.36-7.01-1.61-9.93-3.58-2.91-1.96-5.35-4.63-7.05-7.84l-4.04-7.66c-3.72-7.07-3.76-15.51-.09-22.6.97-1.89 2.23-3.6 3.71-5.09 1.47-1.48 3.18-2.75 5.05-3.74.21-.11.43-.22.65-.32-1.95 6.17-1.39 12.92 1.68 18.75l4.04 7.66c1.7 3.21 4.14 5.88 7.05 7.84 2.92 1.97 6.32 3.22 9.93 3.58 5.32.53 10.64-1.06 14.8-4.42z" fill="#824d3f"/><path d="m200.052 206.65c-2.623.756-5.583 1.447-9.58 1.29-15.38-.54-27.35-13.65-27.35-29.04-.279-3.604.698-2.594-1.28-10.6-1.38-4.45-3.83-8.42-7.04-11.63-4.201-4.42-12.128-8.325-20.07-8.32h17c7.84 0 14.94 3.18 20.07 8.32 5.14 5.13 8.32 12.23 8.32 20.07v2.16c0 12.81 8.29 24.03 19.93 27.75z" fill="#8e5644"/></g><path d="m491.865 281.622c-8.726-12.512-22.394-20.558-37.366-22.265v-21.368c0-4.142-3.357-7.5-7.5-7.5s-7.5 3.358-7.5 7.5v21.798c-16.312 2.832-30.312 13.214-37.865 27.718-1.864-3.354-4.086-6.532-6.655-9.47-10.574-12.093-25.832-19.028-41.859-19.028-20.431 0-38.636 11.349-48.2 28.166-2.731-4.673-6.118-8.957-10.098-12.719-10.537-9.961-24.312-15.447-38.786-15.447-14.476 0-28.25 5.486-38.787 15.447-3.97 3.753-7.348 8.025-10.076 12.684-9.069-15.718-26.352-28.131-47.902-28.131-19.064-.02-37.813 10.775-47.738 28.318-7.744-14.774-22.174-25.214-38.961-27.725v-21.85c19.989 3.757 41.83-13.851 41.23-35.469v-25.547c0-11.516 9.369-20.885 20.886-20.885 11.516 0 20.885 9.369 20.885 20.885-1.195 19.608 14.792 38.107 34.584 38.701 9.836.352 19.149-3.215 26.22-10.039 7.072-6.826 10.968-15.997 10.968-25.824v-2.838c0-2.945.625-5.813 1.787-8.441 5.51 7.274 14.863 12.929 25.6 12.729 6.977 0 13.699-2.362 19.199-6.796l6.987-5.633c3.882 2.52 8.448 3.916 13.145 3.936h.146c9.655 0 18.639-4.236 24.786-11.285 4.302 3.911 6.892 9.535 6.892 15.489v24.867c0 19.471 15.515 35.864 34.584 36.542 18.704 1.163 37.675-15.602 37.188-35.862v-25.547c0-11.516 9.369-20.885 20.885-20.885h7.407l6.366 11.932c1.811 3.395 4.291 6.207 7.186 8.38v26.723c0 4.142 3.357 7.5 7.5 7.5s7.5-3.358 7.5-7.5v-21.611c.107.001.214.011.321.011 3.629 0 7.313-.778 10.808-2.415 6.272-2.938 11.063-8.413 13.146-15.019 3.848-12.21.408-25.488-8.734-34.316v-10.989c0-21.307-13.634-40.157-33.251-47.17.011-.424.021-.849.012-1.275-.201-10.185-5.935-19.443-14.963-24.161l-12.124-6.336c-8.123-4.246-17.813-4.228-25.919.048-5.133 2.707-9.254 6.861-11.92 12.015-2.714 5.249-3.874 11.066-3.489 16.801h-36.666c2.944-5.116 4.795-10.959 5.2-17.229.25-3.24.229-7.048-.751-12.2-.88-4.047-4.877-6.614-8.924-5.732-4.047.881-6.614 4.876-5.732 8.924.34 1.537.711 4.798.438 8.042-.85 13.133-11.843 23.298-24.983 23.123l-30.829-.391c-1.858-.023-3.707-.268-5.509-.705.463-2.107.686-4.274.643-6.458-.201-10.185-5.935-19.442-14.963-24.161l-3.154-1.648c2.445-6.887 7.832-12.427 14.841-14.978l23.491-8.55c6.93-2.522 14.555-1.836 20.923 1.881 3.575 2.089 8.171.881 10.258-2.696 2.089-3.577.882-8.17-2.695-10.258-10.231-5.973-22.484-7.075-33.616-3.023l-23.49 8.55c-10.727 3.904-19.081 12.167-23.244 22.499-7.029-2.207-14.722-1.564-21.357 1.934-5.131 2.706-9.252 6.86-11.92 12.015-3.39 6.556-4.348 13.998-2.904 21.06h-33.716c-.042-3.266-.642-6.577-1.87-9.799-2.283-6.686-8.636-14.074-16.371-17.06l-6.504-2.591c-10.514-4.189-22.514-1.764-30.576 6.178l-11.624 11.448c-3.486 3.434-5.984 7.679-7.338 12.283-24.43 3.289-43.417 24.388-43.417 49.619v12.251c-1.521.969-2.954 2.109-4.261 3.43l-11.312 11.439c-9.1 9.203-9.399 23.905-.682 33.472 3.306 3.818 9.519 7.657 16.255 8.291v14.174c0 12.291 6.185 23.35 15.54 30.01v27.89c-31.653 3.274-56.057 39.706-43.612 70.614l59.143 160.626c4.685 12.723 16.941 21.271 30.499 21.271h304.867c13.559 0 25.814-8.548 30.498-21.271l59.145-160.625c5.966-16.204 3.631-34.332-6.246-48.493zm-227.35-119.074c-2.396 1.941-7.274 3.958-12.124 3.32-5.249-.52-9.853-3.617-12.313-8.283l-6.056-11.484c-2.39-4.532-2.412-9.955-.058-14.506l1.161-2.245c1.478-2.858 3.763-5.162 6.616-6.666 3.7-1.849 8.905-2.853 14.678-.086l13.782 7.203c5.073 2.651 8.296 7.854 8.408 13.577.095 4.812-2.085 9.488-5.831 12.508zm29.692-5.018c-.026 0-.053 0-.08 0-1.211-.005-2.396-.258-3.498-.711 2.016-4.252 3.073-8.958 2.979-13.735-.05-2.519-.423-4.981-1.06-7.351l5.893-5.96c2.471-2.499 6.089-3.391 9.439-2.328 2.56.812 4.575 2.608 5.677 5.057 1.101 2.448 1.107 5.147.018 7.6l-3.024 6.805c-2.871 6.459-9.28 10.623-16.344 10.623zm170.456 1.144c-.749 2.724-2.5 5.117-5.008 6.418-5.138 2.664-11.409.685-14.107-4.372l-7.358-13.792c-1.748-3.277-1.704-7.305.372-10.385 1.618-2.399 4.095-3.917 6.959-4.267 1.791-.155 3.456-.032 5.693 1.145 1.082.569 2.071 1.3 2.991 2.106l4.756 4.163c5.395 4.722 7.592 12.108 5.702 18.984zm-79.465-100.12c1.25-2.418 3.184-4.367 5.592-5.637 3.746-1.977 8.222-1.984 11.976-.022l12.124 6.336c4.171 2.18 6.82 6.457 6.913 11.163.078 3.956-1.714 7.799-4.794 10.282l-7.27 5.861c-2.648 2.135-5.976 3.125-9.356 2.791-4.725-.469-8.868-3.256-11.084-7.457l-4.039-7.659c-2.58-4.891-2.603-10.744-.062-15.658zm-175.528-4.257c1.252-2.419 3.186-4.369 5.593-5.638 1.88-.991 3.944-1.487 6.01-1.487 2.048 0 4.097.488 5.966 1.465l12.124 6.336c4.171 2.18 6.82 6.458 6.913 11.163.078 3.956-1.714 7.8-4.794 10.283l-7.27 5.861c-2.648 2.135-5.968 3.127-9.357 2.79-4.725-.468-8.867-3.255-11.082-7.455l-4.039-7.66c-2.581-4.893-2.604-10.746-.064-15.658zm-106.357 13.03 11.619-11.448c3.821-3.767 9.514-4.915 14.497-2.929l6.504 2.591c2.641 1.051 6.457 4.183 7.906 8.468 2.564 6.727-.584 14.276-7.169 17.187l-18.399 8.133c-4.671 2.064-10.031 1.347-13.994-1.872-3.025-2.458-4.795-5.956-4.981-9.85-.187-3.893 1.24-7.544 4.017-10.28zm-66.45 101.706c-3.34-3.665-3.225-9.296.261-12.821l11.312-11.439c1.782-1.803 4.16-2.77 6.604-2.77.945 0 1.9.145 2.835.441 2.56.812 4.575 2.608 5.677 5.057 1.101 2.448 1.106 5.147.018 7.6l-3.023 6.804h-.001c-2.87 6.461-9.279 10.625-16.345 10.625-1.698.012-4.795-.844-7.338-3.497zm20.168 15.868c7.532-3.197 13.773-9.139 17.224-16.906l3.023-6.804c2.804-6.312 2.787-13.544-.046-19.844-2.833-6.299-8.234-11.11-14.817-13.2-1.776-.564-3.581-.906-5.384-1.057v-8.547c0-16.898 12.156-31.15 28.178-34.383 1.523 5.826 4.865 11.084 9.611 14.939 5.196 4.222 11.534 6.403 17.952 6.403 3.904 0 7.839-.807 11.563-2.454l18.399-8.133c5.602-2.477 10.022-6.546 12.951-11.45h44.215l.604 1.145c4.57 8.668 13.12 14.419 22.87 15.386.936.093 1.868.139 2.797.139 6.342 0 12.454-2.147 17.454-6.178l7.27-5.861c.892-.719 1.73-1.494 2.519-2.312 4.025 1.397 8.268 2.163 12.535 2.218.578.004 30.523.394 31.341.394 6.927 0 13.458-1.788 19.152-4.929h56.74l2.849 5.404c4.571 8.667 13.121 14.418 22.871 15.385.936.093 1.868.139 2.796.139 6.343 0 12.455-2.147 17.455-6.178l7.27-5.861c2.339-1.885 4.325-4.139 5.924-6.632 13.418 5.074 22.693 18.109 22.693 32.821v.104c-3.596-1.28-7.477-1.735-11.34-1.261-7.001.856-13.327 4.667-17.357 10.454-2.735 3.928-4.219 8.436-4.436 13.008h-3.365c-19.787 0-35.885 16.098-35.885 35.885v25.547c.189 10.539-9.444 21.46-21.654 20.872-11.093-.395-20.117-10.063-20.117-21.552v-24.867c0-11.364-5.496-22.018-14.411-28.722l.809-1.82c2.804-6.312 2.787-13.545-.046-19.844s-8.234-11.111-14.818-13.201c-8.747-2.777-18.191-.447-24.644 6.078l-2.955 2.988c-2.214-2.256-4.784-4.197-7.671-5.706l-13.782-7.203c-8.936-4.669-19.593-4.649-28.518.056l-.111.059c-5.569 2.937-10.043 7.446-12.937 13.04l-1.161 2.245c-4.338 8.02-4.501 20.035.295 28.737-5.51 6.452-8.592 14.682-8.592 23.292v2.838c0 5.719-2.268 11.057-6.385 15.031-4.114 3.97-9.553 6.033-15.27 5.841-11.31-.339-21.075-11.398-20.117-23.71 0-19.787-16.098-35.885-35.885-35.885s-35.886 16.098-35.886 35.885v25.547c.194 10.539-9.454 21.46-21.654 20.872-11.092-.395-20.116-10.062-20.116-21.552v-16.7zm199.004 89.105c22.177 0 40.069 17.043 41.793 39.718l-10.219 183.286h-63.149l-10.218-183.286c1.724-22.675 19.616-39.718 41.793-39.718zm-152.434 223.004c-7.301 0-13.9-4.603-16.423-11.454l-59.143-160.625c-9.488-23.418 11.126-51.522 36.689-50.925 18.244 0 33.895 13.02 37.215 30.959l13.86 74.881c.754 4.074 4.672 6.762 8.74 6.009 4.072-.753 6.764-4.667 6.01-8.74l-10.762-58.142c-3.565-21.548 16.252-45.611 39.483-44.968 23.75.092 39.093 21.047 39.987 40.411.482 8.656 10.175 182.528 10.179 182.594h-56.695l-15.742-85.05c-.755-4.074-4.676-6.766-8.74-6.009-4.073.754-6.764 4.667-6.01 8.74l15.237 82.32h-33.885zm380.434-172.079-59.145 160.626c-2.522 6.851-9.121 11.453-16.422 11.453h-34.563l9.276-47.642c.792-4.066-1.862-8.003-5.928-8.795-4.076-.79-8.004 1.863-8.795 5.928l-9.835 50.509h-55.991l10.198-182.926c-.392-21.231 18.417-40.273 40.288-40.079 11.7 0 22.842 5.067 30.567 13.902 7.661 8.761 11.039 19.93 9.528 31.466l-18.036 92.624c-.792 4.066 1.862 8.003 5.928 8.795 4.073.794 8.004-1.863 8.795-5.928l21.468-110.247c3.454-17.738 19.078-30.613 37.15-30.613 12.55 0 23.864 5.904 31.044 16.197 7.179 10.295 8.809 22.953 4.473 34.73z"/></g></svg>