<svg id="Capa_1" enable-background="new 0 0 511.965 511.965" height="512" viewBox="0 0 511.965 511.965" width="512" xmlns="http://www.w3.org/2000/svg"><g><g><g><path d="m218.051 293.914-14.389 28-26.213 11.91c-37.98-37.99-37.767-75.18-37.617-106.86l28.596-8.363 29.423 8.363v.22c-.13 26.88-.23 46.29 20.2 66.73z" fill="#ff8086"/><path d="m393.931 393.924c-1.705 1.705-3.566 3.161-5.536 4.366-11.478 7.024-25.7 2.671-35.627-7.264-20.21-20.2-40.397-20.556-66.807-20.426l-7.916-29.447 7.916-27.04c31.48-.15 70.43.13 107.97 37.67 11.63 11.641 11.63 30.501 0 42.141z" fill="#ff8086"/><path d="m197.851 226.964h-58.019v-.06c.13-26.88 2.217-45.736-18.213-66.176-9.798-9.79-14.927-25.265-8.229-36.685 1.259-2.146 2.809-4.168 4.65-6.01 11.64-11.63 30.5-11.63 42.14 0 37.921 37.921 37.821 77.281 37.671 108.931z" fill="#bde4ff"/><path d="m285.961 314.114v39.6l-1.229 19.1h-.9c-31.69.15-66.89 1.24-104.9-36.76l11.119-14.14 28-28c20.44 20.43 39.85 20.33 66.73 20.2z" fill="#bde4ff"/><path d="m158.251 226.904v.06l-11.355 8.6-8.645-8.6v-.06c.13-26.88.22-46.29-20.21-66.73-9.8-9.79-11.35-24.71-4.65-36.13 8.97 10.69 17.63 20.83 18.8 21.99 26.33 26.34 26.2 52.88 26.06 80.87z" fill="#99dbff"/><path d="m285.961 353.714 4.807 11.738-4.807 8.262h-.9c-31.69.15-71.14.34-109.15-37.66l1.623-14.14h12.517c29.4 29.39 58.81 31.82 88.87 31.82 2.04 0 4.05-.01 6.03-.02z" fill="#99dbff"/><g fill="#e5646e"><path d="m190.051 321.914-14.14 14.14c-37.98-37.99-37.81-77.41-37.66-109.09h20v.1c-.15 30.84-.3 62.74 31.8 94.85z"/><path d="m388.391 398.284c-11.47 7.03-26.67 5.57-36.6-4.36-20.21-20.2-39.42-20.34-65.83-20.21v-20c1.82-.01 3.6-.02 5.35-.02 26.55 0 50.49 1.97 74.63 26.09 1.25 1.26 11.95 10.07 22.45 18.5z"/></g></g><g><path d="m319.879 192.086-14.389 28-26.213 11.91c-37.98-37.99-37.767-75.18-37.617-106.86l28.596-8.363 29.423 8.363v.22c-.13 26.88-.23 46.29 20.2 66.73z" fill="#ffc269"/><path d="m495.759 292.096c-1.705 1.705-3.566 3.161-5.536 4.366-11.478 7.024-25.7 2.671-35.627-7.264-20.21-20.2-40.397-20.556-66.807-20.426l-7.916-29.447 7.916-27.04c31.48-.15 70.43.13 107.97 37.67 11.63 11.641 11.63 30.501 0 42.141z" fill="#ffc269"/><path d="m299.679 125.136h-58.019v-.06c.13-26.88 2.217-45.736-18.213-66.176-9.798-9.79-14.927-25.265-8.229-36.685 1.259-2.146 2.809-4.168 4.65-6.01 11.64-11.63 30.5-11.63 42.14 0 37.921 37.921 37.821 77.281 37.671 108.931z" fill="#e3d2ff"/><path d="m387.789 212.286v39.6l-1.229 19.1h-.9c-31.69.15-66.89 1.24-104.9-36.76l11.119-14.14 28-28c20.44 20.43 39.85 20.33 66.73 20.2z" fill="#e3d2ff"/><path d="m260.079 125.076v.06l-11.355 8.6-8.645-8.6v-.06c.13-26.88.22-46.29-20.21-66.73-9.8-9.79-11.35-24.71-4.65-36.13 8.97 10.69 17.63 20.83 18.8 21.99 26.33 26.34 26.2 52.88 26.06 80.87z" fill="#c5b9ef"/><path d="m387.789 251.886 4.807 11.738-4.807 8.262h-.9c-31.69.15-71.14.34-109.15-37.66l1.623-14.14h12.517c29.4 29.39 58.81 31.82 88.87 31.82 2.04 0 4.05-.01 6.03-.02z" fill="#c5b9ef"/><g fill="#ffa95f"><path d="m291.879 220.086-14.14 14.14c-37.98-37.99-37.81-77.41-37.66-109.09h20v.1c-.15 30.84-.3 62.74 31.8 94.85z"/><path d="m490.219 296.456c-11.47 7.03-26.67 5.57-36.6-4.36-20.21-20.2-39.42-20.34-65.83-20.21v-20c1.82-.01 3.6-.02 5.35-.02 26.55 0 50.49 1.97 74.63 26.09 1.25 1.26 11.95 10.07 22.45 18.5z"/></g></g><g><path d="m116.223 395.743-14.389 28-26.213 11.91c-37.98-37.99-37.767-75.18-37.617-106.86l28.596-8.363 29.423 8.363v.22c-.131 26.879-.23 46.29 20.2 66.73z" fill="#ffc269"/><path d="m292.103 495.753c-1.705 1.705-3.566 3.161-5.536 4.366-11.478 7.024-25.7 2.671-35.627-7.264-20.21-20.2-40.397-20.556-66.807-20.426l-7.916-29.447 7.916-27.04c31.48-.15 70.43.13 107.97 37.67 11.63 11.641 11.63 30.501 0 42.141z" fill="#ffc269"/><path d="m96.023 328.793h-58.019v-.06c.13-26.88 2.217-45.736-18.213-66.176-9.798-9.79-14.927-25.265-8.229-36.685 1.259-2.146 2.809-4.168 4.65-6.01 11.64-11.63 30.5-11.63 42.14 0 37.921 37.921 37.82 77.28 37.671 108.931z" fill="#ccf49f"/><path d="m184.133 415.943v39.6l-1.229 19.1h-.9c-31.69.15-66.89 1.24-104.9-36.76l11.119-14.14 28-28c20.44 20.43 39.85 20.33 66.73 20.2z" fill="#ccf49f"/><path d="m56.422 328.733v.06l-11.355 8.6-8.645-8.6v-.06c.13-26.88.22-46.29-20.21-66.73-9.8-9.79-11.35-24.71-4.65-36.13 8.97 10.69 17.63 20.83 18.8 21.99 26.331 26.34 26.201 52.88 26.06 80.87z" fill="#b3e59f"/><path d="m184.133 455.543 4.807 11.738-4.807 8.262h-.9c-31.69.15-71.14.34-109.15-37.66l1.623-14.14h12.517c29.4 29.39 58.81 31.82 88.87 31.82 2.04 0 4.05-.01 6.03-.02z" fill="#b3e59f"/><g fill="#ffa95f"><path d="m88.223 423.743-14.14 14.14c-37.98-37.99-37.81-77.41-37.66-109.09h20v.1c-.15 30.84-.3 62.739 31.8 94.85z"/><path d="m286.563 500.113c-11.47 7.03-26.67 5.57-36.6-4.36-20.21-20.2-39.42-20.34-65.83-20.21v-20c1.82-.01 3.6-.02 5.35-.02 26.55 0 50.49 1.97 74.63 26.09 1.25 1.26 11.95 10.069 22.45 18.5z"/></g></g></g><g><path d="m182.913 408.447c-25.986.131-43.162.208-61.382-18.013-18.221-18.22-18.139-35.391-18.014-61.386.149-31.344.354-74.271-39.862-114.487-14.543-14.543-38.206-14.542-52.749 0-14.542 14.543-14.542 38.206.001 52.749 18.22 18.22 18.138 35.391 18.013 61.389-.068 14.411-.146 30.746 3.369 47.998.826 4.059 4.786 6.68 8.846 5.852 4.059-.827 6.679-4.788 5.852-8.846-2.631-12.915-3.052-25.677-3.083-37.407h44.596c.047 22.054 1.53 40.538 17.342 59.221l-31.602 31.602c-6.483-7.225-11.927-14.833-16.195-22.705-1.975-3.642-6.526-4.993-10.168-3.02-3.642 1.974-4.993 6.526-3.02 10.168 6.046 11.153 14.095 21.792 23.924 31.621 40.217 40.217 83.144 40.014 114.49 39.862 25.996-.125 43.162-.208 61.383 18.013 13.238 13.837 38.505 14.811 52.749 0 14.542-14.542 14.542-38.206 0-52.749-40.216-40.216-83.147-40.01-114.49-39.862zm-161.399-151.743c-8.694-8.694-8.694-22.841-.001-31.536 8.696-8.694 22.842-8.694 31.536 0 32.949 32.948 35.419 66.183 35.485 96.127h-44.596c-.058-24.154-1.862-44.029-22.424-64.591zm155.116 166.761v44.6c-28.582-.006-60.227-1.929-91.788-30.335l31.607-31.607c18.951 16.04 37.693 17.333 60.181 17.342zm110.167 66.986c-7.623 7.887-22.668 9.096-31.535 0-20.289-20.288-39.906-22.315-63.632-22.42v-44.599c29.696.118 62.57 2.888 95.166 35.483 8.694 8.695 8.694 22.842.001 31.536z"/><path d="m284.741 306.62c-25.985.127-43.162.208-61.383-18.013s-18.139-35.392-18.014-61.389c.068-14.318.146-30.547-3.305-47.682-.817-4.061-4.771-6.689-8.833-5.872-4.061.818-6.689 4.772-5.872 8.833 2.569 12.758 2.993 25.369 3.026 36.971h-44.595c-.058-24.155-1.862-44.029-22.425-64.591-7.887-7.623-9.095-22.668.001-31.535 7.621-7.888 22.669-9.095 31.534 0 8.855 8.855 16.067 18.388 21.437 28.333 1.966 3.645 6.517 5.005 10.162 3.037 3.646-1.967 5.005-6.517 3.037-10.162-6.06-11.226-14.145-21.93-24.028-31.814-13.236-13.836-38.506-14.812-52.748 0-13.838 13.237-14.812 38.505-.001 52.748 18.221 18.221 18.139 35.392 18.014 61.386-.149 31.344-.354 74.271 39.861 114.487 11.677 11.677 24.487 20.822 38.076 27.181 1.028.481 2.109.709 3.174.709 2.82 0 5.523-1.6 6.798-4.323 1.756-3.751.138-8.216-3.614-9.972-10.105-4.729-19.444-10.993-28.383-19.039l31.615-31.616c18.953 16.04 37.704 17.335 60.181 17.343v44.594c-10.327-.005-20.968-.259-32.099-1.966-4.093-.628-7.922 2.182-8.55 6.277-.628 4.094 2.183 7.922 6.276 8.55 14.67 2.249 28.661 2.182 41.014 2.124 25.989-.126 43.163-.207 61.383 18.013 13.236 13.837 38.506 14.812 52.748 0 13.838-13.236 14.812-38.505.001-52.748-40.216-40.219-83.136-40.018-114.488-39.864zm-77.072-12.931-31.607 31.607c-28.087-31.208-30.276-62.494-30.331-90.828h44.595c.047 22.054 1.531 40.537 17.343 59.221zm180.954 94.935c-7.621 7.889-22.669 9.095-31.534 0-20.288-20.288-39.908-22.307-63.632-22.418v-44.6c29.693.119 62.57 2.887 95.167 35.483 7.888 7.623 9.095 22.667-.001 31.535z"/><path d="m501.058 244.654c-8.186-8.186-16.944-15.151-26.033-20.704-3.534-2.16-8.149-1.045-10.311 2.49-2.159 3.535-1.045 8.15 2.49 10.31 8.077 4.936 15.899 11.164 23.247 18.511 8.694 8.694 8.694 22.841.001 31.536-8.695 8.695-22.841 8.694-31.536 0-20.288-20.288-39.911-22.309-63.632-22.419v-44.6c13.069.061 27.286.676 41.695 4.31 4.014 1.013 8.094-1.421 9.106-5.438 1.013-4.017-1.422-8.093-5.438-9.106-19.494-4.916-37.862-4.827-54.079-4.751-25.986.13-43.162.208-61.383-18.013-18.22-18.22-18.138-35.391-18.013-61.389.148-31.343.353-74.269-39.862-114.483-13.238-13.837-38.505-14.811-52.749 0-14.542 14.542-14.542 38.206 0 52.749 18.221 18.22 18.139 35.391 18.014 61.386-.149 31.344-.354 74.27 39.861 114.486 40.218 40.217 83.154 40.008 114.49 39.862 25.986-.129 43.162-.208 61.383 18.013 14.046 14.178 37.902 14.631 52.749 0 14.543-14.544 14.543-38.207 0-52.75zm-120.774-24.843v44.599c-28.574-.007-60.226-1.93-91.787-30.334l31.607-31.607c18.955 16.039 37.706 17.333 60.18 17.342zm-70.787-27.949-31.607 31.607c-28.087-31.208-30.277-62.495-30.331-90.828h44.596c.047 22.054 1.53 40.537 17.342 59.221zm-84.328-138.813c-8.694-8.694-8.694-22.841-.001-31.536 7.623-7.887 22.668-9.096 31.535 0 32.948 32.947 35.419 66.181 35.486 96.126h-44.596c-.058-24.154-1.862-44.028-22.424-64.59z"/></g></g></svg>