<svg id="Capa_1" enable-background="new 0 0 512 512" height="512" viewBox="0 0 512 512" width="512" xmlns="http://www.w3.org/2000/svg"><g><g><path d="m341.982 307.37h48.234l-.524-15.695c0-26.18-12.792-49.364-32.463-63.661-8.526-6.197-10.653-17.876-4.887-26.699 11.798-18.057 18.658-39.634 18.658-62.815 0-5.264-.355-10.445-1.042-15.521-.979-7.241 2.206-14.327 8.125-18.611 13.074-9.462 21.701-24.69 22.149-41.954.77-29.703-23.77-54.914-53.483-54.914-14.895 0-28.362 6.091-38.059 15.914-5.073 5.139-12.565 7.043-19.479 4.959-10.515-3.168-21.664-4.873-33.211-4.873-11.548 0-22.696 1.705-33.211 4.873-6.914 2.084-14.406.18-19.479-4.959-9.698-9.823-23.165-15.914-38.06-15.914-2.94 0-5.829.247-8.648.72-9.575 1.608-16.41 8.045-23.603 14.099-12.092 10.177-19.159 22.754-18.723 39.536.448 17.264 9.099 32.987 22.173 42.449 5.919 4.284 9.104 11.37 8.125 18.611-.686 5.076-1.787 10.31-1.787 15.574 0 23.068 7.185 44.968 18.878 62.972 5.727 8.818 3.198 20.518-5.346 26.645-19.908 14.275-33.787 37.123-33.787 63.489l-.752 15.775h48.473l-4.572 5.107c-12.13 13.548-18.539 29.786-26.552 45.8-14.004 27.985-24.973 57.98-24.973 89.761l56.388 56.463 34.051-31.989c13.976-13.13 32.432-20.439 51.608-20.439 18.935 0 37.176 7.126 51.096 19.962l35.208 32.466 55.339-56.383v-.064c0-49.82-18.087-98.318-51.244-135.503z" fill="#e3d2ff"/><g><path d="m188.75 61c0-12.979-10.521-23.5-23.5-23.5-3.109 0-6.077.604-8.794 1.701-8.622 3.481-13.382 11.93-13.382 21.799 0 12.979 9.149 21.83 22.128 21.83 9.869 0 18.366-4.414 21.847-13.036 1.097-2.717 1.701-5.685 1.701-8.794z" fill="#c5b9ef"/><path d="m187.04 69.79c-3.47 8.63-11.92 14.71-21.79 14.71-12.98 0-23.5-10.52-23.5-23.5 0-9.87 6.08-18.32 14.71-21.79-1.11 2.72-1.71 5.68-1.71 8.79 0 12.98 10.52 23.5 23.5 23.5 3.11 0 6.08-.6 8.79-1.71z" fill="#afa0ea"/></g><g fill="#c5b9ef"><path d="m191.85 307.37-4.57 5.11c-33.33 37.22-51.76 85.43-51.76 135.4l-11.17 10.43-10.2-10.202c0-49.97 18.2-98.408 51.53-135.628l4.57-5.11z"/><path d="m178.49 194.05c-11.7-18-18.49-39.48-18.49-62.55 0-5.26.36-10.45 1.04-15.52.98-7.24-2.2-14.33-8.12-18.61-13.08-9.46-21.7-24.69-22.15-41.96-.51-19.78 10.21-37.58 26.2-47.25-25.85 4.15-45.9 27.36-45.2 54.25.45 17.27 9.07 32.5 22.15 41.96 5.92 4.28 9.1 11.37 8.12 18.61-.68 5.07-1.04 10.26-1.04 15.52 0 17.585 3.955 34.24 11.012 49.14 1.57 2.917 1.083 3.09 7.478 13.41 5.72 8.82 3.19 20.52-5.35 26.65-19.284 13.708-33.091 37.894-32.88 63.98l.528 17.788 5.013-2.098 14.7-12.89c0-26.37 12.97-49.7 32.88-63.98 4.823-3.457 7.726-8.693 8.31-14.186.034-.202.082-.385.11-.594.939-6.88-.961-16.5-4.311-21.67z"/><g><path d="m226.35 448.402c0-30.982-25.116-56.098-56.098-56.098-10.621 0-20.553 2.952-29.02 8.08-3.14 1.902-5.705 5.092-8.402 7.552-11.246 10.259-17.191 24.044-17.191 40.466 0 30.982 23.997 54.938 54.979 54.938 15.738 0 28.72-5.621 38.809-15.745 2.964-2.974 6.614-6.489 8.846-10.175 5.125-8.466 8.077-18.397 8.077-29.018z"/><path d="m397.846 448.402c0-30.982-25.116-56.098-56.098-56.098-10.62 0-20.551 2.951-29.017 8.078-2.581 1.563-4.644 4.082-6.837 6.023-11.6 10.262-18.043 24.748-18.043 41.872 0 30.982 22.915 53.362 53.897 53.362 13.396 0 22.244-2.123 31.891-9.957 5.017-4.074 12.767-8.709 16.13-14.262 5.126-8.467 8.077-18.398 8.077-29.018z"/></g></g><g fill="#afa0ea"><path d="m218.27 477.42c-9.83 16.23-27.66 27.08-48.02 27.08-30.98 0-56.1-25.12-56.1-56.1 0-20.36 10.85-38.19 27.08-48.02-5.13 8.47-8.08 18.4-8.08 29.02 0 30.98 25.12 56.1 56.1 56.1 10.62 0 20.55-2.95 29.02-8.08z"/><path d="m389.77 477.42c-9.83 16.23-27.66 27.08-48.02 27.08-30.98 0-56.1-25.12-56.1-56.1 0-20.36 10.85-38.19 27.08-48.02-5.13 8.47-8.08 18.4-8.08 29.02 0 30.98 25.12 56.1 56.1 56.1 10.62 0 20.55-2.95 29.02-8.08z"/></g><g><path d="m370.25 61c0-12.979-10.521-23.5-23.5-23.5-3.109 0-6.077.604-8.794 1.701-8.622 3.481-13.382 11.93-13.382 21.799 0 12.979 9.149 21.83 22.128 21.83 9.869 0 18.366-4.414 21.847-13.036 1.097-2.717 1.701-5.685 1.701-8.794z" fill="#c5b9ef"/><path d="m368.54 69.79c-3.47 8.63-11.92 14.71-21.79 14.71-12.98 0-23.5-10.52-23.5-23.5 0-9.87 6.08-18.32 14.71-21.79-1.11 2.72-1.71 5.68-1.71 8.79 0 12.98 10.52 23.5 23.5 23.5 3.11 0 6.08-.6 8.79-1.71z" fill="#afa0ea"/></g><g fill="#c5b9ef"><path d="m204.124 273.264c-15.354-15.354-38.486-18.193-56.715-8.515-4.134 2.195-6.204 5.535-9.686 9.017-18.836 18.836-19.985 47.547-1.149 66.383s47.674 19.985 66.511 1.149c3.478-3.479 7.354-7.177 9.548-11.306 9.685-18.232 6.849-41.37-8.509-56.728z"/><path d="m374.659 339.894c3.478-3.478 7.743-5.772 9.936-9.9 9.687-18.232 6.851-41.371-8.508-56.729-15.355-15.355-38.488-18.193-56.718-8.513-4.133 2.194-6.081 6.555-9.562 10.037-18.836 18.836-19.092 45.504-.255 64.34 18.837 18.835 46.271 19.601 65.107.765z"/></g><g fill="#afa0ea"><path d="m212.63 329.99c-2.19 4.13-5.03 8.01-8.51 11.49-18.83 18.83-49.37 18.83-68.21 0-18.83-18.84-18.83-49.38 0-68.22 3.48-3.48 7.36-6.32 11.5-8.51-9.69 18.23-6.85 41.37 8.5 56.73 15.36 15.35 38.5 18.19 56.72 8.51z"/><path d="m384.59 329.99c-2.19 4.13-5.02 8.01-8.5 11.49-18.84 18.83-49.38 18.83-68.21 0-18.84-18.84-18.84-49.38 0-68.22 3.48-3.48 7.36-6.31 11.49-8.51-9.69 18.23-6.85 41.37 8.51 56.73 15.35 15.35 38.48 18.19 56.71 8.51z"/></g><path d="m307.697 184.922c0-19.811-23.146-35.872-51.697-35.872-7.648 0-14.724 1.753-21.255 3.822-17.851 5.653-29.106 17.751-29.106 32.255 0 13.961 11.1 24.899 27.489 30.766 5.964 2.135 12.396 4.518 19.578 4.829 1.088.047 2.186.071 3.295.071 28.55.001 51.696-16.06 51.696-35.871z" fill="#c5b9ef"/><path d="m254.4 220.77c-27.81-.59-50.1-16.41-50.1-35.85 0-19.46 22.33-35.3 50.18-35.85-23 3.72-40.18 18.36-40.18 35.85 0 17.47 17.14 32.11 40.1 35.85z" fill="#afa0ea"/><ellipse cx="256.527" cy="164.876" fill="#afa0ea" rx="21.101" ry="15.826"/><g><path d="m224.349 114.495c0-7.6-3.826-14.143-9.323-17.078-1.984-1.059-4.185-.332-6.503-.332-8.74 0-14.477 7.07-14.477 17.413s5.728 18.204 14.468 18.204c2.319 0 4.53-.07 6.514-1.13 5.496-2.936 9.321-9.478 9.321-17.077z" fill="#c5b9ef"/><path d="m215.026 131.57c-1.98 1.06-4.18 1.65-6.5 1.65-8.74 0-15.83-8.38-15.83-18.72s7.09-18.73 15.83-18.73c2.32 0 4.52.59 6.5 1.65-5.5 2.94-9.33 9.48-9.33 17.08s3.83 14.14 9.33 17.07z" fill="#afa0ea"/></g><g><path d="m319.302 114.495c0-7.6-3.826-14.143-9.323-17.078-1.984-1.059-4.185-.332-6.503-.332-8.74 0-14.477 7.07-14.477 17.413s5.728 18.204 14.468 18.204c2.319 0 4.53-.07 6.514-1.13 5.497-2.936 9.321-9.478 9.321-17.077z" fill="#c5b9ef"/><path d="m309.98 131.57c-1.98 1.06-4.18 1.65-6.5 1.65-8.74 0-15.83-8.38-15.83-18.72s7.09-18.73 15.83-18.73c2.32 0 4.52.59 6.5 1.65-5.5 2.94-9.33 9.48-9.33 17.08s3.83 14.14 9.33 17.07z" fill="#afa0ea"/></g></g><g><path d="m382.683 110.516c13.259-9.557 22.256-24.265 24.682-40.353.618-4.096-2.202-7.917-6.298-8.535-4.086-.612-7.916 2.201-8.534 6.297-1.828 12.122-8.615 23.209-18.62 30.421-8.4 6.054-12.766 16.076-11.392 26.155.852 6.243 1.293 11.266 1.277 14.525-.1 20.805-6.153 40.962-17.506 58.292-7.974 12.172-4.951 28.52 6.882 37.217 8.458 6.217 17.939 15.665 23.769 29.207-19.894-15.816-48.454-16.296-68.885-.368-3.267 2.547-3.851 7.26-1.304 10.526 2.549 3.267 7.26 3.851 10.526 1.304 16.159-12.598 39.29-11.152 53.804 3.362 15.247 15.15 16.207 41.44 0 57.606-7.693 7.693-17.923 11.931-28.803 11.931-10.881 0-21.109-4.237-28.803-11.931-9.373-9.373-13.604-22.776-11.321-35.855.713-4.08-2.017-7.966-6.098-8.678-4.076-.711-7.965 2.017-8.679 6.098-3.123 17.885 2.668 36.219 15.49 49.042 10.526 10.527 24.522 16.324 39.41 16.324 9.253 0 18.16-2.243 26.105-6.466 7.479 14.258 13.137 29.441 16.876 45.161-11.354-10.537-26.542-16.996-43.216-16.996-34.78 0-63.114 28.068-63.576 62.742-7.129-1.965-14.478-2.974-21.97-2.974-7.635 0-15.117 1.049-22.368 3.087-.085-7.397-1.418-14.634-3.991-21.519-1.45-3.88-5.769-5.849-9.651-4.4-3.88 1.45-5.85 5.771-4.399 9.651 2.029 5.431 3.059 11.154 3.059 17.011 0 26.797-21.801 48.598-48.599 48.598-26.797 0-48.598-21.801-48.598-48.598s21.801-48.598 48.598-48.598c9.603 0 18.885 2.793 26.844 8.079 3.446 2.29 8.104 1.352 10.396-2.099 2.291-3.451 1.352-8.105-2.1-10.397-10.426-6.923-22.577-10.583-35.141-10.583-16.635 0-31.791 6.428-43.136 16.92 3.757-15.679 9.421-30.818 16.899-45.034 7.92 4.188 16.79 6.414 26.004 6.414 14.887 0 28.883-5.797 39.41-16.324 21.729-21.73 21.729-57.089 0-78.819-10.527-10.527-24.523-16.324-39.41-16.324-13.604 0-26.454 4.854-36.602 13.72 5.739-14.954 15.831-24.956 24.783-31.306 12.124-8.601 15.388-24.988 7.431-37.306-11.206-17.35-17.13-37.491-17.13-58.245 0-3.184.427-8.052 1.234-14.079 1.348-10.06-3.008-20.057-11.368-26.09-11.764-8.489-18.726-21.651-19.101-36.112-.319-12.309 4.367-24.082 13.195-33.151 8.82-9.061 20.448-14.057 32.744-14.068h.046c12.348 0 23.938 4.825 32.642 13.588 7 7.05 17.318 9.765 26.92 7.088 7.635-2.128 19.527-4.665 32.829-4.665 10.907 0 21.964 2.534 29.318 4.659 9.628 2.782 20.044.062 27.173-7.106 8.703-8.746 20.285-13.562 32.621-13.562h.006c16.39.002 31.73 9.085 40.034 23.704 2.047 3.603 6.629 4.861 10.226 2.817 3.602-2.046 4.863-6.625 2.817-10.226-10.964-19.301-31.301-31.293-53.076-31.295-.003 0-.005 0-.009 0-16.356 0-31.717 6.388-43.252 17.986-3.265 3.283-8.004 4.537-12.374 3.274-8.285-2.395-20.82-5.249-33.482-5.249-14.997 0-28.32 2.836-36.856 5.216-4.377 1.221-9.073-.009-12.249-3.208-11.541-11.622-26.91-18.019-43.285-18.019-.019 0-.041 0-.06 0-16.374.016-31.814 6.623-43.479 18.605-11.673 11.991-17.867 27.619-17.441 44.003.497 19.18 9.725 36.634 25.317 47.886 3.868 2.792 5.891 7.365 5.278 11.935-.907 6.771-1.367 12.177-1.367 16.071 0 23.648 6.753 46.603 19.53 66.384 3.587 5.554 2.046 12.991-3.51 16.933-16.313 11.571-35.761 33.084-35.761 69.859-.002.274.511 15.388.531 15.983-.015 14.459 6.375 29.879 17.43 40.182-16.414 30.442-25.067 64.906-25.067 100.075-.346 34.75 28.359 64.209 63.598 64.085 29.661 0 54.64-20.412 61.64-47.925 7.771-2.989 15.932-4.503 24.311-4.503 8.217 0 16.229 1.46 23.869 4.337 6.942 27.596 31.958 48.09 61.678 48.09 34.864.095 64.133-29.033 63.598-64.365 0-35.078-8.631-69.473-24.987-99.871 10.634-9.754 17.249-25.547 17.311-39.556.167-.777-.485-15.178-.478-16.661-.045-35.616-19.287-57.231-35.433-69.099-5.411-3.977-6.825-11.406-3.219-16.911 12.943-19.757 19.846-42.731 19.959-66.439.02-4.005-.457-9.598-1.414-16.624-.625-4.571 1.406-9.154 5.298-11.958zm-253.099 196.855c0-10.88 4.237-21.109 11.932-28.803 7.693-7.693 17.922-11.931 28.803-11.931 10.88 0 21.109 4.237 28.803 11.931 15.882 15.882 15.882 41.724 0 57.606-7.693 7.693-17.923 11.931-28.803 11.931-10.881 0-21.109-4.237-28.803-11.931-7.695-7.694-11.932-17.923-11.932-28.803zm212.464 189.629c-26.797 0-48.598-21.801-48.598-48.598s21.801-48.598 48.598-48.598 48.598 21.801 48.598 48.598c-.001 26.797-21.802 48.598-48.598 48.598z"/><path d="m256.3 213.293c-1.626 0-3.266-.059-4.873-.175-4.134-.296-7.723 2.809-8.021 6.94s2.81 7.723 6.94 8.021c1.966.142 3.969.214 5.953.214 15.322 0 29.823-4.207 40.831-11.845 11.844-8.218 18.366-19.415 18.366-31.527s-6.522-23.309-18.366-31.527c-10.098-7.121-25.928-11.974-40.831-11.845-15.322 0-29.823 4.207-40.831 11.845-11.844 8.218-18.366 19.415-18.366 31.527 0 11.807 6.243 22.806 17.58 30.971 3.361 2.421 8.048 1.659 10.469-1.703 2.421-3.361 1.658-8.048-1.703-10.469-7.316-5.27-11.346-11.946-11.346-18.799 0-8.631 6.376-16.509 16.206-21.762-1.213 13.218 11.737 25.153 28.519 25.042 15.895.034 29.28-10.75 28.569-24.426 9.197 5.243 15.101 12.844 15.101 21.146 0 15.38-20.24 28.372-44.197 28.372zm14.128-48.417c0 3.938-5.586 8.326-13.602 8.326-8.015 0-13.601-4.388-13.601-8.326 0-3.909 5.507-8.255 13.426-8.32 6.423-.331 13.933 4.341 13.777 8.32z"/><path d="m327.102 114.498c0-14.461-10.464-26.227-23.325-26.227-12.862 0-23.326 11.766-23.326 26.227s10.464 26.227 23.326 26.227c12.861 0 23.325-11.766 23.325-26.227zm-23.325 11.227c-4.514 0-8.326-5.142-8.326-11.227s3.812-11.227 8.326-11.227c4.513 0 8.325 5.142 8.325 11.227s-3.812 11.227-8.325 11.227z"/><path d="m208.823 140.725c12.861 0 23.325-11.766 23.325-26.227s-10.464-26.227-23.325-26.227c-12.862 0-23.326 11.766-23.326 26.227s10.464 26.227 23.326 26.227zm0-37.454c4.513 0 8.325 5.142 8.325 11.227s-3.812 11.227-8.325 11.227c-4.514 0-8.326-5.142-8.326-11.227s3.812-11.227 8.326-11.227z"/><path d="m165.55 30c-17.094 0-31 13.907-31 31s13.906 31 31 31 31-13.907 31-31-13.907-31-31-31zm0 47c-8.822 0-16-7.178-16-16s7.178-16 16-16 16 7.178 16 16-7.178 16-16 16z"/><path d="m378.05 61c0-17.093-13.906-31-31-31s-31 13.907-31 31 13.906 31 31 31 31-13.907 31-31zm-47 0c0-8.822 7.178-16 16-16s16 7.178 16 16-7.178 16-16 16-16-7.178-16-16z"/></g></g></svg>