<svg id="Capa_1" enable-background="new 0 0 512.01 512.01" height="512" viewBox="0 0 512.01 512.01" width="512" xmlns="http://www.w3.org/2000/svg"><g><g><path d="m226.272 220.869-25.32 25.32-138.143-135.628c-3.905-3.905-3.905-10.237 0-14.142l3.93-5.93 7.505-7.505c3.905-3.905 10.237-3.905 14.142 0l51.619 51.619 6.922 10.613z" fill="#8e5644"/><path d="m240.905 247.119-38.574 5.56-44.901-211.244c-1.255-5.678 2.582-11.226 8.338-12.055l3.127-1.739 13.597-1.96c5.181-.747 10.062 2.629 11.191 7.74z" fill="#8e5644"/><path d="m235.975 224.834-26.04-117.85c-6.981-2.379-13.993-4.368-20.658-6.024-2.971-.738-5.265-3.09-5.909-6.082l-14.473-67.234-5.13.74c-5.75.83-9.59 6.37-8.33 12.05l31.087 140.687-47.377-47.377c1.484 7.418 3.432 15.828 5.945 24.484 1.153 3.973-3.737 6.873-6.662 3.948l-71.693-71.692-5.93 5.93c-3.9 3.91-3.9 10.24 0 14.15l137.89 137.88s32.02-21.581 37.28-23.61z" fill="#824d3f"/><g><path d="m356.494 109.623c2.65-.384 4.918 1.885 4.534 4.534-1.197 8.262-4.047 25.21-9.351 42.771-1.961 6.493-6.977 14.035-9.65 20.288-4.455 10.421-7.236 18.977-13.968 25.71-26.077 26.077-60.77.437-60.77.437s-25.64-34.693.437-60.77c11.062-11.062 29.622-17.201 47.365-22.441 2.614-.772 5.243-3.086 7.794-3.753 14.09-3.68 26.799-5.79 33.609-6.776z" fill="#ccf49f"/><path d="m150.982 114.158c-.384-2.65 1.885-4.918 4.535-4.535 6.777.982 19.399 3.076 33.41 6.725 2.489.648 5.102 4.29 7.653 5.039 17.859 5.241 36.562 10.064 47.705 21.207 26.077 26.077.437 60.77.437 60.77s-33.129 25.59-59.206-.487c-10.699-10.699-18.39-27.603-23.617-44.809-.927-3.05-3.238-6.872-4.021-9.847-3.755-14.271-5.899-27.181-6.896-34.063z" fill="#ccf49f"/><path d="m241.32 205.576c.776-.474 1.942-1.177 3.405-2.213 0 0 25.64-34.69-.44-60.77-.674-.552-1.722-1.992-6.95-5.87 0 .002-.001.003-.001.005-13.101-9.494-31.735-16.036-48.409-20.375-3.24 10.85-5.66 21.95-7.22 33.21-.573 4.123-.622 8.256-.179 12.314.357 3.268-3.096 5.547-5.962 3.936-3.08-1.732-6.114-4.004-9.039-6.929-3.22-3.22-6.16-7.08-8.83-11.38 5.18 19.93 13.51 42.68 26.26 55.42 19.86 19.867 44.725 9.722 55.445 3.76.623-.351.312-.162 1.92-1.108z" fill="#b3e59f"/><path d="m348.135 160.164c-3.494 3.494-7.219 5.837-11.013 7.308-3.489 1.353-7.178-1.515-6.744-5.232.496-4.253.451-8.592-.173-12.917-1.6-11.15-4.05-22.16-7.32-32.92-12.85 3.352-26.849 8.021-38.57 14.335 0-.002 0-.003 0-.005-1.051.956-6.417 2.398-16.59 11.86-26.08 26.08-.44 60.77-.44 60.77s.02.014.048.035c.02.014.038.027.079.057.037.027.082.059.135.096.08.057.18.126.298.207.023.016.043.03.067.046.709.487 2.009 1.341 3.8 2.371.224.129.453.26.692.393.069.039.13.075.201.114h.005c10.721 5.962 35.585 16.107 55.445-3.76 11.05-11.05 18.78-29.61 24.01-47.33-1.24 1.662-2.55 3.192-3.93 4.572z" fill="#b3e59f"/><path d="m255.972 62.961c1.904.005 3.559-1.134 5.407-.861 13.24 1.956 24.731 10.604 30.104 23.171l6.4 14.952c7.069 16.515 11.946 33.885 14.507 51.666 2.795 19.41-12.262 36.791-31.872 36.791h-49.09c-3.058 0-5.747-1.64-8.443-2.463-14.537-4.44-23.525-18.711-21.255-35.043 2.479-17.838 7.281-33.328 14.298-49.915l6.279-14.843c6.05-14.29 18.118-23.494 33.665-23.455z" fill="#e5646e"/><path d="m246.425 188.684h-15c-19.55 0-34.58-17.28-31.89-36.64l.01-.07c2.48-17.84 7.29-35.27 14.3-51.86l6.28-14.84c6.05-14.29 20.07-23.63 35.62-23.59 2.54.01 5.04.26 7.47.73-12.42 2.44-23.03 10.92-28.09 22.86l-6.28 14.84c-7.01 16.59-11.82 34.02-14.3 51.86l-.01.07c-2.69 19.36 12.34 36.64 31.89 36.64z" fill="#dd4a5f"/><path d="m246.541 106.071c3.687-8.031 15.108-8.009 18.763.037 2.71 5.964 5.216 11.525 6.24 13.919 4.952 11.569 7.98 23.87 8.965 36.416l.412 5.252c1.141 14.548-10.356 26.983-24.949 26.983-14.566 0-26.054-12.391-24.954-26.916l.409-5.407c.946-12.489 3.917-24.742 8.797-36.277l.022-.052c1.014-2.394 3.55-7.974 6.295-13.955z" fill="#ff8086"/></g><path d="m388.505 188.429h-265c-7.005 0-13.529 2.058-19.001 5.602-9.628 6.236-11.924 19.881-11.924 32.206l-.511 181.192h324.766l6.67-18.176v-61.57l-2.968-11.701 2.968-18.299v-74.254c0-19.33-15.67-35-35-35z" fill="#a36b5b"/><path d="m104.505 383.254v-189.22c-9.63 6.23-16 17.07-16 29.4v74.25l2.117 15.533-2.117 14.467v55.57 24.18l162.883 11.315 172.117-11.315v-18.18h-313c-3.314 0-6-2.687-6-6z" fill="#8e5644"/><path d="m423.505 297.684v30h-319l-15-1 1.543-14.659-1.543-13.341 15-1z" fill="#ff8086"/><path d="m88.505 297.684h16v30h-16z" fill="#e5646e"/><path d="m422.505 486.254h-333c-.924 0-1.841-.029-2.75-.087-22.467-1.418-38.09-20.089-38.09-42.913v-.551h416.33v.551c0 6.604-.978 12.86-3.638 18.451-6.906 14.515-21.707 24.549-38.852 24.549z" fill="#e8e8e8"/><path d="m465.505 442.704v.55c0 6.61-1.49 12.86-4.15 18.45h-375.393c-3.731 0-6.525 3.362-5.912 7.042 1.009 6.063 3.359 12.532 6.706 17.418-22.47-1.42-40.25-20.08-40.25-42.91v-.55l217.138-8.844z" fill="#d8d8d8"/><path d="m472.58 440.754-431.83.638c-16.569 0-32.245-11.57-32.245-28.138 0-2.761 2.239-5 5-5l14.31-1h471.69c2.761 0 5 2.239 5 5v.449c0 4.659-1.062 9.069-2.957 13.003-4.844 10.056-17.058 15.048-28.968 15.048z" fill="#f8f7f7"/><path d="m501.545 425.704c-4.84 10.06-15.13 17-27.04 17h-437c-16.57 0-30-13.43-30-30v-.45c0-2.76 2.24-5 5-5h15.31c4.52 10.84 15.21 18.45 27.69 18.45z" fill="#e8e8e8"/></g><g><path d="m499.505 399.929h-68.5v-131.308c0-4.142-3.358-7.5-7.5-7.5s-7.5 3.358-7.5 7.5v21.559h-320v-66.75c0-15.164 12.336-27.5 27.5-27.5h265c15.164 0 27.5 12.336 27.5 27.5v10.468c0 4.142 3.358 7.5 7.5 7.5s7.5-3.358 7.5-7.5v-10.468c0-23.435-19.065-42.5-42.5-42.5h-37.732c10.954-24.665 16-54.295 17.789-67.124.458-3.291-.625-6.524-2.972-8.871s-5.579-3.428-8.871-2.972c-7.531 1.05-25.723 3.95-44.709 9.635-3.176-10.3-8.289-23.183-13.607-33.684-1.893-3.684-6.414-5.138-10.099-3.243-3.684 1.893-5.136 6.415-3.243 10.099 10.188 20.144 17.619 44.173 20.415 67.285 2.573 13.402-7.625 27.95-21.974 28.875 3.598-5.721 5.443-12.618 4.871-19.907-1.219-17.867-5.861-37.914-12.118-55.286-2.933-8.726-11.089-14.589-20.295-14.589-9.191 0-17.343 5.85-20.285 14.558-6.159 16.96-10.785 36.764-12.119 55.409-.549 7.25 1.302 14.116 4.891 19.815-5.642-.235-12.804-3.644-17.21-9.201-3.339-4.19-6.094-11.866-4.958-18.903 2.836-23.612 9.655-46.375 20.269-67.657 5.588-11.205 16.837-18.165 29.358-18.165 2.308 0 4.62.245 6.871.727 4.055.87 8.038-1.713 8.904-5.764.867-4.05-1.713-8.037-5.764-8.904-3.281-.702-6.65-1.059-10.012-1.059-18.553.016-36.4 11.177-44.021 29.026l-10.878-49.227c-1.966-8.895-10.568-14.842-19.584-13.544l-18.724 2.699c-4.801.692-9.138 3.377-11.897 7.367-2.759 3.989-3.741 8.994-2.694 13.73l13.448 60.857c-2.519-.408-4.643-.721-6.264-.947-3.292-.459-6.524.625-8.871 2.972s-3.43 5.58-2.972 8.871c.561 4.019 1.445 9.703 2.728 16.361l-52.486-52.489c-6.824-6.823-17.926-6.823-24.749 0l-13.435 13.435c-6.823 6.823-6.823 17.925 0 24.749l20.49 20.49c2.929 2.929 7.678 2.929 10.606 0 2.929-2.929 2.929-7.678 0-10.606l-20.49-20.49c-.975-.975-.975-2.561 0-3.536l13.435-13.435c.975-.974 2.561-.975 3.536 0l69.873 69.873c2.283 7.649 5.02 15.426 8.28 22.769h-19.453l-30.383-30.384c-2.929-2.929-7.678-2.929-10.606 0-2.929 2.929-2.929 7.678 0 10.606l19.882 19.882c-22.119 1.462-39.671 19.912-39.671 42.395v176.5h-68.5c-6.893 0-12.5 5.607-12.5 12.5-.357 21.207 17.938 38.967 39.49 37.949 3.398 24.568 24.523 43.551 50.01 43.551h333c25.487 0 46.613-18.983 50.01-43.551 21.027 1.146 39.84-16.412 39.49-37.949 0-6.891-5.607-12.499-12.5-12.499zm-178.954-248.204c-.842-7.233-2.534-17.196-4.563-25.66 14.199-4.278 28.028-6.917 36.81-8.34-2.31 14.234-7.917 42.345-18.637 63.204h-21.728c6.255-7.995 9.465-18.376 8.118-29.204zm-82.038 10.522c1.112-16.645 5.488-35.492 11.373-51.74.881-2.607 3.322-4.359 6.074-4.359 2.757 0 5.199 1.755 6.078 4.369 5.709 15.762 10.125 34.224 11.382 51.683.587 7.479-3.546 14.185-9.948 17.194v-17.797c0-4.142-3.358-7.5-7.5-7.5s-7.5 3.358-7.5 7.5v17.798c-6.387-3.006-10.523-9.696-9.959-17.148zm-75.759-123.43c-.205-.926.153-1.626.385-1.961s.761-.917 1.7-1.052l18.724-2.699c1.287-.187 2.517.664 2.798 1.935l15.521 70.24c-.716 2.079-1.394 4.171-2.047 6.27-7.785-2.325-15.428-4.182-22.254-5.635zm-3.542 78.908c8.742 1.416 22.503 4.04 36.65 8.291-1.959 8.222-3.461 16.568-4.476 25.019-1.441 9.391 1.32 21.564 8.006 29.895h-21.542c-10.72-20.861-16.328-48.976-18.638-63.205zm-63.207 217.454h102.724c4.142 0 7.5-3.358 7.5-7.5s-3.358-7.5-7.5-7.5h-102.724v-15h320v15h-182.234c-4.142 0-7.5 3.358-7.5 7.5s3.358 7.5 7.5 7.5h182.234v64.75h-320zm326.5 143.75h-333c-17.197 0-31.578-12.292-34.817-28.551h402.635c-3.24 16.259-17.621 28.551-34.818 28.551zm52-43.551c-11.005 0-424.046 0-437 0-11.715 0-21.368-9-22.407-20.449h481.814c-1.039 11.45-10.692 20.449-22.407 20.449z"/><circle cx="118.505" cy="367.682" r="7.501"/><circle cx="148.505" cy="367.682" r="7.501"/><circle cx="178.505" cy="367.682" r="7.501"/><circle cx="208.505" cy="367.682" r="7.501"/><circle cx="238.505" cy="367.682" r="7.501"/><circle cx="268.505" cy="367.682" r="7.501"/><circle cx="298.505" cy="367.682" r="7.501"/><circle cx="328.505" cy="367.682" r="7.501"/><circle cx="358.505" cy="367.682" r="7.501"/><circle cx="388.505" cy="367.682" r="7.501"/></g></g></svg>