<svg id="Capa_1" enable-background="new 0 0 512.002 512.002" height="512" viewBox="0 0 512.002 512.002" width="512" xmlns="http://www.w3.org/2000/svg"><g><g><path d="m353.94 110.556c6.634 10.606 6.497 24.021-1.035 36.268l-16.236 34.783-35.113 57.064-43.598 62.3-35.312 65.929-.015.033-22.768 36.993c-3.841 6.24-9.234 10.94-15.373 13.911-3.654 1.768-7.991 1.638-12.005 2.141-7.527.942-12.997-.092-20.074-4.008-.556-1.587-3.142-1.736-3.829-2.155-3.852-2.368-6.792-5.353-8.908-8.735-7.456-11.92-4.8-28.927 3.549-42.488l153.247-248.704c10.717-17.413 28.072-25.685 45.485-14.968 5.175 3.181 9.185 7.16 11.985 11.636z" fill="#b3e59f"/><g><path d="m117.575 426.093c-10.612 2.805-23.015 8.473-29.308 17.36-.786 1.11-1.525 2.257-2.216 3.441l-3.146 5.389c-3.647 6.247.45 14.165 7.656 14.797l.646.057c3.319.291 6.266 2.238 7.836 5.176 4.327 8.097 12.467 13.445 21.617 14.202l1.42.117c3.238.268 6.137 2.114 7.749 4.935 3.637 6.363 12.697 6.677 16.766.581l3.326-4.983c1.269-1.9 2.388-3.88 3.355-5.92 4.22-8.905 3.743-20.378 1.861-30.17l-5.684-29.09c-.547-2.844-.838-4.347-3.638-3.607z" fill="#ffc269"/><path d="m153.276 481.245c4.22-8.909 5.536-18.987 3.655-28.776l-6.017-31.276c-.547-2.842-3.387-4.628-6.188-3.895l-30.319 8.017c-10.609 2.801-19.851 9.254-26.14 18.138 4.282-2.387 9.047-4.111 14.165-5.073l33.138-6.224c3.066-.574 6.349 1.489 7.16 4.5l8.892 33.105c1.036 3.848 1.578 7.696 1.654 11.484z" fill="#ffa95f"/></g><path d="m340.308 64.512c-2.14-10.765-2.495-24.398 2.726-33.954.652-1.193 1.358-2.362 2.118-3.502l3.46-5.193c4.011-6.02 12.923-5.817 16.656.38l.335.555c1.719 2.854 4.763 4.647 8.092 4.767 9.175.332 17.554 5.296 22.252 13.184l.729 1.224c1.663 2.792 4.594 4.585 7.837 4.795 7.313.473 11.574 8.475 7.885 14.807l-3.016 5.177c-1.15 1.974-2.437 3.849-3.845 5.614-6.147 7.702-16.665 12.312-26.288 14.921l-28.631 7.669c-2.795.758-4.273 1.156-4.838-1.685z" fill="#ffc269"/><path d="m405.536 72.366c-6.15 7.704-14.627 13.312-24.247 15.921l-30.741 8.329c-2.794.757-5.645-1.01-6.217-3.849l-6.112-30.76c-2.143-10.762-.404-21.898 4.816-31.45-.264 4.895.28 9.933 1.663 14.954l8.961 32.505c.831 3.007 4.126 5.05 7.187 4.457l33.647-6.55c3.911-.759 7.606-1.961 11.043-3.557z" fill="#ffa95f"/><g fill="#ccf49f"><path d="m156.733 332.464 27.757 85.373c-6.69 3.237-14.27 4.422-21.695 3.304-4.776-.719-9.378-4.49-13.748-7.181-17.413-10.717-20.811-32.588-10.094-50.001z"/><path d="m270.771 147.137 30.79 91.543-31.185 40.668-15.517 35.219-32.228 52.367-31.011-91.181.008-.005 35.273-47.634z"/><path d="m356.51 149.382-19.835 32.234-26.557-81.413c8.957-4.272 18.261-8.584 27.867-4.926 2.144.816 4.242 1.845 6.267 3.091l.12.078c17.413 10.718 22.849 33.515 12.138 50.936z"/></g><g><path d="m308.905 96.486 5.917 7.316-.7 8.682-35.564 57.795-6.243-7.81-1.544-15.332 22.55-36.644c3.885-6.311 9.358-11.044 15.584-14.007z" fill="#95d6a4"/><path d="m191.625 275.762 6.134 9.656 1.703 13.396-35.113 57.064-5.765-9.217-1.851-14.197z" fill="#95d6a4"/><g fill="#b3e59f"><path d="m156.733 332.464 7.616 23.415-9.896 16.086c-10.176 16.544-6.318 37.685 8.343 49.168-4.284-.79-8.018-1.563-13.993-5.154-17.413-10.717-22.841-33.519-12.124-50.932z"/><path d="m270.771 147.137 7.787 23.142-79.096 128.535-7.837-23.052-.005-.009.008-.005 25.533-33.585 21.165-42.302z"/><path d="m337.983 95.284c-6.257.713-19.534 8.884-23.86 17.2l-5.217-15.998c1.383-.23 3.953-3.009 15.343-3.605 2.947-.075 8.648.379 13.734 2.403z"/></g></g><path d="m301.513 238.744-30.457 48.587-79.385-11.647 24.174-32.095 22.484-43.727z" fill="#ffc269"/><path d="m178.472 233.311h89.032v18.752h-89.032z" fill="#ffa95f" transform="matrix(.524 -.852 .852 .524 -100.566 305.399)"/><g><path d="m242.54 276.629c-2.341 1.464-5.403 1.575-7.914.03-3.528-2.171-4.627-6.79-2.457-10.318l15.553-25.275c2.172-3.529 6.79-4.627 10.318-2.457 3.528 2.171 4.627 6.79 2.457 10.318l-15.553 25.275c-.626 1.018-1.456 1.834-2.404 2.427z" fill="#ffa95f"/></g><path d="m424.541 181.231c0 12.51-7.23 23.81-20.11 30.2l-32.21 20.88-60.03 29.76-70 29.7-64.9 37.17-.03.02-38.92 19.29c-6.565 3.253-13.63 4.379-20.41 3.641-4.035-.439-7.644-2.849-11.313-4.551-6.881-3.193-10.97-6.97-14.894-14.043.37-1.64-1.743-3.138-2.103-3.858-2.01-4.05-2.92-8.14-2.92-12.13 0-14.06 11.27-27.07 25.54-34.14l261.81-129.59c18.32-9.08 37.42-6.89 46.5 11.43 2.7 5.441 3.99 10.941 3.99 16.221z" fill="#ffe07d"/><g><path d="m57.394 324.44c-10.484-3.249-24.005-5.021-34.054-.824-1.254.524-2.49 1.105-3.703 1.742l-5.525 2.901c-6.405 3.363-7.13 12.247-1.356 16.605l.517.391c2.659 2.007 4.126 5.22 3.899 8.544-.625 9.159 3.44 18.01 10.796 23.504l1.141.852c2.603 1.944 4.082 5.046 3.953 8.293-.291 7.323 7.224 12.394 13.906 9.383l5.463-2.461c2.083-.938 4.082-2.023 5.984-3.24 8.3-5.312 13.98-15.293 17.577-24.592l10.608-27.677c1.045-2.701 1.594-4.13-1.172-4.987z" fill="#ff8086"/><path d="m58.416 390.132c8.302-5.315 14.762-13.161 18.359-22.458l11.484-29.707c1.043-2.7-.417-5.719-3.181-6.584l-29.957-9.281c-10.48-3.251-21.737-2.681-31.78 1.516 4.896.247 9.85 1.312 14.7 3.211l31.396 12.295c2.904 1.14 4.594 4.63 3.685 7.612l-10.016 32.783c-1.165 3.811-2.746 7.361-4.69 10.613z" fill="#e5646e"/></g><path d="m436.554 136.852c3.894-10.262 10.822-22.008 20.317-27.342 1.185-.666 2.404-1.282 3.653-1.846l5.688-2.568c6.593-2.977 14.041 1.922 13.92 9.154l-.011.648c-.056 3.331 1.574 6.465 4.333 8.333 7.602 5.146 12.074 13.799 11.874 22.977l-.031 1.424c-.071 3.249 1.463 6.324 4.101 8.221 5.949 4.279 5.319 13.323-1.167 16.735l-5.302 2.79c-2.022 1.064-4.107 1.971-6.237 2.721-9.296 3.27-20.657 1.601-30.2-1.29l-28.34-8.681c-2.772-.84-4.236-1.286-3.209-3.994z" fill="#ff8086"/><path d="m487.691 178.101c-9.3 3.27-19.46 3.53-29 .64l-30.48-9.24c-2.77-.84-4.25-3.85-3.23-6.56l11.13-29.32c3.89-10.26 11.27-18.78 20.76-24.11-2.82 4.01-5.03 8.57-6.52 13.56l-9.64 32.31c-.89 2.99.82 6.47 3.73 7.59l32 12.29c3.72 1.43 7.49 2.37 11.25 2.84z" fill="#e5646e"/><g fill="#fff0af"><path d="m139.671 264.791-21.74 87.1c-7.388-.803-14.443-3.818-20.146-8.703-3.668-3.142-5.57-8.779-7.848-13.378-9.08-18.32-.363-38.665 17.957-47.745z"/><path d="m334.631 168.141-22.44 93.94-48.005 17.941-31.832 21.631-55.093 27.308 22.06-93.75h.01l55.164-21.68z"/><path d="m406.131 215.511-33.91 16.81 20.657-83.106c9.86 1.128 20.034 2.406 26.239 10.602 1.384 1.829 2.618 3.813 3.675 5.944l.06.13c9.079 18.32 1.599 40.53-16.721 49.62z"/></g><g><path d="m393.821 145.421 1.137 9.34-5.197 6.99-60.8 30.14-1.151-9.932 6.821-13.818 38.55-19.11c6.64-3.29 13.79-4.4 20.64-3.61z" fill="#ffd064"/><path d="m199.321 235.221.08 11.44-5.66 12.26-60.03 29.76v-10.872l5.96-13.018z" fill="#ffd064"/><g fill="#ffe07d"><path d="m139.671 264.791-5.96 23.89-16.92 8.39c-17.4 8.63-25.34 28.6-19 46.11-3.213-2.941-5.969-5.577-9.13-11.79-9.08-18.32-1.59-40.53 16.73-49.61z"/><path d="m334.631 168.141-5.67 23.75-135.22 67.03 5.58-23.7v-.01h.01l39.457-14.933 40.377-24.642z"/><path d="m419.111 159.821c-5.683-2.713-21.272-2.827-29.35 1.93l4.06-16.33c1.295.539 4.948-.455 14.92 5.08 2.539 1.499 7.131 4.907 10.37 9.32z"/></g></g><path d="m312.117 262.109-79.765 39.541-32.95-66.471 37.514-14.391 42.25-25.149z" fill="#ff8086"/><path d="m198.935 214.435h89.032v18.752h-89.032z" fill="#e5646e" transform="matrix(.896 -.444 .444 .896 -74.071 131.402)"/></g><g><path d="m275.33 238.943c-1.839-3.711-6.338-5.231-10.051-3.389l-26.589 13.18c-3.711 1.839-5.229 6.339-3.389 10.051 1.309 2.641 3.965 4.17 6.726 4.17 1.118 0 2.255-.251 3.325-.782l26.589-13.18c3.711-1.839 5.229-6.339 3.389-10.05z"/><path d="m504.776 147.766c-.632-.455-.999-1.19-.982-1.973l.03-1.42c.257-11.776-5.413-22.749-15.168-29.352-.664-.449-1.052-1.195-1.038-1.986.266-4.96-2.228-11.699-7.809-15.456-4.997-3.286-11.233-3.779-16.685-1.318l-5.688 2.567c-13.153 5.938-23.218 16.64-28.337 30.134l-8.182 21.563c-4.754-4.705-10.55-8.308-17.075-10.508-11.268-3.798-23.342-2.982-33.997 2.299l-1.701.843c2.648-7.796 3.085-16.19 1.159-24.405-1.536-6.549-4.465-12.536-8.547-17.638l18.323-4.902c4.001-1.07 6.377-5.182 5.307-9.184s-5.184-6.379-9.184-5.307l-13.157 3.52 6.704-10.812c2.183-3.52 1.099-8.144-2.422-10.326-3.519-2.183-8.143-1.1-10.326 2.422l-6.609 10.659-3.375-17.279c-2.001-10.239.1-20.648 5.914-29.311l3.479-5.182c.63-.938 1.559-1.06 2.022-1.045.485.013 1.387.179 1.963 1.144 2.357 4.289 7.936 8.67 14.553 9.003 6.658.263 12.657 3.845 16.047 9.58 2.249 4.597 8.035 9.238 14.492 9.715 1.144.078 1.699.819 1.929 1.254.229.435.528 1.312-.051 2.299-2.536 4.159-2.391 4.54-5.843 9.316-2.537 3.274-1.938 7.985 1.336 10.522 3.271 2.536 7.985 1.94 10.521-1.336 1.437-1.619 5.37-8.169 6.92-10.907 3.067-5.225 3.21-11.543.38-16.9-2.829-5.358-8.128-8.802-14.173-9.214-.777-.053-1.478-.484-1.873-1.153-5.278-10.078-17.067-17.792-29.092-18.165-.801-.032-1.524-.461-1.932-1.143-2.391-4.353-8.064-8.763-14.785-9.011-6-.151-11.538 2.715-14.869 7.68l-3.479 5.182c-8.043 11.983-10.949 26.383-8.183 40.547l4.421 22.635c-6.521-1.49-13.344-1.494-20.049.078-11.577 2.715-21.404 9.776-27.671 19.883l-69.388 111.907-116.55 57.776c-10.654 5.282-18.614 14.396-22.414 25.665-2.197 6.518-2.84 13.304-1.978 19.931l-22.185-6.72c-13.703-4.152-28.229-2.765-40.899 3.901l-5.302 2.789c-5.362 2.821-8.815 8.114-9.237 14.159-.421 6.044 2.265 11.765 7.183 15.302.632.455.999 1.19.982 1.974-.828 11.345 5.118 24.112 15.138 30.771.663.45 1.052 1.196 1.038 1.986-.266 4.96 2.228 11.699 7.809 15.456 2.892 1.901 6.197 2.868 9.526 2.868 2.425 0 4.861-.513 7.158-1.55l5.688-2.567c13.153-5.938 23.218-16.64 28.337-30.133l8.217-21.655c8.325 7.954 19.44 12.363 30.851 12.363 2.988 0 5.995-.319 8.978-.938-5.989 9.048-8.845 22.69-5.962 34.361 1.57 6.697 4.603 12.802 8.831 17.977l-17.238 4.611c-4.001 1.07-6.377 5.182-5.307 9.183 1.069 4.001 5.179 6.376 9.184 5.307l12.498-3.344-6.704 10.811c-2.183 3.521-1.099 8.144 2.422 10.327 1.23.763 2.596 1.127 3.945 1.127 2.509 0 4.961-1.259 6.381-3.548l6.61-10.66 3.374 17.279c2 10.24-.102 20.649-5.916 29.312l-3.477 5.181c-.63.939-1.526 1.055-2.024 1.045-.485-.013-1.386-.179-1.967-1.152-2.358-4.283-7.934-8.662-14.549-8.995-6.657-.263-12.656-3.845-16.048-9.583-2.251-4.595-8.035-9.234-14.491-9.712-1.143-.078-1.698-.819-1.928-1.254s-.528-1.312.052-2.3l3.032-5.166c.89-1.514 1.89-2.981 2.972-4.359 2.559-3.258 1.991-7.972-1.266-10.531-3.259-2.558-7.973-1.992-10.531 1.266-1.497 1.906-2.879 3.934-4.109 6.028l-3.033 5.166c-3.067 5.225-3.21 11.543-.38 16.901 2.829 5.357 8.127 8.802 14.172 9.214.777.053 1.478.484 1.875 1.157 5.279 10.077 17.067 17.788 29.091 18.161.801.032 1.523.461 1.936 1.151 2.419 4.454 8.431 8.989 15.245 9.008 5.8 0 11.159-2.85 14.406-7.687l3.478-5.181c8.043-11.983 10.949-26.383 8.184-40.547l-4.438-22.723c3.02.634 6.075.949 9.118.949 14.907 0 29.492-7.474 37.909-21.048l74.713-120.495 128.453-63.676c10.655-5.282 18.615-14.396 22.414-25.665 2.149-6.374 2.819-13.006 2.042-19.493l22.606 6.848c5.184 1.57 10.481 2.348 15.755 2.348 8.669 0 17.266-2.104 25.145-6.249l5.302-2.79c5.362-2.821 8.815-8.114 9.237-14.159.42-6.041-2.266-11.761-7.184-15.298zm-128.267 7.989c2.458-1.219 5.031-2.07 7.654-2.567l-18.376 73.944-42.581 21.108 17.905-74.938zm-140.768 135.844-26.289-53.031 66.325-32.879 26.288 53.031zm-47.529 23.56 13.673-58.084 20.417 41.185zm135.404-133.184-13.937 58.331-20.462-41.279zm17.778-78.221c5.757 3.412 11.565 10.717 13.308 18.424 1.8 7.677.503 15.595-3.652 22.297l-6.408 10.335-6.542 3.243-18.711-58.015c7.579-1.698 15.384-.388 22.005 3.716zm-40.649 9.53c1.446-2.331 3.183-4.411 5.149-6.218l18.617 57.723-33.159 16.437-11.427-34.365zm-31.11 50.174 8.146 24.497-33.691 16.701zm-200.757 200.113c-3.701 9.754-10.977 17.49-20.485 21.783l-5.688 2.568c-1.032.467-1.865.087-2.271-.18s-1.083-.883-1.064-2.003l.012-.658c.099-5.885-2.753-11.369-7.628-14.669-5.518-3.735-8.726-9.942-8.58-16.607l.03-1.419c.126-5.721-2.573-11.132-7.22-14.475-.93-.669-1.012-1.591-.978-2.082.034-.49.243-1.393 1.258-1.927l5.302-2.789c5.696-2.997 11.91-4.517 18.178-4.517 3.812 0 7.643.562 11.388 1.697l17.491 5.299-11.398 5.65c-3.711 1.84-5.229 6.34-3.389 10.051 1.31 2.641 3.965 4.17 6.726 4.17 1.118 0 2.255-.251 3.325-.782l11.236-5.57zm26.569-35.379c-3.016-5.775-4.176-15.13-1.589-22.672 2.52-7.472 7.798-13.516 14.862-17.018l19.741-9.786-2.85 11.42c-1.003 4.019 1.441 8.09 5.46 9.093.61.152 1.221.225 1.822.225 3.361 0 6.42-2.277 7.271-5.686l5.939-23.797 42.267-20.952-17.606 74.79-35.756 17.725c-2.398 1.189-4.881 2.013-7.389 2.508l4.129-16.546c1.004-4.019-1.441-8.09-5.46-9.093-4.024-1.006-8.09 1.441-9.093 5.461l-4.782 19.16c-7.138-2.425-13.359-7.558-16.966-14.832zm57.449 79.83-.123-.076c-6.701-4.155-11.383-10.671-13.184-18.348s-.504-15.595 3.651-22.296l11.612-18.725 20.282 63.099c-7.344 1.705-15.337.625-22.238-3.654zm40.649-9.53c-1.41 2.274-3.085 4.284-4.955 6.027l-20.186-62.799 32.988-16.353 13.183 39.208zm31.292-50.467-9.879-29.382 40.567-20.11zm192.822-156.256c-2.519 7.472-7.797 13.515-14.862 17.018l-19.383 9.608 15.92-64.061c7.341 2.556 13.277 7.785 16.736 14.763l.064.13c3.503 7.065 4.045 15.07 1.525 22.542zm79.336-29.744c-.034.491-.243 1.394-1.258 1.927l-5.302 2.789c-9.16 4.819-19.66 5.82-29.565 2.82l-17.49-5.298 11.397-5.65c3.711-1.84 5.229-6.339 3.389-10.051-1.841-3.711-6.339-5.229-10.051-3.389l-11.236 5.57 6.246-16.459c3.7-9.754 10.976-17.491 20.484-21.784l5.688-2.568c1.033-.465 1.866-.086 2.271.18.406.267 1.083.883 1.064 2.003-.262 4.888 2.169 11.554 7.616 15.327 5.518 3.735 8.726 9.942 8.58 16.607-.51 5.09 1.955 12.08 7.189 15.893.93.67 1.012 1.592.978 2.083z"/></g></g></svg>