<svg id="Capa_1" enable-background="new 0 0 511.998 511.998" height="512" viewBox="0 0 511.998 511.998" width="512" xmlns="http://www.w3.org/2000/svg"><g><g><path d="m357.542 452.007h-203.086c-5.523 0-10 4.477-10 10l1 31.491c0 5.523 4.477 10 10 10l6.003 1h196.083c5.523 0 10-4.477 10-10v-6.96l-1.777-25.531c0-5.523-2.7-10-8.223-10z" fill="#ff8086"/><path d="m356.359 355.5-154.587-141.362c-17.186-15.773-25.834-38.787-23.289-61.975l3.53-32.159-47.514 8.659c-6.392 1.165-12.534 3.266-18.235 6.205-6.872 3.543-11.932 9.484-17.188 15.29-.173.191-.274.306-.29.328-20.028 21.822-16.29 53.759 5.532 73.787l144.202 136.328z" fill="#f8f7f7"/><path d="m248.519 360.598-147.65-135.51c-21.83-20.03-23.28-53.96-3.25-75.78.01-.02.11-.14.29-.33 5.34-5.9 11.68-10.72 18.68-14.28-14.55 21.63-11.52 51.22 8.28 69.39l147.65 135.51z" fill="#e8e8e8"/><path d="m379.123 297.163v-24.816l-128.784-117.767c-17.186-15.773-25.834-38.787-23.289-61.975l3.53-32.159-47.514 8.659c-8.301 1.513-16.18 4.604-23.219 9.06-4.915 3.111-8.839 7.561-12.792 11.929-.173.191-.274.306-.29.328-20.028 21.822-16.099 54.759 5.723 74.787l144.599 135.832z" fill="#f8f7f7"/><path d="m297.089 301.048-147.66-135.52c-21.82-20.03-23.27-53.96-3.25-75.78.02-.02.12-.14.29-.33 3.96-4.37 8.46-8.14 13.38-11.25-13.04 21.42-9.6 49.76 9.58 67.36l147.66 135.52z" fill="#e8e8e8"/><path d="m394.886 171.386-63.338-58.131c-20.05-18.402-30.14-45.252-27.17-72.304l3.375-30.743c.178-1.624-1.258-2.962-2.866-2.669l-39.028 7.113-10.647 2.815c-15.73 2.867-29.075 10.589-39.805 22.443-.193.213-.305.34-.323.365-22.345 24.347-19.503 61.91 4.844 84.255l162.384 150.854 16.272-17.729c22.801-24.844 21.145-63.468-3.698-86.269z" fill="#f8f7f7"/><path d="m395.319 261.218-13.01 14.17-164.74-151.2c-24.34-22.35-25.97-60.2-3.62-84.54.02-.03.13-.16.32-.37 10.73-11.85 25.1-19.8 40.83-22.67l12.6-2.3c-11.62 3.95-22.12 10.79-30.43 19.97-.19.21-.3.34-.32.37-22.35 24.34-20.72 62.19 3.62 84.54z" fill="#e8e8e8"/><path d="m371.829 97.126c0 21.741-15.855 36.383-37.596 36.383s-38.426-15.505-38.426-37.246c0-12.138 4.455-22.299 12.809-29.52 1.258-1.087 2.563-2.785 3.998-3.7 6.105-3.891 13.354-6.146 21.13-6.146 17.665 0 32.612 11.635 37.596 27.66 1.151 3.697.489 8.492.489 12.569z" fill="#ff8086"/><path d="m364.44 120.904c.735-1.07-.165.519 2.869-4.076-.001 0-.002.001-.003.001 5.284-8.62 7.53-20.596 4.133-31.941-18.877 11.194-30.775 21.208-35.256 33.228-.578 1.549-2.273 2.403-3.813 1.799-14.634-5.741-24.991-19.983-24.991-36.658 0-7.54 2.12-14.58 5.8-20.56-11.28 6.91-18.8 19.36-18.8 33.56 0 21.75 17.62 39.37 39.37 39.37 10.774-.146 22.571-4.44 30.691-14.723z" fill="#e5646e"/><path d="m390.02 138.505c-3.614 10.575-20.369 19.885-28.106 24.301-1.842 1.052-4.181.252-4.995-1.707-3.416-8.227-10.683-27.272-7.069-37.846 1.401-4.099 4.596-8.19 8.957-12.085 1.859-1.66 3.622-3.515 5.634-5.02 5.448-4.072 11.038-7.446 14.498-9.42 1.842-1.052 4.181-.252 4.995 1.707 2.278 5.487 6.401 16.337 7.823 26.093.711 4.873-.533 10.455-1.737 13.977z" fill="#b3e59f"/><path d="m391.759 124.528c-7.266.202-15.631 3.409-25 9.545-1.744 1.142-4.084.239-4.587-1.784-1.823-7.339-2.767-14.934-.984-20.161.71-2.08 1.99-4.19 3.66-6.27-6.88 5.08-13.62 11.31-15.66 17.27-2.966 10.624 2.341 26.798 7.37 39.09.81 1.96 3.15 2.76 4.99 1.71 7.885-4.786 17.987-10.498 26.08-20.11-.005.003-.009.006-.014.01 1.673-2.096 2.97-4.219 3.684-6.31 1.211-3.52 1.171-8.12.461-12.99z" fill="#95d6a4"/><path d="m392.999 182.53c-11.173.221-27.228-12.622-34.023-18.382-1.618-1.372-1.667-3.842-.104-5.277 6.563-6.024 21.678-19.481 32.851-19.702 2.678-.053 6.239.02 9.367 1.238 9.923 3.863 20.999 12.65 26.166 17.029 1.618 1.372 1.667 3.842.104 5.277-4.745 4.356-14.671 12.904-24.029 17.389-3.585 1.717-7.237 2.367-10.332 2.428z" fill="#ccf49f"/><path d="m403.329 180.098c-3.58 1.72-7.08 2.84-10.18 2.9-11.17.23-28.19-13.16-34.99-18.92-1.61-1.37-1.66-3.84-.1-5.28 6.56-6.02 23.04-20.06 34.21-20.29 2.68-.05 5.69.68 8.82 1.9-9.36 4.49-19.29 13.04-24.03 17.39-1.56 1.44-1.51 3.91.1 5.28 5.17 4.38 16.25 13.17 26.17 17.02z" fill="#b3e59f"/><path d="m367.539 462.008c0-5.52-4.47-10-10-10h-193.08-10c-5.53 0-10 4.48-10 10v28.53 3.96c0 5.52 4.47 10 10 10h7v-12.96c0-2.209 1.791-4 4-4h202.08z" fill="#e5646e"/><path d="m131.217 450.356-22.048-182.679h294.832l-21.573 184.689c-.086.738-.211 1.463-.372 2.174-2.098 9.261-12.348 14.586-22.036 14.586l-208.383-.596c-10.431 0-19.209-7.813-20.42-18.174z" fill="#bde4ff"/><path d="m382.049 454.538c-2.09 9.26-10.35 16-20.04 16h-212.02c-10.43 0-19.21-7.81-20.42-18.17l-21.57-184.69h16.63l20.83 182.83c.27 2.3 2.22 4.03 4.53 4.03z" fill="#99dbff"/><path d="m159.622 434.281-15.323-129.186c-.347-2.971 1.975-5.58 4.966-5.58l9.494-1h204.974c2.991 0 5.313 2.609 4.966 5.58l-6.718 57.513-3.238 7.5 1.486 7.5-5.5 47.09-2.353 10.583c-.294 2.52-2.429 4.42-4.966 4.42h-182.821c-2.538 0-4.672-1.9-4.967-4.42z" fill="#ff8086"/><path d="m354.729 423.698-1.35 11.58c-.3 2.52-2.43 4.42-4.97 4.42h-184.82c-2.54 0-4.67-1.9-4.97-4.42l-6.852-58.67 1.572-6.291-3.324-8.709-6.716-57.51c-.35-2.97 1.97-5.58 4.97-5.58h10.49l14.31 122.528c.177 1.512 1.458 2.652 2.98 2.652z" fill="#e5646e"/><path d="m411.726 268.793h-294.067l-16.979-.603c-9.265 0-16.085-6.907-16.085-16.172v-.938c0-9.265 6.501-16.146 15.766-16.146l17.298-.629h294.068c9.265 0 16.775 7.51 16.775 16.775v.938c0 9.264-7.511 16.775-16.776 16.775z" fill="#ff8086"/><path d="m120.269 268.788h-20c-9.26 0-16.77-7.51-16.77-16.77v-.94c0-9.26 7.51-16.77 16.77-16.77h20c-9.26 0-16.77 7.51-16.77 16.77v.94c0 9.26 7.51 16.77 16.77 16.77z" fill="#e5646e"/><path d="m298.754 369.108c0 9.173-2.889 17.671-7.806 24.634-2.701 3.825-6.549 6.691-10.332 9.447-7.058 5.143-15.216 8.17-24.617 8.17-23.613 0-42.213-18.639-42.213-42.251 0-12.373 4.974-23.282 13.255-31.089 1.504-1.418 3.014-2.961 4.734-4.146 6.886-4.743 15.23-7.519 24.223-7.519 23.614 0 42.756 19.141 42.756 42.754z" fill="#bde4ff"/><path d="m291.219 393.338c-7.71 11.19-20.61 18.52-35.22 18.52-23.61 0-42.75-19.14-42.75-42.75 0-14.62 7.34-27.52 18.53-35.23-4.75 6.88-7.53 15.23-7.53 24.23 0 23.61 19.14 42.75 42.75 42.75 8.99 0 17.33-2.77 24.22-7.52z" fill="#99dbff"/></g><g><path d="m151.074 306.015h95.317c4.142 0 7.5-3.357 7.5-7.5s-3.358-7.5-7.5-7.5h-103.744c-2.141 0-4.179.915-5.603 2.514-1.423 1.6-2.095 3.73-1.847 5.856l16.491 141.186c.441 3.78 3.644 6.63 7.449 6.63h193.723c3.806 0 7.008-2.85 7.449-6.63l16.491-141.185c.249-2.126-.423-4.257-1.847-5.856-1.423-1.599-3.462-2.514-5.603-2.514h-87.937c-4.142 0-7.5 3.357-7.5 7.5s3.358 7.5 7.5 7.5h79.51l-6.493 55.593h-48.739c-3.632-24.166-24.531-42.755-49.693-42.755s-46.061 18.589-49.693 42.755h-48.739zm104.925 27.838c19.439 0 35.254 15.815 35.254 35.255s-15.815 35.255-35.254 35.255-35.254-15.815-35.254-35.255 15.815-35.255 35.254-35.255zm-49.692 42.755c3.632 24.166 24.531 42.755 49.693 42.755s46.061-18.589 49.693-42.755h46.987l-6.493 55.593h-180.374l-6.493-55.593z"/><path d="m421.025 228.816c2.927-15.738.279-31.844-7.522-45.794 6.842-4.281 13.476-9.78 18.928-14.785 2.33-2.138 3.63-5.176 3.568-8.335-.062-3.158-1.481-6.143-3.895-8.189-9.128-7.736-21.39-16.635-32.39-19.644.383-11.344-4.309-25.564-8.854-36.508-1.213-2.922-3.623-5.183-6.613-6.205-1.378-.47-2.818-.645-4.24-.557-2.193-13.637-10.289-25.321-21.577-32.347 5.831-6.297 13.541-10.735 22.197-12.51 4.058-.831 6.673-4.795 5.841-8.854-.832-4.057-4.799-6.673-8.854-5.841-13.634 2.796-25.549 10.443-33.755 21.262-3.261-.72-6.643-1.112-10.118-1.112-8.036 0-15.604 2.035-22.221 5.614-.268-4.406-.174-8.831.31-13.242l3.375-30.743c.341-3.105-.821-6.231-3.107-8.36s-5.485-3.065-8.558-2.506l-49.784 9.074c-1.993.363-3.996.807-5.955 1.32-4.007 1.049-6.405 5.147-5.355 9.155 1.05 4.007 5.149 6.403 9.155 5.354 1.592-.417 3.221-.777 4.843-1.072l43.111-7.858-2.634 23.999c-.959 8.729-.665 17.507.844 26.138-6.792 8.134-10.888 18.593-10.888 29.993 0 25.842 21.024 46.866 46.866 46.866 2.946 0 5.858-.275 8.714-.813 1.49 6.49 3.983 13.958 7.508 22.479.626 1.927 1.769 3.669 3.347 5.007 11.182 9.478 27.07 20.704 39.577 20.704 1.73-.02 3.507-.206 6.99-1.072 6.498 11.202 8.732 24.629 6.235 37.371h-65.643l-117.827-108.144c-10.299-9.452-16.301-22.35-16.9-36.316-.754-15.841 6.286-31.773 18.757-42.69 3.079-2.771 3.328-7.513.557-10.592-2.771-3.078-7.512-3.327-10.592-.557-8.254 7.107-17.117 19.516-20.567 31.003-19.442 2.329-40.086 9.735-53.349 25.286-10.051 11.008-15.304 24.732-15.891 38.583-11.667 3.478-24.177 11.343-32.678 20.977-21.837 23.917-21.065 60.641 1.156 83.649-9.934 3.215-17.141 12.552-17.141 23.549-.1 13.332 11.577 25.109 25.456 24.74l20.668 176.943c1.108 9.486 6.868 17.401 14.835 21.588v19.674c0 9.649 7.851 17.5 17.5 17.5h203.086c9.649 0 17.5-7.851 17.5-17.5v-19.674c7.967-4.187 13.727-12.102 14.835-21.588l3.778-32.342c.48-4.114-2.465-7.839-6.579-8.319-4.108-.483-7.838 2.465-8.319 6.579l-3.778 32.342c-.769 6.581-6.345 11.544-12.971 11.544h-212.017c-6.625 0-12.202-4.963-12.971-11.544l-20.465-175.203h278.89l-12.606 107.922c-.48 4.114 2.465 7.839 6.579 8.319.295.034.589.052.879.052 3.753 0 6.994-2.812 7.44-6.631l12.809-109.662c13.263.507 25.483-10.904 25.456-24.748.001-10.176-6.176-18.934-14.976-22.729zm-36.317-96.491c-8.41 2.627-17.444 8.826-25.197 15.251-4.691-14.148-3.919-19.978-3.222-22.019 1.695-4.96 10.321-12.598 22.416-19.982 4.262 11.185 6.446 20.982 6.003 26.75zm-82.829-36.062c0-17.57 14.295-31.865 31.866-31.865.777 0 1.545.038 2.308.093l-4.081 9.836c-1.587 3.826.228 8.214 4.054 9.802.94.39 1.914.574 2.871.574 2.941 0 5.733-1.742 6.931-4.628l4.553-10.977c9.092 5.588 15.178 15.609 15.226 27.03-10.32 6.864-20.42 15.533-23.511 24.58-.671 1.965-1.067 4.179-1.219 6.622-2.324.531-4.71.8-7.132.8-17.572-.001-31.866-14.296-31.866-31.867zm91.122 79.242c-.049 0-.097.001-.147.001-5.28 0-15.323-5.475-26.298-14.231 10.718-9.27 20.622-15.16 25.863-15.264.049 0 .098-.001.147-.001 5.28 0 15.322 5.474 26.297 14.23-10.719 9.271-20.622 15.161-25.862 15.265zm-35.459 321.493h-203.086c-1.378 0-2.5-1.121-2.5-2.5v-16.458h208.086v16.458c0 1.379-1.121 2.5-2.5 2.5zm-254.401-342.62c5.327-6.116 14.155-12.444 22.809-15.609 2.546 12.009 8.697 23.367 18.41 32.282l7.42 6.811c1.44 1.322 3.258 1.975 5.07 1.975 2.027 0 4.048-.817 5.527-2.429 2.801-3.052 2.598-7.796-.454-10.597l-7.42-6.811c-18.74-17.2-19.994-46.439-2.794-65.18 9.192-10.855 24.584-17.766 39.167-19.514-.176 2.539-.228 5.101-.117 7.681.771 17.97 8.492 34.563 21.744 46.725l105.788 97.093h-90.998l-39.29-36.06c-3.052-2.802-7.797-2.598-10.597.454-2.801 3.052-2.598 7.796.454 10.597l27.249 25.009h-91.277l-7.896-7.247c-18.741-17.201-19.994-46.44-2.795-65.18zm308.12 106.915h-310.524c-5.371 0-9.74-4.369-9.74-9.748 0-5.371 4.37-9.74 9.74-9.74h310.524c5.371 0 9.74 4.369 9.74 9.748.001 5.371-4.369 9.74-9.74 9.74z"/><path d="m243.423 376.608h25.151c4.142 0 7.5-3.357 7.5-7.5s-3.358-7.5-7.5-7.5h-25.151c-4.142 0-7.5 3.357-7.5 7.5s3.358 7.5 7.5 7.5z"/></g></g></svg>