<svg id="Capa_1" enable-background="new 0 0 512 512" height="512" viewBox="0 0 512 512" width="512" xmlns="http://www.w3.org/2000/svg"><g><g><path d="m241.844 326.643 201.954.156c16.127 0 36.08-4.666 46.14-15.723 8.889-9.77 14.307-22.753 14.307-37.002v-210.81c0-30.376-24.624-55-55-55h-210.809c-14.249 0-27.232 5.418-37.002 14.307-11.057 10.06-14.92 26.09-14.92 42.217l.33 206.855c0 30.375 24.625 55 55 55z" fill="#ffe07d"/><path d="m345.565 308.073v-70.147c0-39.765-32.236-72-72-72h-69.129c-1.657 0-3-1.343-3-3v-140.353c-11.06 10.06-18 24.57-18 40.69v210.81c0 30.376 24.624 55 55 55h210.81c16.13 0 30.64-6.94 40.69-18h-141.371c-1.657 0-3-1.343-3-3z" fill="#ffd064"/><g><path d="m244.872 292.679 197.936 1.752c11.377 0 24.318-6.057 27.345-16.457.647-2.221.993-4.57.993-7.001v-204.609c0-13.807-11.193-25-25-25h-204.611c-2.43 0-4.78.347-7.001.994-10.4 3.028-14.332 18.092-14.332 29.469l-.33 195.853c0 13.807 11.193 24.999 25 24.999z" fill="#ffc269"/></g><g fill="#ffa95f"><circle cx="415.132" cy="97.378" r="15.277"/><circle cx="415.132" cy="168.669" r="15.277"/><circle cx="415.132" cy="239.96" r="15.277"/><circle cx="343.841" cy="97.378" r="15.277"/><circle cx="343.331" cy="169.178" r="15.277"/><circle cx="343.841" cy="239.96" r="15.277"/><circle cx="272.55" cy="97.378" r="15.277"/><circle cx="272.55" cy="168.669" r="15.277"/><circle cx="272.55" cy="239.96" r="15.277"/><path d="m345.565 274.973v-37.048c0-39.765-32.236-72-72-72h-36.029c-1.657 0-3-1.343-3-3v-120.562c-10.4 3.02-18 12.62-18 24v204.61c0 13.807 11.193 25 25 25h204.61c11.38 0 20.98-7.6 24-18h-121.581c-1.657 0-3-1.343-3-3z"/></g><path d="m287.825 168.666c0 8.44-6.84 15.28-15.27 15.28-8.44 0-15.28-6.84-15.28-15.28 0-.94.08-1.85.25-2.74h16.04c4.86 0 9.61.48 14.2 1.4.04.44.06.89.06 1.34z" fill="#ff8b5a"/><path d="m345.565 237.926v17.21c-.56.07-1.14.1-1.72.1-8.44 0-15.28-6.84-15.28-15.28 0-8.43 6.84-15.27 15.28-15.27.17 0 .34 0 .51.01.79 4.29 1.21 8.71 1.21 13.23z" fill="#ff8b5a"/><path d="m66.163 501.305 201.954.156c16.127 0 36.08-4.666 46.14-15.723 8.889-9.77 14.307-22.753 14.307-37.002v-210.809c0-30.376-24.624-55-55-55h-210.809c-14.249 0-27.232 5.418-37.002 14.307-11.058 10.06-14.92 26.09-14.92 42.217l.33 206.855c0 30.375 24.624 54.999 55 54.999z" fill="#ffe07d"/><path d="m314.255 485.736c-10.05 11.06-24.56 18-40.69 18h-210.81c-30.38 0-55-24.62-55-55v-210.81c0-16.12 6.94-30.63 18-40.69v251.5c0 20.4 16.6 37 37 37z" fill="#ffd064"/><g><path d="m69.19 467.342 197.936 1.752c11.377 0 24.318-6.057 27.345-16.457.647-2.221.993-4.57.993-7.001v-204.61c0-13.807-11.193-25-25-25h-204.61c-2.43 0-4.78.347-7.001.994-10.4 3.028-14.332 18.092-14.332 29.469l-.33 195.853c-.001 13.807 11.192 25 24.999 25z" fill="#ffc269"/></g><path d="m294.465 452.636c-3.02 10.4-12.62 18-24 18h-204.61c-13.81 0-25-11.19-25-25v-204.61c0-11.38 7.6-20.98 18-24v225.61c0 5.52 4.48 10 10 10z" fill="#ffa95f"/><g fill="#ffa95f"><circle cx="239.45" cy="272.041" r="15.277"/><circle cx="239.45" cy="343.332" r="15.277"/><circle cx="239.45" cy="414.623" r="15.277"/><circle cx="168.159" cy="272.041" r="15.277"/><circle cx="167.65" cy="343.841" r="15.277"/><circle cx="168.159" cy="414.623" r="15.277"/><circle cx="96.868" cy="272.041" r="15.277"/><circle cx="96.868" cy="343.332" r="15.277"/><circle cx="96.868" cy="414.623" r="15.277"/></g></g><g><path d="m449.5.509h-139.947c-4.142 0-7.5 3.357-7.5 7.5s3.358 7.5 7.5 7.5h139.947c26.191 0 47.5 21.309 47.5 47.5v210.81c0 26.191-21.309 47.5-47.5 47.5h-113.69v-18.099h110.59c17.92 0 32.5-14.579 32.5-32.5v-124.529c0-4.143-3.358-7.5-7.5-7.5s-7.5 3.357-7.5 7.5v124.529c0 9.649-7.851 17.5-17.5 17.5h-110.59v-27.616c2.426.883 5.042 1.366 7.77 1.366 12.559 0 22.777-10.218 22.777-22.776s-10.218-22.776-22.777-22.776c-3.887 0-7.548.98-10.752 2.704-6.15-19.16-21.308-34.314-40.469-40.461 1.725-3.206 2.707-6.869 2.707-10.758 0-12.559-10.218-22.776-22.777-22.776s-22.776 10.218-22.776 22.776c0 2.731.484 5.351 1.369 7.779h-26.592v-109.574c0-9.649 7.851-17.5 17.5-17.5h204.61c9.649 0 17.5 7.851 17.5 17.5v44.849c0 4.143 3.358 7.5 7.5 7.5s7.5-3.357 7.5-7.5v-44.849c0-17.921-14.58-32.5-32.5-32.5h-204.61c-17.92 0-32.5 14.579-32.5 32.5v109.573h-18.1v-112.672c0-26.191 21.309-47.5 47.5-47.5h36.012c4.142 0 7.5-3.357 7.5-7.5s-3.358-7.5-7.5-7.5h-36.012c-34.462 0-62.5 28.037-62.5 62.5v112.673h-113.69c-34.462 0-62.5 28.037-62.5 62.5v145.84c0 4.143 3.358 7.5 7.5 7.5s7.5-3.357 7.5-7.5v-145.84c0-26.191 21.309-47.5 47.5-47.5h210.81c26.191 0 47.5 21.309 47.5 47.5v.742c-.001.09-.007.179-.007.27s.006.179.007.27v209.528c0 26.191-21.309 47.5-47.5 47.5h-210.81c-26.191 0-47.5-21.309-47.5-47.5v-30.374c0-4.143-3.358-7.5-7.5-7.5s-7.5 3.357-7.5 7.5v30.374c0 34.463 28.038 62.5 62.5 62.5h210.81c34.462 0 62.5-28.037 62.5-62.5v-112.674h113.69c34.462 0 62.5-28.037 62.5-62.5v-210.809c0-34.463-28.038-62.5-62.5-62.5zm-177.212 159.617c4.288 0 7.777 3.488 7.777 7.776s-3.489 7.776-7.777 7.776-7.776-3.488-7.776-7.776 3.488-7.776 7.776-7.776zm71.291 71.291c4.288 0 7.777 3.488 7.777 7.776s-3.489 7.776-7.777 7.776c-4.243 0-7.696-3.416-7.77-7.641v-.27c.074-4.225 3.528-7.641 7.77-7.641z"/><path d="m414.87 73.835c-12.559 0-22.776 10.218-22.776 22.776s10.217 22.776 22.776 22.776 22.777-10.218 22.777-22.776-10.218-22.776-22.777-22.776zm0 30.553c-4.288 0-7.776-3.488-7.776-7.776s3.488-7.776 7.776-7.776 7.777 3.488 7.777 7.776-3.489 7.776-7.777 7.776z"/><path d="m414.87 145.126c-12.559 0-22.776 10.218-22.776 22.776s10.217 22.776 22.776 22.776 22.777-10.218 22.777-22.776-10.218-22.776-22.777-22.776zm0 30.553c-4.288 0-7.776-3.488-7.776-7.776s3.488-7.776 7.776-7.776 7.777 3.488 7.777 7.776-3.489 7.776-7.777 7.776z"/><path d="m414.87 216.417c-12.559 0-22.776 10.218-22.776 22.776s10.217 22.776 22.776 22.776 22.777-10.218 22.777-22.776-10.218-22.776-22.777-22.776zm0 30.553c-4.288 0-7.776-3.488-7.776-7.776s3.488-7.776 7.776-7.776 7.777 3.488 7.777 7.776-3.489 7.776-7.777 7.776z"/><path d="m343.579 73.835c-12.559 0-22.776 10.218-22.776 22.776s10.217 22.776 22.776 22.776 22.777-10.218 22.777-22.776-10.218-22.776-22.777-22.776zm0 30.553c-4.288 0-7.776-3.488-7.776-7.776s3.488-7.776 7.776-7.776 7.777 3.488 7.777 7.776-3.489 7.776-7.777 7.776z"/><path d="m343.07 145.635c-12.559 0-22.776 10.218-22.776 22.776 0 12.56 10.217 22.777 22.776 22.777s22.777-10.218 22.777-22.777c0-12.558-10.218-22.776-22.777-22.776zm0 30.553c-4.288 0-7.776-3.489-7.776-7.777s3.488-7.776 7.776-7.776 7.777 3.488 7.777 7.776-3.489 7.777-7.777 7.777z"/><path d="m249.512 96.611c0 12.559 10.217 22.776 22.776 22.776s22.777-10.218 22.777-22.776-10.218-22.776-22.777-22.776-22.776 10.218-22.776 22.776zm30.553 0c0 4.288-3.489 7.776-7.777 7.776s-7.776-3.488-7.776-7.776 3.488-7.776 7.776-7.776 7.777 3.488 7.777 7.776z"/><path d="m204.948 216.28c0-4.143-3.358-7.5-7.5-7.5h-131.848c-17.92 0-32.5 14.579-32.5 32.5v204.611c0 17.921 14.58 32.5 32.5 32.5h204.61c17.92 0 32.5-14.579 32.5-32.5v-204.611c0-17.921-14.58-32.5-32.5-32.5h-38.039c-4.142 0-7.5 3.357-7.5 7.5s3.358 7.5 7.5 7.5h38.039c9.649 0 17.5 7.851 17.5 17.5v204.611c0 9.649-7.851 17.5-17.5 17.5h-204.61c-9.649 0-17.5-7.851-17.5-17.5v-204.611c0-9.649 7.851-17.5 17.5-17.5h131.848c4.142 0 7.5-3.357 7.5-7.5z"/><path d="m239.196 295.071c12.559 0 22.776-10.218 22.776-22.776s-10.217-22.776-22.776-22.776-22.777 10.218-22.777 22.776 10.218 22.776 22.777 22.776zm0-30.552c4.288 0 7.776 3.488 7.776 7.776s-3.488 7.776-7.776 7.776-7.777-3.488-7.777-7.776 3.489-7.776 7.777-7.776z"/><path d="m239.196 366.362c12.559 0 22.776-10.218 22.776-22.776s-10.217-22.776-22.776-22.776-22.777 10.218-22.777 22.776 10.218 22.776 22.777 22.776zm0-30.552c4.288 0 7.776 3.488 7.776 7.776s-3.488 7.776-7.776 7.776-7.777-3.488-7.777-7.776 3.489-7.776 7.777-7.776z"/><path d="m239.196 437.653c12.559 0 22.776-10.218 22.776-22.776s-10.217-22.776-22.776-22.776-22.777 10.218-22.777 22.776 10.218 22.776 22.777 22.776zm0-30.552c4.288 0 7.776 3.488 7.776 7.776s-3.488 7.776-7.776 7.776-7.777-3.488-7.777-7.776 3.489-7.776 7.777-7.776z"/><path d="m167.905 249.519c-12.559 0-22.777 10.218-22.777 22.776s10.218 22.776 22.777 22.776 22.776-10.218 22.776-22.776-10.217-22.776-22.776-22.776zm0 30.552c-4.288 0-7.777-3.488-7.777-7.776s3.489-7.776 7.777-7.776 7.776 3.488 7.776 7.776-3.488 7.776-7.776 7.776z"/><path d="m190.172 344.096c0-12.56-10.218-22.777-22.777-22.777s-22.777 10.218-22.777 22.777 10.218 22.776 22.777 22.776 22.777-10.218 22.777-22.776zm-30.553 0c0-4.288 3.489-7.777 7.777-7.777s7.777 3.489 7.777 7.777-3.489 7.776-7.777 7.776-7.777-3.488-7.777-7.776z"/><path d="m167.905 437.653c12.559 0 22.776-10.218 22.776-22.776s-10.217-22.776-22.776-22.776-22.777 10.218-22.777 22.776 10.218 22.776 22.777 22.776zm0-30.552c4.288 0 7.776 3.488 7.776 7.776s-3.488 7.776-7.776 7.776-7.777-3.488-7.777-7.776 3.489-7.776 7.777-7.776z"/><path d="m96.614 249.519c-12.559 0-22.777 10.218-22.777 22.776s10.218 22.776 22.777 22.776 22.776-10.218 22.776-22.776-10.217-22.776-22.776-22.776zm0 30.552c-4.288 0-7.777-3.488-7.777-7.776s3.489-7.776 7.777-7.776 7.776 3.488 7.776 7.776-3.488 7.776-7.776 7.776z"/><path d="m96.614 320.81c-12.559 0-22.777 10.218-22.777 22.776s10.218 22.776 22.777 22.776 22.776-10.218 22.776-22.776-10.217-22.776-22.776-22.776zm0 30.552c-4.288 0-7.777-3.488-7.777-7.776s3.489-7.776 7.777-7.776 7.776 3.488 7.776 7.776-3.488 7.776-7.776 7.776z"/><path d="m96.614 392.101c-12.559 0-22.777 10.218-22.777 22.776s10.218 22.776 22.777 22.776 22.776-10.218 22.776-22.776-10.217-22.776-22.776-22.776zm0 30.552c-4.288 0-7.777-3.488-7.777-7.776s3.489-7.776 7.777-7.776 7.776 3.488 7.776 7.776-3.488 7.776-7.776 7.776z"/></g></g></svg>