<svg id="Capa_1" enable-background="new 0 0 512.01 512.01" height="512" viewBox="0 0 512.01 512.01" width="512" xmlns="http://www.w3.org/2000/svg"><g><g><path d="m376.035 334.186-135.673 10.04-158.587-10.04 17.689-56.015 2.241-53.985 134.823-7.116 119.577 7.116z" fill="#fff0af"/><path d="m325.698 38.86c1.973-.275 3.655 1.406 3.379 3.379-.806 5.778-2.727 17.338-6.538 29.851-4.154 13.638-12.454 28.404-22.103 38.053-22.26 22.26-39.184 21.145-51.486 8.843s-12.389-29.621 9.871-51.881c3.06-3.06 5.604-7.3 9.495-9.738 19.634-12.304 47.303-17.101 57.382-18.507z" fill="#ccf49f"/><path d="m132.109 38.86c-1.973-.275-3.655 1.406-3.38 3.379.842 6.038 2.902 18.389 7.063 31.544 1.204 3.806 3.708 7.7 5.286 11.507 3.875 9.351 8.948 17.976 15.523 24.55 22.26 22.26 39.953 21.447 52.254 9.146 12.302-12.302 13.421-31.127-8.839-53.387-5.187-5.187-12.021-8.001-19.195-11.466-.644-.311-1.125-2.049-1.777-2.348-17.981-8.237-38.549-11.755-46.935-12.925z" fill="#ccf49f"/><path d="m211.953 115.424c.808-1.293-.34.934 2.571-4.059 4.58-8.763-10.289-41.549-14.509-45.769-5.65-5.65-13.06-10.19-20.97-13.81-7.34 8.22-11.79 19.05-11.79 30.9 0 5.086.825 9.982 2.343 14.565.528 1.593-1.009 3.115-2.577 2.517-7.176-2.735-14.838-7.845-22.846-15.853-3.28-3.28-6.19-7.14-8.76-11.36 4.15 13.51 10.51 28.05 20.05 37.59 16.96 16.96 31.925 20.338 43.532 15.55 4.742-2.421 7.355-3.333 12.956-10.271z" fill="#b3e59f"/><path d="m245.256 82.681c0-17.397-14.103-31.5-31.5-31.5-4.322 0-8.441.87-12.19 2.445-2.691 1.13-4.403 3.611-6.652 5.406-7.233 5.772-11.394 13.675-11.394 23.648 0 17.397 12.84 31.5 30.237 31.5s31.499-14.102 31.499-31.499z" fill="#e5646e"/><path d="m241.945 96.736c-5.15 10.34-15.84 17.45-28.19 17.45-17.4 0-31.5-14.11-31.5-31.5 0-13.08 7.96-24.29 19.31-29.06-2.12 4.23-3.31 9.01-3.31 14.06 0 17.39 14.1 31.5 31.5 31.5 4.32 0 8.44-.87 12.19-2.45z" fill="#dd4a5f"/><path d="m313.155 84.236c-8.894 8.89-17.371 14.15-25.231 16.515-1.449.436-2.876-.821-2.555-2.3.579-2.665.886-5.429.886-8.264 0-13.76-7.16-25.87-17.94-32.82-3.89 2.44-7.47 5.17-10.53 8.23-4.769 4.769-8.457 9.378-11.199 13.802 0-.001 0-.001-.001-.002-8.331 12.813-11.079 33.183 9.73 45.122 11.918 6.394 27.818 3.83 46.02-14.372 9.83-9.83 16.28-24.96 20.44-38.81-2.77 4.829-5.95 9.229-9.62 12.899z" fill="#b3e59f"/><path d="m271.256 90.181c0-13.255-10.745-24-24-24-2.29 0-4.505.321-6.602.92-.616.176-1.06.706-1.649.932-9.006 3.46-14.862 12.32-14.862 22.612 0 13.255 9.158 22.47 22.412 22.47 10.421 0 19.991-5.576 23.308-14.857.902-2.523 1.393-5.243 1.393-8.077z" fill="#e5646e"/><path d="m269.855 98.256c-3.31 9.28-12.17 15.93-22.6 15.93-13.25 0-24-10.75-24-24 0-10.97 7.36-20.22 17.4-23.08-.91 2.52-1.4 5.24-1.4 8.08 0 13.25 10.75 24 24 24 2.29 0 4.5-.32 6.6-.93z" fill="#dd4a5f"/><g fill="#f6d190"><path d="m356.105 224.186h-254.4l7.667-16.363 7.813-69.097c2.15-11.9 12.51-20.54 24.6-20.54h174.24c12.09 0 22.45 8.64 24.6 20.54z"/><path d="m386.905 394.186h-316l12.375-30-1.505-30h294.26z"/><path d="m120.445 224.186-20.25 110-10.639 4.161-7.781-4.161 19.93-110 8.328-2.841z"/></g><path d="m139.955 118.256-19.51 105.93h-18.74l15.48-85.46c2.04-11.29 11.48-19.65 22.77-20.47z" fill="#ecbd83"/><path d="m386.905 394.186-149.056 7.508-166.944-7.508 10.87-60h18.42l-6.652 36.094c-.566 3.073 1.793 5.906 4.917 5.906h285.184z" fill="#ecbd83"/><path d="m348.612 130.253c-2.242-12.763-13.328-22.071-26.287-22.071h-175.412l-10.432 1c-12.958 0-24.044 9.308-26.287 22.071l-7.94 43.199c-1.075 6.121 3.634 11.73 9.849 11.73l15.381 1c1.889 0 3.727.218 5.49.63 10.621 2.483 19.829 11.111 19.829 22.488l-.299 59.145c0 13.112 10.279 24.215 23.386 24.553 3.1.08 5.071.572 7.811-.419 9.24-3.345 15.843-12.198 15.843-22.593v-59.784c0-13.266 10.754-24.02 24.02-24.02 1.313 0 2.601.105 3.856.308 2.567.414 5.494.551 7.785 1.672 7.914 3.873 13.211 12.281 13.211 21.55l.168 19.232c0 13.111 10.279 24.215 23.386 24.553 3.241.084 5.342.525 8.185-.558 9.044-3.446 15.47-12.2 15.47-22.454v-20.284c0-13.266 10.754-24.02 24.02-24.02h27.056c6.215 0 10.924-5.609 9.849-11.73z" fill="#e5646e"/><path d="m184.085 293.436c-2.85 1.08-5.95 1.64-9.19 1.56-13.11-.34-23.39-11.44-23.39-24.55v-59.24c0-13.27-10.75-24.02-24.02-24.02h-16.38c-6.22 0-10.93-5.61-9.85-11.73l7.94-45.2c2.24-12.77 13.33-22.07 26.29-22.07h17c-12.96 0-24.05 9.3-26.29 22.07l-7.94 45.2c-1.08 6.12 3.63 11.73 9.85 11.73h16.38c13.27 0 24.02 10.75 24.02 24.02v59.24c0 10.36 6.42 19.46 15.58 22.99z" fill="#dd4a5f"/><path d="m476.698 314.86c1.973-.275 3.655 1.406 3.379 3.379-.343 2.461.111 4.971-.697 9.157-3.156 16.353-10.312 43.019-25.043 57.751-22.26 22.26-53.387 8.839-53.387 8.839s-11.637-30.143 10.623-52.403c18.503-18.501 53.049-25.038 65.125-26.723z" fill="#ccf49f"/><path d="m477.695 313.856c-8.941 1.252-31.739 5.177-50.484 14.645-5.674 2.997-11.563 6.285-17.425 12.095-22.26 22.26-8.83 53.39-8.83 53.39s.091.039.25.103c.007.003.013.005.021.008.052.021.113.045.181.072.009.004.017.007.026.01.073.029.153.06.242.094.004.002.009.003.013.005.09.035.188.071.294.111.009.003.018.007.027.01.108.04.222.082.345.127.002.001.005.002.007.003.46.166 1.027.361 1.69.573.09.029.176.057.27.086.062.02.129.04.193.059.157.049.316.098.481.148.038.011.077.023.115.034.208.062.423.125.644.189.001 0 .003.001.004.001 4.243 1.216 10.923 2.621 18.527 2.347 11.23-8.98 23.81-24.25 23.81-47.56 0-4.003-.403-8.058-1.116-12.109-.166-.943.34-1.883 1.232-2.23 11.186-4.354 22.681-7.07 31.163-8.671.81-4.19 1.36-7.7 1.7-10.16.28-1.97-1.4-3.65-3.38-3.38z" fill="#b3e59f"/><path d="m399.201 285.48c1.201-1.59 3.579-1.59 4.779 0 1.203 1.593 2.793 1.758 4.611 4.379 9.281 13.384 24.5 38.666 24.5 60.547 0 12.968-5.346 22.719-11.633 29.702-2.087 2.318-8.246 3.512-10.379 5.237-7.041 5.692-9.488 9.061-9.488 9.061s-31.5-12.52-31.5-44c0-26.166 21.763-55.196 29.11-64.926z" fill="#ccf49f"/><path d="m404.625 329.996c-3.448-3.448-7.375-6.522-11.588-9.279-.826-.54-1.155-1.596-.75-2.496 5.061-11.238 11.485-21.411 16.308-28.365-1.82-2.62-3.41-4.79-4.61-6.38-1.21-1.59-3.58-1.59-4.78 0-3.963 5.247-12.114 16.69-18.786 30.222-.001-.001-.003-.001-.004-.002-5.084 10.72-10.244 23.113-10.32 36.71 0 31.48 31.5 44 31.5 44s.012-.005.033-.013c.231-.094 1.683-.697 3.839-1.858.03-.016.059-.032.089-.048.145-.078.293-.159.444-.243.088-.049.177-.098.268-.149.1-.056.201-.113.304-.171.158-.089.318-.181.481-.275.04-.023.079-.046.119-.069 3.954-2.296 9.401-6.048 14.283-11.474 1.52-14.26-.49-33.77-16.83-50.11z" fill="#b3e59f"/><path d="m327.109 314.86c-1.973-.275-3.655 1.406-3.379 3.379 1.685 12.076 8.902 47.613 27.404 66.115 22.26 22.26 51.722 9.632 51.722 9.632s13.421-31.127-8.839-53.387c-13.409-13.409-36.705-20.541-53.112-24.094-6.233-1.348-10.472-1.181-13.796-1.645z" fill="#ccf49f"/><path d="m396.905 395.926c-10.12 2.69-31.15 5.51-47.44-10.78-18.5-18.5-25.05-55.83-26.74-67.91-.27-1.97 1.41-3.65 3.38-3.38 3.33.47 8.57 1.3 14.8 2.65 1.95 13.24 8.67 48.75 26.56 66.64 9.24 9.24 20.01 12.33 29.44 12.78z" fill="#b3e59f"/><path d="m280.155 253.936c-2.733.896-5.037 1.655-9.18 1.56-13.11-.34-23.39-11.44-23.39-24.55v-19.74c0-6.64-2.69-12.64-7.03-16.99-3.863-3.705-9.415-6.956-16.99-7.03h17c6.64 0 12.64 2.69 16.99 7.03 4.34 4.35 7.03 10.35 7.03 16.99v19.74c0 10.36 6.42 19.45 15.57 22.99z" fill="#dd4a5f"/><g><path d="m422.505 473.181h-333c-.924 0-1.841-.029-2.75-.087-22.467-1.418-38.09-20.089-38.09-42.913v-.551h416.33v.551c0 6.604-.978 12.86-3.638 18.451-6.906 14.516-21.707 24.549-38.852 24.549z" fill="#e8e8e8"/><path d="m465.505 429.631v.55c0 6.61-1.49 12.86-4.15 18.45h-375.393c-3.731 0-6.525 3.362-5.912 7.042 1.009 6.063 3.359 12.532 6.706 17.418-22.47-1.42-40.25-20.08-40.25-42.91v-.55l217.138-8.844z" fill="#d8d8d8"/><path d="m472.58 427.681-431.83.639c-16.569 0-32.245-11.57-32.245-28.138 0-2.761 2.239-5 5-5l14.31-1h471.69c2.761 0 5 2.239 5 5v.449c0 4.659-1.062 9.069-2.957 13.003-4.844 10.056-17.058 15.047-28.968 15.047z" fill="#f8f7f7"/><path d="m501.545 412.631c-4.84 10.06-15.13 17-27.04 17h-437c-16.57 0-30-13.43-30-30v-.45c0-2.76 2.24-5 5-5h15.31c4.52 10.84 15.21 18.45 27.69 18.45z" fill="#e8e8e8"/></g></g><path d="m499.505 386.682h-36.423c17.104-20.386 23.439-54.188 25.423-68.406.459-3.291-.624-6.524-2.971-8.872-2.348-2.348-5.585-3.43-8.873-2.971-7.801 1.088-26.269 4.218-43.781 11.283-7.073-16.637-17.279-31.291-22.916-38.756-2.002-2.652-5.055-4.173-8.375-4.173s-6.372 1.521-8.375 4.173c-3.247 4.301-9.391 12.869-15.316 23.448l-2.178-12.02c-.738-4.076-4.645-6.784-8.717-6.043-4.076.738-6.781 4.642-6.043 8.717l4.059 22.403c-14.92-5.284-29.664-7.886-37.875-9.031-3.294-.461-6.526.623-8.874 2.971s-3.43 5.581-2.971 8.872c.324 2.325.767 5.178 1.352 8.406h-140.454c-4.142 0-7.5 3.357-7.5 7.5s3.358 7.5 7.5 7.5h143.741c3.87 14.978 10.303 32.505 20.787 45h-260.841l8.152-45h53.118c4.142 0 7.5-3.357 7.5-7.5s-3.358-7.5-7.5-7.5h-50.4l17.21-95h36.041v38.763c0 17.236 13.769 31.615 30.693 32.051 16.198.832 32.753-13.747 32.347-31.51v-39.304h33.059c.387 16.906 13.993 30.884 30.675 31.313 16.276.809 32.577-13.628 32.342-31.313h46.721l4.822 26.617c.505 2.839 4.138 6.856 8.717 6.043 4.076-.738 6.781-4.641 6.043-8.717l-11.745-64.835c.872-.704 1.692-1.481 2.427-2.355 3.333-3.971 4.73-9.176 3.833-14.281l-7.94-45.198c-2.878-16.383-17.04-28.273-33.673-28.273h-3.654c11.52-20.065 16.21-45.768 17.834-57.406.459-3.291-.624-6.524-2.971-8.872-2.348-2.348-5.583-3.429-8.873-2.971-14.875 2.074-51.179 8.919-71.141 27.877-2.031-.144-1.95-.812-8.936-.506-7.329-9.434-18.719-15.121-30.829-15.121-7.977 0-15.4 2.412-21.585 6.538-20.479-12.325-47.71-17.209-59.025-18.787-3.293-.462-6.526.623-8.874 2.971-2.347 2.348-3.43 5.581-2.971 8.872 1.62 11.612 6.312 37.331 17.838 57.406h-3.657c-16.634 0-30.795 11.891-33.673 28.273l-7.94 45.198c-.897 5.105.5 10.311 3.833 14.281.734.875 1.555 1.651 2.427 2.355l-35.489 195.89h-52.135c-6.893 0-12.5 5.607-12.5 12.5-.357 21.207 17.938 38.967 39.49 37.948 3.397 24.568 24.523 43.552 50.01 43.552h333c25.488 0 46.613-18.984 50.01-43.552 21.027 1.146 39.839-16.411 39.49-37.948 0-6.893-5.607-12.5-12.5-12.5zm-388.824-170 3.985-22h12.818c9.109 0 16.521 7.411 16.521 16.521v5.479zm129.405 0h-33.041v-5.479c0-9.109 7.411-16.521 16.521-16.521s16.52 7.411 16.52 16.521zm63.04 0v-5.479c0-9.109 7.411-16.521 16.521-16.521h23.493l3.986 22zm17.573-169.445c-2.298 13.208-8.001 38.104-20.011 53.444h-23.751c1.184-3.343 1.819-6.89 1.819-10.5 0-9.381-4.127-17.812-10.655-23.588 15.353-11.554 39.55-17.09 52.598-19.356zm-86.153 53.445c-2.448-2.944-3.791-6.594-3.791-10.5 0-9.098 7.402-16.5 16.5-16.5s16.5 7.402 16.5 16.5c0 3.85-1.374 7.559-3.801 10.5zm-5.308-36.315c-8.143 5.7-13.482 15.143-13.482 25.815 0 3.607.635 7.155 1.821 10.5h-19.677c-5.13-4.534-8.143-11.107-8.143-18 0-13.233 10.766-24 24-24 5.735 0 11.205 2.081 15.481 5.685zm-92.129-17.125c10.624 1.855 29.239 6 44.097 13.991-4.071 6.158-6.45 13.529-6.45 21.448 0 6.334 1.57 12.501 4.433 18h-22.068c-12.01-15.343-17.715-40.239-20.012-53.439zm-28.468 129.507 7.94-45.198c1.615-9.195 9.564-15.869 18.9-15.869h186.844c9.336 0 17.285 6.674 18.9 15.869l7.94 45.198c.175.999-.268 1.707-.548 2.04s-.9.893-1.915.893h-27.056c-17.38 0-31.521 14.14-31.521 31.521v20.283c.053 7.847-6.905 16.778-16.961 16.516-8.866-.229-16.08-7.881-16.08-17.057v-19.742c0-17.381-14.14-31.521-31.52-31.521s-31.521 14.14-31.521 31.521v59.783c.053 7.847-6.905 16.778-16.961 16.516-8.866-.229-16.08-7.881-16.08-17.057v-59.242c0-17.381-14.14-31.521-31.521-31.521h-16.38c-1.014 0-1.635-.56-1.915-.893s-.72-1.041-.545-2.04zm364.059 145.486c-2.532 14.576-9.139 43.081-23.667 57.609-2.839 2.839-6.017 5.132-9.459 6.837h-13.934c7.91-8.158 14.95-19.985 14.95-36.275 0-6.088-1.022-12.343-2.714-18.528 12.625-5.188 26.079-8.126 34.824-9.643zm-71.11-29.299c8.516 12.097 24 36.924 24 57.471 0 11.807-5.352 20.459-11.332 26.447.845-12.296-1.55-28.169-14.938-41.558-4.389-4.389-9.653-8.146-15.349-11.364 5.25-12.424 12.574-23.833 17.619-30.996zm-46.817 86.908c-14.528-14.527-21.135-43.031-23.667-57.606 14.576 2.531 43.079 9.137 57.608 23.666 14.043 14.042 11.064 32.476 8.715 40.778h-33.199c-3.442-1.706-6.619-3.999-9.457-6.838zm119.732 42.286h-168.819c-4.142 0-7.5 3.357-7.5 7.5s3.358 7.5 7.5 7.5h151.632c-3.24 16.259-17.616 28.552-34.813 28.552h-333c-17.197 0-31.573-12.292-34.813-28.552h214.909c4.142 0 7.5-3.357 7.5-7.5s-3.358-7.5-7.5-7.5h-232.096c-11.715 0-21.368-8.999-22.407-20.448h481.814c-1.039 11.449-10.692 20.448-22.407 20.448z"/></g></svg>