<svg id="Capa_1" enable-background="new 0 0 512.006 512.006" height="512" viewBox="0 0 512.006 512.006" width="512" xmlns="http://www.w3.org/2000/svg"><g><g><path d="m165.725 403.775-9.244-3.735c-5.121-2.069-7.595-7.897-5.526-13.018l151.808-371.26c2.069-5.121 7.897-7.595 13.018-5.526l3.481-.189 4.763 1.924c5.121 2.069 7.595 7.897 5.526 13.018l-150.808 373.26c-2.069 5.121-7.898 7.595-13.018 5.526z" fill="#ff8086"/><path d="m172.483 400.036 3.98 1.61c-2.75 2.7-6.94 3.67-10.74 2.13l-9.24-3.74c-5.12-2.06-7.6-7.89-5.53-13.01l150.81-373.26c2.07-5.12 7.9-7.6 13.02-5.53l4.48 1.81-152.31 376.98c-2.07 5.12.41 10.95 5.53 13.01z" fill="#e5646e"/><path d="m307.753 144.506-91.5 4.372-81.5-3.895-10-.478 1-19c0-5.523 4.477-10 10-10l9-1h153c5.523 0 10 4.477 10 10z" fill="#c5b9ef"/><path d="m144.753 114.506v30l-11.495 1.649-8.505-1.649v-20c0-5.52 4.48-10 10-10z" fill="#afa0ea"/><path d="m307.753 208.963h-183l2.633-19.457-2.633-19.457h183l-2.027 14.276 2.027 6.181z" fill="#c5b9ef"/><path d="m307.753 174.506-86.537-6.011-96.463 6.011v16 14h20v-9c0-2.761 2.239-5 5-5h158z" fill="#afa0ea"/><g><path d="m401.753 447.006h-14.55l-13.945-3.66-20.505 3.66c-8.284 0-15-6.716-15-15s6.716-15 15-15l20.505 5.404 13.995-5.404h14.5c8.271 0 15-6.729 15-15v-94c0-8.271-6.729-15-15-15h-14.5l-9.654-2.34-24.846 2.34c-8.284 0-15-6.716-15-15s6.716-15 15-15l22.803 3.915 11.677-3.915h14.52c24.813 0 45 20.187 45 45v94c0 24.814-20.187 45-45 45z" fill="#e3d2ff"/></g><path d="m387.253 264.506v28.5h-34.5c-8.28 0-15-6.72-15-15s6.72-15 15-15h34.48c.02.5.02 1 .02 1.5z" fill="#c5b9ef"/><path d="m387.253 417.006v27.5c0 .84-.01 1.67-.05 2.5h-34.45c-8.28 0-15-6.72-15-15s6.72-15 15-15z" fill="#c5b9ef"/><path d="m302.79 500.793-174.894 1.021c-33.137 0-60-26.863-60-60l1.532-172.596c0-15.755 1.897-34.804 11.828-45.509 10.958-11.812 26.614-19.203 43.996-19.203h182c33.137 0 60 26.863 60 60v180c0 17.382-7.392 33.038-19.203 43.996-10.705 9.932-29.504 12.291-45.259 12.291z" fill="#e3d2ff"/><path d="m348.053 488.506c-10.71 9.92-25.04 16-40.8 16h-182c-33.14 0-60-26.86-60-60v-180c0-15.76 6.07-30.09 16-40.8v220.8c0 24.26 19.74 44 44 44z" fill="#c5b9ef"/><path d="m337.253 287.696v40c-25.86 1.67-27.9 23.81-57.56 23.81-31.85 0-31.85-14-63.69-14-31.85 0-31.85 14-63.69 14-29.47 0-31.67-21.98-57.06-23.78l3.793-16.124-3.793-23.876c25.39 1.8 27.59 3.78 57.06 3.78 31.84 0 31.84-14 63.69-14 31.84 0 31.84 14 63.69 14 29.66 0 31.7-2.14 57.56-3.81z" fill="#f6d190"/><path d="m337.253 327.696v116.81c0 3.508-.602 6.875-1.708 10.004-4.119 11.65-18.671 17.177-31.733 17.177l-175.149.511c-16.57 0-30-13.43-30-30l-1.97-114.356c8.721.618 13.266 2.323 18.56 4.445 10.119 4.057 17.712 9.22 37.06 9.22 31.84 0 31.84-14 63.69-14 31.84 0 31.84 14 63.69 14 29.66-.001 31.7-12.141 57.56-13.811z" fill="#a36b5b"/><path d="m115.253 292.286v40c-2.43-1.031-5.965.909-10 0-3.132-.706-6.57-4.366-10-4.56v-40c3.54.252 7.225-3.775 10-3.188 4.06.859 6.852 6.489 10 7.748z" fill="#ecbd83"/><path d="m335.533 454.506c-4.11 11.66-15.22 20-28.28 20h-182c-16.57 0-30-13.43-30-30v-116.78c6.763.695 11.163 1.083 20 4.56v112.22c0 5.51 4.49 10 10 10z" fill="#8e5644"/><path d="m308.253 174.506h-163.52l-19.48-1c-4.418 0-8-3.582-8-8v-12c0-4.418 3.582-8 8-8l19.48-1h163.52c4.418 0 8 3.582 8 8v14c0 4.418-3.582 8-8 8z" fill="#e3d2ff"/><path d="m144.733 144.506v30h-20.48c-4.42 0-8-3.58-8-8v-14c0-4.42 3.58-8 8-8z" fill="#c5b9ef"/><path d="m337.253 264.506v23.19c-25.86 1.67-27.9 13.81-57.56 13.81-31.85 0-31.85-14-63.69-14-31.85 0-31.85 14-63.69 14-29.47 0-31.67-11.98-57.06-13.78l2-23.22c0-12.931 6.179-23.949 17.646-28.166 3.227-1.187 6.715-1.834 10.354-1.834h182c16.57 0 30 13.43 30 30z" fill="#f8f7f7"/><path d="m115.253 236.216v56.07c-5.3-2.12-11.28-3.94-20-4.56v-23.22c0-13.06 8.35-24.18 20-28.29z" fill="#e8e8e8"/></g><g><path d="m401.753 255.506h-27.618c-4.066-30.364-28.382-54.39-58.882-58.01v-17.179c5.035-2.563 8.5-7.784 8.5-13.811v-14c0-6.027-3.465-11.248-8.5-13.811v-14.189c0-7.437-4.672-13.789-11.228-16.318l9.09-22.497c1.552-3.841-.304-8.212-4.145-9.764-3.842-1.553-8.213.303-9.764 4.145l-10.883 26.935h-16.143l36.538-90.435c.516-1.276 1.975-1.898 3.254-1.381l9.244 3.735c.835.337 1.214.984 1.364 1.341.151.355.354 1.078.017 1.913l-10.247 25.363c-1.552 3.841.304 8.212 4.145 9.764s8.212-.305 9.764-4.145l10.245-25.362c1.752-4.334 1.711-9.091-.116-13.395-1.826-4.303-5.219-7.637-9.553-9.388l-9.245-3.735c-4.333-1.749-9.089-1.708-13.393.117-4.303 1.827-7.637 5.22-9.388 9.554l-38.808 96.053h-121.248c-9.649 0-17.5 7.851-17.5 17.5v14.189c-5.035 2.563-8.5 7.784-8.5 13.811v14c0 6.027 3.465 11.248 8.5 13.811v17.179c-33.46 3.971-59.5 32.498-59.5 67.01v180c0 37.22 30.28 67.5 67.5 67.5h182c33.822 0 61.908-25.006 66.755-57.5h27.745c28.948 0 52.5-23.552 52.5-52.5v-94c0-28.948-23.552-52.5-52.5-52.5zm-277.5-88.5c-.275 0-.5-.225-.5-.5v-14c0-.275.225-.5.5-.5h184c.275 0 .5.225.5.5v14c0 .275-.225.5-.5.5zm10.5-45h163c1.379 0 2.5 1.121 2.5 2.5v12.5h-168v-12.5c0-1.379 1.121-2.5 2.5-2.5zm225 322.5c0 28.948-23.552 52.5-52.5 52.5h-182c-28.948 0-52.5-23.552-52.5-52.5v-180c0-28.948 23.552-52.5 52.5-52.5h47.92c4.143 0 7.5-3.357 7.5-7.5s-3.357-7.5-7.5-7.5h-40.92v-15h168v15h-92.441c-4.143 0-7.5 3.357-7.5 7.5s3.357 7.5 7.5 7.5h99.441c28.948 0 52.5 23.552 52.5 52.5zm79.5-42.5c0 20.678-16.822 37.5-37.5 37.5h-27v-15h27c12.406 0 22.5-10.094 22.5-22.5v-36.319c0-4.143-3.357-7.5-7.5-7.5s-7.5 3.357-7.5 7.5v36.319c0 4.136-3.364 7.5-7.5 7.5h-27v-109h27c4.136 0 7.5 3.364 7.5 7.5v22.702c0 4.143 3.357 7.5 7.5 7.5s7.5-3.357 7.5-7.5v-22.702c0-12.406-10.094-22.5-22.5-22.5h-27v-15h27c20.678 0 37.5 16.822 37.5 37.5z"/><path d="m307.253 227.006h-182c-20.678 0-37.5 16.822-37.5 37.5v110.606c0 4.143 3.357 7.5 7.5 7.5s7.5-3.357 7.5-7.5v-39.771c8.7.856 13.894 3.261 19.713 5.966 7.765 3.608 16.565 7.698 33.284 7.698 16.721 0 25.521-4.09 33.286-7.698 7.275-3.382 13.559-6.302 26.963-6.302 13.405 0 19.689 2.92 26.965 6.302 7.766 3.608 16.566 7.698 33.287 7.698s25.521-4.09 33.287-7.698c5.931-2.757 11.206-5.206 20.215-6.017v109.215c0 12.406-10.094 22.5-22.5 22.5h-182c-12.406 0-22.5-10.094-22.5-22.5v-34.224c0-4.143-3.357-7.5-7.5-7.5s-7.5 3.357-7.5 7.5v34.224c0 20.678 16.822 37.5 37.5 37.5h182c20.678 0 37.5-16.822 37.5-37.5v-180c0-20.677-16.822-37.499-37.5-37.499zm-182 15h182c12.406 0 22.5 10.094 22.5 22.5v15.75c-12.473.929-19.893 4.36-26.537 7.448-7.275 3.382-13.56 6.302-26.965 6.302s-19.689-2.92-26.965-6.302c-7.766-3.608-16.566-7.698-33.287-7.698-16.72 0-25.521 4.09-33.285 7.698-7.275 3.382-13.559 6.302-26.964 6.302-13.403 0-19.687-2.92-26.962-6.301-6.554-3.047-13.866-6.426-26.035-7.408v-15.791c0-12.406 10.094-22.5 22.5-22.5zm177.963 85.698c-7.275 3.382-13.56 6.302-26.965 6.302s-19.689-2.92-26.965-6.302c-7.766-3.608-16.566-7.698-33.287-7.698-16.72 0-25.521 4.09-33.285 7.698-7.275 3.382-13.559 6.302-26.964 6.302-13.403 0-19.687-2.92-26.962-6.301-6.554-3.047-13.866-6.426-26.035-7.408v-24.955c8.7.856 13.894 3.261 19.713 5.966 7.765 3.608 16.565 7.698 33.284 7.698 16.721 0 25.521-4.09 33.286-7.698 7.275-3.382 13.559-6.302 26.963-6.302 13.405 0 19.689 2.92 26.965 6.302 7.766 3.608 16.566 7.698 33.287 7.698s25.521-4.09 33.287-7.698c5.931-2.757 11.206-5.206 20.215-6.017v24.966c-12.473.928-19.893 4.36-26.537 7.447z"/><path d="m167.253 62.006c4.143 0 7.5-3.357 7.5-7.5 0-9.208 3.289-13.502 7.454-18.939 4.698-6.134 10.546-13.769 10.546-28.061 0-4.143-3.357-7.5-7.5-7.5s-7.5 3.357-7.5 7.5c0 9.208-3.289 13.502-7.454 18.939-4.698 6.134-10.546 13.769-10.546 28.061 0 4.143 3.357 7.5 7.5 7.5z"/><path d="m207.253 62.006c4.143 0 7.5-3.357 7.5-7.5 0-9.208 3.289-13.502 7.454-18.939 4.698-6.134 10.546-13.769 10.546-28.061 0-4.143-3.357-7.5-7.5-7.5s-7.5 3.357-7.5 7.5c0 9.208-3.289 13.502-7.454 18.939-4.698 6.134-10.546 13.769-10.546 28.061 0 4.143 3.357 7.5 7.5 7.5z"/><path d="m247.253 62.006c4.143 0 7.5-3.357 7.5-7.5 0-9.208 3.289-13.502 7.454-18.939 4.698-6.134 10.546-13.769 10.546-28.061 0-4.143-3.357-7.5-7.5-7.5s-7.5 3.357-7.5 7.5c0 9.208-3.289 13.502-7.454 18.939-4.698 6.134-10.546 13.769-10.546 28.061 0 4.143 3.357 7.5 7.5 7.5z"/></g></g></svg>