<svg id="Capa_1" enable-background="new 0 0 512.01 512.01" height="512" viewBox="0 0 512.01 512.01" width="512" xmlns="http://www.w3.org/2000/svg"><g><g><path d="m321.846 112.506c0-10.136-4.57-19.205-11.762-25.259-2.215-1.864-4.977-2.41-7.632-3.646-4.226-1.966-8.638-4.096-13.606-4.096-18.225 0-33 14.775-33 33s14.775 33 33 33 33-14.774 33-32.999z" fill="#ff8086"/><path d="m256.164 112.506c0-18.225-14.775-33-33-33-4.107 0-7.553 1.278-11.18 2.649-3.059 1.156-6.386 2.226-8.934 4.187-7.837 6.033-12.886 15.509-12.886 26.164 0 18.225 14.775 33 33 33s33-14.775 33-33z" fill="#ff8086"/><path d="m255.845 112.506c0 1.1.05 2.19.16 3.26-.593 6.041 1.083 12.751-2.319 17.389-3.768 5.136-12.882 7.991-18.951 10.261-18.97-8.38-32.23-27.37-32.23-49.41 0-2.6.19-5.17.54-7.67 5.57-4.28 12.54-6.83 20.12-6.83 17.12 0 31.21 13.04 32.84 29.74-.11 1.07-.16 2.16-.16 3.26z" fill="#e5646e"/><path d="m310.505 94.006c0 22.21-13.48 41.34-32.69 49.61-6.296-2.232-18.088-5.62-21.969-10.908-3.405-4.64.748-10.904.159-16.942.11-1.07.16-2.16.16-3.26s-.05-2.19-.16-3.26c1.63-16.7 15.72-29.74 32.84-29.74 8.1 0 15.5 2.91 21.24 7.74.28 2.21.42 4.47.42 6.76z" fill="#e5646e"/><path d="m294.505 94.006c0-20.987-17.013-38-38-38-5.307 0-10.36 1.088-14.949 3.053-1.988.851-3.755 2.55-5.488 3.691-10.082 6.641-15.83 17.268-15.83 30.649 0 20.987 15.279 37.394 36.266 37.394 12.111 0 21.754-5.089 28.713-13.915 2.05-2.6 4.913-4.839 6.234-7.924 1.966-4.588 3.054-9.641 3.054-14.948z" fill="#fff0af"/><path d="m291.455 108.956c-5.8 13.55-19.27 23.05-34.95 23.05-20.99 0-38-17.01-38-38 0-15.68 9.5-29.15 23.05-34.95-1.96 4.59-3.05 9.64-3.05 14.95 0 20.99 17.01 38 38 38 5.31 0 10.36-1.09 14.95-3.05z" fill="#ffe07d"/><path d="m345.475 219.488h-178.94l1.789-54.61c0-7.416.901-17.076 5.36-22.312 5.503-6.462 13.698-10.561 22.851-10.561h118.94c9.153 0 17.348 4.099 22.851 10.561 4.458 5.236 5.317 15.066 5.317 22.482z" fill="#fff0af"/><path d="m345.475 162.006v57.48h-178.94v-57.48c0-7.41 2.69-14.2 7.16-19.43 11.848 1.775 24.156 8.099 32.881 17.417 1.543 1.648 4.147 1.692 5.734.086 11.187-11.323 26.701-18.203 43.695-18.203 16.991 0 32.503 6.878 43.69 18.198 1.592 1.611 4.195 1.555 5.744-.097 8.299-8.847 20.635-15.626 32.876-17.401 4.47 5.23 7.16 12.02 7.16 19.43z" fill="#ffe07d"/><path d="m231.969 377.006-109.464-2.936c-22.427 0-39.809-19.607-37.12-41.873 5.506-45.587 15.795-84.842 33.237-127.319l7.319-19.404c5.577-13.581 16.438-26.01 30.483-28.782 2.725-.538 5.528-.818 8.377-.818 12.989 0 24.463 5.671 32.321 14.525 0 0 10.347 24.697 8.053 38.266l-2.622 26.41c-3.533 20.898-6.07 41.952-7.602 63.091l-2.244 30.966z" fill="#b3e59f"/><path d="m389.899 375.261-99.175 1.745 28.276-52.057-1.941-26.782c-1.532-21.139-4.069-42.193-7.602-63.091l-4.865-28.773c-4.46-26.376 15.868-50.428 42.617-50.428 17.53 0 33.324 10.588 39.983 26.804l8.112 19.755c9.085 22.124 16.593 44.834 22.481 67.96 0 0 .658 16.371 2.242 24.059 1.31 6.358 6.605 18.032 6.605 18.032 1.252 7.52 2.337 15.071 3.252 22.648.951 7.872-.608 15.412-4.011 21.871-6.223 11.809-21.477 18.257-35.974 18.257z" fill="#b3e59f"/><path d="m215.565 357.006h-.003l-19.122-20.043 2.25-30.97c1.53-21.14 4.222-46.853 7.762-67.753l.963-31.934c.42-2.46.62-4.9.62-7.3 0-10.84-4.09-20.92-10.92-28.6-3.65 6.56-6.25 13.84-7.57 21.63l-6.71 39.71c-3.63 21.43-6.26 43.3-7.83 64.97l-2.81 38.75c-.406 5.615.034 11.216 1.248 16.628.564 2.516-1.312 4.912-3.89 4.912h-50.308c-5.04 0-9.66-2.08-13.01-5.85-3.35-3.78-4.86-8.62-4.25-13.62 5.29-43.8 16.47-86.7 33.22-127.51l21.22-53.33c-14.05 2.77-26.03 12.41-31.61 25.98l-8.11 19.76c-8.72 21.23-15.99 43.01-21.76 65.18-.234.899-.466 1.798-.696 2.699-1.962 7.698.441 16.553-1.159 24.336-1.293 6.291-6.653 11.495-7.709 17.834-1.253 7.521-2.339 15.073-3.256 22.651-2.69 22.26 14.69 41.87 37.12 41.87l66.185 5.915 46.535-5.915z" fill="#95d6a4"/><path d="m342.457 357.006c-2.578 0-4.454-2.397-3.89-4.912 1.214-5.412 1.653-11.013 1.248-16.628l-2.81-38.75c-1.57-21.67-4.2-43.54-7.83-64.97l-6.71-39.71c-1.32-7.79-3.92-15.07-7.57-21.63-8.33 9.38-12.59 22.33-10.3 35.9l-.356 31.594c3.54 20.9 8.936 39.626 10.466 60.766l1.94 26.78-15.059 31.56-25.176 20 48.17 5.915 68.186-5.915c14.5 0 26.89-8.2 33.11-20z" fill="#95d6a4"/><path d="m281.686 374.58-50.723.681c-21.714 0-38.617-16.981-37.047-38.638l1.036-38.456c1.532-21.139 6.205-41.582 9.739-62.48l6.357-37.106c2.515-14.873 10.009-30.353 22.573-37.092 6.701-3.594 14.338-5.614 22.384-5.614 23.13 0 42.883 16.693 46.739 39.499l6.713 39.702c3.533 20.898 6.07 41.952 7.602 63.091l2.808 38.748c.525 7.25-1.047 14.138-4.185 20.095-6.238 11.837-19.551 17.57-33.996 17.57z" fill="#ccf49f"/><path d="m315.675 357.006c-6.23 11.84-18.66 20-33.1 20l-28.05 5.915-25.09-5.915c-21.71 0-38.86-18.43-37.29-40.09l2.81-38.75c1.53-21.14 4.06-42.19 7.6-63.09l6.71-39.7c2.52-14.88 11.79-27.15 24.36-33.88l-11.35 76.91c-3.42 20.2-5.9 40.79-7.38 61.21l-2.8 38.74c-.36 4.88 1.28 9.53 4.61 13.1 3.32 3.58 7.85 5.55 12.73 5.55z" fill="#b3e59f"/><path d="m197.565 270.286c-1.07 9.27-1.93 18.57-2.61 27.88l-1.04 14.35c-25.06 1.98-26.4 22.3-54.02 22.3-27.79 0-28.97-20.59-54.51-22.33l6.343-18.586 2.527-23.584c23.86 1.9 25.15 21.25 51.48 21.25 26.45 0 27.63-19.55 51.83-21.28z" fill="#ffe07d"/><path d="m426.625 312.486c-25.55 1.74-26.73 22.33-54.52 22.33-27.61 0-28.96-20.31-54.01-22.3-.461-6.205-1.047-14.901-1.59-21.35-.302-3.086-.332-5.371-2.07-20.95 25.13 1.3 25.99 21.35 52.79 21.35 25.98 0 27.59-18.84 50.55-21.17 3.54 13.89 6.49 27.93 8.85 42.09z" fill="#ffe07d"/><path d="m318.095 312.516c-1.29-.1-2.63-.15-4.05-.15-29.02 0-29.02 22.45-58.05 22.45-29.02 0-29.02-22.45-58.05-22.45-1.41 0-2.75.05-4.03.15l1.04-14.35c.68-9.31 1.54-18.61 2.61-27.88 1.13-.09 2.31-.13 3.54-.13 27.69 0 27.69 21.41 55.37 21.41 27.69 0 27.69-21.41 55.37-21.41.89 0 1.75.02 2.59.06l4.996 21.939z" fill="#fff0af"/><path d="m217.335 273.406c-.99 8.74-1.81 17.49-2.44 26.21l-1.13 15.64c-4.24-1.76-9.3-2.89-15.82-2.89-1.41 0-2.75.05-4.03.15l-1.87-23.425 5.52-18.805c1.13-.09 2.31-.13 3.54-.13 6.81 0 11.95 1.3 16.23 3.25z" fill="#ffe07d"/><g fill="#ffd064"><path d="m113.135 277.206c-3.45 13.79-6.31 27.73-8.54 41.78-4.96-3.28-10.75-5.92-19.21-6.5 1.395-8.07 2.427-14.066 5.13-26.45.774-3.553 2.292-10.045 3.74-15.72 8.4.67 14 3.5 18.88 6.89z"/><path d="m338.715 320.306c-5.31-3.81-11.34-7.06-20.62-7.79-.253-3.313-.72-10.197-1.18-16.17-.081-1-.049-1.141-.91-10.97-.381-4.122-.758-7.887-1.57-15.16 9.57.49 15.62 3.71 20.92 7.5.64 6.34 1.19 12.68 1.65 19z"/><path d="m197.565 270.286c-.344 3.208-.316 2.306-1.37 13.16-.347 2.526-1.978 24.557-2.28 29.07-9.28.73-15.31 3.98-20.62 7.79l1.71-23.59c.44-6.07.96-12.17 1.57-18.26 5.38-3.98 11.36-7.49 20.99-8.17z"/></g><g><path d="m422.505 456.006h-333c-.924 0-1.841-.029-2.75-.087-22.467-1.418-38.09-20.089-38.09-42.913v-.551h416.33v.551c0 6.604-.978 12.86-3.638 18.451-6.906 14.515-21.707 24.549-38.852 24.549z" fill="#e8e8e8"/><path d="m465.505 412.456v.55c0 6.61-1.49 12.86-4.15 18.45h-375.393c-3.731 0-6.525 3.362-5.912 7.042 1.009 6.063 3.359 12.532 6.706 17.418-22.47-1.42-40.25-20.08-40.25-42.91v-.55l217.138-8.844z" fill="#d8d8d8"/><path d="m472.58 410.506-431.83.638c-16.569 0-32.245-11.57-32.245-28.138 0-2.761 2.239-5 5-5l14.31-1h471.69c2.761 0 5 2.239 5 5v.449c0 4.659-1.062 9.069-2.957 13.003-4.844 10.056-17.058 15.048-28.968 15.048z" fill="#f8f7f7"/><path d="m501.545 395.456c-4.84 10.06-15.13 17-27.04 17h-437c-16.57 0-30-13.43-30-30v-.45c0-2.76 2.24-5 5-5h15.31c4.52 10.84 15.21 18.45 27.69 18.45z" fill="#e8e8e8"/></g></g><path d="m499.505 367.626h-73.255c.034-.038.07-.073.104-.111 8.514-9.604 12.514-22.419 10.975-35.161-5.586-46.252-17.391-91.555-35.087-134.648l-8.112-19.756c-7.434-18.103-24.358-30.13-43.683-31.346-4.108-10.57-12.871-18.701-23.518-22.157 1.593-4.387 2.417-9.045 2.417-13.821 0-19.663-13.776-36.08-32.656-39.74-4.475-8.446-11.559-15.474-20.424-19.754-3.73-1.801-8.214-.237-10.015 3.493s-.237 8.214 3.493 10.015c10.485 5.062 17.261 15.851 17.261 27.486 0 16.818-13.682 30.5-30.5 30.5s-30.5-13.682-30.5-30.5c0-11.15 6.083-21.409 15.874-26.772 3.633-1.99 4.965-6.548 2.975-10.181s-6.548-4.966-10.181-2.975c-7.913 4.334-14.183 10.825-18.283 18.5-19.225 3.242-33.726 20.01-33.726 39.928 0 4.777.825 9.432 2.416 13.817-10.654 3.453-19.411 11.585-23.519 22.161-19.324 1.216-36.247 13.243-43.681 31.346l-6.293 15.327c-1.573 3.832.257 8.213 4.089 9.787 3.831 1.572 8.213-.257 9.787-4.089l6.293-15.327c5.526-13.458 18.497-22.153 33.045-22.153 10.538 0 20.482 4.616 27.284 12.664 6.8 8.046 9.693 18.617 7.94 29.004-2.972 17.717-7.091 40.614-9.253 58.903-9.083 2.187-14.966 6.808-20.312 11.029-6.434 5.08-11.516 9.092-22.472 9.092s-16.037-4.012-22.471-9.092c-5.613-4.432-11.83-9.313-21.74-11.343 2.797-10.232 5.911-20.373 9.346-30.395 1.343-3.918-.744-8.184-4.663-9.527-3.919-1.345-8.184.744-9.527 4.663-11.749 34.272-19.909 69.889-24.253 105.86-1.539 12.742 2.461 25.557 10.975 35.161.034.038.07.073.104.111h-73.254c-6.893 0-12.5 5.607-12.5 12.5-.357 21.207 17.938 38.967 39.49 37.949 3.398 24.568 24.523 43.551 50.01 43.551h333c25.487 0 46.613-18.983 50.01-43.551 21.027 1.146 39.84-16.412 39.49-37.949 0-6.892-5.607-12.499-12.5-12.499zm-270.07 0c-8.396 0-16.168-3.385-21.886-9.533-5.718-6.147-8.533-14.144-7.926-22.517l1.272-17.545c10.407.412 15.578 4.48 22.023 9.568 7.621 6.017 16.259 12.836 33.079 12.836s25.457-6.82 33.078-12.836c6.449-5.091 11.622-9.161 22.04-9.569l1.272 17.546c.607 8.373-2.208 16.37-7.926 22.517s-13.49 9.533-21.886 9.533zm-12.774-172.882c3.257-19.266 19.804-33.25 39.344-33.25s36.086 13.983 39.344 33.25c3.38 20.531 7.963 45.119 10.634 66.247-13.115 1.138-20.481 6.923-27.043 12.104-6.434 5.08-11.516 9.092-22.472 9.092s-16.039-4.012-22.473-9.092c-6.713-5.3-14.267-11.234-27.958-12.176 1.131-8.867 9.449-59.222 10.624-66.175zm8.039 90.125c7.314 5.774 15.604 12.319 31.768 12.319s24.453-6.545 31.767-12.319c5.815-4.591 10.54-8.298 19.479-8.972.81 7.513 1.73 18.566 2.316 27.166-14.979.718-23.069 7.095-30.25 12.764-6.8 5.369-12.171 9.609-23.783 9.609s-16.983-4.241-23.784-9.609c-7.178-5.667-15.264-12.041-30.233-12.764.579-8.37 1.327-17.75 2.323-27.233 9.549.479 14.384 4.291 20.397 9.039zm98.323-6.725c3.72 1.654 6.754 4.036 10.16 6.724 7.314 5.774 15.605 12.319 31.771 12.319 16.165 0 24.456-6.544 31.77-12.319 4.862-3.838 8.928-7.032 15.304-8.388 2.174 9.011 4.089 18.086 5.763 27.209-11.281 1.885-18.114 7.271-24.277 12.136-6.801 5.369-12.174 9.61-23.787 9.61s-16.986-4.241-23.787-9.61c-5.494-4.337-11.535-9.078-20.77-11.394-.001.001-1.566-20.415-2.147-26.287zm57.231-94.497c10.478 24.808 21.022 51.877 28.025 78.299-9.402 2.136-15.417 6.859-20.851 11.149-6.435 5.08-11.518 9.092-22.476 9.092s-16.041-4.013-22.477-9.092c-5.533-4.368-11.631-9.171-21.267-11.255-1.892-16.461-6.443-42.161-9.224-58.678-1.753-10.387 1.14-20.958 7.94-29.004 6.802-8.048 16.747-12.664 27.284-12.664 14.549.001 27.52 8.696 33.046 22.153zm-78.249-91.521c0-1.162-.049-2.318-.138-3.467 7.534 4.44 12.479 12.619 12.479 21.967 0 4.242-1.042 8.328-3.009 12h-21.099c7.309-8.076 11.767-18.776 11.767-30.5zm-90.8-4.024c-1.369 11.464 3.534 26.066 11.567 34.524h-22.102c-1.967-3.671-3.006-7.756-3.006-12 0-9.704 5.464-18.221 13.541-22.524zm-33.688 60.023c4.042-6.359 11.166-10.499 19.018-10.499h118.94c7.844 0 14.974 4.141 19.018 10.499-10.059 2.599-19.169 8.239-26.025 16.352-2.17 2.567-4.043 5.323-5.64 8.209-9.716-15.895-27.163-26.191-46.823-26.191s-37.107 10.296-46.823 26.191c-1.598-2.886-3.471-5.642-5.64-8.209-6.856-8.113-15.966-13.753-26.025-16.352zm-61.294 136.743c7.313 5.774 15.603 12.319 31.766 12.319 16.164 0 24.453-6.545 31.767-12.319 3.105-2.451 5.899-4.648 9.186-6.271-.699 6.81-1.553 17.966-2.1 25.83-9.244 2.315-15.288 7.059-20.785 11.399-6.8 5.369-12.171 9.609-23.783 9.609-11.611 0-16.981-4.241-23.782-9.609-6.163-4.865-12.995-10.253-24.276-12.137 1.686-9.179 3.621-18.315 5.813-27.388 6.902 1.24 11.123 4.563 16.194 8.567zm-19.342 72.696c-5.668-6.395-8.332-14.928-7.308-23.412.632-5.231 1.357-10.453 2.154-15.665 7.512 1.264 12.04 4.824 17.47 9.111 7.621 6.017 16.258 12.836 33.077 12.836s25.457-6.82 33.078-12.836c3.469-2.738 6.569-5.179 10.312-6.917l-1.001 13.81c-.876 12.089 3.243 24.106 11.3 33.134h-76.716c-8.546.001-16.697-3.666-22.366-10.061zm377.624 45.511h-262.989c-4.142 0-7.5 3.358-7.5 7.5s3.358 7.5 7.5 7.5h245.802c-3.24 16.259-17.616 28.551-34.813 28.551h-333c-17.197 0-31.573-12.293-34.813-28.551h121.802c4.142 0 7.5-3.358 7.5-7.5s-3.358-7.5-7.5-7.5h-138.989c-11.715 0-21.368-9-22.407-20.449h319.78c4.142 0 7.5-3.358 7.5-7.5s-3.358-7.5-7.5-7.5h-18.83c8.057-9.028 12.176-21.044 11.3-33.134l-1-13.803c3.737 1.738 6.834 4.176 10.298 6.911 7.622 6.017 16.261 12.836 33.081 12.836s25.459-6.819 33.081-12.836c5.432-4.288 9.962-7.849 17.479-9.112.796 5.208 1.519 10.43 2.151 15.666 1.024 8.484-1.639 17.017-7.308 23.411-5.669 6.395-13.821 10.062-22.366 10.062h-22.907c-4.142 0-7.5 3.358-7.5 7.5s3.358 7.5 7.5 7.5h127.056c-1.04 11.448-10.693 20.448-22.408 20.448z"/></g></svg>