<svg id="Capa_1" enable-background="new 0 0 511.84 511.84" height="512" viewBox="0 0 511.84 511.84" width="512" xmlns="http://www.w3.org/2000/svg"><g><g><g><path d="m13.861 497.633c-6.074-6.074-6.755-12.139-.681-18.213l236.608-239.37c6.074-6.074 15.922-6.074 21.996 0 6.074 6.074 6.074 15.922 0 21.996l-237.893 237.894c-6.074 6.073-13.956 3.767-20.03-2.307z" fill="#f6d190"/><path d="m28.9 480.945c-6.08 6.07-6.08 15.92 0 21.99.09.09.17.17.26.24-5.7 2.51-12.6 1.43-17.26-3.24-6.08-6.07-6.08-15.92 0-21.99l237.89-237.89c5.98-5.99 15.64-6.08 21.73-.24-1.72.75-3.33 1.83-4.73 3.24z" fill="#ecbd83"/></g><path d="m411.936 356.517c13.863-13.823 20.911-31.865 21.15-49.981.141-10.678 7.794-19.935 18.268-22.16 13.107-2.785 25.538-9.51 35.388-20.185 23.201-25.146 23.493-64.295.683-89.793-.138-.154-.277-.308-.416-.461-6.322-6.939-8.066-16.933-4.15-25.456 15.584-33.918 9.388-75.339-18.621-103.268-26.384-26.308-64.781-33.327-97.582-21.067-2.707 1.012-4.728 3.15-7.348 4.424-2.289 1.113-5.189 1.331-7.398 2.644-.758-.828-1.531-1.648-2.335-2.449-1.523-1.519-3.093-2.954-4.702-4.304-5.02-4.21-11.475-6.798-17.14-9.381-26.435-12.051-57.237-7.295-79.404 14.809-8.67 8.646-15.005 17.759-18.383 28.681-3.119 10.085-11.635 18.305-22.213 17.957-19.731-.649-39.67 6.528-54.732 21.547-20.285 20.227-27.009 47.781-18.8 73.262 3.169 9.837-.336 21.301-8.936 27.064-3.082 2.065-5.996 4.486-8.683 7.263-19.405 20.052-21.326 50.226-2.551 70.864 4.93 5.419 10.246 11.019 16.45 13.925 1.532.717 3.09 1.358 4.67 1.923-.29 3.406 1.148 6.554 1.348 9.939 1.046 17.717 7.257 35.126 20.936 48.766 2.923 2.915 5.455 6.162 8.704 8.495 12.008 8.624 25.997 13.278 40.143 13.966 8.074.392 15.263 4.904 19.263 11.908 2.604 4.559 5.944 8.813 10.026 12.589 20.415 18.882 52.598 18.563 72.651-.701 3.492-3.355 6.419-7.067 8.781-11.022 5.396-9.035 16.006-13.414 26.236-10.861 23.817 5.943 50.074-.367 68.697-18.937z" fill="#bde4ff"/><path d="m344.87 24.465c-24.58-6.43-52.12.18-71.69 19.7-8.87 8.84-15.07 19.31-18.61 30.39-3.26 10.23-12.7 17.48-23.39 17.24-19.94-.43-40.19 7.04-55.58 22.4-20.74 20.68-27.16 50.12-19.15 75.79 3.1 9.91-.92 20.66-9.68 26.58-3.14 2.12-6.12 4.6-8.87 7.44-17.67 18.25-20.31 46.01-7.42 66.45-6.2-2.91-11.97-7.07-16.89-12.48-18.78-20.64-18.25-52.76 1.15-72.81 2.69-2.77 5.6-5.2 8.69-7.26 8.6-5.76 12.46-16.35 9.29-26.18-8.21-25.49-2.18-54.54 18.11-74.76 15.06-15.02 35-22.2 54.73-21.55 10.58.35 19.83-6.71 22.95-16.8 3.38-10.92 9.4-21.2 18.07-29.85 26.92-26.84 69.67-28.28 98.29-4.3z" fill="#99dbff"/></g><g><path d="m493.012 169.393-.459-.509c-4.368-4.793-5.498-11.574-2.879-17.273 7.409-16.125 10.354-34.014 8.515-51.732-.428-4.121-4.118-7.113-8.234-6.686-4.12.428-7.113 4.114-6.686 8.234 1.562 15.048-.937 30.236-7.225 43.921-5.138 11.181-3.009 24.385 5.42 33.636l.372.412c20.134 22.506 19.868 57.518-.605 79.707-8.452 9.16-19.321 15.362-31.434 17.935-13.841 2.94-24.023 15.304-24.209 29.398-.357 18.565-8.449 36.364-23.345 48.775-3.186 2.647-3.624 7.375-.977 10.562 1.483 1.786 3.62 2.708 5.773 2.708 1.689 0 3.388-.567 4.789-1.731 17.259-13.978 28.712-37.325 28.759-60.115.094-7.149 5.279-13.426 12.328-14.923 15.167-3.223 28.771-10.981 39.341-22.436 12.488-13.535 19.443-31.219 19.583-49.794.139-18.572-6.545-36.36-18.827-50.089z"/><path d="m374.072 368.764c-9.538 1.973-19.571 1.77-29.016-.587-13.512-3.373-27.372 2.373-34.491 14.292-2.062 3.452-4.598 6.635-7.538 9.459-17.333 16.65-44.725 16.916-62.363.604-3.428-3.17-6.323-6.805-8.606-10.803-5.313-9.303-14.813-15.164-25.412-15.68-16.794-.816-32.593-7.797-44.487-19.658-14.21-14.169-21.394-33.648-19.708-53.443.002-.021-.002-.042 0-.063.003-.034.01-.066.012-.099 1.184-16.171 8.179-31.401 19.695-42.884 2.933-2.925 2.94-7.674.015-10.607s-7.674-2.939-10.607-.015c-11.531 11.498-19.344 26.077-22.588 41.844-3.594-2.228-6.894-4.956-9.845-8.201-16.174-17.778-15.736-45.249.996-62.541 2.272-2.348 4.786-4.451 7.47-6.249 11.531-7.728 16.457-21.678 12.257-34.714-7.659-23.776-1.426-49.505 16.267-67.147 13.135-13.097 30.597-19.975 49.19-19.362 13.718.452 26.204-8.628 30.364-22.081 3.102-10.03 8.704-19.283 16.198-26.756 2.325-2.318 4.833-4.472 7.454-6.401 3.335-2.456 4.049-7.151 1.593-10.486s-7.151-4.048-10.486-1.593c-3.22 2.371-6.299 5.015-9.151 7.858-9.221 9.194-16.115 20.587-19.937 32.946-2.169 7.013-8.566 11.751-15.541 11.521-22.442-.731-44.408 7.912-60.274 23.732-21.703 21.641-29.349 53.202-19.953 82.369 2.125 6.598-.418 13.692-6.33 17.653-3.561 2.387-6.891 5.172-9.898 8.279-22.221 22.962-22.797 59.449-1.313 83.065 5.523 6.071 11.958 10.834 19.182 14.207-.266 15.3 3.759 30.248 11.498 43.289l-60.872 60.872c-2.929 2.929-2.929 7.678 0 10.606 1.464 1.464 3.384 2.197 5.303 2.197s3.839-.732 5.303-2.197l59.196-59.196c1.259 1.44 2.551 2.856 3.917 4.218 2.466 2.459 5.08 4.732 7.803 6.84l-130.781 130.784c-2.398 2.29-7.333 3.651-11.389 0-2.29-2.398-3.65-7.333 0-11.389l46.457-46.457c2.929-2.929 2.929-7.678 0-10.606-2.929-2.929-7.678-2.929-10.606 0l-46.457 46.456c-8.155 7.88-9.403 23.435 0 32.602 7.881 8.155 23.435 9.403 32.603 0l133.152-133.152c10.336 5.277 21.749 8.367 33.572 8.941 5.454.265 10.356 3.307 13.114 8.136 3.042 5.329 6.894 10.166 11.447 14.376 11.576 10.707 26.308 16.044 41.036 16.043 15.117 0 30.228-5.625 41.903-16.842 3.904-3.751 7.277-7.985 10.024-12.585 3.705-6.203 10.93-9.189 17.981-7.43 11.617 2.899 23.956 3.147 35.685.723 4.057-.839 6.665-4.807 5.826-8.863-.84-4.055-4.808-6.663-8.864-5.825z"/><path d="m287.988 15.771c20.971-3.334 44.106 4.538 58.783 20.804 14.113 14.604 20.674 34.535 18.002 54.685-.544 4.106 2.343 7.876 6.449 8.421 2.823.383 6.392-1.24 7.941-4.957.33-.794.505-1.646.608-2.499 2.545-21.167-3.208-42.075-15.953-58.786 31.841-14.608 69.829-8.139 95.126 17.085 6.207 6.188 11.376 13.229 15.366 20.923 1.334 2.574 3.952 4.05 6.665 4.05 1.284 0 2.59-.331 3.79-1.033 3.486-2.039 4.598-6.598 2.729-10.177-4.683-8.969-10.723-17.172-17.958-24.385-30.922-30.832-77.967-37.873-116.281-18.015-17.906-16.868-42.885-24.686-67.325-20.975-3.789.575-6.728 3.858-6.588 7.688.166 4.577 4.256 7.849 8.646 7.171z"/><path d="m417.073 167.452c3.737 4.602 5.455 10.378 4.836 16.265-.62 5.894-3.506 11.194-8.126 14.926-2.378 1.919-5.061 3.307-7.974 4.125-3.988 1.119-6.314 5.258-5.196 9.247.929 3.311 3.939 5.477 7.217 5.477.67 0 1.352-.091 2.029-.281 4.885-1.37 9.375-3.69 13.346-6.896 7.745-6.253 12.582-15.142 13.621-25.028 1.039-9.879-1.842-19.571-8.11-27.289-8.346-10.276-21.674-15.387-34.778-13.325-4.092.642-6.889 4.479-6.247 8.572.642 4.092 4.482 6.895 8.572 6.247 7.848-1.235 15.82 1.817 20.81 7.96z"/><path d="m287.995 312.999c-4.101-.629-7.922 2.184-8.549 6.278-.627 4.095 2.184 7.922 6.278 8.549 2.318.355 4.633.529 6.93.529 12.906 0 25.197-5.508 33.841-15.416 7.885-9.038 11.77-20.599 10.938-32.551-.832-11.959-6.284-22.876-15.352-30.742-7.485-6.493-16.662-10.265-26.539-10.91-4.121-.277-7.702 2.862-7.972 6.996s2.862 7.703 6.996 7.972c6.581.43 12.696 2.945 17.686 7.273 6.036 5.235 9.664 12.499 10.217 20.452.553 7.948-2.031 15.636-7.277 21.649-6.787 7.781-16.956 11.487-27.197 9.921z"/><path d="m212.968 135.235c-6.787 11.067-9.678 23.723-8.359 36.6.396 3.861 3.653 6.737 7.452 6.736 3.51.038 7.651-3.26 7.47-8.265-.98-9.575 1.172-18.991 6.225-27.229 12.633-20.598 39.722-27.106 60.385-14.506 12.924 7.881 20.773 21.614 20.997 36.736.03 3.07 2.961 7.262 7.609 7.389 4.142-.061 7.45-3.468 7.389-7.609-.299-20.305-10.835-38.743-28.185-49.322-27.709-16.897-64.036-8.161-80.983 19.47z"/></g></g></svg>