<svg id="Capa_1" enable-background="new 0 0 512.01 512.01" height="512" viewBox="0 0 512.01 512.01" width="512" xmlns="http://www.w3.org/2000/svg"><g><g><g><path d="m356.494 110.534c2.65-.384 4.918 1.885 4.535 4.535-1.197 8.262-4.047 25.21-9.351 42.771-1.961 6.493-6.977 14.035-9.65 20.288-4.455 10.421-7.236 18.977-13.968 25.71-26.077 26.077-60.77.437-60.77.437s-25.64-34.693.437-60.77c11.062-11.062 29.622-17.201 47.365-22.441 2.614-.772 5.243-3.086 7.794-3.753 14.089-3.682 26.798-5.791 33.608-6.777z" fill="#ccf49f"/><path d="m150.982 115.068c-.384-2.65 1.885-4.918 4.535-4.535 6.777.982 19.399 3.076 33.41 6.725 2.489.648 5.102 4.29 7.653 5.039 17.859 5.241 36.562 10.064 47.705 21.207 26.077 26.077.437 60.77.437 60.77s-33.129 25.59-59.206-.487c-10.699-10.699-18.39-27.603-23.617-44.809-.927-3.05-3.238-6.872-4.021-9.847-3.755-14.271-5.899-27.181-6.896-34.063z" fill="#ccf49f"/><path d="m241.32 206.487c.776-.474 1.942-1.177 3.405-2.213 0 0 25.64-34.69-.44-60.77-.674-.552-1.722-1.992-6.95-5.87 0 .002-.001.003-.001.005-13.101-9.494-31.735-16.036-48.409-20.375-3.24 10.85-5.66 21.95-7.22 33.21-.573 4.123-.622 8.256-.179 12.314.357 3.268-3.096 5.547-5.962 3.936-3.08-1.732-6.114-4.004-9.039-6.929-3.22-3.22-6.16-7.08-8.83-11.38 5.18 19.93 13.51 42.68 26.26 55.42 19.86 19.867 44.725 9.722 55.445 3.76.623-.352.312-.162 1.92-1.108z" fill="#b3e59f"/><path d="m348.135 161.074c-3.494 3.494-7.219 5.837-11.013 7.308-3.489 1.353-7.178-1.515-6.744-5.232.496-4.253.451-8.592-.173-12.917-1.6-11.15-4.05-22.16-7.32-32.92-12.85 3.352-26.849 8.021-38.57 14.335 0-.002 0-.003 0-.005-1.051.956-6.417 2.398-16.59 11.86-26.08 26.08-.44 60.77-.44 60.77s.02.014.048.035c.02.014.038.027.079.057.037.027.082.059.135.096.08.057.18.126.298.207.023.016.043.03.067.046.709.487 2.009 1.341 3.8 2.371.224.129.453.26.692.393.069.039.13.075.201.114h.005c10.721 5.962 35.585 16.107 55.445-3.76 11.05-11.05 18.78-29.61 24.01-47.33-1.24 1.662-2.55 3.192-3.93 4.572z" fill="#b3e59f"/><path d="m255.972 63.936c2 .005 3.738-1.191 5.679-.905 13.907 2.054 25.976 11.138 31.62 24.338l6.722 15.705c7.425 17.347 12.548 35.591 15.237 54.267 2.936 20.388-12.879 38.644-33.477 38.644h-51.562c-3.212 0-6.036-1.722-8.868-2.587-15.269-4.663-24.71-19.653-22.326-36.807 2.604-18.737 7.648-35.006 15.018-52.429l6.595-15.591c6.356-15.009 19.032-24.676 35.362-24.635z" fill="#e5646e"/><path d="m245.944 195.99h-15.755c-20.535 0-36.321-18.15-33.496-38.485l.011-.074c2.605-18.738 7.657-37.046 15.02-54.472l6.596-15.587c6.355-15.01 21.081-24.82 37.414-24.778 2.668.011 5.294.273 7.846.767-13.045 2.563-24.19 11.47-29.505 24.011l-6.596 15.587c-7.363 17.425-12.415 35.733-15.02 54.472l-.011.074c-2.825 20.334 12.962 38.485 33.496 38.485z" fill="#dd4a5f"/><path d="m246.066 109.217c3.873-8.436 15.869-8.412 19.708.039 2.846 6.265 5.478 12.105 6.554 14.62 5.202 12.152 8.382 25.072 9.416 38.25l.433 5.517c1.199 15.281-10.878 28.342-26.205 28.342-15.3 0-27.366-13.015-26.211-28.271l.43-5.679c.993-13.118 4.114-25.988 9.24-38.104l.023-.055c1.065-2.516 3.728-8.377 6.612-14.659z" fill="#ff8086"/></g><g><path d="m404.154 233.65-296.979.638c-12.426 0-23.872-8.571-23.872-20.997 0-10.438 5.31-19.591 14.95-22.133 1.836-.484 3.764-.742 5.752-.742h29.5l123.546 6.468 121.454-6.468h29.5c12.426 0 22.5 10.074 22.5 22.5 0 2.261-.333 4.443-.954 6.502-2.789 9.256-15.231 14.232-25.397 14.232z" fill="#ffe07d"/><path d="m429.545 219.416c-1.08 3.6-3.04 6.82-5.63 9.41-4.07 4.07-9.69 6.59-15.91 6.59l-152.48 8.872-151.52-8.872c-12.43 0-22.5-10.07-22.5-22.5 0-6.22 2.52-11.84 6.59-15.91 2.77-2.77 6.26-4.82 10.16-5.84-.49 1.84-.75 3.76-.75 5.75 0 12.43 10.07 22.5 22.5 22.5z" fill="#ffd064"/></g><g><path d="m404.154 278.65-296.979.638c-12.426 0-23.872-8.571-23.872-20.997 0-10.438 5.31-19.591 14.95-22.133 1.836-.484 3.764-.742 5.752-.742h304c12.426 0 22.5 10.074 22.5 22.5 0 2.261-.333 4.443-.954 6.502-2.789 9.256-15.231 14.232-25.397 14.232z" fill="#ffe07d"/><path d="m429.545 264.416c-1.08 3.6-3.04 6.82-5.63 9.41-4.07 4.07-9.69 6.59-15.91 6.59l-152.48 8.872-151.52-8.872c-12.43 0-22.5-10.07-22.5-22.5 0-6.22 2.52-11.84 6.59-15.91 2.77-2.77 6.26-4.82 10.16-5.84-.49 1.84-.75 3.76-.75 5.75 0 12.43 10.07 22.5 22.5 22.5z" fill="#ffd064"/></g><g><path d="m404.154 323.65-296.979.638c-12.426 0-23.872-8.571-23.872-20.997 0-10.438 5.31-19.591 14.95-22.133 1.836-.484 3.764-.742 5.752-.742h304c12.426 0 22.5 10.074 22.5 22.5 0 2.261-.333 4.443-.954 6.502-2.789 9.256-15.231 14.232-25.397 14.232z" fill="#ffe07d"/><path d="m429.545 309.416c-1.08 3.6-3.04 6.82-5.63 9.41-4.07 4.07-9.69 6.59-15.91 6.59l-152.48 8.872-151.52-8.872c-12.43 0-22.5-10.07-22.5-22.5 0-6.22 2.52-11.84 6.59-15.91 2.77-2.77 6.26-4.82 10.16-5.84-.49 1.84-.75 3.76-.75 5.75 0 12.43 10.07 22.5 22.5 22.5z" fill="#ffd064"/></g><g><path d="m404.154 368.65-296.979.638c-12.426 0-23.872-8.571-23.872-20.997 0-10.438 5.31-19.591 14.95-22.133 1.836-.484 3.764-.742 5.752-.742h304c12.426 0 22.5 10.074 22.5 22.5 0 2.261-.333 4.443-.954 6.502-2.789 9.256-15.231 14.232-25.397 14.232z" fill="#ffe07d"/><path d="m429.545 354.416c-1.08 3.6-3.04 6.82-5.63 9.41-4.07 4.07-9.69 6.59-15.91 6.59l-152.48 8.872-151.52-8.872c-12.43 0-22.5-10.07-22.5-22.5 0-6.22 2.52-11.84 6.59-15.91 2.77-2.77 6.26-4.82 10.16-5.84-.49 1.84-.75 3.76-.75 5.75 0 12.43 10.07 22.5 22.5 22.5z" fill="#ffd064"/></g><g><path d="m422.505 449.416h-333c-.924 0-1.841-.029-2.75-.087-22.467-1.418-38.09-20.089-38.09-42.913v-.551h416.33v.551c0 6.604-.978 12.86-3.638 18.451-6.906 14.515-21.707 24.549-38.852 24.549z" fill="#e8e8e8"/><path d="m465.505 405.866v.55c0 6.61-1.49 12.86-4.15 18.45h-375.393c-3.731 0-6.525 3.362-5.912 7.042 1.009 6.063 3.359 12.532 6.706 17.418-22.47-1.42-40.25-20.08-40.25-42.91v-.55l217.138-8.844z" fill="#d8d8d8"/><path d="m472.58 403.916-431.83.638c-16.569 0-32.245-11.57-32.245-28.138 0-2.761 2.239-5 5-5l14.31-1h471.69c2.761 0 5 2.239 5 5v.449c0 4.659-1.062 9.069-2.957 13.003-4.844 10.057-17.058 15.048-28.968 15.048z" fill="#f8f7f7"/><path d="m501.545 388.866c-4.84 10.06-15.13 17-27.04 17h-437c-16.57 0-30-13.43-30-30v-.45c0-2.76 2.24-5 5-5h15.31c4.52 10.84 15.21 18.45 27.69 18.45z" fill="#e8e8e8"/></g><path d="m378.505 190.416h-230.003l-12.357 1.862-1.928 24.525c0 9.665 7.835 17.5 17.5 17.5 1.023.03 1.906.031 5.071.746 7.192 2.174 13.211 10.098 13.211 18l-.143 66.303c0 9.809 6.874 19.077 16.681 18.894 2.595-.049 4.854.505 7.055-.555 5.865-2.826 9.913-8.828 9.913-15.774v-69c0-9.665 7.835-17.5 17.5-17.5 1.083 0 2.142.098 3.17.286 8.151 1.492 15.723 6.982 15.723 15.565l-.17 25.447c0 9.809 6.874 17.716 16.681 17.532 2.593-.049 4.979.506 7.179-.554 5.868-2.825 9.917-8.828 9.917-15.776v-25c0-9.665 7.835-17.5 17.5-17.5 1.945 0 3.816.317 5.565.903 6.937 2.325 13.372 7.824 13.372 15.544l.34 59.149c0 9.809 6.363 18.311 16.17 18.128 2.593-.049 4.936.612 7.136-.447 5.868-2.825 9.917-8.828 9.917-15.776v-60c0-9.665 7.835-17.5 17.5-17.5 9.665 0 17.5-7.835 17.5-17.5z" fill="#ff8086"/><g fill="#e5646e"><path d="m183.505 321.456v-68.54c0-.056-.008-.11-.008-.166l.005-.014c-.07-14.36-9.33-26.78-23.09-30.93-2.38-.72-4.84-1.17-7.33-1.32-2.52-.16-4.58-2.46-4.58-4.99v-25.08h-15v27.5c0 9.66 7.84 17.5 17.5 17.5 3.887.094 9.454 1.406 13.397 6.256 2.113 2.545 4.193 6.616 4.106 11.385v68.398c0 9.81 8.03 18.14 17.83 17.96 2.59-.05 5.05-.66 7.25-1.74-5.95-2.909-10.08-9.179-10.08-16.219z"/><g><path d="m263.585 293.686c-1.944.891-4.005 1.631-7.25 1.73-9.8.18-17.83-8.15-17.83-17.96v-24.54c-.028-1.912-.323-4.736-1.73-7.58-.83-1.72-1.93-3.28-3.24-4.63-3.108-3.012-6.352-4.913-12.53-5.29h15c4.83 0 9.2 1.96 12.37 5.13s5.13 7.54 5.13 12.37v24.54c0 7.04 4.13 13.3 10.08 16.23z"/><path d="m333.585 328.686c-1.863.732-2.99 1.531-7.25 1.73-9.8.18-17.83-8.15-17.83-17.96v-59.54c0-3.02-.77-5.86-2.11-8.34-2.21-4.212-7.959-9.207-15.39-9.16h15c4.83 0 9.2 1.96 12.37 5.13s5.13 7.54 5.13 12.37v59.54c0 7.04 4.13 13.3 10.08 16.23z"/></g></g></g><path d="m499.505 363.505h-65.536c2.561-4.416 4.036-9.538 4.036-15 0-8.954-3.948-16.999-10.189-22.5 6.241-5.501 10.189-13.546 10.189-22.5s-3.948-16.999-10.189-22.5c6.241-5.501 10.189-13.546 10.189-22.5s-3.948-16.999-10.189-22.5c6.241-5.501 10.189-13.546 10.189-22.5 0-16.542-13.458-30-30-30h-57.265c10.976-24.678 16.03-54.349 17.821-67.197.46-3.29-.623-6.524-2.971-8.872s-5.579-3.431-8.871-2.971c-7.509 1.047-25.713 3.946-44.705 9.633-2.386-7.656-5.186-15.188-8.397-22.564-1.654-3.797-6.069-5.536-9.871-3.883-3.798 1.653-5.536 6.073-3.883 9.871 7.912 18.172 13.164 37.36 15.613 57.031 2.639 12.677-7.369 28.126-22.144 28.951 3.13-4.742 5.712-12.974 5.013-20.33-1.288-16.424-4.603-32.669-9.853-48.282l-2.237-6.655c-2.933-8.726-11.089-14.589-20.296-14.589-9.191 0-17.343 5.851-20.285 14.559l-2.126 6.292c-5.365 15.879-8.728 32.404-9.993 49.116-.548 7.24 1.376 14.15 5.05 19.89h-.161c-.072-.009-.142-.024-.214-.03-6.614-.595-12.574-3.784-16.781-8.979-3.461-4.219-6.328-12-5.17-19.168 2.836-23.613 9.655-46.376 20.269-67.657 5.588-11.205 16.837-18.165 29.358-18.165 5.703 0 11.332 1.495 16.28 4.324 3.592 2.057 8.177.809 10.233-2.788 2.056-3.596.808-8.178-2.788-10.233-7.211-4.123-15.415-6.303-23.725-6.303-18.245 0-34.638 10.143-42.781 26.47-5.335 10.698-9.764 21.749-13.291 33.075-18.931-5.653-37.045-8.539-44.542-9.585-3.291-.459-6.524.623-8.872 2.97-2.348 2.348-3.431 5.581-2.972 8.872 1.792 12.848 6.846 42.521 17.822 67.198h-57.265c-16.542 0-30 13.458-30 30 0 8.954 3.948 16.999 10.189 22.5-6.241 5.501-10.189 13.546-10.189 22.5s3.948 16.999 10.189 22.5c-6.241 5.501-10.189 13.546-10.189 22.5s3.948 16.999 10.189 22.5c-6.241 5.501-10.189 13.546-10.189 22.5 0 5.462 1.475 10.584 4.036 15h-65.536c-6.893 0-12.5 5.607-12.5 12.5-.357 21.206 17.938 38.967 39.49 37.948 3.397 24.568 24.523 43.552 50.01 43.552h333c25.488 0 46.613-18.984 50.01-43.552 21.027 1.146 39.84-16.412 39.49-37.948 0-6.894-5.607-12.501-12.5-12.501zm-76.5-60c0 8.271-6.729 15-15 15h-57.511c.334-1.618.511-3.29.511-5v-25h57c8.272 0 15 6.728 15 15zm-192-30h-20v-20c0-5.514 4.486-10 10-10s10 4.486 10 10zm-20 15h22.267c1.305 2.907 3.14 5.583 5.445 7.845 4.826 4.735 11.137 7.293 17.764 7.151 9.979-.188 18.579-6.347 22.404-14.996h22.12v24.541c0 1.843.212 3.672.607 5.459h-90.607zm90-15h-20v-20c0-5.514 4.486-10 10-10s10 4.486 10 10zm18.219 47.139c-2.046-2.007-3.219-4.776-3.219-7.598v-59.541c0-13.785-11.215-25-25-25s-25 11.215-25 25v25c0 5.411-4.399 9.896-9.806 9.998-2.573.069-5.049-.967-6.976-2.859-2.045-2.007-3.218-4.776-3.218-7.598v-24.541c0-13.785-11.215-25-25-25s-25 11.215-25 25v69c0 5.411-4.399 9.896-9.806 9.998-2.586.056-5.048-.967-6.976-2.859-2.045-2.007-3.218-4.776-3.218-7.598v-68.541c0-13.785-11.215-25-25-25-5.514 0-10-4.486-10-10v-20h230v20c0 5.514-4.486 10-10 10-13.785 0-25 11.215-25 25v60c0 5.411-4.399 9.896-9.807 9.998-2.596.033-5.047-.967-6.974-2.859zm103.781-62.139c0 8.271-6.729 15-15 15h-57v-20c0-5.514 4.486-10 10-10 1.792-.007 44.759.005 47 0 8.272 0 15 6.728 15 15zm0-45c0 8.271-6.729 15-15 15h-24.094c1.343-3.065 2.094-6.445 2.094-10v-20h22c8.272 0 15 6.728 15 15zm-102.454-59.276c-.839-7.227-2.531-17.184-4.564-25.664 14.201-4.278 28.033-6.916 36.811-8.338-2.314 14.254-7.931 42.413-18.676 63.278h-21.728c6.571-8.339 9.472-18.71 8.157-29.276zm-82.038 10.519c1.171-15.464 4.282-30.754 9.247-45.447l2.126-6.293c.881-2.607 3.322-4.359 6.074-4.359 2.757 0 5.199 1.755 6.077 4.368l2.237 6.656c4.858 14.447 7.926 29.479 9.117 44.669l.028.359c.579 7.379-3.608 14.12-9.948 17.161v-17.764c0-4.143-3.357-7.5-7.5-7.5-4.142 0-7.5 3.357-7.5 7.5v17.766c-6.327-3.033-10.516-9.752-9.958-17.116zm-79.301-44.521c8.746 1.417 22.506 4.042 36.65 8.291-1.959 8.222-3.46 16.568-4.475 25.018-1.449 9.439 1.339 21.628 8.074 29.969h-21.573c-10.744-20.865-16.362-49.025-18.676-63.278zm-70.207 93.278c0-8.271 6.729-15 15-15h22v20c0 3.555.751 6.935 2.094 10h-24.094c-8.271 0-15-6.729-15-15zm0 45c0-8.271 6.729-15 15-15 2.076-.001 44.693.001 47 0 5.514 0 10 4.486 10 10v20h-57c-8.271 0-15-6.729-15-15zm0 45c0-8.271 6.729-15 15-15h57v30h-57c-8.271 0-15-6.729-15-15zm385.5 95.448h-313.755c-4.142 0-7.5 3.357-7.5 7.5s3.358 7.5 7.5 7.5h296.568c-3.24 16.259-17.615 28.552-34.813 28.552h-333c-17.197 0-31.573-12.292-34.813-28.552h71.334c4.142 0 7.5-3.357 7.5-7.5s-3.358-7.5-7.5-7.5h-88.521c-11.715 0-21.368-9-22.407-20.448h307.95c4.143 0 7.5-3.357 7.5-7.5s-3.357-7.5-7.5-7.5h-219.043c-8.271 0-15-6.729-15-15s6.729-15 15-15h59.741c3.263 7.142 12.997 14.434 22.735 13.996 9.59-.181 17.907-5.876 21.936-13.996h102.806c4.416 3.343 9.736 5.112 15.256 4.996 5.397-.102 10.39-1.953 14.445-4.996h67.081c8.271 0 15 6.729 15 15s-6.729 15-15 15h-50.063c-4.143 0-7.5 3.357-7.5 7.5s3.357 7.5 7.5 7.5h138.971c-1.04 11.448-10.693 20.448-22.408 20.448z"/></g></svg>