<svg id="Capa_1" enable-background="new 0 0 512 512" height="512" viewBox="0 0 512 512" width="512" xmlns="http://www.w3.org/2000/svg"><g><g><path d="m146.617 54.651h225.761v30.876h-225.761z" fill="#bde4ff"/><path d="m386.937 95.033h-259.874l-30.601 59.207c-2.201 4.258-3.349 8.981-3.349 13.775v302.12c0 17.875 14.49 32.365 32.365 32.365h263.044c12.313 0 23.021-4.876 28.492-14.998 2.471-4.572 3.874-9.806 3.874-15.367v-85.663l-8.313-65.43 8.313-67.569v-85.459c0-4.793-1.148-9.517-3.349-13.775z" fill="#bde4ff"/><path d="m417.01 487.5c-5.47 10.12-16.17 17-28.49 17h-265.04c-17.88 0-32.37-14.49-32.37-32.37v-85.658l4.869-66.999-4.869-65.999v-85.464c0-4.79 1.15-9.51 3.35-13.77l30.6-59.21h22.55l-38.05 67.02c-.95 1.83-1.45 3.9-1.45 5.96v304.12c0 8.48 6.9 15.37 15.37 15.37z" fill="#99dbff"/><path d="m387.522 454.952c0 8.937-7.245 16.183-16.183 16.183h-230.679c-8.937 0-16.183-7.245-16.183-16.183l.002-275.364c0-4.44 4.369-7.567 8.568-6.124 3.135 1.077 5.352 1.126 9.434 1.876 3.647.67 7.985 1.102 13.572 1.102 24.984 0 24.984-8.631 49.968-8.631 24.985 0 24.985 8.631 49.97 8.631 24.984 0 24.984-8.631 49.969-8.631 24.988 0 24.988 8.631 49.976 8.631 11.846 0 18.076-1.94 24.015-3.98 4.199-1.443 8.568 1.684 8.568 6.124l.002 274.544z" fill="#ff8086"/><path d="m388.52 453.13v2.82c0 8.936-7.244 16.18-16.18 16.18h-232.68c-8.936 0-16.18-7.244-16.18-16.18v-277.36c0-4.44 4.37-7.57 8.57-6.13 3.13 1.08 6.35 2.13 10.43 2.89v267.78c0 5.523 4.477 10 10 10z" fill="#e5646e"/><path d="m420.887 253.474h-83.334c-.976 0-1.912-.364-2.644-1.009-20.094-17.692-48.025-28.661-78.908-28.661s-58.815 10.969-78.908 28.661c-.733.645-1.668 1.009-2.644 1.009h-83.336l2 61.82-2 71.178h83.334c.976 0 1.912.364 2.644 1.009 20.094 17.692 48.024 28.661 78.908 28.661s58.815-10.969 78.908-28.661c.733-.645 1.668-1.009 2.644-1.009h83.334v-132.998z" fill="#ffe07d"/><path d="m91.11 253.47h17v133h-17z" fill="#ffd064"/><g><path d="m304.676 307.759c4.231-3.569 9.428-6.016 14.877-6.886 2.842-.454 5.822-.843 8.758-.461.519.068 1.039.149 1.558.244l24.136 4.423c2.638.483 3.402 3.899 1.221 5.46l-19.852 14.209c-.081.058-.162.115-.243.172-1.787 1.253-4.299 2.062-6.258 2.888-4.478 1.888-9.29 2.692-14.068 2.332l-25.932-8.588z" fill="#b3e59f"/><path d="m335.13 324.92c-5.87 4.12-12.86 5.93-19.73 5.42l-26.53-8.79 15.93-14.23c6.43-5.43 14.94-8.02 23.51-6.9-.87.59-1.71 1.22-2.51 1.9l-13.352 11.927c-1.147 1.025-.757 2.906.703 3.39z" fill="#95d6a4"/><path d="m300.054 317.461.776-1.993c3.632-5.915 4.968-11.855 4.213-18.468-.535-4.68-1.574-10.228-4.273-14.3-.202-.304-.409-.606-.623-.904l-14.281-19.953c-1.561-2.181-4.976-1.417-5.46 1.221l-4.401 24.013c-.341 1.861-.504 3.726-.499 5.573.015 5.043 2.271 10.226 4.619 14.585z" fill="#ccf49f"/><path d="m301.33 315.38-1.28 2.08-20.91-10.49c-2.35-4.36-3.62-9.28-3.64-14.32l17.911 8.987c.927.465 2.057.144 2.6-.739l.319-.518c3.33-5.42 4.8-11.6 4.44-17.68 6.51 9.82 6.77 22.58.56 32.68z" fill="#b3e59f"/><path d="m257.979 316.404c2.246-3.54 4.366-6.653 7.036-8.182 9.352-5.353 21.065.361 33.463 8.227 15.938 10.113 26.973 19.956 16.86 35.894-1.023 1.613-2.248 3.25-3.638 4.879-2.512 2.944-6.093 5.54-9.487 8.245-13.291 10.596-30.588 16.752-42 9.511-15.938-10.112-12.347-42.636-2.234-58.574z" fill="#ff8086"/><path d="m207.634 308.784c-5.911-4.987-14.003-9.045-21.844-8.572-1.217.073-2.439.221-3.659.444l-24.136 4.423c-2.638.483-3.402 3.899-1.221 5.46l19.852 14.209c.893.639 1.812 1.225 2.754 1.756 5.302 2.993 12.1 3.273 18.013 2.828l24.457-7.214z" fill="#b3e59f"/><path d="m221.85 322.12-25.25 8.22c-6 .45-12.1-.88-17.46-3.98.15 0 .31-.01.46-.02l22.166-7.216c1.415-.461 1.849-2.251.802-3.309l-12.368-12.495c-1.38-1.17-2.86-2.2-4.41-3.1 7.84-.48 15.51 2.11 21.41 7.1z" fill="#95d6a4"/><path d="m211.946 317.461-.648-2.17c-6.395-10.414-5.666-23.417 1.447-33.355l6.827-10.923 6.564-9.17c1.561-2.181 4.976-1.417 5.46 1.221l4.401 24.013c.566 3.09.643 6.189.27 9.203-.465 3.757-3.024 8.082-4.804 11.387z" fill="#ccf49f"/><path d="m236.27 296.28c-.47 3.76-1.63 7.38-3.41 10.69l-20.91 10.49-1.28-2.08c-6.4-10.41-5.93-23.65 1.18-33.58l9.57-13.37c-6.7 9.85-7.02 22.76-.75 32.95l.002.003c.723 1.175 2.224 1.602 3.458.984z" fill="#b3e59f"/><path d="m276.061 366.72c-1.057-.254-1.717-1.325-1.467-2.383 1.166-4.933 1.71-10.401 1.586-16.327-.295-14.4-4.588-29.721-11.16-39.778-.004-.001-.006-.002-.01-.002-1.726.983-3.371 2.353-4.925 4.15-.015.017-.029.036-.044.053-.262.305-.522.617-.778.947-.112.143-.22.297-.331.445-.164.22-.33.435-.492.667-.277.394-.55.803-.82 1.229-10.11 15.94-14.01 50.64 1.93 60.75 1.99 1.164 4.778 2.513 8.501 2.774 14.58 1.396 33.917-10.381 43.999-22.444-11.663 7.628-25.335 12.475-35.989 9.919z" fill="#e5646e"/><path d="m254.379 315.721c-10.113-15.938-24.919-9.384-40.857.729-4.258 2.702-8.165 5.384-11.414 8.168-.782.671-1.212 1.617-1.896 2.297-7.102 7.058-9.037 14.427-2.277 25.082 10.113 15.938 38.019 34.266 53.957 24.152 3.47-2.202 5.998-5.382 7.872-9.383.482-1.029 1.25-2.096 1.592-3.234 4.434-14.761.369-36.235-6.977-47.811z" fill="#ff8086"/><path d="m261.35 363.53c-1.66 5.56-4.54 10.17-8.9 12.94-15.94 10.11-45.67-8.19-55.79-24.13-7.41-11.68-3.46-20.09 5.45-27.72-.93 4.34.02 9.16 3.55 14.72 10.1 15.91 39.73 34.16 55.69 24.19z" fill="#e5646e"/></g><path d="m140.83 84.286s-33.786 18.733-43.653 32.394c-4.184 5.792-3.121 11.02 3.85 12.586 14.061 3.159 19.144 9.951 41.009 9.951 28.489 0 28.489-11.532 56.977-11.532 28.49 0 28.49 11.532 56.98 11.532 28.489 0 28.489-11.532 56.978-11.532 28.493 0 28.493 11.532 56.986 11.532 21.866 0 26.952-6.792 41.013-9.951 6.974-1.567 9.684-6.429 5.498-12.224-.282-.39-.23-1.153-.55-1.551-10.903-13.532-43.54-31.206-43.54-31.206h-231.548z" fill="#ffe07d"/><path d="m164.98 54.648v29.638l-15.554 2.884-9.806-2.884v-29.638z" fill="#99dbff"/><path d="m383.043 54.404-254.537.489c-8.284 0-15-6.716-15-15v-16.393c0-8.284 5.716-15 14-15l1.004-1h255.984c8.284 0 15 6.716 15 15v18.394c0 8.284-8.167 13.51-16.451 13.51z" fill="#ffe07d"/><g fill="#ffd064"><path d="m399.49 39.89v1c0 8.29-6.71 15-15 15h-256.98c-8.29 0-15-6.71-15-15v-18.39c0-8.28 6.71-15 15-15h1v25.39c0 3.87 3.13 7 7 7z"/><path d="m416.82 116.67c-.28-.39-.58-.79-.9-1.18-1.28 1.33-2.95 2.33-4.95 2.78-14.06 3.16-19.15 9.95-41.01 9.95-28.5 0-28.5-11.54-56.99-11.54s-28.49 11.54-56.98 11.54-28.49-11.54-56.98-11.54-28.49 11.54-56.97 11.54c-10.489 0-17.115-1.564-22.723-3.54-1.899-.669-2.61-3.011-1.393-4.615 11.676-15.385 45.372-35.448 47.056-35.775l-25.36-.004s-32.627 17.675-43.528 31.207c-.001-.001-.002-.001-.002-.002-.32.4-.63.8-.91 1.19-4.19 5.79-1.12 14.02 5.85 15.59 13.452 3.056 19.574 9.906 41.01 9.95 28.48 0 28.48-11.54 56.97-11.54s28.49 11.54 56.98 11.54 28.49-11.54 56.98-11.54 28.49 11.54 56.99 11.54c21.86 0 26.95-6.79 41.01-9.95 6.97-1.571 10.04-9.801 5.85-15.601z"/></g></g><g><path d="m420.887 197.705c4.142 0 7.5-3.357 7.5-7.5v-22.19c0-5.965-1.448-11.919-4.187-17.218l-6.764-13.087c3.464-1.979 6.186-5.113 7.644-8.961 2.093-5.525 1.278-11.681-2.178-16.466-8.838-12.236-33.088-26.809-42.924-32.412v-16.477h4.516c12.407 0 22.5-10.094 22.5-22.5v-18.394c0-12.406-10.093-22.5-22.5-22.5h-256.988c-12.407 0-22.5 10.094-22.5 22.5v18.394c0 12.406 10.093 22.5 22.5 22.5h4.526v16.473c-9.829 5.599-34.093 20.18-42.935 32.421-3.456 4.786-4.271 10.94-2.177 16.465 1.457 3.848 4.18 6.981 7.643 8.958l-6.764 13.086c-2.739 5.299-4.187 11.253-4.187 17.218v151.643c0 4.143 3.358 7.5 7.5 7.5s7.5-3.357 7.5-7.5v-58.684h75.834c2.794 0 5.494-1.023 7.6-2.88 19.621-17.275 45.884-26.79 73.953-26.79s54.332 9.515 73.95 26.788c2.109 1.858 4.809 2.882 7.603 2.882h75.834v117.998h-75.834c-2.791 0-5.489 1.022-7.601 2.88-9.234 8.132-20.011 14.583-32.033 19.176-3.869 1.478-5.808 5.813-4.33 9.683 1.142 2.989 3.988 4.825 7.008 4.825.89 0 1.795-.159 2.675-.496 13.274-5.071 25.246-12.156 35.602-21.067h42.148v61.98c0 4.788-3.895 8.683-8.683 8.683h-232.678c-4.788 0-8.683-3.895-8.683-8.683v-61.98h42.148c22.247 19.144 51.622 29.671 82.875 29.671 3.686 0 7.403-.15 11.049-.446 4.128-.336 7.204-3.954 6.868-8.083s-3.958-7.195-8.083-6.868c-3.244.264-6.553.397-9.834.397-28.067 0-54.331-9.515-73.954-26.792-2.109-1.856-4.808-2.879-7.599-2.879h-75.834v-24.314c0-4.143-3.358-7.5-7.5-7.5s-7.5 3.357-7.5 7.5v117.478c0 21.981 17.883 39.865 39.865 39.865h265.044c21.982 0 39.865-17.884 39.865-39.865v-246.93c0-4.143-3.358-7.5-7.5-7.5s-7.5 3.357-7.5 7.5v20.769h-17.366v-67.389c0-4.505-2.19-8.757-5.857-11.374-3.664-2.616-8.393-3.304-12.649-1.842-4.874 1.675-10.397 3.573-21.577 3.573-11.235 0-16.474-1.81-22.539-3.904-6.414-2.216-13.684-4.727-27.437-4.727-13.751 0-21.021 2.511-27.434 4.727-6.065 2.095-11.302 3.904-22.536 3.904s-16.472-1.81-22.537-3.904c-6.413-2.216-13.682-4.727-27.434-4.727-13.751 0-21.02 2.511-27.433 4.727-6.065 2.095-11.302 3.904-22.535 3.904-11.176 0-16.698-1.897-21.57-3.571-4.257-1.466-8.986-.774-12.649 1.842-3.667 2.617-5.856 6.87-5.856 11.375v67.386h-17.365v-77.959c0-3.579.869-7.151 2.512-10.331l7.764-15.022c.613.244 1.226.491 1.846.742 7.311 2.959 15.598 6.313 31.302 6.313 15.705 0 23.991-3.354 31.302-6.314 6.917-2.8 12.891-5.218 25.675-5.218s18.758 2.418 25.676 5.218c7.312 2.96 15.599 6.314 31.304 6.314s23.992-3.354 31.303-6.314c6.917-2.8 12.891-5.218 25.675-5.218 12.787 0 18.761 2.418 25.679 5.219 7.312 2.959 15.6 6.313 31.307 6.313 15.706 0 23.993-3.354 31.305-6.313.62-.251 1.235-.498 1.849-.743l7.764 15.023c1.643 3.18 2.512 6.752 2.512 10.331v22.19c-.001 4.141 3.357 7.498 7.499 7.498zm-32.365 299.295h-265.044c-13.711 0-24.865-11.154-24.865-24.865v-78.163h17.365v61.98c0 13.059 10.624 23.683 23.683 23.683h232.68c13.059 0 23.683-10.624 23.683-23.683v-61.98h17.365v78.163c-.002 13.711-11.156 24.865-24.867 24.865zm-257.543-316.979c6.338 2.117 13.292 3.921 25.075 3.921 13.751 0 21.02-2.511 27.433-4.727 6.065-2.095 11.302-3.904 22.536-3.904s16.471 1.81 22.536 3.904c6.413 2.216 13.683 4.727 27.434 4.727s21.02-2.511 27.433-4.727c6.065-2.095 11.303-3.904 22.536-3.904 11.235 0 16.474 1.81 22.539 3.904 6.414 2.216 13.684 4.727 27.436 4.727 11.786 0 18.743-1.805 25.083-3.923v65.954h-42.146c-22.247-19.143-51.621-29.67-82.875-29.67s-60.625 10.525-82.875 29.67h-42.146zm50.374-116.627c4.142 0 7.5-3.357 7.5-7.5s-3.358-7.5-7.5-7.5h-53.847c-4.136 0-7.5-3.364-7.5-7.5v-18.394c0-4.136 3.364-7.5 7.5-7.5h256.988c4.136 0 7.5 3.364 7.5 7.5v18.394c0 4.136-3.364 7.5-7.5 7.5h-168.141c-4.142 0-7.5 3.357-7.5 7.5s3.358 7.5 7.5 7.5h148.625v13.392h-217.946v-13.392zm188.604 71.323c-12.786 0-18.761-2.418-25.679-5.218-7.312-2.96-15.6-6.314-31.307-6.314-15.705 0-23.992 3.354-31.303 6.314-6.917 2.8-12.891 5.218-25.675 5.218-12.785 0-18.759-2.418-25.676-5.218-7.312-2.96-15.599-6.314-31.304-6.314s-23.992 3.354-31.303 6.314c-6.917 2.8-12.89 5.218-25.674 5.218-12.783 0-18.757-2.418-25.674-5.218-4.026-1.63-8.19-3.315-13.691-4.551-1.096-.246-1.551-1.052-1.725-1.51-.18-.475-.379-1.414.311-2.368 6.864-9.504 29.92-23.559 40.174-29.285h229.139c10.249 5.72 33.297 19.763 40.173 29.281.689.955.49 1.895.311 2.37-.174.459-.63 1.266-1.727 1.513-5.5 1.235-9.664 2.92-13.691 4.55-6.919 2.8-12.893 5.218-25.679 5.218z"/><path d="m243.372 285.726-4.4-24.016c-.765-4.168-3.931-7.459-8.067-8.383-4.138-.924-8.402.704-10.869 4.15l-14.282 19.953c-3.683 5.147-5.917 10.986-6.729 16.982-5.819-1.841-12.064-2.267-18.248-1.134l-24.135 4.423c-4.169.764-7.46 3.93-8.385 8.065-.925 4.136.704 8.402 4.151 10.87l19.853 14.209c4.029 2.884 8.568 4.929 13.331 6.057-1.1 6.23.476 12.743 4.737 19.459 9.505 14.979 32.246 30.455 51.317 30.454 5.167 0 10.061-1.151 14.353-3.741 4.293 2.591 9.184 3.742 14.353 3.741 19.07-.001 41.813-15.476 51.317-30.454 4.262-6.716 5.837-13.229 4.737-19.459 4.764-1.127 9.302-3.172 13.332-6.056l19.853-14.209c3.446-2.468 5.075-6.734 4.15-10.87s-4.216-7.302-8.385-8.065l-24.135-4.423c-6.182-1.134-12.428-.707-18.248 1.134-.811-5.997-3.045-11.836-6.729-16.983l-14.281-19.953c-2.466-3.446-6.733-5.074-10.869-4.15s-7.302 4.215-8.067 8.385l-4.4 24.013c-.81 4.42-.807 8.941-.042 13.332-4.134.77-8.526 2.714-12.586 6.727-4.06-4.012-8.451-5.957-12.585-6.727.765-4.39.768-8.911-.042-13.331zm-25.42.435 8.161-11.402 2.505 13.671c.762 4.157.324 8.458-1.19 12.382-4.291 1.519-8.532 3.686-12.542 6.021-2.049-5.723-1.432-14.375 3.066-20.672zm-48.261 24.4 13.792-2.527c6.077-1.113 12.253.263 17.253 3.772.386 1.119.844 2.219 1.339 3.308-3.288 2.388-6.37 4.949-8.976 7.757-4.336-.233-8.55-1.676-12.106-4.221zm158.827-2.528 13.792 2.527-11.3 8.089c-3.557 2.545-7.772 3.984-12.108 4.219-2.606-2.807-5.687-5.368-8.975-7.755.495-1.089.952-2.189 1.339-3.308 4.999-3.509 11.176-4.884 17.252-3.772zm-45.136-19.604 2.505-13.67 8.161 11.402c3.646 5.147 5.603 13.612 3.067 20.671-4.009-2.335-8.251-4.501-12.542-6.021-1.516-3.924-1.953-8.224-1.191-12.382zm-6.547 25.668c4.229 1.058 9.576 3.65 17.625 8.687 6.196 3.932 12.921 8.591 15.814 13.335 1.648 2.703 2.636 6.053-1.269 12.207-8.54 13.459-30.925 26.402-42.709 23.003 7.076-14.755 4.938-36.888-1.807-52.4 2.892-4.229 6.21-6.311 12.346-4.832zm-28.788 5.643c9.254 14.584 11.044 43.635.384 50.398-10.659 6.763-36.181-7.229-45.436-21.813-3.905-6.154-2.917-9.504-1.269-12.207 2.894-4.744 9.618-9.403 15.814-13.335 5.913-3.576 14.225-8.895 21.392-9.16 2.899 0 5.964 1.152 9.115 6.117z"/></g></g></svg>