<svg id="Capa_1" enable-background="new 0 0 512 512" height="512" viewBox="0 0 512 512" width="512" xmlns="http://www.w3.org/2000/svg"><g><g><g><g fill="#a36b5b"><path d="m337.449 48.58v88.9l-32 42.967-32 11.463 7.131-45.676-7.131-45.844 32-25.475z"/><path d="m337.449 405.76v80.74l-1 2c0 8.28-6.71 15-15 15h-32c-8.28 0-15-6.72-15-15l-1-28.64 32-31.941z"/><path d="m337.449 225.12v90.73l-28.699 41.959-35.301 11.831 9-45.449-9-43.811 28.833-22.316z"/></g><path d="m337.449 315.85v89.91c-16.82 26.29-38.96 45.49-64 54.1l7.641-44.52-7.641-45.7c25.04-8.57 47.18-27.66 64-53.79z" fill="#f6d190"/><path d="m337.449 137.48v87.64c-16.82 26.85-38.97 46.47-64 55.26l5.854-42.997-5.854-45.473c24.85-9.11 46.92-28.31 64-54.43z" fill="#f6d190"/><path d="m337.449 22.5v26.08c-17.08 24.86-39.15 43.14-64 51.81l1-76.89c0-8.28 6.72-15 15-15l2-1h31c8.29 0 15 6.72 15 15z" fill="#f6d190"/><path d="m337.449 486.5v3c0 8.28-6.71 15-15 15h-34c-8.284 0-15-6.716-15-15v-29.64l8.295-8.28s6.436 1.905 9.705 0v28.92c0 3.314 2.686 6 6 6z" fill="#8e5644"/><path d="m291.449 271.93v89.48l-9 8.23h-9v-89.26l7.046-10.401z" fill="#8e5644"/><path d="m291.449 92.18v91.11l-9 9.412-9-.792v-91.52l7.557-6.922z" fill="#8e5644"/><path d="m291.449 361.41v90.17c-5.8 3.38-11.81 6.15-18 8.28v-90.22c5.043-1.796 11.616-4.489 18-8.23z" fill="#ecbd83"/><path d="m291.449 183.29v88.64c-.819.291-5.297 3.754-18 8.45v-88.47c5.646-2.157 11.239-4.604 18-8.62z" fill="#ecbd83"/><path d="m291.449 7.5v84.68c-4.313 2.452-10.916 5.759-18 8.21v-77.89c0-8.28 6.72-15 15-15z" fill="#ecbd83"/></g><g><g fill="#a36b5b"><path d="m208.523 48.58v88.9l-32 42.967-32 11.463 7.131-45.676-7.131-45.844 32-25.475z"/><path d="m208.523 405.76v80.74l-1 2c0 8.28-6.71 15-15 15h-32c-8.28 0-15-6.72-15-15l-1-28.64 32-31.941z"/><path d="m208.523 225.12v90.73l-28.699 41.959-35.301 11.831 9-45.449-9-43.811 28.833-22.316z"/></g><path d="m208.523 315.85v89.91c-16.82 26.29-38.96 45.49-64 54.1l7.641-44.52-7.641-45.7c25.04-8.57 47.18-27.66 64-53.79z" fill="#f6d190"/><path d="m208.523 137.48v87.64c-16.82 26.85-38.97 46.47-64 55.26l5.854-42.997-5.854-45.473c24.85-9.11 46.92-28.31 64-54.43z" fill="#f6d190"/><path d="m208.523 22.5v26.08c-17.08 24.86-39.15 43.14-64 51.81l1-76.89c0-8.28 6.72-15 15-15l2-1h31c8.29 0 15 6.72 15 15z" fill="#f6d190"/><path d="m208.523 486.5v3c0 8.28-6.71 15-15 15h-34c-8.284 0-15-6.716-15-15v-29.64l8.295-8.28s6.436 1.905 9.705 0v28.92c0 3.314 2.686 6 6 6z" fill="#8e5644"/><path d="m162.523 271.93v89.48l-9 8.23h-9v-89.26l7.046-10.401z" fill="#8e5644"/><path d="m162.523 92.18v91.11l-9 9.412-9-.792v-91.52l7.556-6.922z" fill="#8e5644"/><path d="m162.523 361.41v90.17c-5.8 3.38-11.81 6.15-18 8.28v-90.22c5.042-1.796 11.616-4.489 18-8.23z" fill="#ecbd83"/><path d="m162.523 183.29v88.64c-.819.291-5.297 3.754-18 8.45v-88.47c5.646-2.157 11.239-4.604 18-8.62z" fill="#ecbd83"/><path d="m162.523 7.5v84.68c-4.313 2.452-10.916 5.759-18 8.21v-77.89c0-8.28 6.72-15 15-15z" fill="#ecbd83"/></g><g><g fill="#a36b5b"><path d="m114.33 60.689 51.727 72.301-1.024 53.564-19.355 27.942-20.778-41.296-32.474-33.136 11.202-39.338z"/><path d="m322.16 351.178 46.98 65.665.35 2.208c4.818 6.734 3.271 16.104-3.471 20.927l-26.025 18.62c-6.734 4.818-16.109 3.263-20.927-3.471l-17.478-22.711 7.44-44.597z"/><path d="m217.052 204.266 52.792 73.79 1.074 50.823-21.826 30.163-19.125-42.2-32.812-30.394 10.465-34.926z"/></g><path d="m269.844 278.056 52.315 73.123c1.618 31.168-5.217 59.666-20.572 81.238l-19.69-40.653-32.806-32.721c15.379-21.541 22.278-49.949 20.753-80.987z" fill="#f6d190"/><path d="m166.057 132.99 50.994 71.276c1.944 31.624-4.655 60.469-19.897 82.181l-20.257-38.375-31.22-33.576c14.91-21.868 21.688-50.325 20.38-81.506z" fill="#f6d190"/><path d="m99.155 39.478 15.175 21.211c.574 30.157-6.739 57.865-21.904 79.376l-43.926-63.116c-4.818-6.734-3.263-16.109 3.471-20.927l1.045-1.977 25.212-18.038c6.742-4.824 16.109-3.263 20.927 3.471z" fill="#f6d190"/><path d="m369.139 416.843 1.746 2.44c4.818 6.734 3.271 16.104-3.471 20.927l-27.652 19.783c-6.737 4.82-16.107 3.266-20.927-3.471l-17.246-24.106 1.929-11.561s6.343-2.196 7.893-5.647l16.827 23.52c1.928 2.695 5.676 3.317 8.371 1.389z" fill="#8e5644"/><path d="m206.878 269.102 52.065 72.773-2.531 11.93-7.32 5.237-51.937-72.594-.322-12.559z" fill="#8e5644"/><path d="m102.288 122.914 53.013 74.098-1.843 12.892-7.78 4.592-53.252-74.432 2.117-10.026z" fill="#8e5644"/><path d="m258.943 341.875 52.467 73.334c-2.75 6.124-6.026 11.874-9.821 17.208l-52.496-73.375c3.055-4.395 6.834-10.41 9.85-17.167z" fill="#ecbd83"/><path d="m155.301 197.012 51.576 72.09c-.497.713-2.124 6.135-9.722 17.346l-51.477-71.952c3.336-5.039 6.461-10.283 9.623-17.484z" fill="#ecbd83"/><path d="m53.016 54.045 49.272 68.869c-2.081 4.504-5.527 11.036-9.862 17.151l-45.322-63.348c-4.818-6.734-3.263-16.109 3.471-20.927z" fill="#ecbd83"/></g><g><g fill="#a36b5b"><path d="m466.376 48.58v88.9l-32 42.967-32 11.463 7.13-45.676-7.13-45.844 32-25.475z"/><path d="m466.376 405.76v80.74l-1 2c0 8.28-6.71 15-15 15h-32c-8.28 0-15-6.72-15-15l-1-28.64 32-31.941z"/><path d="m466.376 225.12v90.73l-28.699 41.959-35.301 11.831 9-45.449-9-43.811 28.832-22.316z"/></g><path d="m466.376 315.85v89.91c-16.82 26.29-38.96 45.49-64 54.1l7.641-44.52-7.641-45.7c25.04-8.57 47.18-27.66 64-53.79z" fill="#f6d190"/><path d="m466.376 137.48v87.64c-16.82 26.85-38.97 46.47-64 55.26l5.854-42.997-5.854-45.473c24.85-9.11 46.92-28.31 64-54.43z" fill="#f6d190"/><path d="m466.376 22.5v26.08c-17.08 24.86-39.15 43.14-64 51.81l1-76.89c0-8.28 6.72-15 15-15l2-1h31c8.29 0 15 6.72 15 15z" fill="#f6d190"/><path d="m466.376 486.5v3c0 8.28-6.71 15-15 15h-34c-8.284 0-15-6.716-15-15v-29.64l8.295-8.28s6.436 1.905 9.705 0v28.92c0 3.314 2.686 6 6 6z" fill="#8e5644"/><path d="m420.376 271.93v89.48l-9 8.23h-9v-89.26l7.045-10.401z" fill="#8e5644"/><path d="m420.376 92.18v91.11l-9 9.412-9-.792v-91.52l7.556-6.922z" fill="#8e5644"/><path d="m420.376 361.41v90.17c-5.8 3.38-11.81 6.15-18 8.28v-90.22c5.042-1.796 11.615-4.489 18-8.23z" fill="#ecbd83"/><path d="m420.376 183.29v88.64c-.819.291-5.297 3.754-18 8.45v-88.47c5.645-2.157 11.238-4.604 18-8.62z" fill="#ecbd83"/><path d="m420.376 7.5v84.68c-4.314 2.452-10.916 5.759-18 8.21v-77.89c0-8.28 6.72-15 15-15z" fill="#ecbd83"/></g></g><g><path d="m451.11 0h-34c-12.407 0-22.5 10.093-22.5 22.5v11.479c0 4.142 3.358 7.5 7.5 7.5s7.5-3.358 7.5-7.5v-11.479c0-4.136 3.365-7.5 7.5-7.5h34c4.136 0 7.5 3.364 7.5 7.5v19.598c-13.103 22.17-30.226 38.563-49 47.105v-20.182c0-4.142-3.358-7.5-7.5-7.5s-7.5 3.358-7.5 7.5v420.479c0 12.407 10.093 22.5 22.5 22.5h34c12.407 0 22.5-10.093 22.5-22.5v-467c0-12.407-10.093-22.5-22.5-22.5zm7.5 312.269c-13.104 22.17-30.226 38.563-49 47.105v-73.833c18.099-6.728 34.93-19.492 49-36.982zm0-90.057c-13.103 22.17-30.226 38.563-49 47.105v-73.832c18.099-6.728 34.93-19.492 49-36.983zm-49 153.387c18.099-6.728 34.93-19.492 49-36.983v63.71c-13.103 22.17-30.226 38.563-49 47.105zm49-307.154v63.71c-13.104 22.17-30.226 38.563-49 47.105v-73.833c18.099-6.727 34.93-19.491 49-36.982zm-7.5 428.555h-34c-4.136 0-7.5-3.364-7.5-7.5v-23.845c18.099-6.728 34.93-19.492 49-36.982v60.827c0 4.136-3.364 7.5-7.5 7.5z"/><path d="m344.681 373.318v-53.467c0-4.142-3.358-7.5-7.5-7.5s-7.5 3.358-7.5 7.5v32.044l-44.996-64.261c18.845-8.579 34.013-24.075 44.996-38.516v35.839c0 4.142 3.358 7.5 7.5 7.5s7.5-3.358 7.5-7.5v-262.457c0-12.407-10.093-22.5-22.5-22.5h-34c-12.407 0-22.5 10.093-22.5 22.5v237.994l-48.881-69.809v-53.643c0-4.142-3.358-7.5-7.5-7.5s-7.5 3.358-7.5 7.5v32.22l-44.812-63.999c16.212-7.153 31.549-19.77 44.812-36.774v33.488c0 4.142 3.358 7.5 7.5 7.5s7.5-3.358 7.5-7.5v-79.477c0-12.407-10.096-22.5-22.506-22.5h-33.988c-12.409 0-22.506 10.093-22.506 22.5v55.361l-30.657-43.782c-6.191-9.173-20.933-13.011-31.336-5.525l-27.83 19.487c-10.163 7.117-12.642 21.174-5.525 31.336 23.631 33.748 71.762 102.487 95.349 136.173v273.95c0 12.407 10.096 22.5 22.506 22.5h33.988c12.41 0 22.506-10.093 22.506-22.5v-161.126c12.245 17.488 36.805 52.563 48.881 69.809v91.317c0 12.407 10.093 22.5 22.5 22.5h34c12.407 0 22.5-10.093 22.5-22.5v-24.178l24.797-17.363c10.163-7.116 12.642-21.174 5.526-31.336zm-45.165 47.034-42.342-60.47c10.942-15.867 17.506-35.799 19.213-57.947l36.775 52.52c1.619 25.276-3.173 48.21-13.646 65.897zm-93.997-134.241c10.942-15.867 17.506-35.799 19.213-57.947l36.776 52.521c1.619 25.277-3.173 48.211-13.646 65.897zm-3.719 115.895c-13.083 22.258-30.21 38.73-49 47.337v-73.816c18.108-6.777 34.94-19.598 49-37.15zm-43.602-268.862c1.619 25.277-3.173 48.21-13.646 65.897l-42.342-60.471c10.942-15.866 17.506-35.799 19.213-57.947zm51.655 73.77c1.619 25.277-3.173 48.21-13.646 65.897l-42.342-60.47c10.942-15.867 17.506-35.799 19.213-57.947zm-8.053 105.036c-13.084 22.258-30.21 38.73-49 47.337v-73.815c8.527-3.179 16.755-7.664 24.578-13.4 6.082 8.686 18.325 26.171 24.422 34.879zm-33.029-52.17c-5.155 3.806-10.492 6.967-15.97 9.465v-32.273zm111.91 13.108v-77.403c18.099-6.728 34.93-19.492 49-36.983v63.713c-14.107 23.94-31.514 41.842-49 50.673zm49-140.733c-13.104 22.17-30.226 38.563-49 47.105v-73.833c18.099-6.728 34.93-19.492 49-36.983zm-41.5-117.155h34c4.136 0 7.5 3.364 7.5 7.5v19.598c-13.104 22.17-30.226 38.563-49 47.105v-66.703c0-4.136 3.365-7.5 7.5-7.5zm-127.875 0h33.988c4.139 0 7.506 3.364 7.506 7.5v19.28c-13.668 23.279-30.785 40.291-49 48.91v-68.19c0-4.136 3.368-7.5 7.506-7.5zm-106.81 50.169c.348-1.973 1.443-3.692 3.084-4.842l27.831-19.487c1.799-1.52 7.4-2.329 10.446 1.842l11.687 16.691c1.619 25.277-3.173 48.21-13.646 65.897l-38.16-54.497c-1.149-1.641-1.59-3.631-1.242-5.604zm140.799 431.831h-33.988c-4.139 0-7.506-3.364-7.506-7.5v-23.916c18.109-6.777 34.941-19.598 49-37.15v61.066c-.001 4.136-3.368 7.5-7.506 7.5zm101.238-56.183c-4.809 3.429-9.77 6.303-14.852 8.606v-29.817c0-.001 14.171 20.238 14.852 21.211zm26.648 56.183h-34c-4.136 0-7.5-3.364-7.5-7.5v-23.844c8.12-3.008 15.977-7.202 23.47-12.533l6.16 8.798c4.372 6.244 11.364 9.587 18.463 9.587.302 0 .605-.021.907-.034v18.026c0 4.136-3.364 7.5-7.5 7.5zm38.693-61.328-27.831 19.487c-1.641 1.149-3.63 1.588-5.604 1.243-1.973-.348-3.692-1.443-4.841-3.084l-13.77-19.666c10.942-15.866 17.506-35.799 19.213-57.948l34.676 49.522c2.371 3.388 1.545 8.074-1.843 10.446z"/></g></g></svg>