<svg id="Capa_1" enable-background="new 0 0 512.001 512.001" height="512" viewBox="0 0 512.001 512.001" width="512" xmlns="http://www.w3.org/2000/svg"><g><g><path d="m12.957 499.081c-6.074-6.074-5.436-14.479.638-20.553l241.021-238.391c6.074-6.074 11.254-6.074 17.327 0 6.074 6.074 6.074 15.922 0 21.996l-237.892 237.893c-1.405 1.405-3.013 2.486-4.729 3.241-5.7 2.508-11.696.483-16.365-4.186z" fill="#f6d190"/><path d="m29.06 481.031c-6.08 6.07-6.08 15.92 0 21.99.09.09.17.17.26.24-5.7 2.51-12.6 1.43-17.26-3.24-6.08-6.07-6.08-15.92 0-21.99l237.89-237.89c5.98-5.99 15.64-6.08 21.73-.24-1.72.75-3.33 1.83-4.73 3.24z" fill="#ecbd83"/><path d="m486.891 141.651c-5.372-16.032-5.308-34.465-14.214-47.927-9.215-13.929-26.326-21.002-38.564-31.801-12.414-10.954-21.6-27.006-36.322-34.339s-33.068-4.993-49.29-8.302c-2.384-.486-4.768-1.109-7.153-1.813-13.612-4.019-26.93-8.546-41.114-7.664-16.11 1.002-30.776 11.99-46.809 17.362-16.032 5.372-34.465 5.308-47.927 14.214-13.929 9.215-19.572 25.973-30.37 38.211-10.954 12.414-26.199 20.682-33.532 35.404s-5.712 31.608-9.021 47.83c-3.262 15.991-11.93 32.182-10.894 48.851 1.002 16.11 11.82 30.776 17.191 46.809 5.372 16.032 5.051 33.006 13.957 46.468 8.161 12.336 20.507 21.279 32.185 30.21 1.509 1.154 2.972 2.34 4.373 3.576 12.414 10.954 21.6 27.006 36.322 34.339s33.068 4.993 49.29 8.302c15.991 3.262 31.945 12.658 48.614 11.621 16.11-1.002 30.785-12.158 46.817-17.529 16.032-5.372 34.465-5.308 47.927-14.214 13.929-9.215 21.002-26.326 31.801-38.564 10.954-12.414 27.006-21.6 34.339-36.322s4.993-33.068 8.302-49.29c3.262-15.991 12.658-31.945 11.621-48.614-1.001-16.112-12.157-30.786-17.529-46.818z" fill="#bde4ff"/><path d="m144.4 215.971c0 45.63 16.08 87.66 43.11 121.18-12.06-9.94-27.93-16.98-36.69-30.21-8.9-13.46-8.84-31.9-14.21-47.93s-16.53-30.71-17.53-46.82c-1.04-16.67 8.36-32.62 11.62-48.61 3.31-16.22.97-34.57 8.3-49.29 7.34-14.72 23.39-23.91 34.34-36.32 10.8-12.24 17.87-29.35 31.8-38.57 13.46-8.9 31.9-8.84 47.93-14.21s30.71-16.53 46.82-17.53c14.45-.9 28.36 6.04 42.22 10.03-110.04 4.8-197.71 91.73-197.71 198.28z" fill="#99dbff"/><path d="m444.797 155.755c-4.08-12.179-4.032-26.182-10.798-36.408-7-10.581-19.999-15.954-29.295-24.157-1.267-1.118-2.489-2.305-3.683-3.537-7.697-7.94-15.918-15.229-25.6-20.051-11.184-5.57-25.121-3.793-37.443-6.307-12.148-2.478-21.873-10.434-34.536-9.646-12.238.761-23.386 9.236-35.565 13.316s-26.182 4.032-36.408 10.798c-10.581 7-14.562 18.601-22.765 27.897-8.321 9.43-20.515 16.409-26.086 27.592-5.57 11.184-3.978 24.792-6.491 37.115-2.478 12.148-9.616 24.267-8.828 36.93.761 12.238 8.781 22.049 12.862 34.228 4.08 12.179 4.032 26.182 10.798 36.408 7 10.581 18.543 17.338 27.839 25.541 9.43 8.321 16.409 20.515 27.592 26.086 11.184 5.57 25.121 3.793 37.443 6.307 12.148 2.478 24.267 9.616 36.93 8.828 12.238-.761 23.386-9.236 35.565-13.316 12.179-4.081 26.182-4.032 36.408-10.798 10.581-7 15.954-19.999 24.157-29.295 8.321-9.43 20.515-16.409 26.086-27.592 5.57-11.184 3.793-25.121 6.307-37.443 2.478-12.148 9.616-24.267 8.828-36.93-.762-12.24-9.237-23.387-13.317-35.566z" fill="#f8f7f7"/><path d="m402.56 93.201c-19.86-10.33-42.43-16.16-66.37-16.16-79.6 0-144.13 64.53-144.13 144.13 0 32.07 10.48 61.7 28.2 85.64-.48-.46-.97-.9-1.46-1.34-9.3-8.2-22.3-13.57-29.3-24.16-6.76-10.22-6.72-24.22-10.8-36.4s-12.55-23.33-13.31-35.57c-.79-12.66 6.35-24.78 8.83-36.93 2.51-12.32.73-26.26 6.3-37.44s17.77-18.16 26.09-27.59c8.2-9.3 13.57-22.3 24.16-29.3 10.22-6.76 24.22-6.72 36.4-10.8s23.33-12.55 35.57-13.31c12.66-.79 24.78 6.35 36.93 8.83 12.32 2.51 26.26.73 37.44 6.3 10.32 5.14 17.06 15.93 25.45 24.1z" fill="#e8e8e8"/><path d="m401.545 170.246c-2.754-8.22-2.722-17.67-7.288-24.572-4.725-7.142-13.497-10.768-19.772-16.304-6.365-5.616-10.964-12.528-18.512-16.287s-16.954-2.56-25.271-4.257c-8.199-1.672-15.068-6.327-23.614-5.796-8.26.514-15.783 6.233-24.003 8.987s-17.146 1.465-24.048 6.032c-7.142 4.725-10.768 13.497-16.304 19.772-5.616 6.365-13.846 11.074-17.606 18.622-3.759 7.548-2.354 15.601-4.05 23.918-1.672 8.199-6.49 16.378-5.958 24.924.514 8.26 6.233 15.783 8.987 24.003s1.883 18.04 6.449 24.942c4.084 6.173 9.88 10.478 15.785 14.902.927.694 1.824 1.41 2.675 2.161 6.365 5.616 11.074 13.846 18.622 17.606 7.548 3.759 16.954 2.56 25.271 4.257 8.199 1.672 16.378 6.49 24.924 5.958 8.26-.514 15.783-6.233 24.003-8.987s17.67-2.722 24.572-7.288c7.142-4.725 10.768-13.497 16.304-19.772 5.616-6.365 13.846-11.074 17.606-18.622 3.759-7.548 2.56-16.954 4.257-25.271 1.672-8.199 6.49-16.378 5.958-24.924-.514-8.261-6.233-15.784-8.987-24.004z" fill="#bde4ff"/><path d="m375.42 130.161c-12.36-5.45-26.03-8.47-40.4-8.47-55.44 0-100.38 44.94-100.38 100.38 0 17.01 4.23 33.02 11.7 47.06-5.91-4.42-13.01-7.97-17.1-14.14-4.56-6.9-4.53-16.35-7.28-24.57-2.76-8.22-8.48-15.75-8.99-24.01-.53-8.54 4.28-16.72 5.96-24.92 1.69-8.32.49-17.73 4.25-25.27 3.76-7.55 11.99-12.26 17.61-18.63 5.53-6.27 9.16-15.04 16.3-19.77 6.9-4.56 16.35-4.53 24.57-7.28 8.22-2.76 15.75-8.48 24.01-8.99 8.54-.53 16.72 4.28 24.92 5.96 8.32 1.69 17.73.49 25.27 4.25 7.55 3.76 12.26 11.99 18.63 17.61.3.27.61.53.93.79z" fill="#99dbff"/><circle cx="311.75" cy="200.331" fill="#f8f7f7" r="41.392"/></g><g><path d="m511.906 188.003c-.721-11.583-5.782-22.026-10.678-32.124-5.297-10.274-9.315-21.086-11.466-34.221-2.177-11.009-4.427-22.393-10.831-32.072-6.674-10.088-16.442-16.665-25.889-23.024-9.552-6.087-17.896-13.025-26.139-23.078-7.448-8.516-15.149-17.322-25.77-22.612s-22.29-6.131-33.574-6.945c-11.254-.547-22.045-2.32-34.165-6.958-10.769-3.708-21.902-7.546-33.975-6.792-11.518.649-24 6.641-34.674 11.91-3.732 1.796-5.302 6.278-3.505 10.01 1.797 3.733 6.279 5.303 10.011 3.505 8.393-4.149 19.993-9.83 29.1-10.455 9.08-.56 18.351 2.625 28.158 6.003 10.855 4.131 24.5 7.278 37.971 7.737 10.284.742 19.998 1.442 27.966 5.411 7.968 3.968 14.379 11.299 21.166 19.06 7.458 9.1 17.763 18.671 29.053 25.646 8.604 5.793 16.732 11.265 21.756 18.858 4.772 7.213 6.645 16.682 8.626 26.706 1.945 11.883 6.302 25.885 12.684 37.854 4.457 9.195 8.667 17.88 9.204 26.512.564 9.086-2.626 18.35-6.004 28.158-4.132 10.857-7.277 24.501-7.737 37.974-.741 10.283-1.442 19.996-5.411 27.963-3.968 7.968-11.299 14.379-19.06 21.167-9.101 7.457-18.671 17.762-25.646 29.052-5.793 8.605-11.265 16.733-18.858 21.756-7.213 4.772-16.682 6.645-26.706 8.626-11.881 1.944-25.883 6.302-37.851 12.682-9.196 4.458-17.882 8.667-26.515 9.205-9.076.562-18.351-2.625-28.158-6.003-10.855-4.131-24.5-7.278-37.971-7.737-10.284-.742-19.998-1.442-27.965-5.411-7.968-3.968-14.379-11.299-21.167-19.06-4.226-4.833-8.596-9.83-13.538-14.189-4.838-4.269-10.265-7.922-15.514-11.456-8.605-5.793-16.733-11.266-21.757-18.858-4.772-7.214-6.645-16.683-8.626-26.707-1.944-11.881-6.302-25.883-12.682-37.852-4.458-9.195-8.667-17.88-9.205-26.514-.565-9.086 2.625-18.351 6.004-28.159 4.131-10.856 7.277-24.499 7.737-37.97.742-10.284 1.442-19.998 5.411-27.965 3.968-7.968 11.299-14.379 19.06-21.167 9.1-7.457 18.671-17.762 25.646-29.052 5.793-8.605 11.266-16.733 18.858-21.757 7.215-4.773 16.686-6.645 26.712-8.627l.264-.052c4.063-.803 6.707-4.749 5.903-8.812-.803-4.063-4.749-6.706-8.812-5.903l-.264.052c-11.011 2.177-22.397 4.428-32.079 10.833-10.088 6.674-16.665 16.443-23.025 25.89-6.087 9.551-13.024 17.896-23.078 26.137-8.516 7.448-17.322 15.15-22.612 25.77s-6.131 22.289-6.945 33.574c-.547 11.254-2.32 22.044-6.958 34.165-3.708 10.768-7.543 21.902-6.792 33.975.72 11.584 5.782 22.027 10.678 32.125 5.296 10.273 9.315 21.084 11.464 34.218 2.177 11.009 4.428 22.394 10.832 32.074 3.203 4.842 7.123 8.87 11.375 12.459l-72.159 72.159c-2.929 2.929-2.929 7.678 0 10.606 1.464 1.464 3.384 2.197 5.303 2.197s3.839-.732 5.303-2.197l73.758-73.758c.771.522 1.541 1.042 2.31 1.559 3.919 2.639 7.666 5.166 11.062 7.848l-152.772 152.77c-2.399 2.29-7.333 3.651-11.389 0-1.521-1.521-2.359-3.543-2.359-5.694s.838-4.173 2.359-5.695l52.287-52.287c2.929-2.929 2.929-7.678 0-10.606-2.929-2.929-7.678-2.929-10.606 0l-52.288 52.287c-4.354 4.354-6.752 10.143-6.752 16.301s2.398 11.947 6.752 16.301c7.881 8.155 23.435 9.403 32.603 0l152.975-152.976c1.411 1.565 2.824 3.178 4.266 4.827 7.448 8.516 15.15 17.322 25.77 22.612s22.289 6.131 33.573 6.945c11.255.547 22.045 2.32 34.166 6.958 10.173 3.424 21.698 7.529 33.975 6.792 11.584-.72 22.026-5.782 32.125-10.678 10.275-5.297 21.084-9.314 34.219-11.464 11.009-2.177 22.394-4.428 32.072-10.832 10.089-6.674 16.666-16.443 23.025-25.89 6.087-9.551 13.024-17.896 23.077-26.138 8.517-7.448 17.323-15.15 22.612-25.771 5.29-10.62 6.132-22.288 6.945-33.572.547-11.255 2.321-22.047 6.959-34.168 3.708-10.765 7.543-21.899 6.792-33.971z"/><path d="m297.243 349.79c6.306 2.076 15.253 4.965 23.984 4.39 9.154-.569 17.249-4.493 25.077-8.288 7.556-3.864 15.469-6.915 25.558-8.563 8.535-1.688 17.36-3.433 25.01-8.494 7.965-5.269 13.062-12.841 17.993-20.165 4.494-7 9.501-13.179 17.223-19.505 6.601-5.773 13.426-11.743 17.603-20.129 4.178-8.387 4.83-17.433 5.461-26.18.429-8.254 1.631-16.198 5.191-25.493 2.875-8.347 5.849-16.979 5.255-26.509-.568-9.154-4.493-17.249-8.287-25.078-3.866-7.557-6.916-15.47-8.564-25.561-1.688-8.534-3.433-17.358-8.492-25.007-5.269-7.964-12.841-13.062-20.164-17.992-7.001-4.493-13.18-9.501-19.506-17.223-5.773-6.601-11.742-13.427-20.129-17.604s-17.431-4.829-26.178-5.46c-8.255-.429-16.201-1.632-25.498-5.192-8.346-2.875-16.974-5.851-26.507-5.254-9.154.569-17.249 4.493-25.077 8.288-7.556 3.865-15.469 6.915-25.558 8.563-8.535 1.687-17.36 3.433-25.01 8.494-7.964 5.269-13.062 12.841-17.992 20.164-4.494 7-9.501 13.179-17.222 19.505-6.602 5.773-13.428 11.743-17.605 20.13-4.177 8.386-4.829 17.431-5.46 26.177-.429 8.254-1.631 16.202-5.192 25.498-2.875 8.347-5.847 16.977-5.254 26.508.569 9.154 4.493 17.249 8.289 25.077 3.865 7.557 6.915 15.468 8.562 25.557 1.688 8.535 3.433 17.361 8.494 25.011 5.269 7.964 12.841 13.062 20.164 17.992 7 4.494 13.179 9.501 19.505 17.222 5.773 6.602 11.743 13.428 20.13 17.605 7.027 3.5 14.686 4.537 21.916 5.137 4.123.346 7.752-2.726 8.095-6.854.342-4.128-2.727-7.752-6.854-8.094-6.633-.55-11.972-1.375-16.468-3.615-5.734-2.856-10.491-8.295-15.526-14.053-5.501-6.655-13.405-14.234-22.419-19.79-6.384-4.298-12.414-8.357-16.031-13.825-3.429-5.184-4.818-12.208-6.288-19.644-1.465-8.719-4.676-19.635-9.78-29.191-3.307-6.82-6.429-13.263-6.815-19.465-.407-6.544 1.96-13.416 4.466-20.692 3.07-8.13 5.616-18.702 5.972-29.303.55-7.629 1.07-14.835 3.925-20.569 2.856-5.734 8.295-10.491 14.053-15.526 6.655-5.501 14.234-13.405 19.79-22.419 4.298-6.384 8.357-12.414 13.825-16.031 5.184-3.429 12.208-4.818 19.644-6.288 8.719-1.465 19.636-4.677 29.191-9.78 6.82-3.307 13.263-6.429 19.466-6.815 6.537-.405 13.414 1.96 20.69 4.466 8.13 3.069 18.702 5.616 29.304 5.972 7.63.55 14.836 1.07 20.569 3.925 5.733 2.856 10.489 8.294 15.524 14.052 5.501 6.655 13.406 14.234 22.421 19.792 6.384 4.297 12.413 8.357 16.031 13.824 3.428 5.183 4.816 12.206 6.287 19.641 1.465 8.72 4.678 19.637 9.781 29.194 3.306 6.82 6.429 13.262 6.814 19.465.407 6.544-1.96 13.417-4.466 20.693-3.069 8.128-5.616 18.7-5.971 29.299-.55 7.63-1.07 14.837-3.926 20.572-2.856 5.734-8.295 10.49-14.052 15.525-6.656 5.501-14.234 13.405-19.79 22.419-4.298 6.384-8.357 12.414-13.826 16.032-5.185 3.429-12.208 4.818-19.644 6.288-8.719 1.465-19.636 4.677-29.191 9.78-6.82 3.307-13.263 6.429-19.466 6.815-5.884.367-12.239-1.588-18.23-3.622-3.919-1.333-8.181.768-9.513 4.69s.765 8.179 4.688 9.511z"/><path d="m369.523 134.993c2.659 2.347 5.543 4.288 8.331 6.166 4.101 2.761 7.975 5.369 10.146 8.652.793 1.199 1.465 2.684 2.054 4.539 1.253 3.949 5.472 6.133 9.417 4.88 3.948-1.253 6.133-5.469 4.88-9.417-1.015-3.196-2.27-5.903-3.84-8.277-3.824-5.78-9.379-9.52-14.28-12.82-4.122-2.725-7.948-5.478-12.692-11.208-3.863-4.417-8.241-9.423-14.332-12.458-6.092-3.034-12.727-3.512-18.58-3.935-4.873-.319-9.664-.768-16.589-3.377-5.586-1.924-11.905-4.106-18.836-3.674-6.658.414-12.341 3.169-17.838 5.833-4.514 2.233-9.125 4.308-16.659 5.582-5.992 1.185-12.188 2.41-17.75 6.09-5.781 3.824-9.521 9.379-12.821 14.281-2.724 4.122-5.477 7.947-11.207 12.691-4.417 3.863-9.424 8.242-12.458 14.333s-3.512 12.726-3.935 18.58c-.319 4.874-.768 9.664-3.377 16.589-1.924 5.586-4.105 11.918-3.674 18.835.414 6.658 3.169 12.342 5.833 17.838 2.233 4.514 4.308 9.125 5.582 16.659 1.185 5.992 2.41 12.188 6.091 17.751 3.824 5.78 9.379 9.52 14.28 12.82 4.122 2.724 7.948 5.477 12.692 11.207 3.863 4.417 8.242 9.424 14.333 12.458 6.092 3.034 12.727 3.512 18.58 3.935 4.873.319 9.664.768 16.589 3.377 4.178 1.405 11.763 4.075 18.836 3.674 6.658-.414 12.341-3.169 17.838-5.833 4.514-2.233 9.125-4.308 16.659-5.582 5.992-1.185 12.188-2.41 17.75-6.091 5.781-3.824 9.521-9.379 12.821-14.281 2.725-4.121 5.476-7.946 11.206-12.69 4.417-3.864 9.424-8.243 12.459-14.334 3.032-6.09 3.512-12.724 3.934-18.576.32-4.874.769-9.667 3.379-16.594 1.924-5.586 4.104-11.917 3.674-18.836-.221-3.535-1.122-7.126-2.836-11.304-1.573-3.832-5.955-5.664-9.786-4.091-3.832 1.572-5.663 5.954-4.091 9.786 1.073 2.615 1.627 4.694 1.742 6.542.244 3.931-1.276 8.345-2.886 13.019-2.007 5.404-3.903 12.762-4.157 20.398-.354 4.901-.688 9.531-2.399 12.968-1.713 3.439-5.208 6.496-8.907 9.731-4.387 3.665-9.777 9.118-13.773 15.604-2.762 4.101-5.369 7.975-8.655 10.148-3.097 2.049-7.607 2.941-12.384 3.885-5.768 1.001-13.417 3.125-20.292 6.799-4.381 2.124-8.52 4.13-12.227 4.36-3.943.248-8.347-1.276-13.02-2.886-5.402-2.006-12.761-3.903-20.395-4.156-4.902-.354-9.533-.687-12.972-2.4-3.438-1.712-6.494-5.207-9.729-8.906-3.665-4.388-9.12-9.779-15.605-13.775-4.101-2.761-7.974-5.369-10.147-8.653-2.049-3.098-2.941-7.608-3.885-12.384-1.001-5.77-3.125-13.417-6.799-20.293-2.124-4.381-4.13-8.519-4.36-12.226-.245-3.931 1.276-8.346 2.886-13.02 2.006-5.402 3.903-12.761 4.157-20.395.354-4.902.688-9.533 2.4-12.971 1.713-3.439 5.207-6.495 8.907-9.73 4.387-3.666 9.778-9.12 13.774-15.605 2.761-4.101 5.368-7.974 8.654-10.147 3.097-2.049 7.607-2.941 12.384-3.885 5.768-1.001 13.417-3.125 20.292-6.799 4.381-2.124 8.52-4.13 12.227-4.36 3.945-.248 8.346 1.276 13.02 2.886 5.402 2.006 12.761 3.903 20.395 4.156 4.902.354 9.533.687 12.972 2.4 3.438 1.712 6.493 5.207 9.729 8.905 2.239 2.567 4.559 5.22 7.27 7.612z"/><path d="m311.75 151.44c-26.959 0-48.892 21.933-48.892 48.892s21.933 48.892 48.892 48.892 48.892-21.933 48.892-48.892-21.933-48.892-48.892-48.892zm0 82.783c-18.688 0-33.892-15.204-33.892-33.892s15.204-33.892 33.892-33.892 33.892 15.204 33.892 33.892-15.204 33.892-33.892 33.892z"/></g></g></svg>