<svg id="Capa_1" enable-background="new 0 0 511.498 511.498" height="512" viewBox="0 0 511.498 511.498" width="512" xmlns="http://www.w3.org/2000/svg"><g><g><path d="m89.771 92.53c-90.362 90.362-86.538 228.363 3.829 318.73 69.884 69.884 167.408 86.235 252.511 48.036 21.769-9.771 44.035-19.447 62.532-36.291 2.698-2.457 5.352-4.989 7.959-7.596 90.362-90.362 90.357-236.872-.01-327.239-77.658-77.657-196.776-88.583-286.093-32.775-14.618 9.134-28.019 24.426-40.728 37.135zm233.106 228.681c-36.545 36.545-101.325 38.249-137.872 1.702s-40.06-102.349-3.515-138.894 103.819-39.078 140.366-2.531 37.566 103.178 1.021 139.723z" fill="#ff8086"/><path d="m333.289 171.468c-21.45-21.45-49.98-33.26-80.32-33.26s-58.86 11.81-80.31 33.26c-44.28 44.28-44.28 116.34.01 160.63 21.45 21.45 49.97 33.27 80.31 33.27s58.86-11.82 80.31-33.27c44.29-44.28 44.29-116.34 0-160.63zm-14.14 146.49c-36.54 36.55-95.8 36.54-132.34 0-23.512-23.512-31.9-56.419-25.164-86.633 1.348-6.047 1.225-13.997 3.784-19.731 4.532-10.153 11.755-20.593 20.085-28.925 10.09-10.088 22.852-16.363 35.809-20.054 4.319-1.23 8.464-1.617 12.8-2.504 29.769-6.091 61.93 2.411 85.026 25.507 36.54 36.54 36.55 95.8 0 132.34z" fill="#e5646e"/><path d="m410.809 420.998c-90.72 84.73-232.99 82.86-321.45-5.6-90.36-90.37-90.37-236.88-.01-327.24 14.05-14.05 29.45-25.91 45.79-35.59-1.95 1.82-3.88 3.68-5.79 5.59-90.36 90.36-90.35 236.87.01 327.24 76.32 76.32 192.69 88.19 281.45 35.6z" fill="#e5646e"/><g fill="#bde4ff"><path d="m182.585 348.678c-22.24 22.24-40.011 28.932-55.697 34.196-.864.29-2.904.095-3.756.379-13.849 4.612-24.553 7.494-40.692 22.374-3.108 2.865-7.263 4.316-11.478 4.009-4.216-.307-7.042-1.31-9.702-4.596 0 0 .038.049 0 0-5.266-6.563-4.524-15.208 2.036-20.526.307-.249.622-.483.942-.705 16.238-14.576 29.088-21.551 41.491-26.039 3.056-1.106 6.024-2.095 8.918-3.058 14.998-4.994 27.951-9.308 46.307-27.663 1.292-1.292 2.529-2.572 3.712-3.842 4.078-4.378 8.588-7.435 11.529-11.74 4.77-6.971 13.069-7.704 20.043-2.936 6.973 4.767 6.809 11.665 2.043 18.638-3.847 5.628-6.175 11.473-11.363 17.029-1.389 1.487-2.832 2.98-4.333 4.48z"/><path d="m349.867 181.396c-7.101 7.101-14.021 12.924-21.155 17.801-6.973 4.767-16.491 2.978-21.258-3.995-4.767-6.974-2.973-16.498 3.994-21.257 5.552-3.795 11.043-8.433 16.789-14.179 18.357-18.357 22.67-31.31 27.665-46.308 4.875-14.638 10.384-31.179 28.552-51.419.222-.321.457-.635.705-.942 5.321-6.566 14.928-7.576 21.493-2.279l.127.101c3.285 2.66 5.324 6.561 5.631 10.777s-1.144 8.371-4.009 11.478c-14.881 16.14-18.864 28.101-23.476 41.951-5.434 16.314-11.592 34.806-35.058 58.271z"/><path d="m334.388 18.491c-6.988-4.748-16.503-2.933-21.246 4.054-9.37 13.789-13.247 25.987-16.667 36.75-4.629 14.561-9.324 27.834-26.907 45.417-8.314 8.314-15.509 13.591-22.323 17.333-10.088 5.54-18.448 7.764-22.397 8.877-5.838 1.646-38.385 10.82-59.598 31.576-22.194 21.717-31.779 55.915-33.292 61.314-1.071 3.821-3.306 12.253-8.875 22.395-3.742 6.814-9.018 14.008-17.332 22.322-14.247 14.247-23.373 17.74-34.069 21.014-2.503.766-4.085 3.046-6.846 3.923-11.971 3.803-26.021 7.492-41.702 19.234-6.772 5.067-7.786 12.813-2.723 19.574s12.771 8.072 19.532 3.009c11.541-8.641 21.092-11.676 32.151-15.19 3.157-1.003 7.288-.924 10.456-1.931 12.935-4.111 26.479-9.649 44.833-28.003 5.712-5.712 10.357-11.133 14.192-16.301 11.504-15.506 13.394-29.672 17.219-41.706 3.982-12.529 8.411-30.161 26.553-48.303 8.635-8.001 16.561-13.673 21.946-16.511 5.224-2.753 9.95-4.617 12.56-5.582 5.948-2.2 12.14-1.142 14.265-1.682 12.198-3.099 22.5-8.326 26.974-10.734 9.139-4.919 19.08-11.971 30.107-22.998 22.849-22.85 29.328-41.734 34.428-57.78 3.193-10.045 5.95-18.719 12.817-28.825 4.746-6.987 2.931-16.499-4.056-21.246z"/><path d="m227.686 84.973c-20.611 20.611-37.705 24.975-52.787 28.827-4.308 1.1-8.378 2.14-12.383 3.537-6.882 2.402-16.385 5.342-27.328 16.285-10.888 10.888-13.819 20.324-16.219 27.148-1.43 4.063-2.483 8.191-3.599 12.561-3.851 15.081-8.216 32.175-28.826 52.785-8.515 8.515-16.431 14.258-23.852 18.336-10.541 5.793-20.53 6.565-29.38 8.825-1.971.503-3.941 1.005-5.924 1.551-8.144 2.242-14.267-1.048-16.511-9.191-2.242-8.144 1.622-15.118 9.766-17.362 2.167-.597 4.321-1.147 6.477-1.698 12.541-3.202 21.689-7.049 34.913-19.315.943-.875 1.903-1.799 2.88-2.776 14.677-14.679 17.387-25.29 20.817-38.725 1.231-4.822 2.504-9.808 4.383-15.145 4.887-13.891 11.66-26.841 23.444-38.625 12.008-12.008 24.685-18.581 38.877-23.535 5.246-1.831 10.151-3.084 14.895-4.295 13.436-3.431 24.048-6.141 38.727-20.819 14.678-14.678 17.388-25.291 20.82-38.726.496-1.941.992-3.881 1.521-5.831 2.217-8.152 10.62-12.963 18.77-10.748 8.152 2.216 12.964 10.62 10.749 18.771-.489 1.798-.946 3.588-1.402 5.377-3.852 15.083-8.218 32.178-28.828 52.788z"/><path d="m238.621 405.684c-14.604 14.604-27.27 22.673-38.679 28.031-7.247 3.403-14.658 4.237-21.066 6.432-12.584 4.313-24.534 8.469-38.426 19.915-6.519 5.371-13.011 3.711-18.383-2.809s-4.865-13.391 1.66-18.766c15.986-13.172 28.733-19.791 40.96-24.092 1.674-.589 3.321-1.153 4.941-1.708 15.289-5.239 28.492-9.764 47.361-28.634 7.522-7.522 12.753-14.103 16.671-20.314 5.095-8.077 8.96-14.951 11.769-23.039 2.769-7.977 10.402-12.048 18.383-9.277 7.979 2.771 11.537 10.083 8.766 18.063-1.601 4.612-2.584 10.013-4.762 14.925-5.439 12.274-13.613 25.691-29.195 41.273z"/><path d="m409.621 234.684c-16.938 16.938-31.432 25.138-43.882 30.345-5.091 2.129-8.84 2.758-13.274 4.278-7.99 2.74-16.689-1.516-19.429-9.506-2.741-7.99.511-14.688 8.505-17.429 7.622-2.614 15.016-6.15 23.151-10.859 7.01-4.059 14.57-9.732 23.298-18.46 18.87-18.87 23.393-32.072 28.631-47.36 4.304-12.564 9.182-26.803 22.083-43.466 5.172-6.678 14.777-7.902 21.457-2.73 6.679 5.171 7.902 14.777 2.732 21.457-9.794 12.651-13.288 22.848-17.333 34.655-5.652 16.496-12.058 35.194-35.939 59.075z"/></g><path d="m187.039 185.148c-6.88 6.88-11.71 13.64-15.26 20.06 4.02-7.01 9.03-13.61 15.02-19.6 1.43-1.43 2.9-2.81 4.4-4.12-1.36 1.13-2.75 2.35-4.16 3.66zm0 0c-6.88 6.88-11.71 13.64-15.26 20.06 4.02-7.01 9.03-13.61 15.02-19.6 1.43-1.43 2.9-2.81 4.4-4.12-1.36 1.13-2.75 2.35-4.16 3.66zm0 0c-6.88 6.88-11.71 13.64-15.26 20.06 4.02-7.01 9.03-13.61 15.02-19.6 1.43-1.43 2.9-2.81 4.4-4.12-1.36 1.13-2.75 2.35-4.16 3.66zm0 0c-6.88 6.88-11.71 13.64-15.26 20.06 4.02-7.01 9.03-13.61 15.02-19.6 1.43-1.43 2.9-2.81 4.4-4.12-1.36 1.13-2.75 2.35-4.16 3.66zm0 0c-6.88 6.88-11.71 13.64-15.26 20.06 4.02-7.01 9.03-13.61 15.02-19.6 1.43-1.43 2.9-2.81 4.4-4.12-1.36 1.13-2.75 2.35-4.16 3.66z" fill="#99dbff"/><path d="m200.389 327.518c-.26.38-.52.76-.79 1.14-3.66 5.23-7.84 10.36-12.68 15.54-5.03-3.6-9.79-7.64-14.25-12.1-2.85-2.85-5.52-5.82-8-8.89 4.07-4.38 7.52-8.65 10.47-12.95.75-1.09 1.6-2.05 2.55-2.88 5.12-4.49 12.82-5.15 18.7-1.12 6.98 4.77 8.77 14.29 4 21.26z" fill="#99dbff"/><path d="m345.379 185.738c-5.17 4.83-10.3 9.01-15.53 12.67-.38.27-.76.53-1.14.79-6.97 4.77-16.49 2.98-21.26-4-4.02-5.88-3.37-13.58 1.12-18.7.83-.95 1.79-1.81 2.88-2.55 4.31-2.95 8.58-6.4 12.96-10.48 3.08 2.49 6.04 5.16 8.88 8 4.49 4.49 8.52 9.27 12.09 14.27z" fill="#99dbff"/><path d="m275.129 140.358c-4.9 3.65-9.56 6.57-14.04 8.98-4.47 2.41-14.78 7.64-26.97 10.74-.27.07-.57.14-.91.23-.03.01-.06.01-.09.02-15.13 3.26-29.61 10.32-41.92 21.16-1.36 1.13-2.75 2.35-4.16 3.66-6.88 6.88-11.71 13.64-15.26 20.06-4.74 8.25-8.11 17.06-10.12 26.12-.19.6-.37 1.18-.55 1.75-3.82 12.03-8.03 25.25-19.51 40.74-7.06-35.91 3.3-74.59 31.06-102.35 21.45-21.45 49.97-33.26 80.31-33.26 7.53 0 14.94.73 22.16 2.15z" fill="#99dbff"/><path d="m273.339 350.158c-1.6 4.61-3.34 9.34-5.53 14.25-4.88.64-9.83.96-14.83.96-6.54 0-13-.55-19.32-1.63 4.1-6.5 6.76-12.59 9.1-18.93h.01c.57-1.54 1.12-3.1 1.67-4.69 2.77-7.97 11.49-12.2 19.47-9.43 5.59 1.94 9.34 6.8 10.12 12.28h.01c.33 2.34.13 4.8-.7 7.19z" fill="#99dbff"/><path d="m365.739 265.028c-5.09 2.13-9.84 3.76-14.27 5.28-2.29.79-4.65 1-6.9.71-5.6-.72-10.57-4.52-12.53-10.22-2.74-7.99 1.51-16.68 9.5-19.43 1.43-.49 2.85-.98 4.26-1.47 6.16-2.17 12.28-4.56 18.89-8.39 2 11.07 2.35 22.37 1.05 33.52z" fill="#99dbff"/><path d="m464.473 305.48c-23.021 23.021-41.292 28.905-57.412 34.096-4.642 1.494-9.027 2.907-13.433 4.694-8.158 3.308-18.306 8.497-31.723 21.913-13.706 13.706-18.964 24.219-22.3 32.696-1.607 4.083-2.917 8.151-4.304 12.459-3.871 12.02-8.127 25.237-19.587 40.727-3.908 5.282-8.654 8.829-14.508 14.683-23.019 23.019-41.29 28.902-57.41 34.093l-2.796.903c-8.032 2.613-14.662 1.22-17.276-6.812s1.779-16.663 9.811-19.276l2.885-.932c13.103-4.219 22.612-8.925 37.588-22.327 1.803-1.613 3.656-3.367 5.568-5.279 17.797-17.797 21.881-30.477 26.608-45.158 1.472-4.571 2.995-9.298 4.957-14.285 4.227-10.739 11.357-25.345 29.134-43.122 13.563-13.563 26.473-22.393 41.859-28.631 5.451-2.209 10.585-3.863 15.549-5.461 14.682-4.728 27.362-8.811 45.161-26.61 17.8-17.8 21.884-30.481 26.614-45.165 1.201-3.728 2.442-7.583 3.93-11.594 2.936-7.92 11.737-11.958 19.658-9.021s11.96 11.739 9.023 19.659c-1.256 3.386-2.343 6.762-3.494 10.336-5.195 16.119-11.08 34.392-34.102 57.414z" fill="#bde4ff"/><path d="m126.889 382.878c-.86.29-1.72.58-2.57.86-13.85 4.61-25.81 8.59-41.95 23.47-.15.14-.3.27-.45.4-3.05 2.6-7.02 3.91-11.03 3.61-4.22-.31-8.12-2.35-10.78-5.63-.03-.04-.09-.11-.13-.16-5.26-6.57-4.25-16.14 2.31-21.46.16-.13.31-.25.47-.36.15-.12.31-.23.47-.35 16.24-14.57 30.1-21 42.5-25.49 6.36 8.74 13.41 17.14 21.16 25.11z" fill="#99dbff"/><path d="m82.549 318.168c-3.17 1-6.3 1.93-9.46 2.93-11.06 3.51-20.61 6.54-32.15 15.19-.88.66-1.81 1.21-2.77 1.65-6.41 2.96-14.24 1.15-18.64-4.73-5.06-6.76-3.7-16.34 3.08-21.41 1.97-1.47 3.9-2.83 5.8-4.08v-.01c13.26-8.72 24.95-12.44 35.42-15.77 2.76-.88 5.35-1.63 7.85-2.4 2.97 9.73 6.59 19.29 10.87 28.63z" fill="#99dbff"/><path d="m62.689 244.448c-10.54 5.8-20.08 8.23-28.93 10.49-1.97.51-3.94 1.01-5.93 1.55-2.08.58-4.18.69-6.19.41-5.85-.83-10.94-5.03-12.61-11.09-2.24-8.15 2.54-16.56 10.68-18.81 1.1-.3 2.2-.59 3.29-.87 1.07-.28 2.13-.55 3.19-.83 12.54-3.2 22.62-5.77 35.84-18.04-.77 12.38-.55 24.83.66 37.19z" fill="#99dbff"/><path d="m199.939 433.708c-7.25 3.41-13.99 5.72-20.39 7.92-11.15 3.82-20.94 7.17-32.69 15.84-1.51 1.12-3.06 2.33-4.65 3.64-6.52 5.37-16.16 4.44-21.53-2.08-4.36-5.29-4.58-12.63-1.02-18.08.83-1.27 1.86-2.44 3.09-3.45 15.99-13.18 29.71-18.8 41.94-23.1 11.28 7.54 23.08 13.98 35.25 19.31z" fill="#99dbff"/><path d="m315.719 452.068c-3.91 5.28-8.66 10.83-14.51 16.68-4.55 4.55-8.91 8.42-13.1 11.76-.01 0-.01 0-.01 0-17.05 13.56-31.37 18.17-44.3 22.33l-2.8.91c-8.03 2.61-16.66-1.78-19.28-9.82-1.43-4.41-.76-9 1.48-12.67 1.83-3.02 4.71-5.42 8.33-6.6l2.89-.94c13.1-4.21 24.61-7.92 39.59-21.32 13.88 1.14 27.85 1.03 41.71-.33z" fill="#99dbff"/></g><path d="m495.651 211.037c-2.449-.907-4.986-1.356-7.522-1.403-3.882-21.781-10.724-42.799-20.405-62.628 7.939-8.711 8.07-25.208-2.971-33.439-5.826-4.51-13.161-5.724-19.788-3.975-7.647-10.245-16.705-20.712-26.68-30.255 3.41-7.809 1.312-19.835-6.834-26.286-7.26-6.144-19.407-6.626-27.408-1.031-11.269-7.407-23.175-13.862-35.529-19.25.861-5.979-3.181-16.358-9.91-20.482-9.366-6.622-25.168-4.641-32.079 6.671-14.015-3.209-28.343-5.155-42.731-5.805-2.744-5.859-7.941-10.526-14.658-12.352-11.49-3.122-23.347 3.161-27.372 14.141-32.332 4.222-62.877 14.77-90.85 31.418-3.56 2.118-4.728 6.721-2.609 10.28 1.403 2.357 3.895 3.666 6.452 3.666 1.305 0 2.627-.34 3.829-1.056 24.401-14.522 50.896-24.091 78.891-28.536-2.685 9.078-6.384 16.988-16.723 27.326-13.224 13.224-22.474 15.586-35.278 18.855-4.896 1.25-9.958 2.542-15.512 4.481-17.419 6.08-30.282 13.886-41.709 25.312-11.194 11.194-19.207 24.362-25.216 41.439-1.992 5.662-3.305 10.806-4.573 15.779-3.27 12.802-5.632 22.052-18.855 35.276-10.466 10.466-18.444 14.127-27.663 16.819 7.449-46.635 28.987-88.815 62.709-122.538 5.074-5.074 10.433-9.947 15.926-14.484 3.193-2.638 3.644-7.365 1.006-10.559-2.637-3.192-7.363-3.644-10.559-1.006-5.858 4.839-11.57 10.034-16.979 15.442-37.58 37.58-60.987 85.003-67.89 137.411-11.161 3.948-17.555 15.945-14.365 27.53 1.863 6.763 6.609 11.964 12.542 14.671.631 14.131 2.513 28.209 5.614 41.988-10.209 6.067-15.025 22.282-6.424 33.247 4.461 5.765 12.269 9.778 20.183 9.039 5.44 12.564 11.979 24.664 19.502 36.109-5.318 7.382-5.432 19.541 1.069 27.453 6.033 6.927 15.839 10.813 26.24 6.779 7.912 8.362 19.775 18.936 29.927 26.436-1.77 5.646-.258 14.735 4.439 20.275 7.27 9.039 22.752 11.576 32.833 2.5 20.809 10.218 42.893 17.294 65.812 21.107-.233 2.951.116 5.949 1.059 8.849 4.285 12.601 17.985 18.187 31.508 13.726 12.567-4.047 27.535-8.867 45.065-22.364 49.775-8.009 94.951-31.11 130.742-66.901 36.521-36.52 59.781-82.689 67.344-133.594 9.132-14.004 13.072-26.231 16.471-36.784 1.122-3.484 2.182-6.775 3.378-10 4.369-11.784-1.664-24.927-13.449-29.297zm-63.142-93.05c-14.178 18.665-18.781 33.039-24.064 48.417-1.357 3.914.716 8.186 4.629 9.543 3.915 1.356 8.188-.717 9.543-4.63 4.606-13.412 9.11-27.812 22.017-44.499 2.631-3.397 7.537-4.023 10.936-1.392 2.492 2.022 4.401 6.594 1.393 10.935-10.559 13.639-14.415 24.897-18.499 36.819-5.65 16.494-11.494 33.548-34.146 56.199-22.635 22.635-39.979 28.583-55.284 33.833-4.066 1.393-8.509-.779-9.903-4.845-.971-3.061-.057-7.927 4.846-9.901 14.372-4.929 29.234-10.026 49.318-30.11 4.688-4.689 8.653-9.156 12.119-13.656 2.528-3.281 1.917-7.991-1.364-10.519-3.284-2.528-7.992-1.917-10.519 1.365-3.068 3.984-6.615 7.975-10.844 12.203-12.218 12.218-21.744 17.948-31.077 21.904-2.322-10.344-6.277-20.301-11.667-29.401 5.087-3.974 10.119-8.445 15.227-13.553h.001c24.72-24.719 31.456-44.95 36.869-61.206 3.968-11.914 7.205-21.63 17.274-33.95.659.643 1.325 1.281 1.974 1.93 7.658 7.658 14.772 15.888 21.221 24.514zm-153.795 215.955c-2.727-4.843-7.052-8.496-12.349-10.336-5.752-1.998-11.937-1.634-17.417 1.02-5.108 2.475-9.009 6.679-11.135 11.895-10.015-1.79-19.666-5.357-28.41-10.488 3.097-9.397-.211-20.107-8.779-25.964-6.27-4.286-13.943-5-20.601-2.605-20.954-33.478-16.229-78.239 12.083-106.55 28.332-28.332 73.07-33.044 106.555-12.08-2.27 5.466-1.582 14.662 2.601 20.601 4.41 6.451 11.571 9.923 18.853 9.923 2.387 0 4.785-.387 7.106-1.152 4.845 8.257 8.301 17.336 10.177 26.753-10.092 4.173-16.261 16.562-12.456 28.275 1.927 5.618 5.852 9.986 10.702 12.616-4.022 13.864-11.48 26.489-21.795 36.805-9.883 9.882-21.93 17.159-35.135 21.287zm-214.362 38.503c-6.457-10.075-12.115-20.667-16.868-31.643 9.612-6.755 17.752-9.344 27.88-12.561 18.215-5.686 33.549-9.216 57.319-32.779 9.237-9.237 15.862-17.857 20.814-25.882 2.371 13.284 7.375 26.011 14.788 37.377-3.41 4.852-7.546 9.699-12.635 14.787-17.102 17.102-28.695 20.963-43.376 25.852-13.818 4.603-29.299 9.759-47.922 24.849zm268.424-301.619c2.824-8.885 5.124-16.092 10.109-24.149 10.657 4.671 20.951 10.2 30.754 16.482-15.091 18.624-20.25 34.109-24.853 47.929-4.887 14.676-8.747 26.269-25.853 43.375-5.086 5.086-9.933 9.223-14.783 12.632-11.333-7.392-24.016-12.391-37.258-14.771 8.745-5.434 17.176-12.245 25.609-20.678 24.839-24.84 31.447-45.631 36.275-60.82zm64.269-7.89c1.042.073 2.024.084 5.014 1.811 2.543 2.162 4.333 7.07.828 11.342-15.974 17.326-20.396 30.605-25.079 44.666-5.422 16.285-11.029 33.125-33.243 55.338-6.771 6.771-13.341 12.303-20.085 16.913-3.551 2.426-8.409 1.511-10.834-2.036-1.748-2.687-2.161-7.631 2.034-10.834 5.94-4.061 11.782-8.989 17.86-15.067 19.61-19.611 24.403-34.004 29.478-49.243 4.862-14.601 9.891-29.699 27.018-48.778 1.5-2.04 2.947-3.573 7.009-4.112zm-367.63 200.885c13.201-3.494 27.627-6.294 43.968-17.089 3.449-2.293 4.387-6.949 2.094-10.398-2.295-3.45-6.95-4.387-10.398-2.093-14.178 9.208-25.066 11.261-39.235 15.021-4.153 1.141-8.444-1.304-9.585-5.446-1.142-4.144 1.302-8.443 5.444-9.584 16.373-4.364 30.652-6.427 48.514-24.443 16.132-16.133 19.214-28.2 22.782-42.173 1.188-4.658 2.417-9.475 4.189-14.51 5.308-15.086 11.992-26.131 21.672-35.812 9.881-9.88 20.661-16.387 36.046-21.756 4.946-1.726 9.69-2.938 14.28-4.11 13.973-3.568 26.04-6.649 42.174-22.782 16.131-16.131 19.213-28.198 22.783-42.175.485-1.904.972-3.808 1.49-5.717 1.128-4.148 5.419-6.605 9.566-5.478s6.605 5.419 5.478 9.568c-.491 1.812-.953 3.616-1.431 5.488-3.79 14.839-7.708 30.184-26.864 49.339-19.155 19.156-34.5 23.074-49.362 26.869-3.41.875-8.9 2.274-13.951 4.056-6.984 2.42-17.539 6.078-29.185 17.724-11.567 11.568-15.222 22.034-17.64 28.959-1.314 3.639-2.733 8.561-4.142 14.198-3.181 12.455-6.469 25.334-18.923 40.591-2.619 3.209-2.141 7.934 1.068 10.553 3.211 2.62 7.935 2.141 10.553-1.067 14.547-17.822 18.419-32.986 21.836-46.366.784-3.043 2.069-8.142 3.769-12.963 2.202-6.306 4.942-14.154 14.086-23.298 9.207-9.208 17.126-11.952 23.489-14.157 3.151-1.123 7.078-2.263 12.773-3.701 15.224-3.887 34.17-8.725 56.235-30.791 22.064-22.064 26.902-41.01 30.808-56.301.271-1.1.554-2.1 1.487-5.737 11.213.615 22.374 2.083 33.353 4.358-4.36 8.881-6.946 16.984-9.311 24.426-4.877 15.341-9.257 26.58-25.063 42.386-10.081 11.347-29.294 21.771-41.452 24.295-15.023 4.235-43.16 14.211-62.807 33.434-21.33 20.871-31.77 52.166-35.268 64.65-2.429 11.556-12.022 30.22-24.29 41.438-16.003 15.768-23.589 16.786-38.891 21.567-8.502 2.701-17.777 5.655-28.072 11.17-2.118-10.591-3.488-21.345-4.067-32.143zm-3.881 64.892c-1.865-2.617-2.497-7.526 1.566-10.913 14.668-10.983 27.036-14.912 38.997-18.712 15.118-4.705 26.409-6.747 44.956-25.257 13.296-11.739 25.5-34.929 28.126-47.997 3.173-11.324 12.575-39.641 31.314-57.977 12.611-12.339 33.163-23.171 56.388-29.718 13.048-2.684 35.544-14.339 47.988-28.125 18.13-18.129 23.55-32.086 28.752-48.451 3.266-10.274 6.967-21.919 15.725-34.807 1.865-2.613 6.304-4.795 10.825-2.063 2.612 1.864 4.802 6.31 2.067 10.828-7.479 11.006-10.529 20.601-13.762 30.769-4.601 14.476-10.327 32.491-32.584 54.748-17.058 16.542-30.285 25.004-54.297 31.959-18.868 4.081-36.293 13.505-50.098 27.309-13.549 13.549-22.87 30.593-27.069 49.063-5.269 16.498-10.286 33.338-32.354 55.486-21.331 20.986-33.366 23.448-51.255 29.09-11.22 3.564-21.817 6.932-34.376 16.334-3.438 2.577-8.333 1.873-10.909-1.566zm45.899 75.024c-2.141-.156-4.143-1.203-5.516-2.896-2.506-2.8-2.251-9.254 2.323-11.998 19.077-17.125 34.174-22.152 48.777-27.016 15.238-5.075 29.633-9.868 49.239-29.476 6.08-6.079 11.009-11.923 15.067-17.861 1.511-2.207 3.961-3.395 6.451-3.395 1.515 0 3.044.439 4.385 1.356 3.549 2.426 4.463 7.286 2.038 10.834-4.612 6.747-10.146 13.318-16.917 20.089-22.211 22.211-39.051 27.819-55.336 33.243-14.061 4.682-27.34 9.104-44.664 25.076-1.576 1.455-3.704 2.201-5.847 2.044zm21.303 4.385c12.318-10.068 22.035-13.305 33.95-17.272 16.255-5.414 36.485-12.151 61.203-36.868 5.108-5.108 9.58-10.14 13.554-15.228 9.511 5.635 19.944 9.689 30.789 11.962-4.006 8.62-9.677 17.166-20.545 28.034-17.641 17.641-29.488 21.701-44.489 26.841-13.853 4.747-29.531 10.126-48.388 25.448-8.491-6.375-16.596-13.395-24.144-20.944-.648-.647-1.287-1.314-1.93-1.973zm38.994 48.939c-2.072-.2-3.942-1.195-5.267-2.802-1.984-2.526-2.839-7.403 1.059-10.973 17.126-14.111 31.062-18.886 44.539-23.504 15.497-5.311 30.136-10.327 50.233-30.425 18.401-18.401 24.125-32.071 29.23-46.775.683-1.966 2.09-3.548 3.964-4.456 1.076-.521 2.232-.784 3.394-.784.861 0 1.726.144 2.563.435 1.967.683 3.55 2.091 4.457 3.965.908 1.874 1.032 3.989.349 5.957-5.315 15.309-12.237 31.986-32.934 52.683-22.652 22.653-39.707 28.497-56.203 34.149-12.722 4.36-24.738 8.478-39.68 20.789-1.606 1.322-3.632 1.935-5.704 1.741zm279.568-46.955c-27.737 27.738-61.486 47.345-98.709 57.546 19.355-21.442 25.132-39.366 29.864-54.062 5.167-15.54 7.705-24.487 24.755-42.105 12.468-12.468 21.776-17.241 29.238-20.266 4.151-1.684 8.407-3.054 12.913-4.505 15.859-5.107 35.543-11.458 59.375-34.907-10.222 37.051-29.765 70.63-57.436 98.299zm83.736-174.986c-1.309 3.53-2.418 6.972-3.601 10.646-5.174 16.062-10.522 32.67-32.265 54.412-21.74 21.74-38.348 27.088-54.408 32.26-4.776 1.538-9.288 2.991-13.951 4.882-8.855 3.59-19.845 9.196-34.209 23.561-19.454 20.342-21.839 28.789-28.439 48.158-5.172 16.06-10.519 32.666-32.26 54.406-21.736 21.737-38.342 27.085-54.41 32.259-4.848 1.521-10.474 1.476-12.637-4.092-.645-1.98-.479-4.092.466-5.948s2.555-3.232 4.519-3.871c16.519-5.184 32.087-10.077 51.893-30.231 2.907-2.95 2.873-7.699-.077-10.606-2.949-2.908-7.698-2.874-10.606.077-16.648 17.144-29.953 21.563-45.834 26.491-3.55 1.155-6.687 3.122-9.225 5.717-19.97-2.956-39.285-8.546-57.625-16.664 6.39-3.321 12.583-5.446 19.615-7.856 16.411-5.624 36.836-12.622 61.946-37.732 22.941-22.942 30.609-41.415 36.496-58.369.436-1.255.739-2.533.951-3.818 16.225-4.738 31.03-13.485 43.083-25.538 12.546-12.547 21.48-28.015 26.074-44.996 1.128-.203 2.255-.483 3.371-.866 16.009-5.49 35.933-12.323 61.024-37.414 25.107-25.108 31.812-44.677 37.73-61.948 1.879-5.485 3.578-10.426 5.789-15.341 7.166 16.529 12.294 33.859 15.301 51.726-3.326 2.576-5.892 6.015-7.39 10.057-1.546 4.165-2.812 8.1-4.037 11.904-4.614 14.326-8.259 25.641-24.779 42.161-16.518 16.518-27.831 20.161-42.163 24.776-5.092 1.64-10.356 3.336-16.062 5.648-16.359 6.633-30.035 15.971-44.344 30.278-24.433 25.627-27.914 37.125-35.926 60.412-1.703 5.289-3.312 10.284-5.482 15.218-1.669 3.791.052 8.217 3.843 9.886 3.794 1.669 8.219-.052 9.886-3.844 2.483-5.642 4.207-10.995 6.036-16.676 6.646-19.793 10.287-31.486 32.251-54.389 12.819-12.819 24.963-21.141 39.372-26.983 5.193-2.105 10.191-3.715 15.032-5.274 14.957-4.817 29.085-9.366 48.164-28.445 19.081-19.081 23.632-33.21 28.45-48.17 1.175-3.651 2.391-7.427 3.822-11.286.724-1.951 2.163-3.503 4.056-4.372 1.892-.869 4.008-.948 5.962-.224 4.03 1.494 6.093 5.988 4.598 10.018z"/></g></svg>