<svg id="Capa_1" enable-background="new 0 0 512 512" height="512" viewBox="0 0 512 512" width="512" xmlns="http://www.w3.org/2000/svg"><g><g><path d="m346.5 451.5h-60v-404h57.479l2.521 97z" fill="#ffe07d"/><path d="m306.5 47.5v404h-20l-5.16-221.181 5.16-182.819z" fill="#ffd064"/><path d="m286.5 503.5h-60v-463h60l-2.479 137.904 2.479 21.096z" fill="#ffe07d"/><path d="m246.5 40.5v463h-20l-8.19-275.223 8.19-187.777z" fill="#ffd064"/><path d="m196.5 504.5c-16.569 0-30-13.431-30-30l5.564-263.245-1.702-157.617 56.138-6.138v427c0 16.569-13.431 30-30 30z" fill="#ffe07d"/><path d="m206.5 502.78c-3.13 1.12-6.49 1.72-10 1.72-16.57 0-30-13.43-30-30v-373.798l3.266-53.202h16.734v427c0 13.06 8.34 24.17 20 28.28z" fill="#ffd064"/><path d="m346.5 37.5v107c0 5.732-3.217 10.712-7.943 13.235-2.29 1.223-4.934 1.429-7.737 1.305-8.09-.35-13.82-7.004-13.82-15.104v-15.149c0-8.52-7.55-15.048-16.17-14.638-8.06.38-13.957 2.909-13.957 10.979l-.373-87.628c0-8.28 3.965-14.687 9.395-20.117s12.93-8.79 21.21-8.79c3.508 0 6.27-.491 9.399.615 11.651 4.119 19.996 15.23 19.996 28.292z" fill="#8e5644"/><path d="m335.19 159.04c-1.39.35-2.86.51-4.37.44 1.51.06 2.98-.09 4.37-.44z" fill="#8e5644"/><path d="m326.5 9.22c-4.26 1.5-8.08 3.94-11.21 7.07-5.43 5.43-8.79 12.93-8.79 21.21v77.86c-1.78-.63-3.71-.94-5.73-.84-8.06.38-14.27 7.33-14.27 15.4l-2.479-47.728 2.479-44.692c0-8.28 3.36-15.78 8.79-21.21s12.93-8.79 21.21-8.79c3.51 0 6.87.6 10 1.72z" fill="#824d3f"/><path d="m286.5 37.5v162c0 5.526-2.99 10.352-7.438 12.953-2.402 1.404-5.23.893-8.242.76-8.09-.35-13.224-6.198-13.224-14.298l-.787-69.872c0-6.526-4.343-11.802-10.17-13.862-1.78-.629-4.121-1.809-6.138-1.713-4.371.206-8.815 2.347-11.33 5.832-2.122 2.941-2.67 6.927-2.67 10.62l.798-91.771c0-8.28 2.995-15.676 8.426-21.106 5.43-5.43 11.997-8.502 20.277-8.502 3.507 0 7.374-.437 10.503.67 4.259 1.507 8.076 3.95 11.207 7.08 5.428 5.429 8.788 12.929 8.788 21.209z" fill="#8e5644"/><path d="m279.06 212.45c-2.4 1.41-5.23 2.16-8.24 2.03-8.09-.35-14.32-7.35-14.32-15.45v-69.53c0-6.53-4.17-12.08-10-14.14-.55-.19-1.14-.46-1.75-.73 5.34.03 15.37.24 16.75.73 5.83 2.06 10 7.61 10 14.14v69.53c0 5.63 3.01 10.72 7.56 13.42z" fill="#824d3f"/><path d="m266.5 9.22c-4.26 1.5-8.08 3.94-11.21 7.07-5.43 5.43-8.79 12.93-8.79 21.21v77.86c-1.78-.63-3.71-.94-5.73-.84-8.06.38-14.27 7.33-14.27 15.4l-5.415-51.686 5.415-40.734c0-8.28 3.36-15.78 8.79-21.21s12.93-8.79 21.21-8.79c3.51 0 6.87.6 10 1.72z" fill="#824d3f"/><path d="m240.5 114.52h.27c-.09 0-.18.01-.27.02z" fill="#8e5644"/><path d="m273.36 214.38c-.83.1-1.68.14-2.54.1.86.03 1.71 0 2.54-.1z" fill="#8e5644"/><path d="m252.49 119.3c.42.44.8.9 1.14 1.39-.35-.49-.73-.95-1.14-1.39z" fill="#824d3f"/><path d="m226.5 37.5v122c0 5.735-3.366 10.722-8.193 13.245-2.344 1.225-4.971 1.272-7.786 1.138-7.9-.37-13.521-6.877-13.521-14.777l-.191-29.66c0-6.53-4.174-12.027-10-14.087-1.508-.533-2.433-1.839-4.119-1.86-8.35-.1-15.19-6.65-15.19-15l.223-60.691c0-8.28 3.336-16.017 8.766-21.447s11.731-7.66 20.011-7.66c3.507 0 6.874-.599 10.003.508 4.259 1.507 8.076 3.95 11.207 7.08 5.43 5.431 8.79 12.931 8.79 21.211z" fill="#8e5644"/><g fill="#824d3f"><path d="m312.29 119.09c-.07-.07-.14-.14-.22-.21-.07-.09-.15-.17-.24-.25.08.07.17.15.25.24.07.07.14.14.21.22z"/><path d="m312.49 119.3c.42.44.8.9 1.14 1.39-.35-.49-.73-.95-1.14-1.39z"/><path d="m218.31 172.75c-2.34 1.22-5.03 1.86-7.85 1.73-7.9-.37-13.96-7.2-13.96-15.1v-29.88c0-6.53-4.17-12.09-10-14.15-.49-.18-.89-.43-1.25-.69 3.62.15 10.61.47 13.71.62 1.12.05 2.23.29 3.24.79 4.92 2.46 8.3 7.55 8.3 13.43v29.88c0 5.67 3.12 10.79 7.81 13.37z"/><path d="m206.5 9.22c-4.26 1.5-8.08 3.94-11.21 7.07-5.43 5.43-8.79 12.93-8.79 21.21v77.86c-1.51-.54-3.12-.84-4.81-.86-8.35-.1-15.19-6.65-15.19-15v-62c0-8.28 3.36-15.78 8.79-21.21s12.93-8.79 21.21-8.79c3.51 0 6.87.6 10 1.72z"/></g><path d="m314.5 502.5h-116c-22.091 0-40-17.909-40-40l2.676-86.252 191.307-.907 4.017 26.27v62.89c0 7.286-1.948 14.116-5.351 19.999-6.916 11.956-21.843 18-36.649 18z" fill="#e8e8e8"/><path d="m256.02 428.93c35.31 0 70.15-9.58 100.48-27.32v-31.11h-180-20v31.66 62.34c0 22.091 17.909 40 40 40h120c14.8 0 27.73-8.04 34.65-20h-154.65c-11.046 0-20-8.954-20-20v-47.75c0-2.13 2.157-3.581 4.127-2.773 23.819 9.769 49.486 14.953 75.393 14.953z" fill="#d8d8d8"/><path d="m366.696 370.503c-55.041 43.453-129.301 50.064-190.199 19.763-2.664-1.325-5.271-4.309-7.88-5.776-7.829-4.4-15.006-8.084-22.252-13.755l-.599-.468c-2.422-1.895-3.66-4.786-3.66-7.862l-.128-13.915c0-5.523 4.477-10 10-10l24.522-.99h184c5.523 0 10 4.477 10 10v15.154c0 3.06-1.401 5.952-3.804 7.849z" fill="#f8f7f7"/><path d="m176.5 337.5v52.76c-10.65-5.3-20.9-11.73-30.56-19.29l-.6-.47c-2.42-1.89-3.84-4.8-3.84-7.87v-15.13c0-5.52 4.48-10 10-10z" fill="#e8e8e8"/><path d="m240.5 114.52h.27c-.09 0-.18.01-.27.02z" fill="#824d3f"/><path d="m338.56 157.74c-.553.207-.957.592-3.37 1.3-.6.15-1.21.26-1.83.34-.83.1-1.68.13-2.54.1-8.09-.35-14.32-7.35-14.32-15.45v-14.53c.149-6.605-5.141-14.405-14.23-14.98h12.5c8.62-.41 15.73 6.46 15.73 14.98v14.53c0 5.83 3.23 11.09 8.06 13.71z" fill="#824d3f"/><path d="m312.08 118.87-.01.01c-.07-.09-.15-.17-.24-.25.08.07.17.15.25.24z" fill="#8e5644"/></g><path d="m360.5 330h-6.5c.001-31.119-.001-198.535 0-225.34 0-4.142-3.357-7.5-7.5-7.5s-7.5 3.358-7.5 7.5v39.84c0 2.066-.822 3.991-2.316 5.42-1.492 1.428-3.465 2.153-5.532 2.072-3.943-.174-7.151-3.746-7.151-7.963v-14.529c0-6.121-2.541-12.055-6.971-16.281-4.493-4.287-10.415-6.482-16.607-6.193-2.247.106-4.402.544-6.422 1.266v-70.792c0-12.407 10.094-22.5 22.5-22.5s22.499 10.093 22.499 22.5v31.798c0 4.142 3.357 7.5 7.5 7.5s7.5-3.358 7.5-7.5v-31.798c0-20.678-16.822-37.5-37.5-37.5-12.253 0-23.152 5.907-30 15.023-6.848-9.116-17.747-15.023-30-15.023s-23.152 5.907-30 15.023c-6.848-9.116-17.747-15.023-30-15.023-20.678 0-37.5 16.822-37.5 37.5.001 38.535 0 125.429 0 164.479 0 4.142 3.357 7.5 7.5 7.5s7.5-3.358 7.5-7.5v-81.317c2.365.834 4.918 1.306 7.596 1.339 4.083.05 7.404 3.415 7.404 7.5v29.876c0 12.12 9.272 22.046 21.11 22.599 3.035.145 6.06-.338 8.89-1.37v149.394h-45v-93.127c0-4.142-3.357-7.5-7.5-7.5s-7.5 3.358-7.5 7.5v93.127h-7.5c-9.649 0-17.5 7.851-17.5 17.5v15.128c0 5.418 2.447 10.441 6.716 13.782l.598.467c2.521 1.973 5.087 3.866 7.687 5.697v35.83c0 4.142 3.357 7.5 7.5 7.5s7.5-3.358 7.5-7.5v-26.284c27.963 15.963 59.435 24.323 91.761 24.323 6.8 0 13.645-.371 20.495-1.118 4.117-.449 7.092-4.151 6.643-8.269-.45-4.117-4.146-7.097-8.27-6.642-44.662 4.87-88.72-7.683-124.072-35.351l-.598-.467c-.609-.477-.959-1.195-.959-1.969v-15.127c0-1.378 1.121-2.5 2.5-2.5h209c1.379 0 2.5 1.122 2.5 2.5v15.154c0 .77-.347 1.485-.951 1.962-16.388 12.938-34.752 22.665-54.581 28.909-3.95 1.244-6.145 5.456-4.9 9.407 1.244 3.951 5.452 6.145 9.406 4.901 12.961-4.081 25.339-9.539 37.026-16.29v72.957c0 17.92-14.579 32.5-32.5 32.5h-120c-17.921 0-32.5-14.58-32.5-32.5v-11.373c0-4.142-3.357-7.5-7.5-7.5s-7.5 3.358-7.5 7.5v11.373c0 26.191 21.309 47.5 47.5 47.5h120c26.191 0 47.5-21.309 47.5-47.5v-82.605c2.485-1.773 4.936-3.605 7.344-5.506 4.23-3.339 6.656-8.346 6.656-13.736v-15.153c-.001-9.649-7.852-17.5-17.501-17.5zm-59.373-207.991c2.095-.095 4.052.634 5.549 2.063 1.499 1.43 2.324 3.358 2.324 5.428v14.529c0 12.337 9.44 22.417 21.49 22.948 2.945.13 5.82-.308 8.51-1.257v164.28h-45c0-45.881 0-155.625 0-200.076 0-4.179 3.197-7.73 7.127-7.915zm-44.627-107.009c12.406 0 22.5 10.093 22.5 22.5v162c0 2.066-.822 3.991-2.316 5.42-1.491 1.428-3.441 2.165-5.532 2.072-3.943-.174-7.151-3.746-7.151-7.963v-69.529c0-6.121-2.541-12.055-6.971-16.281-4.493-4.287-10.422-6.482-16.607-6.193-2.247.106-4.402.544-6.422 1.266v-70.792c-.001-12.407 10.093-22.5 22.499-22.5zm-45.69 151.991c-3.755-.175-6.81-3.591-6.81-7.615v-29.876c0-12.254-9.968-22.347-22.22-22.499-4.362-.053-7.78-3.349-7.78-7.501v-62c0-12.407 10.094-22.5 22.5-22.5s22.5 10.093 22.5 22.5v122c0 1.972-.827 3.847-2.328 5.28-1.577 1.506-3.716 2.306-5.862 2.211zm23.19-37.067c0-4.179 3.197-7.73 7.127-7.915 2.087-.095 4.052.634 5.549 2.063 1.499 1.43 2.324 3.358 2.324 5.428v69.529c0 12.337 9.44 22.417 21.491 22.948 2.361.071 4.51-.094 8.509-1.275v109.298h-45c-.034-1.395-.032-198.486 0-200.076z"/></g></svg>